<svg width="864" height="500" viewBox="0 0 864 500" fill="none" xmlns="http://www.w3.org/2000/svg">
<path opacity="0.5" d="M310.087 144.402L155.04 363.66L0 144.402H310.087Z" fill="#00F9D8"/>
<path d="M10.783 299.255C10.5521 299.024 10.4336 298.743 10.4336 298.413V231.331C10.4336 231.001 10.5459 230.72 10.783 230.489C11.0139 230.258 11.2947 230.139 11.6253 230.139H36.4338C41.3942 230.139 45.7432 231.019 49.4807 232.766C53.2182 234.52 56.1133 236.984 58.1661 240.16C60.2189 243.336 61.2422 247.005 61.2422 251.173V278.558C61.2422 282.726 60.2189 286.395 58.1661 289.571C56.1133 292.747 53.2182 295.212 49.4807 296.965C45.7432 298.718 41.3942 299.592 36.4338 299.592H11.6253C11.2947 299.592 11.0139 299.48 10.783 299.242V299.255ZM24.9218 287.593H36.9267C39.9716 287.593 42.4362 286.57 44.3206 284.517C46.2049 282.471 47.1783 279.719 47.2469 276.281V253.457C47.2469 250.019 46.3048 247.273 44.4204 245.22C42.5361 243.168 40.0028 242.144 36.8269 242.144H24.9218C24.5911 242.144 24.4289 242.313 24.4289 242.637V287.094C24.4289 287.425 24.5911 287.587 24.9218 287.587V287.593Z" fill="#0A0A80"/>
<path d="M77.908 299.255C77.6771 299.024 77.5586 298.743 77.5586 298.413V231.331C77.5586 231.001 77.6709 230.72 77.908 230.489C78.1389 230.258 78.4196 230.139 78.7503 230.139H90.3621C90.6928 230.139 90.9736 230.258 91.2045 230.489C91.4353 230.72 91.5539 231.001 91.5539 231.331V298.413C91.5539 298.743 91.4353 299.024 91.2045 299.255C90.9736 299.486 90.6928 299.604 90.3621 299.604H78.7503C78.4196 299.604 78.1389 299.492 77.908 299.255Z" fill="#0A0A80"/>
<path d="M120.049 297.321C116.143 295.268 113.116 292.41 110.97 288.735C108.817 285.066 107.744 280.811 107.744 275.981V253.756C107.744 248.927 108.817 244.659 110.97 240.959C113.116 237.253 116.143 234.395 120.049 232.373C123.948 230.358 128.447 229.347 133.545 229.347C138.642 229.347 143.023 230.339 146.891 232.323C150.76 234.308 153.773 237.003 155.92 240.41C158.066 243.817 159.146 247.604 159.146 251.772V252.465C159.146 252.795 159.027 253.076 158.796 253.307C158.565 253.538 158.284 253.656 157.954 253.656H146.342C146.011 253.656 145.731 253.544 145.5 253.307C145.269 253.076 145.15 252.795 145.15 252.465V252.165C145.15 249.12 144.09 246.556 141.974 244.472C139.859 242.388 137.045 241.346 133.538 241.346C130.032 241.346 127.105 242.456 124.953 244.671C122.8 246.886 121.727 249.782 121.727 253.357V276.381C121.727 279.956 122.881 282.845 125.202 285.066C127.517 287.281 130.462 288.392 134.031 288.392C137.6 288.392 140.215 287.481 142.268 285.665C144.32 283.843 145.344 281.316 145.344 278.072V273.604C145.344 273.274 145.175 273.111 144.851 273.111H133.738C133.407 273.111 133.127 272.999 132.896 272.762C132.665 272.531 132.546 272.25 132.546 271.92V262.791C132.546 262.46 132.659 262.18 132.896 261.949C133.133 261.718 133.407 261.599 133.738 261.599H157.948C158.278 261.599 158.559 261.718 158.79 261.949C159.021 262.18 159.139 262.46 159.139 262.791V275.888C159.139 280.917 158.079 285.285 155.963 288.985C153.848 292.691 150.853 295.518 146.985 297.47C143.116 299.423 138.63 300.397 133.538 300.397C128.447 300.397 123.948 299.374 120.042 297.321H120.049Z" fill="#0A0A80"/>
<path d="M175.568 299.255C175.337 299.024 175.219 298.743 175.219 298.413V231.331C175.219 231.001 175.331 230.72 175.568 230.489C175.799 230.258 176.08 230.139 176.411 230.139H188.022C188.353 230.139 188.634 230.258 188.865 230.489C189.096 230.72 189.214 231.001 189.214 231.331V298.413C189.214 298.743 189.096 299.024 188.865 299.255C188.634 299.486 188.353 299.604 188.022 299.604H176.411C176.08 299.604 175.799 299.492 175.568 299.255Z" fill="#0A0A80"/>
<path d="M253.394 230.489C253.625 230.72 253.743 231.001 253.743 231.331V241.052C253.743 241.383 253.625 241.664 253.394 241.895C253.163 242.126 252.882 242.244 252.551 242.244H234.787C234.457 242.244 234.294 242.413 234.294 242.737V298.406C234.294 298.737 234.176 299.018 233.945 299.249C233.714 299.48 233.433 299.598 233.103 299.598H221.491C221.16 299.598 220.879 299.486 220.649 299.249C220.418 299.018 220.299 298.737 220.299 298.406V242.737C220.299 242.406 220.131 242.244 219.806 242.244H202.541C202.211 242.244 201.93 242.132 201.699 241.895C201.468 241.664 201.35 241.383 201.35 241.052V231.331C201.35 231.001 201.462 230.72 201.699 230.489C201.93 230.258 202.211 230.139 202.541 230.139H252.551C252.882 230.139 253.163 230.258 253.394 230.489Z" fill="#0A0A80"/>
<path d="M300.984 298.612L298.007 288.885C297.876 288.623 297.708 288.485 297.515 288.485H273.105C272.906 288.485 272.744 288.617 272.612 288.885L269.736 298.612C269.536 299.274 269.106 299.604 268.444 299.604H255.841C255.441 299.604 255.148 299.492 254.948 299.255C254.749 299.024 254.717 298.675 254.848 298.213L276.281 231.132C276.481 230.47 276.912 230.139 277.573 230.139H293.153C293.814 230.139 294.245 230.47 294.445 231.132L315.878 298.213C315.94 298.344 315.977 298.512 315.977 298.706C315.977 299.305 315.615 299.598 314.885 299.598H302.282C301.62 299.598 301.19 299.267 300.99 298.606L300.984 298.612ZM276.575 277.672H294.039C294.438 277.672 294.569 277.473 294.438 277.08L285.51 247.61C285.441 247.348 285.341 247.23 285.21 247.261C285.079 247.292 284.979 247.411 284.911 247.61L276.175 277.08C276.107 277.479 276.238 277.672 276.575 277.672Z" fill="#0A0A80"/>
<path d="M328.461 299.255C328.23 299.024 328.111 298.743 328.111 298.413V231.331C328.111 231.001 328.224 230.72 328.461 230.489C328.692 230.258 328.972 230.139 329.303 230.139H340.915C341.246 230.139 341.526 230.258 341.757 230.489C341.988 230.72 342.107 231.001 342.107 231.331V287.1C342.107 287.431 342.269 287.593 342.6 287.593H375.045C375.376 287.593 375.657 287.712 375.888 287.943C376.118 288.174 376.237 288.454 376.237 288.785V298.413C376.237 298.743 376.118 299.024 375.888 299.255C375.657 299.486 375.376 299.604 375.045 299.604H329.303C328.972 299.604 328.692 299.492 328.461 299.255Z" fill="#0A0A80"/>
<path d="M462.519 241.801C462.288 242.032 462.007 242.151 461.676 242.151H429.131C428.8 242.151 428.638 242.319 428.638 242.644V258.024C428.638 258.355 428.8 258.517 429.131 258.517H450.464C450.795 258.517 451.075 258.636 451.306 258.866C451.537 259.097 451.656 259.378 451.656 259.709V269.336C451.656 269.667 451.537 269.948 451.306 270.179C451.075 270.41 450.795 270.528 450.464 270.528H429.131C428.8 270.528 428.638 270.697 428.638 271.021V287.094C428.638 287.425 428.8 287.587 429.131 287.587H461.676C462.007 287.587 462.288 287.706 462.519 287.936C462.75 288.167 462.868 288.448 462.868 288.779V298.406C462.868 298.737 462.75 299.018 462.519 299.249C462.288 299.48 462.007 299.598 461.676 299.598H415.834C415.504 299.598 415.223 299.486 414.992 299.249C414.761 299.018 414.643 298.737 414.643 298.406V231.325C414.643 230.994 414.755 230.714 414.992 230.483C415.223 230.252 415.504 230.133 415.834 230.133H461.676C462.007 230.133 462.288 230.252 462.519 230.483C462.75 230.714 462.868 230.994 462.868 231.325V240.953C462.868 241.283 462.75 241.564 462.519 241.795V241.801Z" fill="#0A0A80"/>
<path d="M485.9 297.371C481.994 295.355 478.986 292.522 476.871 288.885C474.756 285.247 473.695 281.048 473.695 276.281V253.357C473.695 248.596 474.75 244.391 476.871 240.753C478.986 237.115 481.994 234.301 485.9 232.317C489.8 230.333 494.336 229.341 499.496 229.341C504.656 229.341 509.074 230.283 512.942 232.167C516.811 234.052 519.824 236.735 521.971 240.204C524.117 243.679 525.197 247.698 525.197 252.259C525.197 252.858 524.797 253.22 524.005 253.351L512.393 254.043H512.193C511.532 254.043 511.201 253.681 511.201 252.951C511.201 249.445 510.128 246.637 507.975 244.515C505.823 242.4 502.996 241.339 499.49 241.339C495.983 241.339 493.057 242.4 490.904 244.515C488.751 246.631 487.678 249.445 487.678 252.951V276.867C487.678 280.305 488.751 283.088 490.904 285.204C493.05 287.319 495.914 288.379 499.49 288.379C503.065 288.379 505.823 287.319 507.975 285.204C510.122 283.088 511.201 280.312 511.201 276.867C511.201 276.137 511.601 275.776 512.393 275.776L524.005 276.268C524.335 276.268 524.616 276.368 524.847 276.568C525.078 276.768 525.197 276.998 525.197 277.261C525.197 281.828 524.123 285.859 521.971 289.365C519.818 292.872 516.811 295.586 512.942 297.502C509.074 299.423 504.587 300.378 499.496 300.378C494.404 300.378 489.806 299.367 485.9 297.352V297.371Z" fill="#0A0A80"/>
<path d="M549.829 297.52C545.892 295.405 542.835 292.448 540.651 288.642C538.467 284.842 537.375 280.455 537.375 275.495V254.262C537.375 249.364 538.467 245.033 540.651 241.265C542.835 237.496 545.892 234.57 549.829 232.486C553.766 230.402 558.315 229.36 563.475 229.36C568.635 229.36 573.284 230.402 577.221 232.486C581.158 234.57 584.215 237.496 586.399 241.265C588.583 245.033 589.675 249.37 589.675 254.262V275.495C589.675 280.455 588.583 284.854 586.399 288.691C584.215 292.529 581.158 295.486 577.221 297.57C573.284 299.654 568.704 300.696 563.475 300.696C558.246 300.696 553.766 299.636 549.829 297.52ZM572.304 285.216C574.55 282.901 575.68 279.825 575.68 275.988V254.156C575.68 250.318 574.569 247.23 572.354 244.877C570.139 242.531 567.175 241.352 563.475 241.352C559.775 241.352 556.911 242.525 554.69 244.877C552.475 247.223 551.364 250.318 551.364 254.156V275.988C551.364 279.825 552.468 282.901 554.69 285.216C556.905 287.531 559.831 288.691 563.475 288.691C567.119 288.691 570.058 287.537 572.304 285.216Z" fill="#0A0A80"/>
<path d="M643.622 230.489C643.853 230.258 644.134 230.139 644.464 230.139H656.076C656.407 230.139 656.688 230.258 656.918 230.489C657.149 230.72 657.268 231.001 657.268 231.331V298.413C657.268 298.743 657.149 299.024 656.918 299.255C656.688 299.486 656.407 299.604 656.076 299.604H644.864C644.202 299.604 643.741 299.342 643.472 298.812L617.772 256.339C617.641 256.14 617.51 256.059 617.372 256.09C617.241 256.121 617.173 256.271 617.173 256.539L617.372 298.413C617.372 298.743 617.254 299.024 617.023 299.255C616.792 299.486 616.511 299.604 616.18 299.604H604.569C604.238 299.604 603.957 299.492 603.726 299.255C603.496 299.024 603.377 298.743 603.377 298.413V231.331C603.377 231.001 603.489 230.72 603.726 230.489C603.957 230.258 604.238 230.139 604.569 230.139H615.781C616.443 230.139 616.904 230.408 617.173 230.932L642.773 273.205C642.905 273.404 643.036 273.486 643.173 273.454C643.304 273.423 643.372 273.273 643.372 273.005L643.273 231.331C643.273 231.001 643.385 230.72 643.622 230.489Z" fill="#0A0A80"/>
<path d="M683.493 297.52C679.556 295.405 676.499 292.448 674.315 288.642C672.131 284.842 671.039 280.455 671.039 275.495V254.262C671.039 249.364 672.131 245.033 674.315 241.265C676.499 237.496 679.556 234.57 683.493 232.486C687.43 230.402 691.979 229.36 697.139 229.36C702.299 229.36 706.948 230.402 710.885 232.486C714.822 234.57 717.879 237.496 720.063 241.265C722.247 245.033 723.339 249.37 723.339 254.262V275.495C723.339 280.455 722.247 284.854 720.063 288.691C717.879 292.529 714.822 295.486 710.885 297.57C706.948 299.654 702.368 300.696 697.139 300.696C691.91 300.696 687.43 299.636 683.493 297.52ZM705.968 285.216C708.214 282.901 709.344 279.825 709.344 275.988V254.156C709.344 250.318 708.233 247.23 706.018 244.877C703.803 242.531 700.839 241.352 697.139 241.352C693.439 241.352 690.575 242.525 688.354 244.877C686.139 247.223 685.028 250.318 685.028 254.156V275.988C685.028 279.825 686.133 282.901 688.354 285.216C690.569 287.531 693.495 288.691 697.139 288.691C700.783 288.691 703.722 287.537 705.968 285.216Z" fill="#0A0A80"/>
<path d="M783.088 230.139H794.7C795.03 230.139 795.311 230.258 795.542 230.489C795.773 230.72 795.891 231.001 795.891 231.331V298.413C795.891 298.743 795.773 299.024 795.542 299.255C795.311 299.486 795.03 299.604 794.7 299.604H783.088C782.757 299.604 782.476 299.492 782.245 299.255C782.014 299.024 781.896 298.743 781.896 298.413V254.655C781.896 254.393 781.827 254.262 781.696 254.262C781.565 254.262 781.434 254.361 781.297 254.561L770.777 271.033C770.446 271.564 769.985 271.826 769.386 271.826H763.533C762.94 271.826 762.472 271.564 762.142 271.033L751.622 254.561C751.491 254.361 751.36 254.28 751.222 254.311C751.091 254.343 751.023 254.492 751.023 254.761V298.419C751.023 298.75 750.904 299.03 750.673 299.261C750.442 299.492 750.162 299.611 749.831 299.611H738.219C737.888 299.611 737.608 299.498 737.377 299.261C737.146 299.03 737.027 298.75 737.027 298.419V231.337C737.027 231.007 737.14 230.726 737.377 230.495C737.608 230.264 737.888 230.146 738.219 230.146H749.831C750.424 230.146 750.885 230.414 751.222 230.938L766.104 254.056C766.303 254.455 766.503 254.455 766.696 254.056L781.678 230.938C782.008 230.408 782.47 230.146 783.069 230.146L783.088 230.139Z" fill="#0A0A80"/>
<path d="M829.205 299.155C828.974 298.924 828.855 298.643 828.855 298.313V273.205C828.855 272.943 828.824 272.743 828.756 272.606L808.315 231.525C808.184 231.263 808.115 231.063 808.115 230.932C808.115 230.402 808.477 230.139 809.207 230.139H821.711C822.373 230.139 822.834 230.439 823.103 231.032L835.507 257.425C835.707 257.824 835.906 257.824 836.106 257.425L848.51 231.032C848.772 230.439 849.24 230.139 849.901 230.139H862.605C863.067 230.139 863.379 230.258 863.547 230.489C863.71 230.72 863.697 231.069 863.497 231.531L842.857 272.612C842.788 272.743 842.757 272.943 842.757 273.211V298.319C842.757 298.65 842.639 298.93 842.408 299.161C842.177 299.392 841.896 299.511 841.565 299.511H830.054C829.723 299.511 829.442 299.398 829.211 299.161L829.205 299.155Z" fill="#0A0A80"/>
<path d="M107.738 401.515L104.761 391.787C104.63 391.525 104.462 391.388 104.268 391.388H79.8593C79.6597 391.388 79.4974 391.519 79.3664 391.787L76.49 401.515C76.2903 402.176 75.8598 402.507 75.1984 402.507H62.5945C62.1952 402.507 61.9019 402.395 61.7022 402.158C61.5026 401.927 61.4714 401.577 61.6024 401.116L83.0353 334.034C83.2349 333.373 83.6654 333.042 84.3268 333.042H99.907C100.568 333.042 100.999 333.373 101.199 334.034L122.631 401.116C122.694 401.247 122.731 401.415 122.731 401.609C122.731 402.208 122.369 402.501 121.639 402.501H109.035C108.374 402.501 107.944 402.17 107.744 401.509L107.738 401.515ZM83.3285 380.575H100.793C101.192 380.575 101.323 380.375 101.192 379.982L92.2635 350.513C92.1949 350.251 92.0951 350.132 91.964 350.163C91.833 350.195 91.7332 350.313 91.6645 350.513L82.9292 379.982C82.8605 380.382 82.9916 380.575 83.3285 380.575Z" fill="#0A0A80"/>
<path d="M173.616 333.392C173.847 333.161 174.128 333.042 174.459 333.042H186.07C186.401 333.042 186.682 333.161 186.913 333.392C187.144 333.622 187.262 333.903 187.262 334.234V401.315C187.262 401.646 187.144 401.927 186.913 402.158C186.682 402.388 186.401 402.507 186.07 402.507H174.858C174.196 402.507 173.735 402.245 173.466 401.715L147.766 359.242C147.635 359.042 147.504 358.961 147.366 358.992C147.235 359.024 147.167 359.173 147.167 359.442L147.366 401.315C147.366 401.646 147.248 401.927 147.017 402.158C146.786 402.388 146.505 402.507 146.175 402.507H134.563C134.232 402.507 133.951 402.395 133.721 402.158C133.49 401.927 133.371 401.646 133.371 401.315V334.234C133.371 333.903 133.483 333.622 133.721 333.392C133.951 333.161 134.232 333.042 134.563 333.042H145.775C146.437 333.042 146.898 333.31 147.167 333.835L172.768 376.107C172.899 376.307 173.03 376.388 173.167 376.357C173.298 376.326 173.367 376.176 173.367 375.908L173.267 334.234C173.267 333.903 173.379 333.622 173.616 333.392Z" fill="#0A0A80"/>
<path d="M241.069 333.392C241.3 333.161 241.581 333.042 241.912 333.042H253.523C253.854 333.042 254.135 333.161 254.366 333.392C254.597 333.622 254.715 333.903 254.715 334.234V401.315C254.715 401.646 254.597 401.927 254.366 402.158C254.135 402.388 253.854 402.507 253.523 402.507H242.311C241.65 402.507 241.188 402.245 240.92 401.715L215.219 359.242C215.088 359.042 214.957 358.961 214.82 358.992C214.689 359.024 214.62 359.173 214.62 359.442L214.82 401.315C214.82 401.646 214.701 401.927 214.47 402.158C214.239 402.388 213.958 402.507 213.628 402.507H202.016C201.685 402.507 201.405 402.395 201.174 402.158C200.943 401.927 200.824 401.646 200.824 401.315V334.234C200.824 333.903 200.937 333.622 201.174 333.392C201.405 333.161 201.685 333.042 202.016 333.042H213.228C213.89 333.042 214.352 333.31 214.62 333.835L240.221 376.107C240.352 376.307 240.483 376.388 240.62 376.357C240.751 376.326 240.82 376.176 240.82 375.908L240.72 334.234C240.72 333.903 240.832 333.622 241.069 333.392Z" fill="#0A0A80"/>
<path d="M280.174 400.323C276.306 398.339 273.292 395.544 271.146 391.937C268.993 388.331 267.92 384.181 267.92 379.483V334.234C267.92 333.903 268.032 333.622 268.269 333.392C268.5 333.161 268.781 333.042 269.112 333.042H280.723C281.054 333.042 281.335 333.161 281.566 333.392C281.797 333.622 281.915 333.903 281.915 334.234V379.583C281.915 383.09 282.988 385.916 285.141 388.069C287.287 390.221 290.12 391.295 293.627 391.295C297.133 391.295 299.96 390.221 302.113 388.069C304.259 385.922 305.338 383.09 305.338 379.583V334.234C305.338 333.903 305.451 333.622 305.688 333.392C305.919 333.161 306.2 333.042 306.53 333.042H318.142C318.473 333.042 318.754 333.161 318.984 333.392C319.215 333.622 319.334 333.903 319.334 334.234V379.483C319.334 384.181 318.261 388.331 316.108 391.937C313.955 395.544 310.948 398.339 307.079 400.323C303.211 402.307 298.725 403.299 293.633 403.299C288.542 403.299 284.055 402.307 280.187 400.323H280.174Z" fill="#0A0A80"/>
<path d="M373.175 401.515L370.199 391.787C370.068 391.525 369.899 391.388 369.706 391.388H345.297C345.097 391.388 344.935 391.519 344.804 391.787L341.927 401.515C341.728 402.176 341.297 402.507 340.636 402.507H328.032C327.633 402.507 327.339 402.395 327.14 402.158C326.94 401.927 326.909 401.577 327.04 401.116L348.473 334.034C348.672 333.373 349.103 333.042 349.764 333.042H365.345C366.006 333.042 366.436 333.373 366.636 334.034L388.069 401.116C388.131 401.247 388.169 401.415 388.169 401.609C388.169 402.208 387.807 402.501 387.077 402.501H374.473C373.812 402.501 373.381 402.17 373.181 401.509L373.175 401.515ZM348.766 380.575H366.231C366.63 380.575 366.761 380.375 366.63 379.982L357.701 350.513C357.632 350.251 357.533 350.132 357.402 350.163C357.271 350.195 357.171 350.313 357.102 350.513L348.367 379.982C348.298 380.382 348.429 380.575 348.766 380.575Z" fill="#0A0A80"/>
<path d="M399.162 402.158C398.931 401.927 398.812 401.646 398.812 401.315V334.234C398.812 333.903 398.925 333.622 399.162 333.392C399.393 333.161 399.674 333.042 400.004 333.042H411.616C411.947 333.042 412.228 333.161 412.458 333.392C412.689 333.622 412.808 333.903 412.808 334.234V390.003C412.808 390.334 412.97 390.496 413.301 390.496H445.746C446.077 390.496 446.358 390.614 446.589 390.845C446.82 391.076 446.938 391.357 446.938 391.688V401.315C446.938 401.646 446.82 401.927 446.589 402.158C446.358 402.388 446.077 402.507 445.746 402.507H400.004C399.674 402.507 399.393 402.395 399.162 402.158Z" fill="#0A0A80"/>
<path d="M519.081 401.615L506.676 374.13C506.545 373.868 506.346 373.736 506.084 373.736H496.855C496.525 373.736 496.362 373.905 496.362 374.229V401.322C496.362 401.652 496.244 401.933 496.013 402.164C495.782 402.395 495.501 402.513 495.171 402.513H483.559C483.228 402.513 482.947 402.401 482.717 402.164C482.486 401.933 482.367 401.652 482.367 401.322V334.24C482.367 333.909 482.479 333.629 482.717 333.398C482.947 333.167 483.228 333.048 483.559 333.048H511.936C516.167 333.048 519.892 333.909 523.099 335.625C526.306 337.347 528.789 339.793 530.543 342.969C532.296 346.145 533.17 349.814 533.17 353.982C533.17 358.481 532.046 362.337 529.794 365.544C527.542 368.751 524.403 371.016 520.366 372.339C520.035 372.47 519.935 372.701 520.067 373.031L533.563 401.116C533.694 401.378 533.762 401.577 533.762 401.708C533.762 402.239 533.4 402.501 532.67 402.501H520.466C519.804 402.501 519.343 402.201 519.074 401.609L519.081 401.615ZM496.356 345.552V362.518C496.356 362.848 496.518 363.017 496.849 363.017H509.846C512.623 363.017 514.888 362.187 516.641 360.534C518.394 358.88 519.268 356.727 519.268 354.082C519.268 351.436 518.388 349.271 516.641 347.58C514.888 345.896 512.623 345.053 509.846 345.053H496.849C496.518 345.053 496.356 345.222 496.356 345.546V345.552Z" fill="#0A0A80"/>
<path d="M592.657 344.704C592.426 344.935 592.146 345.053 591.815 345.053H559.27C558.939 345.053 558.777 345.222 558.777 345.546V360.927C558.777 361.257 558.939 361.42 559.27 361.42H580.603C580.933 361.42 581.214 361.538 581.445 361.769C581.676 362 581.794 362.281 581.794 362.611V372.239C581.794 372.57 581.676 372.85 581.445 373.081C581.214 373.312 580.933 373.431 580.603 373.431H559.27C558.939 373.431 558.777 373.599 558.777 373.924V389.997C558.777 390.327 558.939 390.49 559.27 390.49H591.815C592.146 390.49 592.426 390.608 592.657 390.839C592.888 391.07 593.007 391.351 593.007 391.681V401.309C593.007 401.64 592.888 401.921 592.657 402.151C592.426 402.382 592.146 402.501 591.815 402.501H545.973C545.642 402.501 545.362 402.388 545.131 402.151C544.9 401.921 544.781 401.64 544.781 401.309V334.228C544.781 333.897 544.894 333.616 545.131 333.385C545.362 333.154 545.642 333.036 545.973 333.036H591.815C592.146 333.036 592.426 333.154 592.657 333.385C592.888 333.616 593.007 333.897 593.007 334.228V343.855C593.007 344.186 592.888 344.467 592.657 344.698V344.704Z" fill="#0A0A80"/>
<path d="M644.564 335.625C647.871 337.41 650.436 339.943 652.258 343.219C654.08 346.495 654.984 350.251 654.984 354.481C654.984 358.712 654.042 362.318 652.158 365.494C650.273 368.67 647.628 371.135 644.221 372.888C640.814 374.641 636.896 375.515 632.466 375.515H618.377C618.046 375.515 617.884 375.683 617.884 376.014V401.315C617.884 401.646 617.765 401.927 617.535 402.158C617.304 402.388 617.023 402.507 616.692 402.507H605.08C604.75 402.507 604.469 402.395 604.238 402.158C604.007 401.927 603.889 401.646 603.889 401.315V334.134C603.889 333.803 604.001 333.523 604.238 333.292C604.469 333.061 604.75 332.942 605.08 332.942H633.065C637.432 332.942 641.264 333.835 644.577 335.619L644.564 335.625ZM638.312 361.675C640.165 359.922 641.089 357.626 641.089 354.781C641.089 351.935 640.159 349.521 638.312 347.736C636.459 345.952 634.013 345.059 630.968 345.059H618.364C618.034 345.059 617.871 345.228 617.871 345.552V363.809C617.871 364.14 618.034 364.302 618.364 364.302H630.968C634.013 364.302 636.459 363.429 638.312 361.675Z" fill="#0A0A80"/>
<path d="M677.421 400.423C673.484 398.308 670.426 395.35 668.243 391.544C666.059 387.744 664.967 383.358 664.967 378.397V357.164C664.967 352.266 666.059 347.936 668.243 344.167C670.426 340.399 673.484 337.472 677.421 335.388C681.358 333.304 685.907 332.262 691.067 332.262C696.227 332.262 700.875 333.304 704.813 335.388C708.75 337.472 711.807 340.399 713.991 344.167C716.175 347.936 717.267 352.272 717.267 357.164V378.397C717.267 383.358 716.175 387.757 713.991 391.594C711.807 395.431 708.75 398.389 704.813 400.473C700.875 402.557 696.296 403.599 691.067 403.599C685.838 403.599 681.358 402.538 677.421 400.423ZM699.896 388.119C702.142 385.804 703.271 382.728 703.271 378.89V357.058C703.271 353.221 702.161 350.132 699.946 347.78C697.731 345.434 694.767 344.255 691.067 344.255C687.367 344.255 684.503 345.428 682.282 347.78C680.067 350.126 678.956 353.221 678.956 357.058V378.89C678.956 382.728 680.06 385.804 682.282 388.119C684.497 390.434 687.423 391.594 691.067 391.594C694.711 391.594 697.65 390.44 699.896 388.119Z" fill="#0A0A80"/>
<path d="M766.2 401.615L753.796 374.13C753.665 373.868 753.465 373.736 753.203 373.736H743.975C743.644 373.736 743.482 373.905 743.482 374.229V401.322C743.482 401.652 743.363 401.933 743.132 402.164C742.901 402.395 742.621 402.513 742.29 402.513H730.678C730.347 402.513 730.067 402.401 729.836 402.164C729.605 401.933 729.486 401.652 729.486 401.322V334.24C729.486 333.909 729.599 333.629 729.836 333.398C730.067 333.167 730.347 333.048 730.678 333.048H759.056C763.286 333.048 767.011 333.909 770.218 335.625C773.425 337.347 775.909 339.793 777.662 342.969C779.415 346.145 780.289 349.814 780.289 353.982C780.289 358.481 779.166 362.337 776.913 365.544C774.661 368.751 771.522 371.016 767.485 372.339C767.154 372.47 767.055 372.701 767.186 373.031L780.682 401.116C780.813 401.378 780.881 401.577 780.881 401.708C780.881 402.239 780.52 402.501 779.79 402.501H767.585C766.924 402.501 766.462 402.201 766.194 401.609L766.2 401.615ZM743.475 345.552V362.518C743.475 362.848 743.638 363.017 743.968 363.017H756.965C759.742 363.017 762.007 362.187 763.76 360.534C765.514 358.88 766.387 356.727 766.387 354.082C766.387 351.436 765.507 349.271 763.76 347.58C762.007 345.896 759.742 345.053 756.965 345.053H743.968C743.638 345.053 743.475 345.222 743.475 345.546V345.552Z" fill="#0A0A80"/>
<path d="M841.372 333.392C841.603 333.622 841.722 333.903 841.722 334.234V343.955C841.722 344.286 841.603 344.567 841.372 344.797C841.141 345.028 840.861 345.147 840.53 345.147H822.766C822.435 345.147 822.273 345.315 822.273 345.64V401.309C822.273 401.64 822.154 401.92 821.924 402.151C821.693 402.382 821.412 402.501 821.081 402.501H809.469C809.139 402.501 808.858 402.388 808.627 402.151C808.396 401.92 808.278 401.64 808.278 401.309V345.64C808.278 345.309 808.109 345.147 807.785 345.147H790.52C790.189 345.147 789.908 345.035 789.678 344.797C789.447 344.567 789.328 344.286 789.328 343.955V334.234C789.328 333.903 789.44 333.622 789.678 333.392C789.908 333.161 790.189 333.042 790.52 333.042H840.53C840.861 333.042 841.141 333.161 841.372 333.392Z" fill="#0A0A80"/>
<path d="M845.584 366.187C844.56 365.132 844.049 363.803 844.049 362.218C844.049 360.633 844.56 359.23 845.584 358.2C846.607 357.177 847.949 356.665 849.602 356.665C851.256 356.665 852.51 357.177 853.57 358.2C854.625 359.23 855.155 360.565 855.155 362.218C855.155 363.872 854.625 365.132 853.57 366.187C852.51 367.247 851.187 367.771 849.602 367.771C848.017 367.771 846.607 367.241 845.584 366.187ZM845.584 399.631C844.56 398.57 844.049 397.247 844.049 395.662C844.049 394.077 844.56 392.667 845.584 391.644C846.607 390.621 847.949 390.109 849.602 390.109C851.256 390.109 852.51 390.621 853.57 391.644C854.625 392.667 855.155 394.009 855.155 395.662C855.155 397.316 854.625 398.576 853.57 399.631C852.51 400.691 851.187 401.215 849.602 401.215C848.017 401.215 846.607 400.685 845.584 399.631Z" fill="#0A0A80"/>
<path d="M61.6092 443.014H29.151C28.9139 443.014 28.7954 443.133 28.7954 443.37V465.158C28.7954 465.395 28.9139 465.514 29.151 465.514H51.9067C52.4932 465.514 52.7864 465.807 52.7864 466.394V470.1C52.7864 470.687 52.4932 470.98 51.9067 470.98H29.151C28.9139 470.98 28.7954 471.098 28.7954 471.336V493.473C28.7954 493.711 28.9139 493.823 29.151 493.823H61.6092C62.1957 493.823 62.4889 494.116 62.4889 494.703V498.409C62.4889 498.995 62.1957 499.289 61.6092 499.289H23.4169C22.8304 499.289 22.5371 498.995 22.5371 498.409V438.428C22.5371 437.842 22.8304 437.548 23.4169 437.548H61.6092C62.1957 437.548 62.4889 437.842 62.4889 438.428V442.134C62.4889 442.721 62.1957 443.014 61.6092 443.014Z" fill="#00D2C8"/>
<path d="M118.962 437.542H123.548C124.135 437.542 124.428 437.835 124.428 438.422V498.403C124.428 498.989 124.135 499.282 123.548 499.282H119.05C118.463 499.282 118.17 498.989 118.17 498.403V449.36C118.17 449.185 118.108 449.066 117.995 449.004C117.877 448.948 117.789 449.004 117.733 449.179L103.357 471.229C103.064 471.641 102.708 471.847 102.297 471.847H100.007C99.5949 471.847 99.2392 471.672 98.946 471.317L84.57 449.441C84.5076 449.266 84.4203 449.204 84.308 449.266C84.1894 449.322 84.1333 449.441 84.1333 449.622V498.396C84.1333 498.983 83.84 499.276 83.2535 499.276H78.7548C78.1683 499.276 77.875 498.983 77.875 498.396V438.416C77.875 437.829 78.1683 437.536 78.7548 437.536H83.3409C83.8088 437.536 84.1645 437.71 84.4016 438.066L100.986 463.205C101.042 463.268 101.13 463.293 101.248 463.293C101.367 463.293 101.454 463.261 101.51 463.205L117.914 438.153C118.207 437.742 118.563 437.536 118.975 437.536L118.962 437.542Z" fill="#00D2C8"/>
<path d="M181.209 443.014H148.751C148.514 443.014 148.395 443.133 148.395 443.37V465.158C148.395 465.395 148.514 465.514 148.751 465.514H171.506C172.093 465.514 172.386 465.807 172.386 466.394V470.1C172.386 470.687 172.093 470.98 171.506 470.98H148.751C148.514 470.98 148.395 471.098 148.395 471.336V493.473C148.395 493.711 148.514 493.823 148.751 493.823H181.209C181.795 493.823 182.089 494.116 182.089 494.703V498.409C182.089 498.995 181.795 499.289 181.209 499.289H143.016C142.43 499.289 142.137 498.995 142.137 498.409V438.428C142.137 437.842 142.43 437.548 143.016 437.548H181.209C181.795 437.548 182.089 437.842 182.089 438.428V442.134C182.089 442.721 181.795 443.014 181.209 443.014Z" fill="#00D2C8"/>
<path d="M232.378 498.671L219.412 471.329C219.356 471.155 219.238 471.067 219.057 471.067H204.063C203.826 471.067 203.707 471.186 203.707 471.417V498.409C203.707 498.995 203.414 499.289 202.828 499.289H198.329C197.742 499.289 197.449 498.995 197.449 498.409V438.428C197.449 437.842 197.742 437.548 198.329 437.548H221.172C226.226 437.548 230.313 439.121 233.433 442.265C236.546 445.41 238.106 449.516 238.106 454.57C238.106 458.688 236.989 462.188 234.755 465.065C232.522 467.947 229.489 469.801 225.671 470.624C225.434 470.743 225.377 470.886 225.496 471.067L238.73 498.234C238.786 498.353 238.817 498.496 238.817 498.677C238.817 499.089 238.58 499.295 238.112 499.295H233.439C232.909 499.295 232.559 499.089 232.378 498.677V498.671ZM203.714 443.37V465.689C203.714 465.926 203.832 466.038 204.069 466.038H220.473C223.88 466.038 226.65 464.977 228.766 462.862C230.881 460.747 231.941 457.983 231.941 454.57C231.941 451.157 230.881 448.38 228.766 446.234C226.65 444.087 223.886 443.014 220.473 443.014H204.069C203.832 443.014 203.714 443.133 203.714 443.37Z" fill="#00D2C8"/>
<path d="M262.399 497.567C259.279 495.951 256.858 493.673 255.123 490.728C253.389 487.789 252.521 484.407 252.521 480.583V456.236C252.521 452.417 253.389 449.035 255.123 446.09C256.858 443.151 259.285 440.874 262.399 439.252C265.512 437.636 269.131 436.825 273.249 436.825C277.367 436.825 280.905 437.617 284.056 439.208C287.201 440.793 289.628 443.014 291.331 445.866C293.035 448.717 293.89 451.937 293.89 455.524V456.673C293.89 457.259 293.596 457.552 293.01 457.552H288.511C287.925 457.552 287.631 457.259 287.631 456.673V455.612C287.631 451.675 286.321 448.468 283.707 445.997C281.092 443.526 277.604 442.29 273.256 442.29C268.907 442.29 265.406 443.557 262.761 446.084C260.115 448.611 258.792 451.937 258.792 456.049V480.745C258.792 484.863 260.146 488.182 262.848 490.709C265.55 493.236 269.112 494.503 273.518 494.503C277.923 494.503 281.236 493.33 283.794 490.978C286.352 488.625 287.631 485.481 287.631 481.543V473.513C287.631 473.276 287.513 473.164 287.276 473.164H274.31C273.723 473.164 273.43 472.87 273.43 472.284V468.578C273.43 467.991 273.723 467.698 274.31 467.698H293.01C293.596 467.698 293.89 467.991 293.89 468.578V479.959C293.89 486.254 292.024 491.159 288.287 494.69C284.549 498.215 279.539 499.981 273.249 499.981C269.131 499.981 265.518 499.176 262.399 497.554V497.567Z" fill="#00D2C8"/>
<path d="M310.117 498.403V438.422C310.117 437.835 310.41 437.542 310.997 437.542H315.496C316.082 437.542 316.375 437.835 316.375 438.422V498.403C316.375 498.989 316.082 499.282 315.496 499.282H310.997C310.41 499.282 310.117 498.989 310.117 498.403Z" fill="#00D2C8"/>
<path d="M371.734 437.542H376.233C376.819 437.542 377.113 437.835 377.113 438.422V498.403C377.113 498.989 376.819 499.282 376.233 499.282H371.822C371.41 499.282 371.054 499.077 370.761 498.665L340.68 449.709C340.624 449.535 340.53 449.46 340.418 449.491C340.299 449.522 340.243 449.622 340.243 449.803L340.331 498.403C340.331 498.989 340.037 499.282 339.451 499.282H334.952C334.366 499.282 334.072 498.989 334.072 498.403V438.422C334.072 437.835 334.366 437.542 334.952 437.542H339.363C339.775 437.542 340.125 437.748 340.424 438.16L370.499 487.115C370.555 487.29 370.642 487.365 370.761 487.334C370.879 487.303 370.936 487.203 370.936 487.022L370.848 438.422C370.848 437.835 371.141 437.542 371.728 437.542H371.734Z" fill="#00D2C8"/>
<path d="M403.418 497.567C400.298 495.951 397.878 493.673 396.143 490.728C394.408 487.789 393.541 484.407 393.541 480.583V456.236C393.541 452.417 394.408 449.035 396.143 446.09C397.878 443.151 400.305 440.874 403.418 439.252C406.532 437.636 410.151 436.825 414.269 436.825C418.387 436.825 421.925 437.617 425.076 439.208C428.22 440.793 430.648 443.014 432.351 445.866C434.054 448.717 434.909 451.937 434.909 455.524V456.673C434.909 457.259 434.616 457.552 434.029 457.552H429.531C428.944 457.552 428.651 457.259 428.651 456.673V455.612C428.651 451.675 427.341 448.468 424.726 445.997C422.112 443.526 418.624 442.29 414.275 442.29C409.926 442.29 406.426 443.557 403.78 446.084C401.135 448.611 399.812 451.937 399.812 456.049V480.745C399.812 484.863 401.166 488.182 403.867 490.709C406.569 493.236 410.132 494.503 414.537 494.503C418.942 494.503 422.255 493.33 424.814 490.978C427.372 488.625 428.651 485.481 428.651 481.543V473.513C428.651 473.276 428.532 473.164 428.295 473.164H415.33C414.743 473.164 414.45 472.87 414.45 472.284V468.578C414.45 467.991 414.743 467.698 415.33 467.698H434.029C434.616 467.698 434.909 467.991 434.909 468.578V479.959C434.909 486.254 433.044 491.159 429.306 494.69C425.569 498.215 420.558 499.981 414.269 499.981C410.151 499.981 406.538 499.176 403.418 497.554V497.567Z" fill="#00D2C8"/>
<path d="M517.109 437.542H521.695C522.282 437.542 522.575 437.835 522.575 438.422V498.403C522.575 498.989 522.282 499.282 521.695 499.282H517.196C516.61 499.282 516.317 498.989 516.317 498.403V449.36C516.317 449.185 516.254 449.066 516.142 449.004C516.023 448.948 515.936 449.004 515.88 449.179L501.504 471.229C501.211 471.641 500.855 471.847 500.443 471.847H498.153C497.741 471.847 497.386 471.672 497.092 471.317L482.717 449.441C482.654 449.266 482.567 449.204 482.454 449.266C482.336 449.322 482.28 449.441 482.28 449.622V498.396C482.28 498.983 481.987 499.276 481.4 499.276H476.901C476.315 499.276 476.021 498.983 476.021 498.396V438.416C476.021 437.829 476.315 437.536 476.901 437.536H481.487C481.955 437.536 482.311 437.71 482.548 438.066L499.133 463.205C499.189 463.268 499.276 463.293 499.395 463.293C499.513 463.293 499.601 463.261 499.657 463.205L516.061 438.153C516.354 437.742 516.71 437.536 517.121 437.536L517.109 437.542Z" fill="#00D2C8"/>
<path d="M577.745 498.584L574.219 487.471C574.157 487.296 574.045 487.209 573.864 487.209H547.489C547.315 487.209 547.196 487.296 547.134 487.471L543.608 498.584C543.434 499.052 543.078 499.289 542.548 499.289H537.787C537.138 499.289 536.907 498.964 537.082 498.315L556.574 438.247C556.749 437.779 557.104 437.542 557.635 437.542H563.631C564.161 437.542 564.511 437.779 564.692 438.247L584.271 498.315L584.359 498.671C584.359 499.083 584.097 499.289 583.566 499.289H578.806C578.275 499.289 577.926 499.052 577.745 498.584ZM548.943 481.955C549.03 482.043 549.13 482.086 549.255 482.086H572.011C572.129 482.086 572.229 482.043 572.316 481.955C572.404 481.868 572.416 481.768 572.36 481.643L560.892 445.654C560.836 445.535 560.742 445.479 560.63 445.479C560.517 445.479 560.424 445.541 560.368 445.654L548.899 481.643C548.837 481.762 548.856 481.862 548.943 481.955Z" fill="#00D2C8"/>
<path d="M633.689 498.671L620.723 471.329C620.667 471.155 620.548 471.067 620.367 471.067H605.374C605.137 471.067 605.018 471.186 605.018 471.417V498.409C605.018 498.995 604.725 499.289 604.138 499.289H599.64C599.053 499.289 598.76 498.995 598.76 498.409V438.428C598.76 437.842 599.053 437.548 599.64 437.548H622.483C627.537 437.548 631.623 439.121 634.743 442.265C637.857 445.41 639.417 449.516 639.417 454.57C639.417 458.688 638.3 462.188 636.066 465.065C633.832 467.947 630.8 469.801 626.981 470.624C626.744 470.743 626.688 470.886 626.807 471.067L640.041 498.234C640.097 498.353 640.128 498.496 640.128 498.677C640.128 499.089 639.891 499.295 639.423 499.295H634.749C634.219 499.295 633.87 499.089 633.689 498.677V498.671ZM605.024 443.37V465.689C605.024 465.926 605.143 466.038 605.38 466.038H621.784C625.191 466.038 627.961 464.977 630.076 462.862C632.191 460.747 633.252 457.983 633.252 454.57C633.252 451.157 632.191 448.38 630.076 446.234C627.961 444.087 625.197 443.014 621.784 443.014H605.38C605.143 443.014 605.024 443.133 605.024 443.37Z" fill="#00D2C8"/>
<path d="M655.092 498.403V438.422C655.092 437.835 655.385 437.542 655.972 437.542H660.47C661.057 437.542 661.35 437.835 661.35 438.422V468.322C661.35 468.44 661.406 468.528 661.525 468.584C661.643 468.646 661.731 468.615 661.787 468.496L689.659 437.979C689.896 437.686 690.245 437.536 690.72 437.536H695.836C696.192 437.536 696.41 437.654 696.497 437.891C696.585 438.129 696.51 438.359 696.279 438.596L674.672 463.031C674.553 463.149 674.553 463.324 674.672 463.561L698.132 498.222L698.307 498.665C698.307 499.076 698.045 499.282 697.514 499.282H692.398C691.924 499.282 691.574 499.108 691.337 498.752L670.435 468.06C670.372 467.941 670.285 467.885 670.173 467.885C670.06 467.885 669.967 467.916 669.911 467.972L661.531 476.882C661.412 477.001 661.356 477.144 661.356 477.325V498.409C661.356 498.995 661.063 499.289 660.477 499.289H655.978C655.391 499.289 655.098 498.995 655.098 498.409L655.092 498.403Z" fill="#00D2C8"/>
<path d="M751.517 443.014H719.059C718.822 443.014 718.704 443.133 718.704 443.37V465.158C718.704 465.395 718.822 465.514 719.059 465.514H741.815C742.401 465.514 742.695 465.807 742.695 466.394V470.1C742.695 470.687 742.401 470.98 741.815 470.98H719.059C718.822 470.98 718.704 471.098 718.704 471.336V493.473C718.704 493.711 718.822 493.823 719.059 493.823H751.517C752.104 493.823 752.397 494.116 752.397 494.703V498.409C752.397 498.995 752.104 499.289 751.517 499.289H713.325C712.739 499.289 712.445 498.995 712.445 498.409V438.428C712.445 437.842 712.739 437.548 713.325 437.548H751.517C752.104 437.548 752.397 437.842 752.397 438.428V442.134C752.397 442.721 752.104 443.014 751.517 443.014Z" fill="#00D2C8"/>
<path d="M808.334 438.428V442.222C808.334 442.808 808.041 443.102 807.454 443.102H790.165C789.927 443.102 789.809 443.22 789.809 443.457V498.409C789.809 498.995 789.516 499.289 788.929 499.289H784.43C783.844 499.289 783.551 498.995 783.551 498.409V443.457C783.551 443.22 783.432 443.102 783.195 443.102H766.61C766.024 443.102 765.73 442.808 765.73 442.222V438.428C765.73 437.842 766.024 437.548 766.61 437.548H807.448C808.035 437.548 808.328 437.842 808.328 438.428H808.334Z" fill="#00D2C8"/>
<path d="M825.325 495.495C821.475 492.494 819.547 488.501 819.547 483.496V480.764C819.547 480.177 819.84 479.884 820.427 479.884H824.751C825.337 479.884 825.63 480.177 825.63 480.764V483.147C825.63 486.56 827.041 489.305 829.867 491.396C832.687 493.486 836.6 494.528 841.597 494.528C846.127 494.528 849.565 493.573 851.918 491.664C854.27 489.755 855.443 487.209 855.443 484.033C855.443 481.974 854.9 480.214 853.808 478.742C852.716 477.269 851.044 475.89 848.779 474.599C846.514 473.307 843.326 471.81 839.208 470.1C834.796 468.334 831.371 466.793 828.931 465.47C826.492 464.148 824.52 462.444 823.022 460.354C821.525 458.27 820.776 455.637 820.776 452.461C820.776 447.519 822.498 443.682 825.936 440.949C829.374 438.216 834.098 436.85 840.094 436.85C846.62 436.85 851.768 438.378 855.53 441.436C859.293 444.493 861.177 448.549 861.177 453.609V455.55C861.177 456.136 860.884 456.429 860.297 456.429H855.886C855.299 456.429 855.006 456.136 855.006 455.55V453.965C855.006 450.558 853.671 447.763 850.994 445.585C848.317 443.407 844.599 442.322 839.838 442.322C835.664 442.322 832.456 443.177 830.223 444.88C827.989 446.583 826.872 449.054 826.872 452.286C826.872 454.401 827.415 456.155 828.507 457.534C829.593 458.913 831.152 460.123 833.18 461.146C835.208 462.176 838.34 463.511 842.577 465.158C846.87 466.924 850.327 468.571 852.941 470.1C855.555 471.629 857.677 473.494 859.293 475.703C860.909 477.906 861.72 480.595 861.72 483.771C861.72 488.713 859.898 492.65 856.254 495.589C852.61 498.528 847.55 500 841.086 500C834.622 500 829.193 498.503 825.343 495.501L825.325 495.495Z" fill="#00D2C8"/>
<path d="M583.485 183.274H626.338C627.412 183.274 627.954 183.817 627.954 184.89V195.079C627.954 196.159 627.412 196.696 626.338 196.696H565.372C564.292 196.696 563.756 196.159 563.756 195.079V184.728C563.756 183.973 563.968 183.33 564.405 182.788C578.313 164.893 589.144 150.504 596.906 139.61C605.205 128.073 609.361 118.857 609.361 111.956C609.361 106.996 607.957 103.04 605.155 100.07C602.347 97.1061 598.629 95.6211 593.999 95.6211C589.369 95.6211 585.831 97.1061 583.086 100.07C580.334 103.034 579.018 106.94 579.124 111.794V117.453C579.124 118.533 578.581 119.069 577.508 119.069H565.054C563.974 119.069 563.438 118.533 563.438 117.453V110.502C563.65 101.985 566.645 95.1406 572.41 89.9681C578.175 84.7955 585.482 82.2061 594.323 82.2061C600.469 82.2061 605.86 83.4727 610.496 86.0059C615.132 88.5392 618.714 92.0708 621.247 96.6007C623.78 101.131 625.047 106.247 625.047 111.962C625.047 121.559 620.735 132.447 612.112 144.626C607.152 151.634 599.065 162.253 587.853 176.479L583.161 182.463C582.836 183.006 582.942 183.274 583.485 183.274Z" stroke="#0A0A80" stroke-width="3.93" stroke-linejoin="round"/>
<path d="M649.056 189.582C643.179 183.761 640.246 175.949 640.246 166.134V114.065C640.246 104.363 643.185 96.6007 649.056 90.7792C654.934 84.9577 662.771 82.0438 672.586 82.0438C682.4 82.0438 690.262 84.9577 696.196 90.7792C702.124 96.6007 705.088 104.363 705.088 114.065V166.134C705.088 175.943 702.124 183.761 696.196 189.582C690.269 195.404 682.394 198.318 672.586 198.318C662.777 198.318 654.934 195.404 649.056 189.582ZM684.878 179.961C688.004 176.673 689.57 172.336 689.57 166.945V113.423C689.57 108.032 688.004 103.695 684.878 100.407C681.752 97.1186 677.652 95.4776 672.586 95.4776C667.519 95.4776 663.451 97.1248 660.375 100.407C657.305 103.695 655.764 108.038 655.764 113.423V166.945C655.764 172.336 657.299 176.673 660.375 179.961C663.445 183.249 667.513 184.897 672.586 184.897C677.658 184.897 681.745 183.256 684.878 179.961Z" stroke="#0A0A80" stroke-width="3.93" stroke-linejoin="round"/>
<path d="M738.231 183.274H781.084C782.158 183.274 782.701 183.817 782.701 184.89V195.079C782.701 196.159 782.158 196.696 781.084 196.696H720.118C719.038 196.696 718.502 196.159 718.502 195.079V184.728C718.502 183.973 718.714 183.33 719.151 182.788C733.059 164.893 743.891 150.504 751.653 139.61C759.951 128.073 764.107 118.857 764.107 111.956C764.107 106.996 762.703 103.04 759.901 100.07C757.093 97.1061 753.375 95.6211 748.745 95.6211C744.115 95.6211 740.577 97.1061 737.832 100.07C735.08 103.034 733.764 106.94 733.87 111.794V117.453C733.87 118.533 733.327 119.069 732.254 119.069H719.8C718.72 119.069 718.184 118.533 718.184 117.453V110.502C718.396 101.985 721.391 95.1406 727.156 89.9681C732.921 84.7955 740.228 82.2061 749.069 82.2061C755.215 82.2061 760.606 83.4727 765.242 86.0059C769.878 88.5392 773.46 92.0708 775.993 96.6007C778.526 101.131 779.793 106.247 779.793 111.962C779.793 121.559 775.481 132.447 766.858 144.626C761.898 151.634 753.811 162.253 742.599 176.479L737.907 182.463C737.582 183.006 737.688 183.274 738.231 183.274Z" fill="#0A0A80"/>
<path d="M860.321 154.005V164.836C860.321 165.916 859.779 166.452 858.705 166.452H852.722C852.291 166.452 852.073 166.671 852.073 167.101V195.08C852.073 196.159 851.53 196.696 850.457 196.696H838.165C837.085 196.696 836.549 196.159 836.549 195.08V167.101C836.549 166.671 836.33 166.452 835.9 166.452H791.431C790.351 166.452 789.814 165.916 789.814 164.836V155.945C789.814 155.19 789.921 154.547 790.139 154.005L817.793 84.7955C818.117 83.9344 818.71 83.5039 819.571 83.5039H832.83C833.367 83.5039 833.747 83.6911 833.959 84.0717C834.171 84.4523 834.171 84.9078 833.959 85.4444L807.922 151.584C807.816 151.802 807.816 151.989 807.922 152.151C808.028 152.314 808.19 152.395 808.408 152.395H835.9C836.33 152.395 836.549 152.183 836.549 151.746V128.784C836.549 127.711 837.085 127.168 838.165 127.168H850.457C851.53 127.168 852.073 127.711 852.073 128.784V151.746C852.073 152.176 852.285 152.395 852.722 152.395H858.705C859.785 152.395 860.321 152.938 860.321 154.011V154.005Z" fill="#0A0A80"/>
<path d="M778.82 13.6771V16.5223C778.82 16.9653 778.601 17.1837 778.158 17.1837H765.192C765.018 17.1837 764.93 17.2711 764.93 17.4458V58.658C764.93 59.101 764.712 59.3194 764.269 59.3194H760.893C760.45 59.3194 760.232 59.101 760.232 58.658V17.4458C760.232 17.2711 760.145 17.1837 759.97 17.1837H747.534C747.091 17.1837 746.873 16.9653 746.873 16.5223V13.6771C746.873 13.2341 747.091 13.0157 747.534 13.0157H778.164C778.607 13.0157 778.826 13.2341 778.826 13.6771H778.82Z" fill="#0A0A80"/>
<path d="M815.197 13.0157H818.573C819.016 13.0157 819.234 13.2341 819.234 13.6771V58.658C819.234 59.101 819.016 59.3194 818.573 59.3194H815.197C814.754 59.3194 814.536 59.101 814.536 58.658V38.3483C814.536 38.1735 814.448 38.0862 814.274 38.0862H793.171C792.997 38.0862 792.909 38.1735 792.909 38.3483V58.658C792.909 59.101 792.691 59.3194 792.248 59.3194H788.872C788.429 59.3194 788.211 59.101 788.211 58.658V13.6771C788.211 13.2341 788.429 13.0157 788.872 13.0157H792.248C792.691 13.0157 792.909 13.2341 792.909 13.6771V33.7185C792.909 33.8932 792.997 33.9806 793.171 33.9806H814.274C814.448 33.9806 814.536 33.8932 814.536 33.7185V13.6771C814.536 13.2341 814.754 13.0157 815.197 13.0157Z" fill="#0A0A80"/>
<path d="M860.073 17.1151H835.726C835.551 17.1151 835.464 17.2024 835.464 17.3771V33.7185C835.464 33.8932 835.551 33.9806 835.726 33.9806H852.791C853.234 33.9806 853.453 34.199 853.453 34.642V37.4186C853.453 37.8616 853.234 38.08 852.791 38.08H835.726C835.551 38.08 835.464 38.1673 835.464 38.342V54.9454C835.464 55.1202 835.551 55.2075 835.726 55.2075H860.073C860.516 55.2075 860.734 55.4259 860.734 55.8689V58.6455C860.734 59.0885 860.516 59.3069 860.073 59.3069H831.427C830.984 59.3069 830.766 59.0885 830.766 58.6455V13.6771C830.766 13.2341 830.984 13.0157 831.427 13.0157H860.073C860.516 13.0157 860.734 13.2341 860.734 13.6771V16.4537C860.734 16.8967 860.516 17.1151 860.073 17.1151Z" fill="#0A0A80"/>
<path opacity="0.5" d="M620.904 26.7427L595.69 62.3955L570.482 26.7427H620.904Z" fill="#00F9D8"/>
<path opacity="0.7" d="M608.3 8.91632L595.69 26.7427L583.086 8.91632H608.3Z" fill="#0A0A80"/>
<path d="M601.999 0L595.691 8.91632L589.389 0H601.999Z" fill="#00F9D8"/>
</svg>
