<svg width="332" height="351" viewBox="0 0 332 351" fill="none" xmlns="http://www.w3.org/2000/svg">
<g clip-path="url(#clip0_1163_4173)">
<path opacity="0.5" d="M170.97 141.05L85.49 261.95L0 141.05H170.97Z" fill="#00F9D8"/>
<path opacity="0.5" d="M182.35 13.05L170.04 30.46L157.73 13.05H182.35Z" fill="#00F9D8"/>
<path opacity="0.7" d="M176.201 4.34998L170.041 13.05L163.891 4.34998H176.201Z" fill="#0A0A80"/>
<path d="M173.121 0L170.041 4.35L166.971 0H173.121Z" fill="#00F9D8"/>
<path d="M31.8499 329.46H20.0699C19.9799 329.46 19.9399 329.5 19.9399 329.59V337.49C19.9399 337.57 19.9799 337.62 20.0699 337.62H28.3299C28.5399 337.62 28.6499 337.73 28.6499 337.94V339.28C28.6499 339.49 28.5399 339.6 28.3299 339.6H20.0699C19.9799 339.6 19.9399 339.64 19.9399 339.73V347.76C19.9399 347.85 19.9799 347.89 20.0699 347.89H31.8499C32.0599 347.89 32.1699 348 32.1699 348.21V349.55C32.1699 349.76 32.0599 349.87 31.8499 349.87H17.9899C17.7799 349.87 17.6699 349.76 17.6699 349.55V327.79C17.6699 327.58 17.7799 327.47 17.9899 327.47H31.8499C32.0599 327.47 32.1699 327.58 32.1699 327.79V329.13C32.1699 329.34 32.0599 329.45 31.8499 329.45V329.46Z" fill="#00D2C8"/>
<path d="M53.1795 327.47H54.8395C55.0495 327.47 55.1595 327.58 55.1595 327.79V349.55C55.1595 349.76 55.0495 349.87 54.8395 349.87H53.2095C52.9995 349.87 52.8895 349.76 52.8895 349.55V331.76C52.8895 331.7 52.8695 331.65 52.8295 331.63C52.7895 331.61 52.7495 331.63 52.7295 331.69L47.5095 339.69C47.3995 339.84 47.2695 339.91 47.1295 339.91H46.2995C46.1495 339.91 46.0195 339.85 45.9195 339.72L40.6995 331.78C40.6795 331.72 40.6495 331.7 40.5995 331.72C40.5595 331.74 40.5395 331.78 40.5395 331.85V349.55C40.5395 349.76 40.4295 349.87 40.2195 349.87H38.5895C38.3795 349.87 38.2695 349.76 38.2695 349.55V327.79C38.2695 327.58 38.3795 327.47 38.5895 327.47H40.2495C40.4195 327.47 40.5495 327.53 40.6295 327.66L46.6495 336.78C46.6495 336.78 46.6995 336.81 46.7495 336.81C46.7995 336.81 46.8195 336.8 46.8495 336.78L52.7995 327.69C52.9095 327.54 53.0295 327.47 53.1795 327.47Z" fill="#00D2C8"/>
<path d="M76.3109 329.46H64.5309C64.4409 329.46 64.4009 329.5 64.4009 329.59V337.49C64.4009 337.57 64.4409 337.62 64.5309 337.62H72.7909C73.0009 337.62 73.1109 337.73 73.1109 337.94V339.28C73.1109 339.49 73.0009 339.6 72.7909 339.6H64.5309C64.4409 339.6 64.4009 339.64 64.4009 339.73V347.76C64.4009 347.85 64.4409 347.89 64.5309 347.89H76.3109C76.5209 347.89 76.6309 348 76.6309 348.21V349.55C76.6309 349.76 76.5209 349.87 76.3109 349.87H62.4509C62.2409 349.87 62.1309 349.76 62.1309 349.55V327.79C62.1309 327.58 62.2409 327.47 62.4509 327.47H76.3109C76.5209 327.47 76.6309 327.58 76.6309 327.79V329.13C76.6309 329.34 76.5209 329.45 76.3109 329.45V329.46Z" fill="#00D2C8"/>
<path d="M95.4005 349.65L90.7005 339.73C90.6805 339.67 90.6405 339.63 90.5705 339.63H85.1305C85.0405 339.63 85.0005 339.67 85.0005 339.76V349.55C85.0005 349.76 84.8905 349.87 84.6805 349.87H83.0505C82.8405 349.87 82.7305 349.76 82.7305 349.55V327.79C82.7305 327.58 82.8405 327.47 83.0505 327.47H91.3405C93.1705 327.47 94.6605 328.04 95.7905 329.18C96.9205 330.32 97.4905 331.81 97.4905 333.64C97.4905 335.13 97.0805 336.4 96.2705 337.45C95.4605 338.5 94.3605 339.17 92.9705 339.47C92.8805 339.51 92.8605 339.57 92.9105 339.63L97.7105 349.49C97.7105 349.49 97.7405 349.59 97.7405 349.65C97.7405 349.8 97.6505 349.87 97.4805 349.87H95.7805C95.5905 349.87 95.4605 349.8 95.4005 349.65ZM85.0005 329.59V337.69C85.0005 337.78 85.0405 337.82 85.1305 337.82H91.0805C92.3205 337.82 93.3205 337.44 94.0905 336.67C94.8605 335.9 95.2405 334.9 95.2405 333.66C95.2405 332.42 94.8605 331.41 94.0905 330.64C93.3205 329.86 92.3205 329.47 91.0805 329.47H85.1305C85.0405 329.47 85.0005 329.51 85.0005 329.6V329.59Z" fill="#00D2C8"/>
<path d="M106.791 349.25C105.661 348.66 104.781 347.84 104.151 346.77C103.521 345.7 103.211 344.48 103.211 343.09V334.26C103.211 332.87 103.521 331.65 104.151 330.58C104.781 329.51 105.661 328.69 106.791 328.1C107.921 327.51 109.231 327.22 110.731 327.22C112.231 327.22 113.511 327.51 114.651 328.08C115.791 328.66 116.671 329.46 117.291 330.5C117.911 331.54 118.221 332.7 118.221 334V334.42C118.221 334.63 118.111 334.74 117.901 334.74H116.271C116.061 334.74 115.951 334.63 115.951 334.42V334.04C115.951 332.61 115.471 331.45 114.531 330.55C113.581 329.65 112.321 329.21 110.741 329.21C109.161 329.21 107.891 329.67 106.931 330.59C105.971 331.51 105.491 332.71 105.491 334.21V343.17C105.491 344.66 105.981 345.87 106.961 346.79C107.941 347.71 109.231 348.17 110.831 348.17C112.431 348.17 113.631 347.74 114.561 346.89C115.491 346.04 115.951 344.89 115.951 343.47V340.56C115.951 340.48 115.911 340.43 115.821 340.43H111.121C110.911 340.43 110.801 340.32 110.801 340.11V338.77C110.801 338.56 110.911 338.45 111.121 338.45H117.901C118.111 338.45 118.221 338.56 118.221 338.77V342.9C118.221 345.18 117.541 346.96 116.191 348.24C114.841 349.52 113.021 350.16 110.731 350.16C109.241 350.16 107.921 349.87 106.791 349.28V349.25Z" fill="#00D2C8"/>
<path d="M124.641 349.55V327.79C124.641 327.58 124.751 327.47 124.961 327.47H126.591C126.801 327.47 126.911 327.58 126.911 327.79V349.55C126.911 349.76 126.801 349.87 126.591 349.87H124.961C124.751 349.87 124.641 349.76 124.641 349.55Z" fill="#00D2C8"/>
<path d="M147.529 327.47H149.159C149.369 327.47 149.479 327.58 149.479 327.79V349.55C149.479 349.76 149.369 349.87 149.159 349.87H147.559C147.409 349.87 147.279 349.8 147.179 349.65L136.269 331.89C136.249 331.83 136.219 331.8 136.169 331.81C136.129 331.82 136.109 331.86 136.109 331.92L136.139 349.55C136.139 349.76 136.029 349.87 135.819 349.87H134.189C133.979 349.87 133.869 349.76 133.869 349.55V327.79C133.869 327.58 133.979 327.47 134.189 327.47H135.789C135.939 327.47 136.069 327.55 136.169 327.69L147.079 345.45C147.099 345.51 147.129 345.54 147.179 345.53C147.219 345.52 147.239 345.48 147.239 345.42L147.209 327.79C147.209 327.58 147.319 327.47 147.529 327.47Z" fill="#00D2C8"/>
<path d="M159.551 349.25C158.421 348.66 157.541 347.84 156.911 346.77C156.281 345.7 155.971 344.48 155.971 343.09V334.26C155.971 332.87 156.281 331.65 156.911 330.58C157.541 329.51 158.421 328.69 159.551 328.1C160.681 327.51 161.991 327.22 163.491 327.22C164.991 327.22 166.271 327.51 167.411 328.08C168.551 328.66 169.431 329.46 170.051 330.5C170.671 331.54 170.981 332.7 170.981 334V334.42C170.981 334.63 170.871 334.74 170.661 334.74H169.031C168.821 334.74 168.711 334.63 168.711 334.42V334.04C168.711 332.61 168.231 331.45 167.291 330.55C166.341 329.65 165.081 329.21 163.501 329.21C161.921 329.21 160.651 329.67 159.691 330.59C158.731 331.51 158.251 332.71 158.251 334.21V343.17C158.251 344.66 158.741 345.87 159.721 346.79C160.701 347.71 161.991 348.17 163.591 348.17C165.191 348.17 166.391 347.74 167.321 346.89C168.251 346.04 168.711 344.89 168.711 343.47V340.56C168.711 340.48 168.671 340.43 168.581 340.43H163.881C163.671 340.43 163.561 340.32 163.561 340.11V338.77C163.561 338.56 163.671 338.45 163.881 338.45H170.661C170.871 338.45 170.981 338.56 170.981 338.77V342.9C170.981 345.18 170.301 346.96 168.951 348.24C167.601 349.52 165.781 350.16 163.491 350.16C162.001 350.16 160.681 349.87 159.551 349.28V349.25Z" fill="#00D2C8"/>
<path d="M200.801 327.47H202.461C202.671 327.47 202.781 327.58 202.781 327.79V349.55C202.781 349.76 202.671 349.87 202.461 349.87H200.831C200.621 349.87 200.511 349.76 200.511 349.55V331.76C200.511 331.7 200.491 331.65 200.451 331.63C200.411 331.61 200.371 331.63 200.351 331.69L195.131 339.69C195.021 339.84 194.891 339.91 194.751 339.91H193.921C193.771 339.91 193.641 339.85 193.541 339.72L188.321 331.78C188.301 331.72 188.271 331.7 188.221 331.72C188.181 331.74 188.161 331.78 188.161 331.85V349.55C188.161 349.76 188.051 349.87 187.841 349.87H186.211C186.001 349.87 185.891 349.76 185.891 349.55V327.79C185.891 327.58 186.001 327.47 186.211 327.47H187.871C188.041 327.47 188.171 327.53 188.251 327.66L194.271 336.78C194.271 336.78 194.321 336.81 194.371 336.81C194.421 336.81 194.441 336.8 194.471 336.78L200.421 327.69C200.531 327.54 200.651 327.47 200.801 327.47Z" fill="#00D2C8"/>
<path d="M223.3 349.62L222.02 345.59C222 345.53 221.96 345.49 221.89 345.49H212.32C212.26 345.49 212.21 345.52 212.19 345.59L210.91 349.62C210.85 349.79 210.72 349.88 210.53 349.88H208.8C208.57 349.88 208.48 349.76 208.54 349.53L215.61 327.74C215.67 327.57 215.8 327.48 215.99 327.48H218.17C218.36 327.48 218.49 327.57 218.55 327.74L225.65 349.53L225.68 349.66C225.68 349.81 225.58 349.88 225.39 349.88H223.66C223.47 349.88 223.34 349.8 223.28 349.62H223.3ZM212.85 343.59C212.85 343.59 212.92 343.64 212.96 343.64H221.22C221.22 343.64 221.3 343.62 221.33 343.59C221.36 343.56 221.37 343.52 221.35 343.48L217.19 330.42C217.19 330.42 217.14 330.36 217.09 330.36C217.04 330.36 217.02 330.38 216.99 330.42L212.83 343.48C212.83 343.48 212.81 343.56 212.85 343.59Z" fill="#00D2C8"/>
<path d="M244.1 349.65L239.4 339.73C239.38 339.67 239.34 339.63 239.27 339.63H233.83C233.74 339.63 233.7 339.67 233.7 339.76V349.55C233.7 349.76 233.59 349.87 233.38 349.87H231.75C231.54 349.87 231.43 349.76 231.43 349.55V327.79C231.43 327.58 231.54 327.47 231.75 327.47H240.04C241.87 327.47 243.36 328.04 244.49 329.18C245.62 330.32 246.19 331.81 246.19 333.64C246.19 335.13 245.78 336.4 244.97 337.45C244.16 338.5 243.06 339.17 241.67 339.47C241.58 339.51 241.56 339.57 241.61 339.63L246.41 349.49C246.41 349.49 246.44 349.59 246.44 349.65C246.44 349.8 246.35 349.87 246.18 349.87H244.48C244.29 349.87 244.16 349.8 244.1 349.65ZM233.7 329.59V337.69C233.7 337.78 233.74 337.82 233.83 337.82H239.78C241.02 337.82 242.02 337.44 242.79 336.67C243.56 335.9 243.94 334.9 243.94 333.66C243.94 332.42 243.56 331.41 242.79 330.64C242.02 329.86 241.02 329.47 239.78 329.47H233.83C233.74 329.47 233.7 329.51 233.7 329.6V329.59Z" fill="#00D2C8"/>
<path d="M252.379 349.55V327.79C252.379 327.58 252.489 327.47 252.699 327.47H254.329C254.539 327.47 254.649 327.58 254.649 327.79V338.64C254.649 338.64 254.669 338.72 254.709 338.74C254.749 338.76 254.779 338.75 254.809 338.71L264.919 327.64C264.999 327.53 265.129 327.48 265.299 327.48H267.159C267.289 327.48 267.369 327.52 267.399 327.61C267.429 327.7 267.399 327.78 267.319 327.87L259.479 336.73C259.479 336.73 259.439 336.84 259.479 336.92L267.989 349.5L268.049 349.66C268.049 349.81 267.949 349.88 267.759 349.88H265.899C265.729 349.88 265.599 349.82 265.519 349.69L257.939 338.55C257.939 338.55 257.889 338.49 257.839 338.49C257.789 338.49 257.769 338.5 257.739 338.52L254.699 341.75C254.699 341.75 254.639 341.85 254.639 341.91V349.56C254.639 349.77 254.529 349.88 254.319 349.88H252.689C252.479 349.88 252.369 349.77 252.369 349.56L252.379 349.55Z" fill="#00D2C8"/>
<path d="M287.85 329.46H276.07C275.98 329.46 275.94 329.5 275.94 329.59V337.49C275.94 337.57 275.98 337.62 276.07 337.62H284.33C284.54 337.62 284.65 337.73 284.65 337.94V339.28C284.65 339.49 284.54 339.6 284.33 339.6H276.07C275.98 339.6 275.94 339.64 275.94 339.73V347.76C275.94 347.85 275.98 347.89 276.07 347.89H287.85C288.06 347.89 288.17 348 288.17 348.21V349.55C288.17 349.76 288.06 349.87 287.85 349.87H273.99C273.78 349.87 273.67 349.76 273.67 349.55V327.79C273.67 327.58 273.78 327.47 273.99 327.47H287.85C288.06 327.47 288.17 327.58 288.17 327.79V329.13C288.17 329.34 288.06 329.45 287.85 329.45V329.46Z" fill="#00D2C8"/>
<path d="M308.931 327.79V329.17C308.931 329.38 308.821 329.49 308.611 329.49H302.341C302.251 329.49 302.211 329.53 302.211 329.62V349.56C302.211 349.77 302.101 349.88 301.891 349.88H300.261C300.051 349.88 299.941 349.77 299.941 349.56V329.62C299.941 329.54 299.901 329.49 299.811 329.49H293.791C293.581 329.49 293.471 329.38 293.471 329.17V327.79C293.471 327.58 293.581 327.47 293.791 327.47H308.611C308.821 327.47 308.931 327.58 308.931 327.79Z" fill="#00D2C8"/>
<path d="M315.6 348.5C314.2 347.41 313.5 345.96 313.5 344.15V343.16C313.5 342.95 313.61 342.84 313.82 342.84H315.39C315.6 342.84 315.71 342.95 315.71 343.16V344.02C315.71 345.26 316.22 346.26 317.25 347.01C318.27 347.77 319.69 348.15 321.51 348.15C323.15 348.15 324.4 347.8 325.25 347.11C326.1 346.42 326.53 345.49 326.53 344.34C326.53 343.59 326.33 342.95 325.94 342.42C325.54 341.89 324.94 341.39 324.12 340.92C323.3 340.45 322.14 339.91 320.65 339.29C319.05 338.65 317.81 338.09 316.92 337.61C316.03 337.13 315.32 336.51 314.78 335.75C314.24 334.99 313.96 334.04 313.96 332.89C313.96 331.1 314.58 329.71 315.83 328.71C317.08 327.72 318.79 327.22 320.97 327.22C323.34 327.22 325.2 327.78 326.57 328.88C327.93 329.99 328.62 331.46 328.62 333.3V334C328.62 334.21 328.51 334.32 328.3 334.32H326.7C326.49 334.32 326.38 334.21 326.38 334V333.42C326.38 332.18 325.89 331.17 324.92 330.38C323.95 329.59 322.6 329.2 320.87 329.2C319.36 329.2 318.19 329.51 317.38 330.13C316.57 330.75 316.16 331.65 316.16 332.82C316.16 333.59 316.36 334.22 316.75 334.72C317.14 335.22 317.71 335.66 318.45 336.03C319.19 336.4 320.32 336.89 321.86 337.49C323.42 338.13 324.67 338.73 325.62 339.28C326.57 339.83 327.34 340.51 327.92 341.31C328.51 342.11 328.8 343.09 328.8 344.24C328.8 346.03 328.14 347.46 326.82 348.53C325.5 349.6 323.66 350.13 321.32 350.13C318.98 350.13 317.01 349.59 315.61 348.5H315.6Z" fill="#00D2C8"/>
<path d="M163.73 102.91H189.35C189.99 102.91 190.32 103.23 190.32 103.88V109.97C190.32 110.61 190 110.94 189.35 110.94H152.9C152.25 110.94 151.93 110.62 151.93 109.97V103.78C151.93 103.33 152.06 102.94 152.32 102.62C160.64 91.92 167.11 83.32 171.75 76.8C176.71 69.9 179.2 64.39 179.2 60.27C179.2 57.31 178.36 54.94 176.69 53.16C175.01 51.39 172.79 50.5 170.02 50.5C167.25 50.5 165.14 51.39 163.49 53.16C161.85 54.93 161.06 57.27 161.12 60.17V63.55C161.12 64.2 160.8 64.52 160.15 64.52H152.7C152.05 64.52 151.73 64.2 151.73 63.55V59.39C151.86 54.3 153.65 50.2 157.1 47.11C160.55 44.02 164.92 42.47 170.2 42.47C173.87 42.47 177.1 43.23 179.87 44.74C182.64 46.25 184.78 48.37 186.3 51.07C187.81 53.78 188.57 56.84 188.57 60.26C188.57 66 185.99 72.51 180.83 79.79C177.86 83.98 173.03 90.33 166.33 98.84L163.53 102.42C163.34 102.74 163.4 102.9 163.72 102.9L163.73 102.91Z" stroke="#0A0A80" stroke-width="1.47" stroke-linejoin="round"/>
<path d="M202.93 106.68C199.42 103.2 197.66 98.53 197.66 92.66V61.53C197.66 55.73 199.42 51.09 202.93 47.61C206.44 44.13 211.13 42.39 217 42.39C222.87 42.39 227.57 44.13 231.12 47.61C234.66 51.09 236.44 55.73 236.44 61.53V92.66C236.44 98.53 234.67 103.2 231.12 106.68C227.57 110.16 222.87 111.9 217 111.9C211.13 111.9 206.44 110.16 202.93 106.68ZM224.35 100.93C226.22 98.97 227.15 96.37 227.15 93.15V61.15C227.15 57.93 226.21 55.33 224.35 53.37C222.48 51.4 220.03 50.42 217 50.42C213.97 50.42 211.54 51.4 209.7 53.37C207.86 55.34 206.94 57.93 206.94 61.15V93.15C206.94 96.37 207.86 98.97 209.7 100.93C211.54 102.9 213.97 103.88 217 103.88C220.03 103.88 222.48 102.9 224.35 100.93Z" stroke="#0A0A80" stroke-width="1.47" stroke-linejoin="round"/>
<path d="M256.26 102.91H281.88C282.52 102.91 282.85 103.23 282.85 103.88V109.97C282.85 110.61 282.53 110.94 281.88 110.94H245.43C244.78 110.94 244.46 110.62 244.46 109.97V103.78C244.46 103.33 244.59 102.94 244.85 102.62C253.17 91.92 259.64 83.32 264.28 76.8C269.24 69.9 271.73 64.39 271.73 60.27C271.73 57.31 270.89 54.94 269.22 53.16C267.54 51.39 265.32 50.5 262.55 50.5C259.78 50.5 257.67 51.39 256.02 53.16C254.38 54.93 253.59 57.27 253.65 60.17V63.55C253.65 64.2 253.33 64.52 252.68 64.52H245.23C244.58 64.52 244.26 64.2 244.26 63.55V59.39C244.39 54.3 246.18 50.2 249.63 47.11C253.08 44.02 257.45 42.47 262.73 42.47C266.4 42.47 269.63 43.23 272.4 44.74C275.17 46.25 277.31 48.37 278.83 51.07C280.34 53.78 281.1 56.84 281.1 60.26C281.1 66 278.52 72.51 273.36 79.79C270.39 83.98 265.56 90.33 258.86 98.84L256.06 102.42C255.87 102.74 255.93 102.9 256.25 102.9L256.26 102.91Z" fill="#0A0A80"/>
<path d="M329.26 85.41V91.89C329.26 92.53 328.94 92.86 328.29 92.86H324.71C324.45 92.86 324.32 92.99 324.32 93.25V109.98C324.32 110.62 324 110.95 323.35 110.95H316C315.35 110.95 315.03 110.63 315.03 109.98V93.25C315.03 92.99 314.9 92.86 314.64 92.86H288.05C287.4 92.86 287.08 92.54 287.08 91.89V86.57C287.08 86.12 287.14 85.73 287.27 85.41L303.8 44.03C303.99 43.52 304.35 43.26 304.86 43.26H312.79C313.11 43.26 313.34 43.37 313.47 43.6C313.6 43.83 313.6 44.1 313.47 44.42L297.9 83.97C297.83 84.1 297.83 84.21 297.9 84.31C297.96 84.41 298.06 84.46 298.19 84.46H314.63C314.89 84.46 315.02 84.33 315.02 84.07V70.34C315.02 69.7 315.34 69.37 315.99 69.37H323.34C323.98 69.37 324.31 69.69 324.31 70.34V84.07C324.31 84.33 324.44 84.46 324.7 84.46H328.28C328.92 84.46 329.25 84.78 329.25 85.43L329.26 85.41Z" fill="#0A0A80"/>
<path d="M152.58 160.76C152.47 160.65 152.41 160.51 152.41 160.35V127.9C152.41 127.74 152.47 127.61 152.58 127.49C152.69 127.38 152.83 127.32 152.99 127.32H164.99C167.39 127.32 169.49 127.74 171.3 128.59C173.11 129.44 174.51 130.63 175.5 132.17C176.49 133.71 176.99 135.48 176.99 137.5V150.75C176.99 152.77 176.49 154.54 175.5 156.08C174.51 157.62 173.11 158.81 171.3 159.66C169.49 160.51 167.39 160.93 164.99 160.93H152.99C152.83 160.93 152.69 160.87 152.58 160.76ZM159.42 155.12H165.23C166.7 155.12 167.89 154.62 168.81 153.63C169.72 152.64 170.19 151.31 170.23 149.65V138.61C170.23 136.95 169.77 135.62 168.86 134.63C167.95 133.64 166.72 133.14 165.19 133.14H159.43C159.27 133.14 159.19 133.22 159.19 133.38V154.88C159.19 155.04 159.27 155.12 159.43 155.12H159.42Z" fill="#0A0A80"/>
<path d="M185.42 160.76C185.31 160.65 185.25 160.51 185.25 160.35V127.9C185.25 127.74 185.31 127.61 185.42 127.49C185.53 127.38 185.67 127.32 185.83 127.32H191.45C191.61 127.32 191.75 127.38 191.86 127.49C191.97 127.6 192.03 127.74 192.03 127.9V160.35C192.03 160.51 191.97 160.65 191.86 160.76C191.75 160.87 191.61 160.93 191.45 160.93H185.83C185.67 160.93 185.53 160.87 185.42 160.76Z" fill="#0A0A80"/>
<path d="M206.171 159.83C204.281 158.84 202.821 157.45 201.781 155.68C200.741 153.9 200.221 151.85 200.221 149.51V138.76C200.221 136.42 200.741 134.36 201.781 132.57C202.821 130.78 204.281 129.39 206.171 128.42C208.061 127.44 210.231 126.96 212.701 126.96C215.171 126.96 217.281 127.44 219.161 128.4C221.031 129.36 222.491 130.66 223.531 132.31C224.571 133.96 225.091 135.79 225.091 137.81V138.15C225.091 138.31 225.031 138.45 224.921 138.56C224.811 138.67 224.671 138.73 224.511 138.73H218.891C218.731 138.73 218.591 138.67 218.481 138.56C218.371 138.45 218.311 138.31 218.311 138.15V138.01C218.311 136.54 217.801 135.3 216.771 134.29C215.751 133.28 214.391 132.78 212.691 132.78C210.991 132.78 209.581 133.32 208.541 134.39C207.501 135.46 206.981 136.86 206.981 138.59V149.73C206.981 151.46 207.541 152.86 208.661 153.93C209.781 155 211.201 155.54 212.931 155.54C214.661 155.54 215.921 155.1 216.911 154.22C217.901 153.34 218.401 152.12 218.401 150.55V148.39C218.401 148.23 218.321 148.15 218.161 148.15H212.781C212.621 148.15 212.481 148.1 212.371 147.98C212.261 147.87 212.201 147.73 212.201 147.57V143.15C212.201 142.99 212.261 142.85 212.371 142.74C212.481 142.63 212.621 142.57 212.781 142.57H224.491C224.651 142.57 224.791 142.63 224.901 142.74C225.011 142.85 225.071 142.99 225.071 143.15V149.49C225.071 151.92 224.561 154.03 223.531 155.83C222.511 157.62 221.061 158.99 219.191 159.93C217.321 160.87 215.151 161.35 212.691 161.35C210.231 161.35 208.051 160.85 206.161 159.86L206.171 159.83Z" fill="#0A0A80"/>
<path d="M233.4 160.76C233.29 160.65 233.23 160.51 233.23 160.35V127.9C233.23 127.74 233.29 127.61 233.4 127.49C233.51 127.38 233.65 127.32 233.81 127.32H239.43C239.59 127.32 239.73 127.38 239.84 127.49C239.95 127.6 240.01 127.74 240.01 127.9V160.35C240.01 160.51 239.95 160.65 239.84 160.76C239.73 160.87 239.59 160.93 239.43 160.93H233.81C233.65 160.93 233.51 160.87 233.4 160.76Z" fill="#0A0A80"/>
<path d="M271.401 127.5C271.511 127.61 271.571 127.75 271.571 127.91V132.61C271.571 132.77 271.511 132.91 271.401 133.02C271.291 133.13 271.151 133.19 270.991 133.19H262.401C262.241 133.19 262.161 133.27 262.161 133.43V160.36C262.161 160.52 262.101 160.66 261.991 160.77C261.881 160.88 261.741 160.94 261.581 160.94H255.961C255.801 160.94 255.661 160.88 255.551 160.77C255.441 160.66 255.381 160.52 255.381 160.36V133.43C255.381 133.27 255.301 133.19 255.141 133.19H246.791C246.631 133.19 246.491 133.13 246.381 133.02C246.271 132.91 246.211 132.77 246.211 132.61V127.91C246.211 127.75 246.271 127.62 246.381 127.5C246.491 127.39 246.631 127.33 246.791 127.33H270.981C271.141 127.33 271.281 127.39 271.391 127.5H271.401Z" fill="#0A0A80"/>
<path d="M294.92 160.45L293.48 155.75C293.42 155.62 293.34 155.56 293.24 155.56H281.43C281.33 155.56 281.25 155.62 281.19 155.75L279.8 160.45C279.7 160.77 279.5 160.93 279.18 160.93H273.08C272.89 160.93 272.74 160.87 272.65 160.76C272.55 160.65 272.54 160.48 272.6 160.26L282.97 127.81C283.07 127.49 283.27 127.33 283.59 127.33H291.13C291.45 127.33 291.66 127.49 291.75 127.81L302.12 160.26C302.15 160.32 302.17 160.4 302.17 160.5C302.17 160.79 301.99 160.93 301.64 160.93H295.54C295.22 160.93 295.01 160.77 294.92 160.45ZM283.11 150.32H291.56C291.75 150.32 291.82 150.22 291.75 150.03L287.43 135.77C287.4 135.64 287.35 135.59 287.29 135.6C287.23 135.62 287.18 135.67 287.15 135.77L282.93 150.03C282.9 150.22 282.96 150.32 283.12 150.32H283.11Z" fill="#0A0A80"/>
<path d="M308.57 160.76C308.46 160.65 308.4 160.51 308.4 160.35V127.9C308.4 127.74 308.46 127.61 308.57 127.49C308.68 127.38 308.82 127.32 308.98 127.32H314.6C314.76 127.32 314.9 127.38 315.01 127.49C315.12 127.6 315.18 127.74 315.18 127.9V154.88C315.18 155.04 315.26 155.12 315.42 155.12H331.12C331.28 155.12 331.42 155.18 331.53 155.29C331.64 155.4 331.7 155.54 331.7 155.7V160.36C331.7 160.52 331.64 160.66 331.53 160.77C331.42 160.88 331.28 160.94 331.12 160.94H308.99C308.83 160.94 308.69 160.88 308.58 160.77L308.57 160.76Z" fill="#0A0A80"/>
<path d="M135.33 182.97C135.22 183.08 135.08 183.14 134.92 183.14H119.18C119.02 183.14 118.94 183.22 118.94 183.38V190.82C118.94 190.98 119.02 191.06 119.18 191.06H129.5C129.66 191.06 129.8 191.12 129.91 191.23C130.02 191.34 130.08 191.48 130.08 191.64V196.3C130.08 196.46 130.02 196.6 129.91 196.71C129.8 196.82 129.66 196.88 129.5 196.88H119.18C119.02 196.88 118.94 196.96 118.94 197.12V204.9C118.94 205.06 119.02 205.14 119.18 205.14H134.92C135.08 205.14 135.22 205.2 135.33 205.31C135.44 205.42 135.5 205.56 135.5 205.72V210.38C135.5 210.54 135.44 210.68 135.33 210.79C135.22 210.9 135.08 210.96 134.92 210.96H112.74C112.58 210.96 112.44 210.9 112.33 210.79C112.22 210.68 112.16 210.54 112.16 210.38V177.93C112.16 177.77 112.22 177.64 112.33 177.52C112.44 177.41 112.58 177.35 112.74 177.35H134.92C135.08 177.35 135.22 177.41 135.33 177.52C135.44 177.63 135.5 177.77 135.5 177.93V182.59C135.5 182.75 135.44 182.89 135.33 183V182.97Z" fill="#0A0A80"/>
<path d="M147.01 209.85C145.12 208.87 143.67 207.51 142.64 205.75C141.62 203.99 141.1 201.96 141.1 199.65V188.56C141.1 186.26 141.61 184.22 142.64 182.46C143.66 180.7 145.12 179.34 147.01 178.38C148.9 177.42 151.09 176.94 153.59 176.94C156.09 176.94 158.22 177.4 160.09 178.31C161.96 179.22 163.42 180.52 164.46 182.2C165.5 183.88 166.02 185.82 166.02 188.03C166.02 188.32 165.83 188.49 165.44 188.56L159.82 188.9H159.72C159.4 188.9 159.24 188.73 159.24 188.37C159.24 186.67 158.72 185.31 157.68 184.29C156.64 183.27 155.27 182.75 153.58 182.75C151.89 182.75 150.47 183.26 149.43 184.29C148.39 185.31 147.87 186.67 147.87 188.37V199.94C147.87 201.6 148.39 202.95 149.43 203.97C150.47 204.99 151.85 205.51 153.58 205.51C155.31 205.51 156.64 205 157.68 203.97C158.72 202.95 159.24 201.6 159.24 199.94C159.24 199.59 159.43 199.41 159.82 199.41L165.44 199.65C165.6 199.65 165.74 199.7 165.85 199.79C165.96 199.89 166.02 200 166.02 200.13C166.02 202.34 165.5 204.29 164.46 205.99C163.42 207.69 161.96 209 160.09 209.93C158.22 210.86 156.05 211.32 153.59 211.32C151.13 211.32 148.9 210.83 147.01 209.86V209.85Z" fill="#0A0A80"/>
<path d="M178.299 209.92C176.399 208.9 174.919 207.46 173.859 205.62C172.799 203.78 172.279 201.66 172.279 199.26V188.99C172.279 186.62 172.809 184.53 173.859 182.7C174.919 180.88 176.399 179.46 178.299 178.45C180.199 177.44 182.399 176.94 184.899 176.94C187.399 176.94 189.639 177.44 191.549 178.45C193.449 179.46 194.929 180.87 195.989 182.7C197.049 184.52 197.569 186.62 197.569 188.99V199.26C197.569 201.66 197.039 203.79 195.989 205.64C194.929 207.5 193.449 208.93 191.549 209.94C189.649 210.95 187.429 211.45 184.899 211.45C182.369 211.45 180.199 210.94 178.299 209.91V209.92ZM189.169 203.97C190.259 202.85 190.799 201.36 190.799 199.51V188.95C190.799 187.09 190.259 185.6 189.189 184.46C188.119 183.32 186.689 182.76 184.889 182.76C183.089 182.76 181.709 183.33 180.639 184.46C179.569 185.6 179.029 187.09 179.029 188.95V199.51C179.029 201.37 179.569 202.85 180.639 203.97C181.709 205.09 183.129 205.65 184.889 205.65C186.649 205.65 188.069 205.09 189.159 203.97H189.169Z" fill="#0A0A80"/>
<path d="M224.04 177.5C224.15 177.39 224.29 177.33 224.45 177.33H230.07C230.23 177.33 230.37 177.39 230.48 177.5C230.59 177.61 230.65 177.75 230.65 177.91V210.36C230.65 210.52 230.59 210.66 230.48 210.77C230.37 210.88 230.23 210.94 230.07 210.94H224.65C224.33 210.94 224.11 210.81 223.98 210.56L211.55 190.02C211.49 189.92 211.42 189.88 211.36 189.9C211.3 189.92 211.26 189.99 211.26 190.12L211.36 210.38C211.36 210.54 211.3 210.68 211.19 210.79C211.08 210.9 210.94 210.96 210.78 210.96H205.16C205 210.96 204.86 210.9 204.75 210.79C204.64 210.68 204.58 210.54 204.58 210.38V177.93C204.58 177.77 204.64 177.64 204.75 177.52C204.86 177.41 205 177.35 205.16 177.35H210.58C210.9 177.35 211.12 177.48 211.25 177.73L223.63 198.18C223.69 198.28 223.76 198.32 223.82 198.3C223.88 198.28 223.92 198.21 223.92 198.08L223.87 177.92C223.87 177.76 223.93 177.63 224.04 177.51V177.5Z" fill="#0A0A80"/>
<path d="M243.69 209.92C241.79 208.9 240.31 207.46 239.25 205.62C238.19 203.78 237.67 201.66 237.67 199.26V188.99C237.67 186.62 238.2 184.53 239.25 182.7C240.31 180.88 241.79 179.46 243.69 178.45C245.59 177.44 247.79 176.94 250.29 176.94C252.79 176.94 255.03 177.44 256.94 178.45C258.84 179.46 260.32 180.87 261.38 182.7C262.44 184.52 262.96 186.62 262.96 188.99V199.26C262.96 201.66 262.43 203.79 261.38 205.64C260.32 207.5 258.84 208.93 256.94 209.94C255.04 210.95 252.82 211.45 250.29 211.45C247.76 211.45 245.59 210.94 243.69 209.91V209.92ZM254.56 203.97C255.65 202.85 256.19 201.36 256.19 199.51V188.95C256.19 187.09 255.65 185.6 254.58 184.46C253.51 183.32 252.08 182.76 250.28 182.76C248.48 182.76 247.1 183.33 246.03 184.46C244.96 185.6 244.42 187.09 244.42 188.95V199.51C244.42 201.37 244.96 202.85 246.03 203.97C247.1 205.09 248.52 205.65 250.28 205.65C252.04 205.65 253.46 205.09 254.55 203.97H254.56Z" fill="#0A0A80"/>
<path d="M292.239 177.33H297.859C298.019 177.33 298.159 177.39 298.269 177.5C298.379 177.61 298.439 177.75 298.439 177.91V210.36C298.439 210.52 298.379 210.66 298.269 210.77C298.159 210.88 298.019 210.94 297.859 210.94H292.239C292.079 210.94 291.939 210.88 291.829 210.77C291.719 210.66 291.659 210.52 291.659 210.36V189.19C291.659 189.06 291.629 189 291.559 189C291.489 189 291.429 189.05 291.369 189.14L286.279 197.11C286.119 197.37 285.899 197.49 285.609 197.49H282.779C282.489 197.49 282.269 197.36 282.109 197.11L277.019 189.14C276.959 189.04 276.889 189 276.829 189.02C276.769 189.04 276.729 189.11 276.729 189.24V210.36C276.729 210.52 276.669 210.66 276.559 210.77C276.449 210.88 276.309 210.94 276.149 210.94H270.529C270.369 210.94 270.229 210.88 270.119 210.77C270.009 210.66 269.949 210.52 269.949 210.36V177.91C269.949 177.75 270.009 177.62 270.119 177.5C270.229 177.39 270.369 177.33 270.529 177.33H276.149C276.439 177.33 276.659 177.46 276.819 177.71L284.019 188.89C284.119 189.08 284.209 189.08 284.309 188.89L291.559 177.71C291.719 177.45 291.939 177.33 292.229 177.33H292.239Z" fill="#0A0A80"/>
<path d="M314.909 210.72C314.799 210.61 314.739 210.47 314.739 210.31V198.17C314.739 198.04 314.719 197.95 314.689 197.88L304.799 178.01C304.739 177.88 304.699 177.79 304.699 177.72C304.699 177.46 304.879 177.34 305.229 177.34H311.279C311.599 177.34 311.819 177.48 311.949 177.77L317.949 190.54C318.049 190.73 318.139 190.73 318.239 190.54L324.239 177.77C324.369 177.48 324.589 177.34 324.909 177.34H331.049C331.269 177.34 331.429 177.4 331.509 177.51C331.589 177.62 331.579 177.79 331.489 178.01L321.509 197.88C321.479 197.94 321.459 198.04 321.459 198.17V210.31C321.459 210.47 321.399 210.61 321.289 210.72C321.179 210.83 321.039 210.89 320.879 210.89H315.309C315.149 210.89 315.009 210.83 314.899 210.72H314.909Z" fill="#0A0A80"/>
<path d="M165.74 260.45L164.3 255.75C164.24 255.62 164.16 255.56 164.06 255.56H152.25C152.15 255.56 152.07 255.62 152.01 255.75L150.62 260.45C150.52 260.77 150.32 260.93 150 260.93H143.9C143.71 260.93 143.56 260.87 143.47 260.76C143.37 260.65 143.36 260.48 143.42 260.26L153.79 227.81C153.89 227.49 154.09 227.33 154.41 227.33H161.95C162.27 227.33 162.48 227.49 162.57 227.81L172.94 260.26C172.97 260.32 172.99 260.4 172.99 260.5C172.99 260.79 172.81 260.93 172.46 260.93H166.36C166.04 260.93 165.83 260.77 165.74 260.45ZM153.93 250.32H162.38C162.57 250.32 162.64 250.22 162.57 250.03L158.25 235.77C158.22 235.64 158.17 235.59 158.11 235.6C158.05 235.62 158 235.67 157.97 235.77L153.75 250.03C153.72 250.22 153.78 250.32 153.94 250.32H153.93Z" fill="#0A0A80"/>
<path d="M197.97 227.5C198.08 227.39 198.22 227.33 198.38 227.33H204C204.16 227.33 204.3 227.39 204.41 227.5C204.52 227.61 204.58 227.75 204.58 227.91V260.36C204.58 260.52 204.52 260.66 204.41 260.77C204.3 260.88 204.16 260.94 204 260.94H198.58C198.26 260.94 198.04 260.81 197.91 260.56L185.48 240.02C185.42 239.92 185.35 239.88 185.29 239.9C185.23 239.92 185.19 239.99 185.19 240.12L185.29 260.38C185.29 260.54 185.23 260.68 185.12 260.79C185.01 260.9 184.87 260.96 184.71 260.96H179.09C178.93 260.96 178.79 260.9 178.68 260.79C178.57 260.68 178.51 260.54 178.51 260.38V227.93C178.51 227.77 178.57 227.64 178.68 227.52C178.79 227.41 178.93 227.35 179.09 227.35H184.51C184.83 227.35 185.05 227.48 185.18 227.73L197.56 248.18C197.62 248.28 197.69 248.32 197.75 248.3C197.81 248.28 197.85 248.21 197.85 248.08L197.8 227.92C197.8 227.76 197.86 227.63 197.97 227.51V227.5Z" fill="#0A0A80"/>
<path d="M230.97 227.5C231.08 227.39 231.22 227.33 231.38 227.33H237C237.16 227.33 237.3 227.39 237.41 227.5C237.52 227.61 237.58 227.75 237.58 227.91V260.36C237.58 260.52 237.52 260.66 237.41 260.77C237.3 260.88 237.16 260.94 237 260.94H231.58C231.26 260.94 231.04 260.81 230.91 260.56L218.48 240.02C218.42 239.92 218.35 239.88 218.29 239.9C218.23 239.92 218.19 239.99 218.19 240.12L218.29 260.38C218.29 260.54 218.23 260.68 218.12 260.79C218.01 260.9 217.87 260.96 217.71 260.96H212.09C211.93 260.96 211.79 260.9 211.68 260.79C211.57 260.68 211.51 260.54 211.51 260.38V227.93C211.51 227.77 211.57 227.64 211.68 227.52C211.79 227.41 211.93 227.35 212.09 227.35H217.51C217.83 227.35 218.05 227.48 218.18 227.73L230.56 248.18C230.62 248.28 230.69 248.32 230.75 248.3C230.81 248.28 230.85 248.21 230.85 248.08L230.8 227.92C230.8 227.76 230.86 227.63 230.97 227.51V227.5Z" fill="#0A0A80"/>
<path d="M250.25 259.88C248.38 258.92 246.92 257.57 245.88 255.82C244.84 254.08 244.32 252.07 244.32 249.8V227.91C244.32 227.75 244.38 227.62 244.49 227.5C244.6 227.39 244.74 227.33 244.9 227.33H250.52C250.68 227.33 250.82 227.39 250.93 227.5C251.04 227.61 251.1 227.75 251.1 227.91V249.85C251.1 251.55 251.62 252.91 252.66 253.95C253.7 254.99 255.07 255.51 256.76 255.51C258.45 255.51 259.82 254.99 260.86 253.95C261.9 252.91 262.42 251.54 262.42 249.85V227.91C262.42 227.75 262.48 227.62 262.59 227.5C262.7 227.39 262.84 227.33 263 227.33H268.62C268.78 227.33 268.92 227.39 269.03 227.5C269.14 227.61 269.2 227.75 269.2 227.91V249.8C269.2 252.07 268.68 254.08 267.64 255.82C266.6 257.57 265.14 258.92 263.27 259.88C261.4 260.84 259.23 261.32 256.77 261.32C254.31 261.32 252.14 260.84 250.27 259.88H250.25Z" fill="#0A0A80"/>
<path d="M295.64 260.45L294.2 255.75C294.14 255.62 294.06 255.56 293.96 255.56H282.15C282.05 255.56 281.97 255.62 281.91 255.75L280.52 260.45C280.42 260.77 280.22 260.93 279.9 260.93H273.8C273.61 260.93 273.46 260.87 273.37 260.76C273.27 260.65 273.26 260.48 273.32 260.26L283.69 227.81C283.79 227.49 283.99 227.33 284.31 227.33H291.85C292.17 227.33 292.38 227.49 292.47 227.81L302.84 260.26C302.87 260.32 302.89 260.4 302.89 260.5C302.89 260.79 302.71 260.93 302.36 260.93H296.26C295.94 260.93 295.73 260.77 295.64 260.45ZM283.83 250.32H292.28C292.47 250.32 292.54 250.22 292.47 250.03L288.15 235.77C288.12 235.64 288.07 235.59 288.01 235.6C287.95 235.62 287.9 235.67 287.87 235.77L283.65 250.03C283.62 250.22 283.68 250.32 283.84 250.32H283.83Z" fill="#0A0A80"/>
<path d="M308.57 260.76C308.46 260.65 308.4 260.51 308.4 260.35V227.9C308.4 227.74 308.46 227.61 308.57 227.49C308.68 227.38 308.82 227.32 308.98 227.32H314.6C314.76 227.32 314.9 227.38 315.01 227.49C315.12 227.6 315.18 227.74 315.18 227.9V254.88C315.18 255.04 315.26 255.12 315.42 255.12H331.12C331.28 255.12 331.42 255.18 331.53 255.29C331.64 255.4 331.7 255.54 331.7 255.7V260.36C331.7 260.52 331.64 260.66 331.53 260.77C331.42 260.88 331.28 260.94 331.12 260.94H308.99C308.83 260.94 308.69 260.88 308.58 260.77L308.57 260.76Z" fill="#0A0A80"/>
<path d="M162.491 310.5L156.491 297.2C156.431 297.07 156.331 297.01 156.201 297.01H151.741C151.581 297.01 151.501 297.09 151.501 297.25V310.35C151.501 310.51 151.441 310.65 151.331 310.76C151.221 310.87 151.081 310.93 150.921 310.93H145.301C145.141 310.93 145.001 310.87 144.891 310.76C144.781 310.65 144.721 310.51 144.721 310.35V277.9C144.721 277.74 144.781 277.61 144.891 277.49C145.001 277.38 145.141 277.32 145.301 277.32H159.031C161.081 277.32 162.881 277.74 164.431 278.57C165.981 279.4 167.181 280.59 168.031 282.12C168.881 283.66 169.301 285.43 169.301 287.45C169.301 289.63 168.761 291.49 167.671 293.04C166.581 294.59 165.061 295.69 163.111 296.33C162.951 296.39 162.901 296.51 162.971 296.67L169.501 310.25C169.561 310.38 169.601 310.47 169.601 310.54C169.601 310.8 169.421 310.92 169.071 310.92H163.171C162.851 310.92 162.631 310.78 162.501 310.49L162.491 310.5ZM151.501 283.38V291.59C151.501 291.75 151.581 291.83 151.741 291.83H158.031C159.371 291.83 160.471 291.43 161.321 290.63C162.171 289.83 162.591 288.79 162.591 287.51C162.591 286.23 162.171 285.18 161.321 284.37C160.471 283.55 159.381 283.15 158.031 283.15H151.741C151.581 283.15 151.501 283.23 151.501 283.39V283.38Z" fill="#0A0A80"/>
<path d="M198.449 282.97C198.339 283.08 198.199 283.14 198.039 283.14H182.299C182.139 283.14 182.059 283.22 182.059 283.38V290.82C182.059 290.98 182.139 291.06 182.299 291.06H192.619C192.779 291.06 192.919 291.12 193.029 291.23C193.139 291.34 193.199 291.48 193.199 291.64V296.3C193.199 296.46 193.139 296.6 193.029 296.71C192.919 296.82 192.779 296.88 192.619 296.88H182.299C182.139 296.88 182.059 296.96 182.059 297.12V304.9C182.059 305.06 182.139 305.14 182.299 305.14H198.039C198.199 305.14 198.339 305.2 198.449 305.31C198.559 305.42 198.619 305.56 198.619 305.72V310.38C198.619 310.54 198.559 310.68 198.449 310.79C198.339 310.9 198.199 310.96 198.039 310.96H175.859C175.699 310.96 175.559 310.9 175.449 310.79C175.339 310.68 175.279 310.54 175.279 310.38V277.93C175.279 277.77 175.339 277.64 175.449 277.52C175.559 277.41 175.699 277.35 175.859 277.35H198.039C198.199 277.35 198.339 277.41 198.449 277.52C198.559 277.63 198.619 277.77 198.619 277.93V282.59C198.619 282.75 198.559 282.89 198.449 283V282.97Z" fill="#0A0A80"/>
<path d="M223.921 278.58C225.521 279.44 226.761 280.67 227.641 282.25C228.521 283.83 228.961 285.65 228.961 287.7C228.961 289.75 228.501 291.49 227.591 293.03C226.681 294.57 225.401 295.76 223.751 296.61C222.101 297.46 220.211 297.88 218.061 297.88H211.241C211.081 297.88 211.001 297.96 211.001 298.12V310.36C211.001 310.52 210.941 310.66 210.831 310.77C210.721 310.88 210.581 310.94 210.421 310.94H204.801C204.641 310.94 204.501 310.88 204.391 310.77C204.281 310.66 204.221 310.52 204.221 310.36V277.86C204.221 277.7 204.281 277.57 204.391 277.45C204.501 277.34 204.641 277.28 204.801 277.28H218.341C220.451 277.28 222.311 277.71 223.911 278.58H223.921ZM220.901 291.18C221.801 290.33 222.241 289.22 222.241 287.84C222.241 286.46 221.791 285.3 220.901 284.43C220.001 283.57 218.821 283.13 217.351 283.13H211.251C211.091 283.13 211.011 283.21 211.011 283.37V292.2C211.011 292.36 211.091 292.44 211.251 292.44H217.351C218.821 292.44 220.011 292.02 220.901 291.17V291.18Z" fill="#0A0A80"/>
<path d="M240.161 309.92C238.261 308.9 236.781 307.46 235.721 305.62C234.661 303.78 234.141 301.66 234.141 299.26V288.99C234.141 286.62 234.671 284.53 235.721 282.7C236.781 280.88 238.261 279.46 240.161 278.45C242.061 277.44 244.261 276.94 246.761 276.94C249.261 276.94 251.501 277.44 253.411 278.45C255.311 279.46 256.791 280.87 257.851 282.7C258.911 284.52 259.431 286.62 259.431 288.99V299.26C259.431 301.66 258.901 303.79 257.851 305.64C256.791 307.5 255.311 308.93 253.411 309.94C251.511 310.95 249.291 311.45 246.761 311.45C244.231 311.45 242.061 310.94 240.161 309.91V309.92ZM251.031 303.97C252.121 302.85 252.661 301.36 252.661 299.51V288.95C252.661 287.09 252.121 285.6 251.051 284.46C249.981 283.32 248.551 282.76 246.751 282.76C244.951 282.76 243.571 283.33 242.501 284.46C241.431 285.6 240.891 287.09 240.891 288.95V299.51C240.891 301.37 241.431 302.85 242.501 303.97C243.571 305.09 244.991 305.65 246.751 305.65C248.511 305.65 249.931 305.09 251.021 303.97H251.031Z" fill="#0A0A80"/>
<path d="M283.469 310.5L277.469 297.2C277.409 297.07 277.309 297.01 277.179 297.01H272.719C272.559 297.01 272.479 297.09 272.479 297.25V310.35C272.479 310.51 272.419 310.65 272.309 310.76C272.199 310.87 272.059 310.93 271.899 310.93H266.279C266.119 310.93 265.979 310.87 265.869 310.76C265.759 310.65 265.699 310.51 265.699 310.35V277.9C265.699 277.74 265.759 277.61 265.869 277.49C265.979 277.38 266.119 277.32 266.279 277.32H280.009C282.059 277.32 283.859 277.74 285.409 278.57C286.959 279.4 288.159 280.59 289.009 282.12C289.859 283.66 290.279 285.43 290.279 287.45C290.279 289.63 289.739 291.49 288.649 293.04C287.559 294.59 286.039 295.69 284.089 296.33C283.929 296.39 283.879 296.51 283.949 296.67L290.479 310.25C290.539 310.38 290.579 310.47 290.579 310.54C290.579 310.8 290.399 310.92 290.049 310.92H284.149C283.829 310.92 283.609 310.78 283.479 310.49L283.469 310.5ZM272.479 283.38V291.59C272.479 291.75 272.559 291.83 272.719 291.83H279.009C280.349 291.83 281.449 291.43 282.299 290.63C283.149 289.83 283.569 288.79 283.569 287.51C283.569 286.23 283.149 285.18 282.299 284.37C281.449 283.55 280.359 283.15 279.009 283.15H272.719C272.559 283.15 272.479 283.23 272.479 283.39V283.38Z" fill="#0A0A80"/>
<path d="M320.19 277.5C320.3 277.61 320.36 277.75 320.36 277.91V282.61C320.36 282.77 320.3 282.91 320.19 283.02C320.08 283.13 319.94 283.19 319.78 283.19H311.19C311.03 283.19 310.95 283.27 310.95 283.43V310.36C310.95 310.52 310.89 310.66 310.78 310.77C310.67 310.88 310.53 310.94 310.37 310.94H304.75C304.59 310.94 304.45 310.88 304.34 310.77C304.23 310.66 304.17 310.52 304.17 310.36V283.43C304.17 283.27 304.09 283.19 303.93 283.19H295.58C295.42 283.19 295.28 283.13 295.17 283.02C295.06 282.91 295 282.77 295 282.61V277.91C295 277.75 295.06 277.62 295.17 277.5C295.28 277.39 295.42 277.33 295.58 277.33H319.77C319.93 277.33 320.07 277.39 320.18 277.5H320.19Z" fill="#0A0A80"/>
<path d="M322.83 293.36C322.33 292.85 322.09 292.21 322.09 291.44C322.09 290.67 322.34 289.99 322.83 289.5C323.33 289 323.97 288.76 324.77 288.76C325.57 288.76 326.18 289.01 326.69 289.5C327.2 290 327.46 290.64 327.46 291.44C327.46 292.24 327.2 292.85 326.69 293.36C326.18 293.87 325.54 294.13 324.77 294.13C324 294.13 323.32 293.87 322.83 293.36ZM322.83 309.54C322.33 309.03 322.09 308.39 322.09 307.62C322.09 306.85 322.34 306.17 322.83 305.68C323.33 305.18 323.97 304.94 324.77 304.94C325.57 304.94 326.18 305.19 326.69 305.68C327.2 306.18 327.46 306.82 327.46 307.62C327.46 308.42 327.2 309.03 326.69 309.54C326.18 310.05 325.54 310.31 324.77 310.31C324 310.31 323.32 310.05 322.83 309.54Z" fill="#0A0A80"/>
<path d="M290.511 9.75994V11.1399C290.511 11.3499 290.401 11.4599 290.191 11.4599H283.921C283.831 11.4599 283.791 11.4999 283.791 11.5899V31.5299C283.791 31.7399 283.681 31.8499 283.471 31.8499H281.841C281.631 31.8499 281.521 31.7399 281.521 31.5299V11.5899C281.521 11.5099 281.481 11.4599 281.391 11.4599H275.371C275.161 11.4599 275.051 11.3499 275.051 11.1399V9.75994C275.051 9.54994 275.161 9.43994 275.371 9.43994H290.191C290.401 9.43994 290.511 9.54994 290.511 9.75994Z" fill="#0A0A80"/>
<path d="M307.65 9.43994H309.28C309.49 9.43994 309.6 9.54994 309.6 9.75994V31.5199C309.6 31.7299 309.49 31.8399 309.28 31.8399H307.65C307.44 31.8399 307.33 31.7299 307.33 31.5199V21.6999C307.33 21.6199 307.29 21.5699 307.2 21.5699H296.99C296.9 21.5699 296.86 21.6099 296.86 21.6999V31.5199C296.86 31.7299 296.75 31.8399 296.54 31.8399H294.91C294.7 31.8399 294.59 31.7299 294.59 31.5199V9.75994C294.59 9.54994 294.7 9.43994 294.91 9.43994H296.54C296.75 9.43994 296.86 9.54994 296.86 9.75994V19.4599C296.86 19.5399 296.9 19.5899 296.99 19.5899H307.2C307.28 19.5899 307.33 19.5499 307.33 19.4599V9.75994C307.33 9.54994 307.44 9.43994 307.65 9.43994Z" fill="#0A0A80"/>
<path d="M329.901 11.4299H318.121C318.031 11.4299 317.991 11.4699 317.991 11.5599V19.4599C317.991 19.5399 318.031 19.5899 318.121 19.5899H326.381C326.591 19.5899 326.701 19.6999 326.701 19.9099V21.2499C326.701 21.4599 326.591 21.5699 326.381 21.5699H318.121C318.031 21.5699 317.991 21.6099 317.991 21.6999V29.7299C317.991 29.8199 318.031 29.8599 318.121 29.8599H329.901C330.111 29.8599 330.221 29.9699 330.221 30.1799V31.5199C330.221 31.7299 330.111 31.8399 329.901 31.8399H316.041C315.831 31.8399 315.721 31.7299 315.721 31.5199V9.75994C315.721 9.54994 315.831 9.43994 316.041 9.43994H329.901C330.111 9.43994 330.221 9.54994 330.221 9.75994V11.0999C330.221 11.3099 330.111 11.4199 329.901 11.4199V11.4299Z" fill="#0A0A80"/>
</g>
<defs>
<clipPath id="clip0_1163_4173">
<rect width="331.68" height="350.13" fill="white"/>
</clipPath>
</defs>
</svg>
