<svg xmlns="http://www.w3.org/2000/svg" width="102" height="50" viewBox="0 0 102 50">
    <g fill="#121212" fill-rule="evenodd">
        <path d="M66.535 45.27v1.461h-9.211l3.118-3.55c.199-.232.484-.57.856-1.015 2.29-2.727 3.435-4.633 3.435-5.716 0-.729-.255-1.323-.765-1.784-.51-.462-1.178-.692-2.006-.692-.892 0-1.575.25-2.05.75-.474.5-.711.93-.711 1.871v.165h-1.578c0-.046-.02-.339-.02-.378 0-1.34.388-2.094 1.165-2.838.776-.745 1.86-1.118 3.252-1.118 1.366 0 2.436.347 3.209 1.04.773.693 1.16 1.656 1.16 2.887 0 .89-.262 1.81-.785 2.762-.523.95-1.448 2.155-2.776 3.612l-2.358 2.544h6.065zM75.89 45.39a5.783 5.783 0 1 0 0-11.566 5.783 5.783 0 0 0 0 11.566zm0 1.542a7.325 7.325 0 1 1 0-14.65 7.325 7.325 0 0 1 0 14.65zM87.572 46.808v-12.82h-2.43l.954-1.48h3.132v14.3zM94.05 39.348h-.132l2.156-6.922h5.78v1.462h-4.745l-.773 3.278c.51-.088.902-.132 1.176-.132 1.406 0 2.326.54 3.143 1.374.818.835 1.345 2.01 1.345 3.439 0 1.624-.4 2.739-1.345 3.678-.944.938-2.23 1.407-3.859 1.407-.987 0-1.832-.17-2.535-.511-.703-.341-1.562-1-2.052-1.714l1.337-1.001c.32.65.882.885 1.421 1.23.54.343 1.163.516 1.869.516 1.033 0 1.863-.328 2.49-.984.628-.656.942-1.53.942-2.621 0-1.04-.325-1.872-.976-2.499-.65-.627-1.518-.94-2.603-.94-.57 0-1.003.049-1.492.258-.326.14-.709.367-1.147.682zM80.704 5.141h1.342c.005-.285-.12-.728-.637-.728-.465 0-.669.418-.705.728zm1.77.321h-1.776c.01.606.408.856.867.856a1.7 1.7 0 0 0 .7-.127l.078.32a2.093 2.093 0 0 1-.84.153c-.779 0-1.243-.499-1.243-1.242 0-.744.449-1.33 1.185-1.33.825 0 1.045.708 1.045 1.161 0 .092-.01.163-.016.21zm-3.617 1.151V4.917c0-.29-.005-.54-.02-.769h.402l.015.484h.021c.115-.33.392-.54.7-.54.052 0 .089.005.13.016v.422a.706.706 0 0 0-.156-.015c-.324 0-.554.24-.616.575-.01.062-.021.133-.021.21v1.313h-.455zm-1.736-2.185c-.543 0-.778.49-.778.958 0 .54.319.947.768.947.438 0 .767-.402.767-.957 0-.418-.214-.948-.757-.948zm.01-.336c.726 0 1.217.515 1.217 1.268 0 .912-.647 1.31-1.258 1.31-.684 0-1.212-.49-1.212-1.269 0-.825.554-1.309 1.254-1.309zm-2.592-.534l.449-.117v.707h.658v.342h-.658v1.329c0 .305.089.478.344.478.12 0 .21-.015.267-.03l.02.336c-.088.036-.23.061-.407.061-.214 0-.386-.066-.496-.188-.13-.133-.177-.352-.177-.642V4.49h-.392v-.342h.392v-.59zm-2.755 2.887l.115-.372c.203.123.501.224.814.224.465 0 .737-.239.737-.585 0-.321-.188-.504-.664-.683-.574-.198-.93-.489-.93-.972 0-.535.455-.932 1.14-.932.36 0 .62.081.777.168l-.125.361a1.43 1.43 0 0 0-.668-.163c-.48 0-.664.28-.664.515 0 .32.215.478.7.662.595.224.898.504.898 1.008 0 .53-.402.988-1.232.988-.34 0-.71-.097-.898-.219zm-3.322-1.258v.423c0 .066.01.127.021.183.084.31.36.525.69.525.485 0 .767-.387.767-.953 0-.494-.266-.916-.752-.916a.73.73 0 0 0-.694.555.712.712 0 0 0-.032.183zm-.454 2.435V4.953c0-.316-.01-.57-.02-.805h.412l.02.423h.011c.188-.3.486-.479.898-.479.611 0 1.07.504 1.07 1.253 0 .886-.553 1.324-1.148 1.324-.334 0-.627-.142-.778-.387h-.01v1.34h-.455zm-2.447-2.435v.423c0 .066.01.127.021.183.084.31.36.525.69.525.485 0 .767-.387.767-.953 0-.494-.266-.916-.752-.916a.73.73 0 0 0-.694.555.709.709 0 0 0-.032.183zm-.454 2.435V4.953c0-.316-.01-.57-.02-.805h.412l.02.423h.011c.188-.3.486-.479.898-.479.611 0 1.071.504 1.071 1.253 0 .886-.554 1.324-1.149 1.324-.334 0-.627-.142-.778-.387h-.01v1.34h-.455zm-2.431-2.435h1.06l-.344-.988c-.079-.224-.131-.428-.183-.626h-.01c-.053.204-.11.412-.178.621l-.345.993zm1.154.347h-1.248l-.366 1.08h-.47l1.196-3.433h.549l1.2 3.432h-.485l-.376-1.08zM58.873 3.958c.132 0 .378-.182.697-.182.55 0 .767.392.767.392s-.423.217-.423.742c0 .593.527.797.527.797s-.369 1.039-.867 1.039c-.228 0-.406-.155-.647-.155-.246 0-.49.16-.648.16-.455 0-1.03-.984-1.03-1.776 0-.779.487-1.188.943-1.188.296 0 .526.171.68.171zm.137-.783c.258-.339.615-.34.615-.34s.053.319-.202.626c-.273.328-.583.274-.583.274s-.058-.258.17-.56z"/>
        <path fill-rule="nonzero" d="M38.12 49.64H10.958C4.916 49.64 0 44.724 0 38.682V11.52C0 5.478 4.916.562 10.958.562H38.12c6.042 0 10.958 4.916 10.958 10.958v27.162c0 6.042-4.916 10.958-10.958 10.958zM10.958 1.336C5.342 1.336.774 5.904.774 11.52v27.162c0 5.616 4.568 10.184 10.184 10.184H38.12c5.616 0 10.184-4.568 10.184-10.184V11.52c0-5.616-4.568-10.184-10.184-10.184H10.958z"/>
        <g fill-rule="nonzero">
            <path d="M16.807 23.977h-5.383a.098.098 0 0 0-.098.098v2.597c0 .054.044.098.098.098h3.77l1.613-2.793zM27.891 23.977h-6.888L19.39 26.77h10.114zM37.483 23.977h-5.357l1.612 2.793h3.745a.098.098 0 0 0 .098-.098v-2.597a.098.098 0 0 0-.098-.098z"/>
        </g>
        <g fill-rule="nonzero">
            <path d="M23.42 17.235l-.933-.539a.956.956 0 0 0-1.306.35l-.993 1.72 2.588 1.495.993-1.72a.956.956 0 0 0-.35-1.306zM19.99 19.109l-6.168 10.684a.129.129 0 0 0 .047.175l2.365 1.366c.062.036.14.015.176-.047l6.168-10.684-2.588-1.494z"/>
        </g>
        <g fill-rule="nonzero">
            <path d="M32.528 25.466l-7.131-12.351a.9.9 0 0 0-1.228-.33l-1.031.596a.9.9 0 0 0-.33 1.228L29.94 26.96l2.588-1.494zM34.164 28.299l-1.438-2.49-2.589 1.494 1.438 2.49c.028.048.09.065.138.037l2.414-1.393a.101.101 0 0 0 .037-.138z"/>
        </g>
        <path fill-rule="nonzero" d="M32.39 29.867l1.43-.852a.631.631 0 0 1 .534-.058c.399.141 1.087.586 1.642 1.99.742 1.876.269 3.426-.294 4.374-.08.135-.285.102-.326-.05-.191-.696-.178-.989-.895-1.599-.812-.69-1.175-.504-1.944-1.695-.463-.716-.502-1.287-.46-1.628a.652.652 0 0 1 .313-.482zM13.713 30.273L16.1 31.64a.099.099 0 0 1 .019.157l-3.706 3.509c-.059.056-.154 0-.133-.08l1.289-4.892a.099.099 0 0 1 .144-.06z"/>
        <path fill-rule="nonzero" d="M24.307 4.102c-11.675 0-21.14 9.465-21.14 21.14 0 11.674 9.465 21.138 21.14 21.138 11.674 0 21.139-9.464 21.139-21.139 0-11.674-9.465-21.139-21.14-21.139zm0 40.264c-10.563 0-19.125-8.562-19.125-19.125 0-10.562 8.562-19.124 19.125-19.124 10.562 0 19.124 8.562 19.124 19.124 0 10.563-8.562 19.125-19.124 19.125z"/>
        <g fill-rule="nonzero">
            <path d="M57.778 11.534h.912c.73 0 1.529.09 1.848.31.41.283.693.848.693 1.395 0 .447-.155.794-.492 1.104.638.219 1.04.812 1.04 1.532 0 .51-.22.976-.612 1.304-.401.328-.784.438-1.605.438h-1.784v-6.083zm1.593 2.617c.364 0 .583-.064.738-.219.155-.155.256-.428.256-.684 0-.246-.1-.501-.256-.647-.146-.146-.374-.22-.702-.22H58.7v1.77h.672zm.282 2.6c.402 0 .648-.055.849-.192a.902.902 0 0 0 .374-.72.903.903 0 0 0-.374-.721c-.21-.146-.475-.2-.949-.2h-.854v1.832h.954zM67.782 12.4v1.46h2.363v.866h-2.363v2.025h3.16v.866h-4.08v-6.083h3.941v.866h-3.02zM78.374 12.884c-.283-.466-.492-.602-.912-.602-.501 0-.743.328-.743.757 0 .2.091.374.292.51.173.119.173.119.976.447.985.41 1.422.958 1.422 1.797 0 1.113-.83 1.943-1.951 1.943-.666 0-1.232-.292-1.587-.812-.2-.292-.292-.53-.356-.985l.93-.21c.046.365.082.51.174.666.155.292.501.474.875.474.575 0 .994-.429.994-1.012a.929.929 0 0 0-.42-.803c-.21-.137-.21-.137-1.03-.483-.848-.356-1.25-.858-1.25-1.542 0-.92.644-1.614 1.683-1.614.73 0 1.231.31 1.642 1.022l-.739.447zM86.497 17.617h-.92V12.4h-1.975v-.866h4.837v.866h-1.942v5.217zM63.826 25.778c0 1.791-1.465 3.228-3.284 3.228-.896 0-1.82-.42-2.435-1.101-.522-.579-.783-1.306-.783-2.155 0-1.754 1.483-3.21 3.265-3.21a3.245 3.245 0 0 1 3.237 3.238zm-5.56-.019c0 .7.224 1.25.69 1.698.439.42 1.026.662 1.595.662 1.316 0 2.332-1.026 2.332-2.341 0-1.325-.998-2.35-2.304-2.35a2.305 2.305 0 0 0-2.313 2.331zM69.607 23.548v1.493h2.09v.886h-2.09v2.957h-.943v-6.222h3.952v.886z"/>
        </g>
    </g>
</svg>
