<svg xmlns="http://www.w3.org/2000/svg" width="102" height="53" viewBox="0 0 102 53">
    <g fill="#121212" fill-rule="nonzero">
        <path d="M48.82.524c-.63 0-1.142.51-1.142 1.141v10.353L42.846 1.182a1.14 1.14 0 0 0-1.057-.675c-.083.001-.347.017-.397.017-.63 0-1.141.51-1.141 1.141V16.54a1.142 1.142 0 0 0 2.283 0V6.088l4.863 10.905c.166.373.508.61.884.661.1.014.458.026.539.026.63 0 1.141-.51 1.141-1.141V1.665c0-.63-.51-1.141-1.141-1.141zM37.006.623h-7.441c-.63 0-1.142.511-1.142 1.142v14.774a1.142 1.142 0 0 0 2.283 0V9.977h4.321a1.141 1.141 0 1 0 0-2.283h-4.32V2.906h6.3a1.141 1.141 0 1 0 0-2.283zM25.645.598a1.141 1.141 0 0 0-1.49.622l-2.739 6.66-2.739-6.66a1.142 1.142 0 0 0-2.111.868l3.704 9.008v5.449c0 .627.508 1.135 1.135 1.135h.012c.627 0 1.136-.508 1.136-1.135V11.12l3.713-9.032a1.141 1.141 0 0 0-.621-1.49zM13.252 11.704h-.846v-1.75c0-.626-.509-1.134-1.136-1.134h-.012c-.627 0-1.135.508-1.135 1.135v1.75H7.469l4.164-9.63A1.139 1.139 0 0 0 11.04.576l-.005-.002a1.139 1.139 0 0 0-1.497.593L4.696 12.366c-.23.531-.02 1.137.465 1.426l.013.007c.038.022.074.046.115.064l.005.002.005.002c.152.074.32.12.5.12h4.323v2.558c0 .627.509 1.135 1.136 1.135h.012c.627 0 1.135-.508 1.135-1.135v-2.558h.847a1.141 1.141 0 0 0 0-2.283zM56.29 17.981a.623.623 0 0 1-.623-.623V1.08a.623.623 0 1 1 1.247 0v16.278a.623.623 0 0 1-.624.623z"/>
        <g>
            <path d="M63.383 10.346l-.697 2.307h-1.541l2.62-8.162h1.898l2.652 8.162h-1.6l-.74-2.307h-2.592zM65.73 9.22l-.644-2.011c-.157-.506-.291-1.06-.415-1.535h-.027c-.118.479-.243 1.044-.387 1.53l-.63 2.016h2.103zM69.658 6.758l.616 2.674c.142.629.274 1.267.381 1.91h.03c.119-.635.304-1.294.473-1.9l.774-2.685h1.206l.736 2.618c.182.685.347 1.328.47 1.967h.028c.093-.636.23-1.283.392-1.969l.654-2.616h1.463l-1.848 5.896h-1.385l-.707-2.4a18.244 18.244 0 0 1-.445-1.888h-.025a15.325 15.325 0 0 1-.45 1.886l-.75 2.402h-1.389l-1.744-5.896h1.52zM80.786 12.653l-.102-.657h-.036c-.357.466-.974.79-1.738.79-1.196 0-1.858-.854-1.858-1.753 0-1.488 1.325-2.241 3.497-2.232v-.098c0-.387-.154-1.032-1.197-1.028-.578 0-1.183.187-1.586.44l-.295-.967c.446-.271 1.21-.523 2.137-.523 1.891 0 2.431 1.192 2.431 2.485v2.123c0 .536.027 1.056.091 1.42h-1.344zm-.198-2.887c-1.052-.014-2.058.208-2.058 1.105 0 .578.38.85.85.85.595 0 1.024-.384 1.167-.816a1.12 1.12 0 0 0 .041-.324v-.815zM83.319 8.653c0-.79-.016-1.37-.048-1.895h1.29l.056 1.12h.042c.29-.83.978-1.253 1.614-1.253.145 0 .23.005.35.032V8.06a2.026 2.026 0 0 0-.437-.043c-.71 0-1.203.452-1.337 1.128-.025.132-.038.29-.038.45v3.057h-1.492v-4zM92.654 4.055V11c0 .604.021 1.253.048 1.653h-1.327l-.067-.933h-.027c-.351.66-1.063 1.067-1.915 1.067-1.407 0-2.522-1.201-2.522-3.013-.01-1.976 1.225-3.15 2.643-3.15.808 0 1.389.333 1.652.769h.024V4.055h1.49zm-1.49 5.159c0-.12-.008-.268-.034-.389-.132-.574-.611-1.047-1.282-1.047-.96 0-1.492.847-1.492 1.94 0 1.084.537 1.875 1.476 1.875.608 0 1.137-.416 1.287-1.061.033-.133.044-.279.044-.435v-.883zM93.885 11.282c.33.204.971.43 1.505.43.656 0 .949-.275.949-.662 0-.399-.244-.601-.969-.859-1.154-.395-1.634-1.023-1.63-1.722 0-1.037.863-1.844 2.239-1.844.649 0 1.218.162 1.563.351l-.295 1.047A2.675 2.675 0 0 0 96 7.683c-.53 0-.826.263-.826.625 0 .375.285.554 1.03.826 1.072.38 1.567.927 1.572 1.796 0 1.075-.837 1.85-2.394 1.85-.713 0-1.362-.17-1.796-.412l.3-1.086z"/>
        </g>
        <g>
            <path d="M102 52.36H0V26.068h102V52.36zM1.013 51.347h99.974V27.081H1.013v24.266z"/>
            <path d="M5.62 29.755h1.768L8.55 32.94c.143.423.269.883.412 1.324h.045c.143-.441.265-.9.408-1.324l1.127-3.185h1.769v7.169h-1.476v-2.631c0-.699.13-1.742.207-2.436h-.044l-.588 1.697L9.397 36.3h-.9l-1.015-2.746-.572-1.697h-.044c.076.694.207 1.737.207 2.436v2.63H5.62v-7.168zM13.938 33.308c0-2.342 1.323-3.685 3.256-3.685 1.934 0 3.256 1.352 3.256 3.685 0 2.342-1.322 3.748-3.256 3.748-1.933 0-3.256-1.406-3.256-3.748zm4.851 0c0-1.437-.617-2.286-1.595-2.286s-1.595.849-1.595 2.286c0 1.438.617 2.348 1.595 2.348s1.595-.91 1.595-2.348zM21.613 36.02l.93-1.113c.51.444 1.172.75 1.762.75.676 0 1.007-.267 1.007-.692 0-.452-.407-.597-1.033-.854l-.932-.397c-.743-.303-1.447-.913-1.447-1.955 0-1.188 1.061-2.136 2.554-2.136.825 0 1.688.325 2.306.94l-.818 1.02c-.473-.362-.922-.56-1.489-.56-.558 0-.914.232-.914.642 0 .44.469.6 1.094.849l.914.37c.876.353 1.422.936 1.422 1.95 0 1.19-.992 2.222-2.7 2.222a3.949 3.949 0 0 1-2.656-1.037zM29.65 31.114h-1.973v-1.36h5.568v1.36H31.27v5.81h-1.62v-5.81zM37.114 29.755h1.621v7.169h-1.62zM40.7 29.755h1.661l1.871 3.565.71 1.575h.043c-.076-.758-.207-1.763-.207-2.608v-2.532h1.544v7.169h-1.66l-1.871-3.575-.71-1.566h-.043c.076.79.207 1.751.207 2.597v2.544H40.7v-7.17zM48.29 29.755h1.662l1.87 3.565.71 1.575h.043c-.076-.758-.207-1.763-.207-2.608v-2.532h1.545v7.169h-1.661l-1.87-3.575-.71-1.566h-.044c.077.79.207 1.751.207 2.597v2.544h-1.544v-7.17zM55.542 33.308c0-2.342 1.323-3.685 3.256-3.685 1.934 0 3.256 1.352 3.256 3.685 0 2.342-1.322 3.748-3.256 3.748-1.933 0-3.256-1.406-3.256-3.748zm4.851 0c0-1.437-.617-2.286-1.595-2.286s-1.595.849-1.595 2.286c0 1.438.617 2.348 1.595 2.348s1.595-.91 1.595-2.348zM62.646 29.755h1.715l.864 3.34c.214.785.357 1.508.574 2.3h.045c.217-.792.37-1.515.574-2.3l.846-3.34h1.657l-2.162 7.169h-1.947l-2.166-7.17zM71.098 29.755h1.94l2.251 7.169h-1.715l-.938-3.631c-.199-.717-.39-1.564-.582-2.313h-.044c-.173.757-.365 1.596-.564 2.313l-.942 3.63h-1.657l2.251-7.168zm-.767 4.201h3.45v1.26h-3.45v-1.26zM76.942 31.114H74.97v-1.36h5.567v1.36h-1.973v5.81h-1.62v-5.81zM81.931 29.755h1.62v7.169h-1.62zM84.592 29.755h1.715l.865 3.34c.213.785.357 1.508.574 2.3h.044c.218-.792.37-1.515.574-2.3l.846-3.34h1.658l-2.163 7.169h-1.947l-2.166-7.17zM91.82 29.755h4.493v1.359h-2.871v1.44h2.444v1.359h-2.444v1.651h2.98v1.36h-4.601z"/>
            <g>
                <path d="M28.425 47.746l.93-1.112c.51.443 1.172.749 1.762.749.676 0 1.008-.267 1.008-.692 0-.452-.408-.596-1.034-.854l-.932-.397c-.743-.302-1.447-.913-1.447-1.954 0-1.189 1.061-2.137 2.553-2.137.826 0 1.69.325 2.307.94l-.819 1.02c-.472-.361-.92-.56-1.488-.56-.558 0-.914.232-.914.642 0 .44.47.6 1.095.849l.913.37c.876.354 1.422.937 1.422 1.95 0 1.19-.992 2.222-2.7 2.222a3.948 3.948 0 0 1-2.656-1.036zM36.462 42.84H34.49v-1.359h5.567v1.36h-1.973v5.81h-1.62v-5.81zM42.345 41.48h1.94l2.251 7.17h-1.715l-.938-3.63c-.2-.718-.391-1.565-.582-2.313h-.045c-.173.757-.364 1.595-.564 2.312l-.942 3.631h-1.656l2.251-7.17zm-.767 4.203h3.45v1.26h-3.45v-1.26zM47.502 41.48h2.581c1.521 0 2.767.529 2.767 2.233 0 1.648-1.246 2.357-2.767 2.357h-.96v2.58h-1.621v-7.17zm2.45 3.303c.852 0 1.31-.365 1.31-1.07 0-.709-.458-.945-1.31-.945h-.83v2.015h.83zm-.165.86l1.121-1.037 2.288 4.044h-1.813l-1.596-3.007zM55.725 42.84h-1.973v-1.359h5.567v1.36h-1.973v5.81h-1.62zM60.674 45.328V41.48h1.62v4.013c0 1.403.443 1.889 1.245 1.889.806 0 1.27-.486 1.27-1.89v-4.012h1.563v3.847c0 2.407-.978 3.454-2.833 3.454-1.855 0-2.865-1.047-2.865-3.454zM68.304 41.48h2.463c1.578 0 2.85.565 2.85 2.307 0 1.685-1.287 2.43-2.806 2.43h-.886v2.433h-1.62v-7.17zm2.411 3.45c.892 0 1.313-.396 1.313-1.143 0-.75-.48-1.02-1.356-1.02h-.747v2.164h.79z"/>
            </g>
        </g>
    </g>
</svg>
