<svg xmlns="http://www.w3.org/2000/svg" width="115" height="37" viewBox="0 0 115 37">
    <g fill="#121212" fill-rule="nonzero">
        <path d="M32.424 6.26c.655-.438 1.418-.768 2.215-.778.812-.015 1.654.043 2.4.389.307.14.615.287.87.512-.186.321-.431.601-.663.888-.297-.176-.59-.366-.92-.478-.805-.284-1.72-.345-2.522-.022-.671.256-1.22.777-1.564 1.402-.238.44-.437.907-.536 1.4a8.81 8.81 0 0 0-.124 1.458c-.026.649-.057 1.3-.017 1.948.114.901.427 1.808 1.041 2.493.538.62 1.333.983 2.143 1.064.426.024.861.03 1.278-.079.506-.11.955-.377 1.423-.587.273.272.51.576.734.89-.35.196-.71.371-1.08.524-1 .405-2.107.413-3.164.312-.76-.158-1.466-.543-2.052-1.047-.677-.589-1.172-1.37-1.47-2.212-.201-.567-.3-1.166-.353-1.764-.02-.444-.07-.89-.02-1.336.015-.842.152-1.692.488-2.47.405-.975 1.012-1.901 1.893-2.507zM0 .34v22.922h22.91V.34H0zm15.606 6.594c-1.098 2.103-2.226 4.191-3.334 6.29a.537.537 0 0 0-.055.262c.002 1.5 0 3 .001 4.499-.535 0-1.07.004-1.604-.002.006-1.464-.002-2.928.004-4.391-.002-.158.018-.326-.07-.465-1.02-1.916-2.045-3.83-3.061-5.748-.225-.443-.479-.873-.681-1.327.1-.023.2-.048.305-.051.492-.01.984.02 1.475.036.078-.013.105.06.134.116.75 1.536 1.488 3.078 2.245 4.61.163.319.309.647.493.953.155-.251.28-.52.417-.782.85-1.637 1.654-3.297 2.49-4.94.554.016 1.113-.039 1.662.052-.1.313-.28.592-.421.888zM95.398 6.71c.439-.142.89-.246 1.343-.327a56.336 56.336 0 0 0-.157 2.51c.713.016 1.426.016 2.139.045-.124.32-.255.638-.393.952-.6.002-1.201-.003-1.801.002-.002.773.007 1.546.007 2.319-.008.614.036 1.227.026 1.841.016.696-.02 1.395.059 2.089.02.288.28.491.54.565.435.1.89.064 1.32-.04a1.7 1.7 0 0 1 .155.802c-.391.204-.84.243-1.27.281-.61.025-1.288-.072-1.726-.54-.36-.334-.332-.866-.373-1.316-.044-.988-.027-1.978-.032-2.967-.002-1.011.003-2.022-.003-3.034-.38-.005-.76-.001-1.139-.002-.014-.33-.012-.661-.002-.992.373-.003.746.005 1.12-.005.056-.728.069-1.462.187-2.184zM49.29 8.984c.397-.128.802-.23 1.212-.306.168.384.27.794.304 1.211.28-.145.498-.378.76-.552.595-.426 1.318-.698 2.058-.666.166.011.328.065.477.14.255.127.514.258.721.458.219.206.356.479.506.734.334-.148.592-.414.892-.617.519-.358 1.11-.643 1.746-.705a2.037 2.037 0 0 1 1.617.534c.192.185.397.373.503.623.104.245.135.512.16.774.1 1.383.031 2.772.085 4.156 0 .92.007 1.84.007 2.761-.46.007-.92.01-1.38-.003.002-1.38 0-2.76 0-4.139-.004-.887.017-1.776-.055-2.661a1.046 1.046 0 0 0-.425-.71c-.269-.177-.607-.158-.914-.14-.544.05-.998.391-1.409.724-.194.164-.396.319-.586.489-.058.046-.04.13-.047.196 0 2.08.004 4.162-.001 6.244-.458.007-.917.01-1.374-.002V12.67c-.004-.393.008-.787-.025-1.18-.024-.399.017-.828-.17-1.195-.28-.395-.833-.478-1.278-.369-.692.166-1.289.593-1.812 1.06-.085.055-.077.16-.078.248.005 2.097-.001 4.194.003 6.29-.402.013-.804.014-1.205 0-.038-2.147-.011-4.295-.07-6.442-.012-.487-.011-.976-.076-1.46-.039-.215-.11-.423-.146-.64zM72.712 8.908c.441-.064.88-.14 1.318-.226.056 1.209.036 2.42.047 3.63.002 1.739 0 3.477 0 5.215-.456.01-.912.01-1.369 0-.014-2.488-.002-4.977-.006-7.466.003-.384-.008-.769.01-1.153zM109.849 9.007c.41-.115.818-.241 1.235-.335.22.42.263.9.286 1.365.211-.158.388-.356.575-.541.597-.592 1.46-.95 2.305-.798v.106c-.185.406-.3.84-.475 1.25-.024.076-.128.051-.186.066-.37.008-.76 0-1.092.185-.326.19-.613.442-.846.739-.227.286-.183.672-.2 1.012-.021.495-.032.99-.027 1.485-.002 1.329 0 2.658-.001 3.986-.458.01-.916.01-1.373 0-.007-1.482 0-2.965-.003-4.447-.008-1.007.008-2.015-.044-3.021-.01-.357-.125-.698-.154-1.052zM76.76 9.024c.406-.128.817-.277 1.246-.285.155.395.255.81.3 1.232.362-.224.668-.528 1.04-.74.715-.424 1.608-.714 2.423-.41.479.169.944.44 1.233.869.237.31.292.71.317 1.089.072 1.345.049 2.693.066 4.04-.001.903.017 1.805.02 2.707-.458.013-.917.011-1.375 0 0-1.482-.03-2.964-.032-4.447-.02-.824.023-1.654-.077-2.474-.123-.394-.504-.723-.927-.734-.312-.012-.635-.024-.933.086-.655.244-1.245.634-1.778 1.082-.016 2.162-.001 4.326-.008 6.49-.4.007-.802.01-1.202-.003-.002-1.227-.033-2.453-.039-3.68-.011-1.261-.001-2.524-.067-3.785-.014-.355-.13-.693-.206-1.037zM46.928 12.366c-.03-.72-.28-1.415-.637-2.035A3.53 3.53 0 0 0 44.396 8.8c-.341-.113-.705-.093-1.06-.105-.3-.002-.6-.017-.898.021-.382.074-.74.248-1.07.45-.72.452-1.233 1.182-1.498 1.981-.282.81-.265 1.681-.245 2.527.031.874.203 1.778.712 2.508.458.682 1.151 1.207 1.95 1.417.887.24 1.87.16 2.69-.264.825-.418 1.442-1.198 1.724-2.073.303-.933.271-1.928.227-2.895zm-1.542 2.34c-.068.495-.264.983-.603 1.355-.42.439-1.062.598-1.652.56-.62-.043-1.265-.33-1.58-.888-.287-.533-.401-1.139-.473-1.734-.044-.492-.087-.988-.04-1.481.04-.663.093-1.367.455-1.945.254-.405.688-.669 1.148-.777.557-.132 1.174-.088 1.674.206.356.202.636.516.796.893.263.607.308 1.278.337 1.93.011.627.025 1.258-.062 1.88zM107.406 11.852a4.448 4.448 0 0 0-.74-1.78 3.354 3.354 0 0 0-1.947-1.313 4.852 4.852 0 0 0-1.602-.045 2.937 2.937 0 0 0-1.632.76c-.611.56-1.005 1.329-1.203 2.127-.145.705-.131 1.429-.118 2.144.03.425.054.856.185 1.265.242.81.688 1.59 1.388 2.089.797.567 1.833.736 2.786.569.786-.142 1.55-.527 2.044-1.167.61-.8.919-1.807.942-2.808a10.073 10.073 0 0 0-.103-1.841zm-1.436 2.2c-.036.46-.057.93-.231 1.362-.15.364-.384.71-.73.909-.514.298-1.144.362-1.718.234-.405-.089-.794-.291-1.062-.613-.28-.322-.414-.74-.493-1.153-.113-.615-.112-1.242-.13-1.864.015-.66-.018-1.343.24-1.965.21-.595.729-1.106 1.374-1.176.448-.06.92-.072 1.354.075a2.35 2.35 0 0 1 1.008.884c.28.51.342 1.101.389 1.671.03.545.025 1.092-.001 1.637zM70.026 11.058c-.289-.857-.862-1.65-1.684-2.06-.764-.4-1.703-.396-2.487-.052-.49.195-.895.539-1.308.856-.014-.732-.01-1.465-.043-2.197a36.086 36.086 0 0 0-.08-2.304c-.02-.163-.05-.412-.262-.422-.382-.004-.753.112-1.12.2.178.952.098 1.923.153 2.884.01 2.474.044 4.948.013 7.422-.02.705-.023 1.418-.195 2.106.426.07.86.04 1.29.035.092-.296.163-.597.257-.891.234.187.449.4.704.56.806.513 1.853.631 2.75.303.561-.202 1.02-.616 1.369-1.09.589-.816.86-1.822.932-2.816.046-.851-.02-1.722-.29-2.534zm-1.206 2.793c-.069.622-.181 1.26-.502 1.807a1.704 1.704 0 0 1-1.035.797c-.902.23-1.896-.075-2.562-.713-.086-.086-.21-.167-.187-.307v-3.941c.001-.164-.012-.328.01-.49.449-.496.997-.968 1.683-1.065.377-.03.764-.04 1.135.042.458.098.842.423 1.076.82.287.486.392 1.056.418 1.612.053.48-.007.96-.036 1.438zM92.211 16.302c-.105-.417-.089-.851-.1-1.278-.014-1.435.045-2.872-.004-4.307-.025-.965-.82-1.802-1.75-1.978-.373-.057-.752-.04-1.126-.043-1.066-.008-2.07.43-2.987.934-.115.057-.237.165-.161.303.154.275.346.527.527.786.68-.487 1.463-.843 2.298-.945.443-.064.921-.059 1.326.154.338.185.513.562.566.93.062.432.096.87.078 1.308-.448.02-.898.021-1.344.06-.978.072-1.996.27-2.797.867a2.67 2.67 0 0 0-1.085 2.137c-.023.867.412 1.769 1.195 2.182.482.239 1.03.328 1.566.316a3.106 3.106 0 0 0 1.69-.5c.288-.173.515-.43.81-.59.185.365.411.724.745.972.126.092.312.228.462.102.257-.22.42-.525.617-.795-.201-.178-.463-.333-.526-.615zm-1.456-1.09c-.02.396-.301.71-.59.95-.347.277-.747.518-1.195.573-.374.033-.764.019-1.115-.128-.303-.126-.502-.413-.624-.706-.123-.294-.083-.62-.075-.931.015-.28.014-.58.164-.827.262-.447.716-.757 1.21-.897.41-.115.84-.14 1.264-.18.339-.03.674.048 1.014.037-.008.703.004 1.408-.053 2.109zM73.033 5.224c.275-.086.571-.071.836.042.24.154.424.381.526.648.177.572-.288 1.215-.871 1.28-.45.05-.945-.213-1.085-.659-.185-.504.1-1.112.594-1.311z"/>
        <g>
            <path d="M34.43 30.93c.317 0 .588.03.815.091.226.061.412.149.558.264.145.115.253.254.322.417.069.163.104.348.104.555 0 .122-.02.239-.057.351a1.017 1.017 0 0 1-.172.316 1.252 1.252 0 0 1-.292.262 1.7 1.7 0 0 1-.416.193c.735.146 1.102.53 1.102 1.152 0 .215-.04.411-.12.589-.08.177-.195.33-.348.459-.152.13-.34.23-.563.3a2.52 2.52 0 0 1-.76.105h-1.82v-5.055h1.647zm-.898.587v1.655h.863c.368 0 .642-.075.822-.224.18-.149.269-.35.269-.604 0-.288-.086-.498-.257-.63-.171-.131-.438-.197-.799-.197h-.898zm1.056 3.872c.19 0 .353-.022.488-.067a.907.907 0 0 0 .33-.183.69.69 0 0 0 .189-.276.993.993 0 0 0 .06-.35c0-.251-.087-.45-.26-.593-.174-.145-.443-.217-.807-.217h-1.056v1.686h1.056zM41.59 35.984h-.578a.257.257 0 0 1-.162-.05.276.276 0 0 1-.092-.126l-.447-1.172h-2.228l-.446 1.172a.288.288 0 0 1-.092.121.25.25 0 0 1-.162.055h-.577l2.013-5.055h.757l2.013 5.055zM40.106 34.1l-.75-1.96a4.407 4.407 0 0 1-.161-.508 4.375 4.375 0 0 1-.158.514l-.747 1.954h1.816zM45.31 31.556h-1.605v4.428h-.746v-4.428h-1.613v-.627h3.964zM49.498 34.9c.042 0 .078.016.11.05l.295.323a2.11 2.11 0 0 1-.755.567c-.297.134-.654.2-1.072.2a2.51 2.51 0 0 1-.994-.19 2.199 2.199 0 0 1-.76-.531 2.39 2.39 0 0 1-.488-.817 3.046 3.046 0 0 1-.173-1.045c0-.38.06-.729.182-1.046a2.293 2.293 0 0 1 1.292-1.348c.303-.126.64-.19 1.008-.19.359 0 .678.058.957.176.28.117.522.273.729.468l-.247.349a.208.208 0 0 1-.061.063.17.17 0 0 1-.097.025c-.045 0-.097-.023-.157-.068a1.871 1.871 0 0 0-.597-.3 1.822 1.822 0 0 0-.534-.066c-.251 0-.481.045-.69.133a1.526 1.526 0 0 0-.54.38 1.725 1.725 0 0 0-.352.608 2.48 2.48 0 0 0-.125.816c0 .307.043.58.13.82.086.239.206.442.359.608.152.167.332.294.538.38.207.087.43.13.67.13.144 0 .275-.008.392-.026.116-.017.222-.044.32-.079.097-.035.19-.08.276-.135.087-.055.173-.122.257-.2a.3.3 0 0 1 .06-.04.157.157 0 0 1 .067-.015zM54.94 30.93v5.054h-.75v-2.277h-2.637v2.277H50.8v-5.055h.753v2.232h2.636V30.93h.75zM64.767 30.93l-1.577 5.054h-.676l-1.232-3.749a1.793 1.793 0 0 1-.074-.27 3.71 3.71 0 0 1-.074.27l-1.246 3.749h-.672l-1.577-5.055h.627a.28.28 0 0 1 .165.048.22.22 0 0 1 .088.128l.996 3.383c.019.066.036.137.051.215l.047.243c.017-.085.034-.166.052-.243.017-.078.038-.15.061-.215l1.14-3.383a.262.262 0 0 1 .253-.176h.216c.065 0 .12.017.161.05a.28.28 0 0 1 .092.126l1.137 3.383c.042.129.08.276.113.44a6.05 6.05 0 0 1 .091-.44l1-3.383a.225.225 0 0 1 .088-.123.269.269 0 0 1 .165-.053h.585zM68.473 35.332c.075 0 .134.022.176.066.042.043.063.1.063.17v.416H65.32v-.236a.45.45 0 0 1 .028-.15c.02-.052.05-.1.095-.142l1.598-1.602a7.57 7.57 0 0 0 .363-.387c.108-.124.2-.248.274-.371.076-.123.134-.25.175-.379.04-.129.061-.264.061-.408a.965.965 0 0 0-.067-.371.734.734 0 0 0-.457-.424 1.08 1.08 0 0 0-.342-.053 1.03 1.03 0 0 0-.336.053.881.881 0 0 0-.59.655c-.032.089-.074.148-.124.179-.05.03-.124.038-.22.021l-.36-.063c.034-.235.098-.441.194-.62.097-.178.217-.328.363-.449a1.49 1.49 0 0 1 .502-.272c.188-.062.392-.092.61-.092.22 0 .424.032.61.097.188.065.349.157.485.28.136.121.243.27.32.445.078.175.116.373.116.593 0 .188-.028.362-.082.523-.056.16-.13.314-.226.459a3.297 3.297 0 0 1-.33.424c-.126.137-.26.277-.4.417l-1.281 1.31c.098-.026.197-.047.297-.064.1-.016.194-.025.284-.025h1.594zM73.105 33.457c0 .441-.048.823-.143 1.147a2.39 2.39 0 0 1-.39.804 1.57 1.57 0 0 1-.585.474 1.71 1.71 0 0 1-.723.155c-.258 0-.5-.052-.723-.155a1.553 1.553 0 0 1-.583-.474 2.382 2.382 0 0 1-.387-.804 4.146 4.146 0 0 1-.14-1.147c0-.441.046-.824.14-1.15a2.38 2.38 0 0 1 .387-.805c.164-.213.358-.37.583-.474a1.71 1.71 0 0 1 .723-.155c.258 0 .5.052.723.155.224.104.419.261.584.474.166.212.296.48.391.806.095.325.143.708.143 1.149zm-.711 0c0-.38-.031-.698-.093-.954a1.94 1.94 0 0 0-.25-.618.923.923 0 0 0-.361-.332.966.966 0 0 0-.852 0 .926.926 0 0 0-.361.332 1.914 1.914 0 0 0-.248.618 4.191 4.191 0 0 0-.091.954c0 .38.03.698.091.954.061.255.144.46.248.616a.929.929 0 0 0 .361.33.966.966 0 0 0 .852 0 .926.926 0 0 0 .36-.33 1.92 1.92 0 0 0 .25-.616c.063-.256.094-.574.094-.954zM77.047 35.46v.524h-2.731v-.524h1.07v-3.313c0-.105.003-.215.01-.327l-.86.728a.244.244 0 0 1-.191.053.192.192 0 0 1-.077-.03.268.268 0 0 1-.055-.047l-.215-.3 1.514-1.305h.56v4.54h.975zM79.384 32.809l-.118.15a5.486 5.486 0 0 0-.11.142c.112-.073.237-.129.374-.169.138-.04.286-.06.445-.06.2 0 .39.033.57.1a1.341 1.341 0 0 1 .802.76c.081.187.12.403.12.647 0 .232-.041.45-.126.653-.084.203-.203.38-.358.528a1.671 1.671 0 0 1-.55.352c-.214.086-.451.128-.711.128a1.88 1.88 0 0 1-.699-.123 1.496 1.496 0 0 1-.532-.35 1.552 1.552 0 0 1-.339-.55 2.031 2.031 0 0 1-.12-.716c0-.225.05-.463.147-.712.097-.25.251-.517.462-.801l1.264-1.693a.412.412 0 0 1 .148-.118.486.486 0 0 1 .218-.048h.612l-1.5 1.88zm.324 2.658c.162 0 .308-.027.44-.08.131-.053.244-.125.338-.216a.95.95 0 0 0 .218-.328 1.08 1.08 0 0 0 .077-.412c0-.161-.025-.306-.075-.434a.905.905 0 0 0-.537-.53 1.206 1.206 0 0 0-.422-.07c-.163 0-.308.027-.437.083a.963.963 0 0 0-.542.547 1.05 1.05 0 0 0-.074.39c0 .155.023.297.067.426.044.13.11.24.197.331a.899.899 0 0 0 .319.215c.125.052.27.078.43.078z"/>
        </g>
    </g>
</svg>
