<svg xmlns="http://www.w3.org/2000/svg" width="68" height="66" viewBox="0 0 68 66">
    <g fill="#121212" fill-rule="nonzero">
        <path d="M24.32 26.6c.706-.261 1.4-.712 1.4-1.786 0-1.2-1.336-1.697-2.653-1.697h-3.123v.957h.668v5.558h-.668v.903h3.664c1.769 0 2.581-.888 2.581-2.01 0-1.39-1.174-1.742-1.87-1.925zm-1.885-2.544c.509 0 1.624-.062 1.624 1.173 0 1.113-1.056 1.173-1.624 1.173v-2.346zm0 5.733v-2.545c.552 0 1.958-.067 1.958 1.273 0 1.208-1.342 1.272-1.958 1.272zM40.902 29.005v-8.76h.99v-1.547H37.66l-2.748 7.606-2.743-7.606h-4.491v1.546h.952v8.761h-1.103v1.53h4.265v-1.53h-1.247v-7.174l3.052 8.09h1.527l3.124-7.8v6.884h-1.104v1.53h4.765v-1.53zM49.999 29.627l-2.135-6.61h-1.495l-2.43 6.61h-.658v.908h2.773v-.908h-.77l.255-.866h2.265l.259.866h-.553v.908h3.104v-.908h-.615zm-4.165-1.869l.83-2.813.84 2.813h-1.67z"/>
        <g transform="translate(31.96 15.64)">
            <circle cx="3.018" cy=".705" r="1"/>
            <circle cx="4.999" cy=".705" r="1"/>
            <circle cx="1.028" cy=".705" r="1"/>
        </g>
        <g transform="translate(31.96 38.08)">
            <circle cx="2.629" cy=".741" r="1"/>
            <circle cx="4.319" cy=".741" r="1"/>
            <circle cx=".931" cy=".741" r="1"/>
        </g>
        <path d="M34.978 12.344l2.106 1.135-.518-2.247 1.678-1.595-2.223-.265-1.043-2.223-1.043 2.223-2.223.265 1.677 1.595-.517 2.247zM23.123 15.774l1.27.685-.312-1.355 1.01-.961-1.34-.16-.628-1.34-.628 1.34-1.34.16 1.01.961-.311 1.355zM28.6 13.895l1.737.936-.427-1.852 1.383-1.314-1.833-.22-.86-1.832-.859 1.832-1.832.22 1.383 1.314-.427 1.852zM46.833 15.774l-1.27.685.312-1.355-1.01-.961 1.34-.16.628-1.34.628 1.34 1.34.16-1.01.961.311 1.355zM41.804 13.895l-1.736.936.426-1.852-1.382-1.314 1.832-.22.86-1.832.86 1.832 1.832.22-1.383 1.314.427 1.852zM60.476 11.393c-1.435-1.272-2.142-2.772-1.958-4.624.174-1.764.92-3.325 1.81-4.953 1.185 2.24 2.294 4.376 1.746 6.925-.22 1.033-.766 1.9-1.598 2.652zm.932 2.32c-.503 1.763-.12 3.35 1.014 4.833 1.342-.843 2.207-1.987 2.505-3.53.384-1.993-.12-3.878-.723-5.888-1.212 1.463-2.299 2.848-2.796 4.586zM54.293 37.44c.517-2.486-.539-4.597-1.728-6.723-.636 1.315-1.278 2.614-1.656 3.987-.582 2.12-.021 3.989 1.69 5.506.875-.756 1.465-1.667 1.694-2.77zM41.233 44.7c1.973-1.272 2.853-3.292 3.766-5.482-2.105.433-4.047.867-5.611 2.243-1.17 1.029-1.644 2.374-1.701 3.926 1.392.185 2.524-.029 3.545-.687zm5.745 3.245c1.985.267 3.8-.336 5.74-.982-1.506-1.17-2.974-2.198-4.768-2.626-1.763-.421-3.298.079-4.72 1.242.951 1.35 2.155 2.152 3.748 2.366zm9.716-27.795c-.127 1.323-.364 2.645-.355 3.967.017 2.323 1.074 4.063 3.282 5.069.732-1.191.977-2.45.7-3.786-.453-2.194-1.914-3.745-3.392-5.277l-.235.027zm3.324 15.589c2.183.124 3.753-1.015 5.078-2.575.62-.734 1.153-1.543 1.81-2.43-1.934 0-3.643.083-5.258.775-1.736.743-2.712 2.085-3.117 3.988.524.087 1.003.21 1.487.242zm5.737-17.87c-1.284.841-2.515 1.75-3.284 3.126-.769 1.375-.79 2.797-.336 4.281 1.1-.247 2.03-.662 2.772-1.43 1.8-1.86 1.987-4.228 2.169-6.758-.522.307-.932.527-1.32.782zm-8.377 1.221c.75 1.661 2.095 2.596 3.91 2.974.549-1.756.31-3.362-.709-4.819-1.018-1.456-2.436-2.457-4.037-3.458-.02 1.903.095 3.659.836 5.303zm9.155 5.846c-1.467.27-2.904.617-4.135 1.522-1.335.975-1.956 2.314-2.11 4.1.904-.074 1.739-.019 2.501-.228 2.812-.775 3.947-3.153 5.211-5.597-.587.08-1.031.123-1.467.203zM57.555 9.3c-1.376-1.095-2.985-1.696-4.737-2.177.475 1.64.97 3.148 1.91 4.459 1.184 1.652 2.8 2.384 4.892 2.239.032-1.907-.638-3.387-2.065-4.521zm.717 22.356c-.293-1.559-1.113-2.872-2.034-4.128-.218-.297-.459-.576-.689-.865l-.226.031c-.274 1.406-.649 2.798-.791 4.22-.216 2.147.947 4.173 2.737 5.042.979-1.284 1.297-2.74 1.003-4.3zm-16.629 15.06c-1.734-.557-3.324-.228-4.81.838.587 1.065 1.365 1.844 2.426 2.3 2.277.98 4.523.45 6.904-.138-1.436-1.274-2.786-2.443-4.52-3zM53.145 4.94c.989 1.722 2.504 2.588 4.478 2.658.339-1.093.069-2.617-.68-3.731C55.686 1.99 53.747 1.096 51.679.19c.283 1.727.638 3.315 1.467 4.75zm4.844 31.672c-1.776.416-2.95 1.551-3.737 3.404.921.199 1.742.508 2.57.53 2.852.072 4.626-1.83 6.591-3.75-1.937-.359-3.682-.6-5.424-.184zm-4.959 4.353c-1.703.144-2.948 1.034-3.918 2.456a4.91 4.91 0 0 0 2.728 1.255c2.634.301 4.632-1.082 6.77-2.535-1.91-.736-3.667-1.35-5.58-1.176zm-7-2.361c-.751 1.695-.567 3.318.347 4.9 1.559-.72 2.51-1.721 2.99-3.192.621-1.897.401-3.813.087-5.881-1.402 1.315-2.688 2.518-3.423 4.173zm-10.519 7.214a1.224 1.224 0 0 0-.904-.355 1.25 1.25 0 0 0-1.255 1.278c.012.7.58 1.265 1.28 1.272a1.272 1.272 0 0 0 1.24-1.293 1.225 1.225 0 0 0-.36-.902zM8.75 11.393c1.434-1.272 2.14-2.772 1.957-4.624-.174-1.764-.92-3.325-1.81-4.953-1.186 2.24-2.294 4.376-1.746 6.925.22 1.033.766 1.9 1.598 2.652zm-.933 2.32c.503 1.763.12 3.35-1.014 4.833-1.342-.843-2.207-1.987-2.505-3.53-.384-1.993.12-3.878.723-5.888 1.212 1.463 2.299 2.848 2.796 4.586zm7.115 23.726c-.517-2.486.539-4.597 1.728-6.723.636 1.315 1.278 2.614 1.655 3.987.583 2.12.022 3.989-1.69 5.506-.874-.756-1.464-1.667-1.693-2.77zm13.06 7.261c-1.973-1.272-2.853-3.292-3.766-5.482 2.105.433 4.047.867 5.611 2.243 1.17 1.029 1.644 2.374 1.7 3.926-1.391.185-2.523-.029-3.544-.687zm-5.745 3.245c-1.985.267-3.801-.336-5.74-.982 1.506-1.17 2.974-2.198 4.768-2.626 1.763-.421 3.298.079 4.72 1.242-.951 1.35-2.155 2.152-3.748 2.366zM12.53 20.15c.126 1.323.364 2.645.355 3.967-.017 2.323-1.074 4.063-3.282 5.069-.732-1.191-.978-2.45-.7-3.786.453-2.194 1.914-3.745 3.392-5.277l.235.027zM9.207 35.74c-2.183.124-3.753-1.015-5.078-2.575-.62-.734-1.153-1.543-1.81-2.43 1.934 0 3.643.083 5.258.775 1.736.743 2.711 2.085 3.117 3.988-.524.087-1.003.21-1.487.242zM3.47 17.869c1.284.841 2.515 1.75 3.284 3.126.769 1.375.79 2.797.336 4.281-1.1-.247-2.03-.662-2.772-1.43-1.8-1.86-1.987-4.228-2.17-6.758.523.307.933.527 1.322.782zm8.377 1.221c-.75 1.661-2.095 2.596-3.91 2.974-.549-1.756-.31-3.362.709-4.819 1.018-1.456 2.436-2.457 4.037-3.458.02 1.903-.095 3.659-.836 5.303zm-9.155 5.846c1.467.27 2.904.617 4.135 1.522 1.335.975 1.956 2.314 2.11 4.1-.904-.074-1.739-.019-2.501-.228-2.812-.775-3.947-3.153-5.211-5.597.587.08 1.031.123 1.467.203zM11.67 9.3c1.376-1.095 2.985-1.696 4.737-2.177-.475 1.64-.97 3.148-1.91 4.459-1.184 1.652-2.8 2.384-4.892 2.239-.033-1.907.638-3.387 2.065-4.521zm-.717 22.356c.293-1.559 1.113-2.872 2.034-4.128.218-.297.459-.576.689-.865l.226.031c.274 1.406.649 2.798.791 4.22.216 2.147-.947 4.173-2.737 5.042-.979-1.284-1.297-2.74-1.003-4.3zm16.629 15.06c1.734-.557 3.324-.228 4.81.838-.587 1.065-1.365 1.844-2.426 2.3-2.277.98-4.523.45-6.904-.138 1.436-1.274 2.785-2.443 4.52-3zM16.08 4.94c-.989 1.722-2.504 2.588-4.479 2.658-.338-1.093-.068-2.617.68-3.731C13.541 1.99 15.48 1.096 17.546.19c-.282 1.727-.637 3.315-1.466 4.75zm-4.844 31.672c1.776.416 2.95 1.551 3.737 3.404-.921.199-1.742.508-2.57.53-2.852.072-4.626-1.83-6.591-3.75 1.937-.359 3.682-.6 5.424-.184zm4.959 4.353c1.703.144 2.948 1.034 3.918 2.456a4.91 4.91 0 0 1-2.728 1.255c-2.634.301-4.632-1.082-6.77-2.535 1.91-.736 3.667-1.35 5.58-1.176zm7-2.361c.751 1.695.567 3.318-.347 4.9-1.559-.72-2.51-1.721-2.99-3.192-.621-1.897-.401-3.813-.087-5.881 1.402 1.315 2.688 2.518 3.423 4.173z"/>
        <g>
            <path d="M37.597 55.243c-.215.647-.53 1.658-1.044 3.166-.398 1.16-.762 2.171-1.176 3.282h-.978a68.311 68.311 0 0 1-1.608-5.089h-.1c-.547 1.492-1.524 3.796-2.105 5.089h-.895a92.292 92.292 0 0 1-1.027-3.58c-.282-1.078-.547-2.089-.73-2.801-.016-.017-.033-.05-.066-.05l-.795-.033v-.763H30.47v.763l-1.193.016c.05.365.265 1.36.48 2.404.216.977.432 1.889.58 2.502l.084.017c.48-1.276 1.326-3.497 2.022-5.27h.978c.348 1.16 1.21 4.06 1.59 5.287h.1c.266-.929.448-1.509.696-2.42.282-.995.514-1.873.647-2.437.017-.05-.017-.066-.05-.066l-.978-.033c0-.266.017-.53.017-.763h2.9c.017.232 0 .481 0 .746l-.746.033z"/>
            <path d="M37.266 55.459v-.73c.63-.099 2.42-.43 2.57-.43.032 0 .032.016.032.033 0 2.005-.016 4.408-.016 6.38l1.16.05v.763H37.365v-.762l1.144-.05c.033 0 .05-.017.05-.05v-5.171l-1.293-.033zm2.718-3.696c0 .563-.364.944-.895.944a.91.91 0 0 1-.928-.895c0-.48.348-.911.961-.911.647 0 .862.497.862.862z"/>
            <path d="M40.25 55.459c0-.232 0-.498.016-.713.613-.116 2.204-.447 2.337-.447.033 0 .033.016.033.05.05.314.133.745.182 1.01l.083.017c1.641-1.028 2.022-1.077 2.768-1.077.862 0 1.475.596 1.79 1.127.232.43.315.861.315 1.276 0 1.276-.016 2.718-.016 4.01l1.06.05v.763H45.404c0-.249 0-.514.017-.762l.977-.034c.034-.016.05-.033.05-.05v-3c0-.63.017-1.342-.199-1.723-.348-.58-.746-.63-1.143-.63-.63 0-1.592.48-2.238 1.011 0 1.376-.017 3.033-.017 4.376l1.194.05v.762H40.48v-.762l1.028-.05c.033 0 .05-.017.05-.033v-5.188l-1.31-.033z"/>
            <path d="M48.156 55.459c0-.232 0-.498.016-.713.613-.116 2.205-.447 2.337-.447.033 0 .033.016.033.05.05.314.133.745.183 1.01l.082.017c1.641-1.028 2.023-1.077 2.768-1.077.862 0 1.476.596 1.79 1.127.232.43.315.861.315 1.276 0 1.276-.016 2.718-.016 4.01l1.06.05v.763h-3.413c0-.249 0-.514.016-.762l.978-.034c.033-.016.05-.033.05-.05v-3c0-.63.016-1.342-.2-1.723-.348-.58-.745-.63-1.143-.63-.63 0-1.591.48-2.238 1.011 0 1.376-.016 3.033-.016 4.376l1.193.05v.762h-3.564v-.762l1.028-.05c.033 0 .05-.017.05-.033v-5.188l-1.31-.033z"/>
            <path d="M59.907 54.299c.895 0 1.558.298 2.039.894.53.663.646 1.525.646 2.205-.083.199-.414.613-.596.63-1.045.016-3.398.016-4.31.016-.016.862.15 1.592.564 2.039.514.564 1.077.663 1.74.663.796 0 1.658-.315 2.254-.563.083.265.15.546.216.795-.978.48-1.956.713-2.719.713-2.204 0-3.43-1.426-3.43-3.448 0-2.138 1.392-3.944 3.596-3.944zm-1.442 1.325c-.232.266-.68.78-.73 1.592.946 0 2.388 0 3.349-.017.133 0 .215-.05.215-.182 0-.547-.198-1.094-.464-1.409-.265-.315-.596-.497-1.11-.497-.58 0-.978.199-1.26.513z"/>
            <path d="M62.327 60.78l1.011-.05c.017 0 .05-.017.05-.034v-5.22l-1.243-.034c0-.232 0-.48.016-.73.647-.099 2.238-.414 2.337-.414.017 0 .034.017.034.034l.082 2.22.067.017c.944-1.873 1.541-2.27 2.254-2.27.364 0 .762.066 1.028.165 0 .365-.266 1.094-.465 1.276-.149-.033-.563-.132-.878-.132-.166 0-.332.05-.58.265-.315.249-.663.73-1.094 1.541-.182.382-.265.978-.265 1.542v1.773l1.558.034v.762H62.31c0-.249 0-.514.016-.746z"/>
        </g>
        <g>
            <path d="M5.072 54.297c.535 0 .88.07 1.087.156.07.017.138.034.242.034.293 0 1.932-.017 2.38-.034 0 .241 0 .535-.017.793-.569.018-1.156.052-1.725.07v.068c.173.224.345.742.345 1.277 0 .69-.207 1.5-.638 2.156-.414.622-1.363 1.57-3.071 1.398-.57.362-.966.621-.966.88 0 .38.88.431 2.122.552.949.086 1.552.172 1.95.431.396.224.741.725.741 1.225 0 1.242-1.328 2.657-4.417 2.657C1.294 65.96 0 65.322 0 64.252c0-.276.069-.707.397-.914.586-.38.914-.57 1.863-1.122l.017-.086c-.552-.172-.828-.483-.828-1.052 0-.173.07-.276 1.38-1.07v-.086c-.655-.345-1.121-1.018-1.121-2.053 0-1.657 1.294-3.572 3.364-3.572zm-.397 8.316c-.552-.069-1.104-.138-1.5-.19-1.226.76-1.933 1.122-1.933 1.76 0 .76 1.139 1.052 2.088 1.052 1.639 0 2.933-.586 2.933-1.673 0-.673-.397-.794-1.588-.949zm-.448-3.07c1 0 1.88-1.191 1.88-2.848 0-.517-.051-.88-.224-1.19-.207-.38-.604-.5-.949-.5-1.156 0-1.95 1.363-1.95 2.967 0 1.053.466 1.57 1.243 1.57z"/>
            <path d="M12.094 60.94c-.639.603-1.38.949-2.45.949-.88 0-1.432-.363-1.743-.742-.258-.328-.5-.932-.5-1.588 0-1.708.707-3.295 1.76-4.295.793-.725 1.587-.967 2.415-.967.725 0 1.242.26 1.605.639.362.38.655 1.035.655 1.915 0 1.432-.604 2.967-1.742 4.088zm-.639-.621c.604-.725 1.07-2.226 1.07-3.434 0-.62-.086-.983-.276-1.294-.173-.293-.448-.517-.949-.517-.586 0-1.121.31-1.604.949-.432.586-.984 1.95-.984 3.381 0 .535.07.915.276 1.242.19.328.552.483.95.483.603 0 1.138-.327 1.517-.81zM14.395 50.847c-.018-.259-.035-.5-.035-.742 1.518-.172 2.467-.466 2.623-.466.12 0 .345.207.448.38a1098.82 1098.82 0 0 0-2.553 10.886c0 .052 0 .104.069.104.241 0 .845-.087 1.484-.26.051.26.086.501.103.76a8.899 8.899 0 0 1-2.398.362c-.069 0-.414-.258-.552-.517.431-1.743 1.932-8.333 2.45-10.593l-1.64.086z"/>
            <path d="M21.32 59.611c-1.293 1.518-2.604 2.295-3.363 2.312-.432-.052-1.001-.397-1.277-.897-.12-.19-.173-.449-.173-.69 0-.742.242-1.76.57-2.64.535-1.45 1.742-3.399 3.467-3.399.725 0 1.329.294 1.743.621h.086c.294-1.242.656-2.864.95-4.157l-1.536.069c-.018-.259-.035-.5-.035-.725 1.432-.19 2.381-.466 2.502-.466.12 0 .328.207.448.38-.293 1.276-2.242 9.61-2.518 10.886-.018.052.034.104.086.104.12 0 .535-.087 1.07-.276.068.241.12.483.155.707-.777.293-1.484.431-2.019.431-.086 0-.397-.224-.483-.431.052-.276.224-.914.431-1.794l-.103-.035zm.329-1.622c.103-.414.38-1.552.483-2.087-.38-.466-1-.673-1.536-.673-1 0-1.777 1.087-2.208 2.191-.345.88-.604 1.967-.604 2.692 0 .603.31.81.638.81.967 0 2.968-2.053 3.227-2.933z"/>
        </g>
        <g>
            <path d="M32.449 35.804h-1.764v-.165l.777-.906c.544-.637.633-.782.633-1.043 0-.282-.218-.46-.536-.46a.855.855 0 0 0-.608.23v.439h-.23v-.608c.205-.182.467-.306.846-.306.503 0 .813.27.813.688 0 .31-.12.512-.729 1.209l-.6.696h1.398v.226zM32.9 34.415c0-.939.403-1.43 1.019-1.43.612 0 1.019.491 1.019 1.43 0 .938-.407 1.43-1.02 1.43-.615 0-1.018-.492-1.018-1.43zm1.752 0c0-.79-.29-1.18-.733-1.18-.447 0-.733.39-.733 1.18 0 .785.286 1.18.733 1.18.443 0 .733-.395.733-1.18zM35.304 35.59h.359v-2.352h-.359v-.213h.645v2.566h.354v.213h-.999zM38.454 34.898c0 .592-.367.946-.886.946-.584 0-.939-.467-.939-1.373 0-1.08.44-1.486.991-1.486.302 0 .584.125.741.318v.471h-.23v-.35c-.1-.125-.297-.206-.51-.206-.392 0-.718.31-.726 1.22a.885.885 0 0 1 .73-.386c.503 0 .829.338.829.846zm-.286 0c0-.379-.238-.612-.596-.612-.266 0-.52.16-.669.422.052.613.298.903.665.903.354 0 .6-.258.6-.713z"/>
        </g>
    </g>
</svg>
