<svg xmlns="http://www.w3.org/2000/svg" width="129" height="34" viewBox="0 0 129 34">
    <g fill="#121212" fill-rule="nonzero">
        <g>
            <path d="M16.527 5.251l.585-1.41a.436.436 0 1 0-.807-.335l-.584 1.411H6.708L0 11.625v9.485l6.374 6.374-.585 1.41a.436.436 0 1 0 .806.335l.585-1.41h9.013l6.708-6.708v-9.486L16.527 5.25zm-14.82 7.081h7.6l1.573 3.8-3.8 1.573-5.372-5.373zm4.501 5.735l-2.155.893-2.156-5.205 4.311 4.312zm6.442-5.735l-1.2 2.896-1.2-2.896h2.4zm-2.76-.873L8.22 7.431l4.03 4.028H9.89zm3.566 1.207l1.696 1.696-2.896 1.2 1.2-2.896zm.9-.334h5.697l-4.028 1.669-1.67-1.669zm-.4-.873l.893-2.155 5.204 2.155h-6.097zm-.807-.333L8.838 6.814l5.204 2.156-.893 2.156zm-4.204.333h-6.93l4.9-4.9 2.03 4.9zm-5.699 7.835l-1.937.802v-5.48l1.937 4.678zm.334.806l1.938 4.678-3.875-3.876L3.58 20.1zm3.398 5.924l-2.592-6.258 2.49-1.031 2.207 2.207-2.105 5.082zm.77-7.65l2.896-1.2-1.2 2.895-1.695-1.696zm3.702-.866l3.23 7.797-4.567-4.568 1.337-3.23zm.57-.904l3.8-1.574 5.655 5.655-5.49 5.49-3.965-9.571zm4.672-1.936l4.9-2.029v6.93l-4.9-4.9zm3.169-4.233l-4.679-1.938.803-1.937 3.876 3.875zm-5.485-2.271L9.698 6.226h5.481l-.803 1.938zM9.751 21.61l4.9 4.9H7.72l2.03-4.9z"/>
            <circle cx="27.183" cy="22.884" r="1"/>
            <circle cx="28.091" cy="19.719" r="1"/>
            <circle cx="28.472" cy="16.368" r="1"/>
            <circle cx="28.091" cy="13.205" r="1"/>
            <circle cx="27.183" cy="10.043" r="1"/>
            <circle cx="25.699" cy="7.083" r="1"/>
            <circle cx="23.501" cy="4.534" r="1"/>
            <circle cx="20.951" cy="2.394" r="1"/>
            <circle cx="17.923" cy=".742" r="1"/>
            <circle cx="25.699" cy="25.788" r="1"/>
            <circle cx="23.605" cy="28.405" r="1"/>
            <circle cx="20.893" cy="30.54" r="1"/>
            <circle cx="17.971" cy="32.11" r="1"/>
            <circle cx="15.022" cy="32.851" r="1"/>
            <circle cx="11.735" cy="33.258" r="1"/>
            <circle cx="8.394" cy="32.911" r="1"/>
            <circle cx="5.203" cy="31.945" r="1"/>
        </g>
        <path d="M56.402 1.027h-3.69v1.358h1.178v6.55h1.357v-6.55h1.155zM40.79 2.385V1.027H37.51v7.909h1.357V5.568h1.207V4.211h-1.207V2.385zM72.454 2.385V1.027h-3.279v7.909h3.279V7.578h-1.922v-2.01h1.207V4.211h-1.207V2.385zM43.923.915a1.85 1.85 0 0 0-1.849 1.85v4.432a1.85 1.85 0 0 0 3.698 0V2.764A1.85 1.85 0 0 0 43.924.915zm.514 6.298a.513.513 0 0 1-1.027 0V2.749a.513.513 0 0 1 1.027 0v4.464zM60.327 1.02v6.212a.513.513 0 0 1-1.026 0V1.02l-1.336.016v6.182a1.85 1.85 0 0 0 3.698 0V1.035l-1.336-.016zM50.537 5.806c.362-.276.704-.825.704-1.548V2.845c0-1.013-.776-1.818-1.769-1.818h-1.936v7.909h1.357V2.38h.564c.218 0 .46.195.46.469v1.399c0 .384-.309.811-.853.918l.992 3.77h1.388l-.907-3.13zM66.087 1.027V5.39l-1.366-4.363h-1.332v7.909h1.332V5.07l1.215 3.866h1.484V1.027z"/>
        <g>
            <path d="M43.556 14.22h-1.63c-.323-.597-.91-.91-1.659-.91-1.265 0-2.146.9-2.146 2.307 0 1.437.891 2.327 2.207 2.327 1.093 0 1.791-.627 2.003-1.63h-2.428v-1.082h3.825v1.235c-.283 1.437-1.568 2.753-3.45 2.753-2.055 0-3.614-1.488-3.614-3.603 0-2.116 1.559-3.613 3.603-3.613 1.579 0 2.834.8 3.29 2.216zM45.69 12.095v5.94h2.328v1.124h-3.745v-7.064zM51.691 19.23c-1.994 0-3.623-1.498-3.623-3.623 0-2.116 1.63-3.613 3.623-3.613 2.014 0 3.613 1.497 3.613 3.613 0 2.125-1.61 3.623-3.613 3.623zm0-1.265c1.275 0 2.156-.921 2.156-2.359 0-1.437-.88-2.337-2.156-2.337-1.285 0-2.166.9-2.166 2.337 0 1.438.88 2.359 2.166 2.359zM58.617 19.159h-2.768v-7.064h2.636c1.478 0 2.298.769 2.298 1.821 0 .86-.517 1.397-1.205 1.62.8.141 1.367.88 1.367 1.71 0 1.123-.86 1.913-2.328 1.913zm-.334-5.92h-1.017v1.77h1.017c.668 0 1.052-.303 1.052-.88 0-.567-.384-.89-1.052-.89zm.101 2.863h-1.118v1.903h1.149c.688 0 1.093-.334 1.093-.931 0-.607-.436-.972-1.124-.972zM64.899 17.813h-2.367l-.392 1.346H60.89l2.137-7.074h1.388l2.137 7.074h-1.26l-.392-1.346zm-1.183-4.089l-.86 2.955h1.72l-.86-2.955zM68.482 12.095v5.94h2.328v1.124h-3.745v-7.064zM72.454 12.095h5.182v1.143h-1.883v5.92h-1.416v-5.92h-1.883zM82.26 13.238h-2.682v1.771h2.378v1.124h-2.378v1.872h2.682v1.154h-4.099v-7.074h4.099zM86.12 12.004c1.57 0 2.844.84 3.32 2.287h-1.63c-.333-.678-.94-1.012-1.7-1.012-1.234 0-2.115.9-2.115 2.338 0 1.427.88 2.337 2.115 2.337.76 0 1.367-.334 1.7-1.022h1.63c-.476 1.458-1.75 2.287-3.32 2.287-2.034 0-3.582-1.487-3.582-3.602 0-2.116 1.548-3.613 3.583-3.613zM93.972 16.153h-2.33v3.006h-1.417v-7.064h1.417v2.904h2.33v-2.904h1.417v7.064h-1.417zM98.916 12.095h4.362v1.143h-2.945v1.812h2.256v1.123h-2.256v2.986h-1.417z"/>
            <path d="M106.564 19.23c-1.994 0-3.623-1.498-3.623-3.623 0-2.116 1.63-3.613 3.623-3.613 2.014 0 3.613 1.497 3.613 3.613 0 2.125-1.61 3.623-3.613 3.623zm0-1.265c1.275 0 2.156-.921 2.156-2.359 0-1.437-.88-2.337-2.156-2.337-1.285 0-2.166.9-2.166 2.337 0 1.438.88 2.359 2.166 2.359zM113.353 12.095c1.7 0 2.55.981 2.55 2.165 0 .86-.476 1.731-1.61 2.035l1.69 2.864h-1.639l-1.558-2.753h-.668v2.753H110.7v-7.064h2.652zm-.051 1.174h-1.184v2.074h1.184c.79 0 1.143-.415 1.143-1.052 0-.628-.354-1.022-1.143-1.022zM116.155 12.095h1.46v4.372c0 .971.26 1.477 1.058 1.477.653 0 .998-.506.998-1.477v-4.372h1.538v4.362c0 1.862-1.183 2.773-2.554 2.773-1.37 0-2.5-.911-2.5-2.773v-4.362zM122.036 12.095h1.957l1.25 4.15 1.275-4.15h1.909v7.064h-1.417v-4.595l-1.23 4.595h-1.074l-1.253-4.595v4.595h-1.417z"/>
        </g>
        <g>
            <path d="M41.627 32.718h-.125a.895.895 0 0 0-.134-.151c-.05-.046-.128-.068-.234-.068a.75.75 0 0 0-.271.057l-.335.13a3.425 3.425 0 0 1-.421.131 2.331 2.331 0 0 1-1.542-.183c-.331-.16-.645-.42-.94-.783a4.66 4.66 0 0 1-.685-1.211c-.184-.467-.276-1.007-.276-1.62 0-.522.076-1.02.226-1.493.15-.473.36-.891.626-1.253.268-.362.582-.65.945-.862a2.304 2.304 0 0 1 1.186-.319c.173 0 .326.021.46.063.133.042.253.089.36.141.105.052.202.1.292.141a.608.608 0 0 0 .258.063c.112 0 .191-.023.239-.068a.988.988 0 0 0 .129-.151h.125v2.088h-.091a7.648 7.648 0 0 0-.192-.783 2.395 2.395 0 0 0-.326-.684 1.612 1.612 0 0 0-.53-.48c-.216-.122-.482-.183-.8-.183-.294 0-.548.057-.76.172-.211.115-.39.268-.534.46a2.36 2.36 0 0 0-.347.668 4.843 4.843 0 0 0-.196.804 7.887 7.887 0 0 0-.088.857 16.56 16.56 0 0 0-.021.82c0 .731.047 1.337.142 1.817.095.48.227.86.397 1.139.17.278.374.473.614.585.24.111.504.167.794.167.373 0 .674-.066.902-.199.229-.132.412-.304.552-.517a2.49 2.49 0 0 0 .317-.72c.073-.268.137-.535.192-.8h.092v2.225zM42.053 32.572h.644v-7.238h-.644v-.147h1.362v4.105h.017c.028-.09.076-.203.142-.34a1.588 1.588 0 0 1 .69-.699c.164-.087.36-.13.589-.13.367 0 .667.11.898.334.231.223.347.578.347 1.065v3.05h.643v.146h-2.005v-.146h.643v-3.374c0-.271-.051-.494-.154-.668a.52.52 0 0 0-.481-.261.972.972 0 0 0-.51.146 1.415 1.415 0 0 0-.426.407c-.122.174-.219.38-.288.616-.07.237-.104.495-.104.773v2.36h.643v.147h-2.005v-.146zM46.975 32.572h.643v-4.188h-.643v-.147h1.362v4.335h.643v.146h-2.005v-.146zm.543-6.768c0-.153.043-.284.13-.392a.389.389 0 0 1 .313-.162c.123 0 .227.054.313.162.087.108.13.239.13.392a.605.605 0 0 1-.13.392.388.388 0 0 1-.313.161.388.388 0 0 1-.313-.161.605.605 0 0 1-.13-.392zM49.214 32.572h.644v-4.188h-.644v-.147h1.345v1.118h.017a5.39 5.39 0 0 1 .146-.345c.064-.139.152-.275.264-.407a1.5 1.5 0 0 1 .417-.34c.168-.094.37-.14.61-.14.368 0 .667.11.899.334.23.222.346.578.346 1.065v3.05h.644v.146h-2.006v-.146h.644v-3.374c0-.271-.052-.494-.155-.668a.52.52 0 0 0-.48-.261.97.97 0 0 0-.51.146 1.417 1.417 0 0 0-.426.407c-.123.174-.219.38-.288.616-.07.237-.105.495-.105.773v2.36h.644v.147h-2.006v-.146zM57.896 32.603c-.073.07-.16.13-.26.183a.79.79 0 0 1-.367.078c-.267 0-.461-.071-.58-.214-.12-.142-.203-.343-.247-.6h-.017a4.646 4.646 0 0 1-.092.235.92.92 0 0 1-.501.49 1.272 1.272 0 0 1-.51.09c-.234 0-.42-.034-.56-.1a.899.899 0 0 1-.325-.245.764.764 0 0 1-.155-.33 1.69 1.69 0 0 1-.038-.339c0-.244.04-.439.117-.585a.977.977 0 0 1 .305-.35c.125-.087.265-.158.418-.214.153-.055.308-.115.464-.177.184-.077.335-.143.455-.199a.792.792 0 0 0 .28-.204.674.674 0 0 0 .138-.302 2.58 2.58 0 0 0 .037-.496c0-.168-.008-.317-.025-.45a1.119 1.119 0 0 0-.091-.34.476.476 0 0 0-.192-.213.664.664 0 0 0-.335-.073.804.804 0 0 0-.455.12c-.12.08-.18.21-.18.391 0 .119.008.235.025.35.017.115.025.2.025.256a.37.37 0 0 1-.083.246c-.056.066-.137.099-.243.099-.184 0-.297-.042-.342-.125a.682.682 0 0 1-.067-.324c0-.153.028-.3.084-.439.055-.14.137-.263.246-.37.109-.109.245-.194.41-.256.163-.063.352-.095.563-.095.257 0 .471.04.644.12.173.08.312.189.418.324.105.136.18.29.225.46.045.17.067.35.067.538v2.6c0 .202.025.338.075.408.05.07.123.104.217.104a.496.496 0 0 0 .192-.041.663.663 0 0 0 .193-.126l.067.115zm-1.463-2.444h-.016c-.012.09-.103.181-.276.272l-.626.313a.964.964 0 0 0-.41.381 1.201 1.201 0 0 0-.142.611c0 .105.008.213.025.324.017.112.047.21.092.298a.572.572 0 0 0 .188.214.54.54 0 0 0 .313.084.664.664 0 0 0 .447-.147.92.92 0 0 0 .26-.365c.058-.146.097-.305.116-.476.02-.17.03-.325.03-.464v-1.045z"/>
            <g>
                <path d="M60.93 32.594h.928V25.45h-.928v-.146h2.69v.146h-.927v7.144h.928v.146h-2.69zM63.897 32.594h.643v-4.188h-.643v-.146h1.345v1.117h.017c.033-.09.082-.205.146-.345.064-.139.152-.274.263-.407.111-.132.25-.245.418-.34.167-.094.37-.14.61-.14.367 0 .667.111.898.334.231.223.347.578.347 1.065v3.05h.643v.146H66.58v-.146h.643V29.22c0-.271-.051-.494-.154-.668a.519.519 0 0 0-.481-.261.972.972 0 0 0-.51.146 1.415 1.415 0 0 0-.426.407c-.122.174-.218.38-.288.617-.07.236-.104.494-.104.772v2.36h.643v.147h-2.005v-.146zM68.793 32.594h.643v-4.188h-.643v-.146h1.345v1.117h.017c.033-.09.082-.205.146-.345.064-.139.152-.274.263-.407a1.51 1.51 0 0 1 .418-.34c.167-.094.37-.14.61-.14.368 0 .667.111.898.334.232.223.347.578.347 1.065v3.05h.643v.146h-2.005v-.146h.644V29.22c0-.271-.052-.494-.155-.668a.519.519 0 0 0-.48-.261.974.974 0 0 0-.51.146 1.417 1.417 0 0 0-.426.407c-.123.174-.219.38-.288.617a2.72 2.72 0 0 0-.105.772v2.36h.643v.147h-2.005v-.146zM73.857 30.505c0-.34.06-.658.179-.95.12-.293.273-.545.46-.758.186-.212.395-.377.626-.496.231-.118.458-.177.681-.177.223 0 .45.059.681.177.231.119.44.284.627.496.186.213.34.465.46.758.12.292.18.61.18.95a2.659 2.659 0 0 1-.606 1.682c-.182.216-.39.386-.623.512a1.505 1.505 0 0 1-.719.187c-.245 0-.484-.062-.718-.187a2.111 2.111 0 0 1-.623-.512 2.635 2.635 0 0 1-.605-1.682zm.835 0c0 .494.03.888.092 1.18.06.293.142.518.242.674.1.157.217.26.351.308.134.049.276.073.426.073.15 0 .293-.024.426-.073a.718.718 0 0 0 .351-.308c.1-.156.181-.381.243-.674.06-.292.092-.686.092-1.18 0-.418-.023-.768-.067-1.05a2.298 2.298 0 0 0-.205-.689.874.874 0 0 0-.347-.381 1.006 1.006 0 0 0-.493-.115c-.189 0-.354.038-.493.115a.876.876 0 0 0-.346.381c-.093.178-.16.407-.205.69a6.86 6.86 0 0 0-.067 1.049zM77.684 28.26h2.021v.146h-.685l1.078 3.28 1.12-3.28h-.685v-.146h1.27v.146h-.451l-1.58 4.679-1.52-4.68h-.568v-.145zM85.555 32.626c-.073.069-.16.13-.26.182a.788.788 0 0 1-.367.078c-.268 0-.461-.071-.58-.214-.12-.142-.203-.342-.247-.6h-.017c-.022.063-.053.14-.092.235a.916.916 0 0 1-.501.49 1.27 1.27 0 0 1-.51.09c-.234 0-.42-.034-.56-.1a.9.9 0 0 1-.326-.245.763.763 0 0 1-.154-.33 1.69 1.69 0 0 1-.038-.339c0-.243.039-.438.117-.584a.98.98 0 0 1 .305-.35 1.83 1.83 0 0 1 .418-.214c.153-.056.308-.115.464-.178.183-.076.335-.142.455-.198a.795.795 0 0 0 .28-.204.674.674 0 0 0 .138-.303 2.58 2.58 0 0 0 .037-.496c0-.167-.008-.317-.025-.45a1.122 1.122 0 0 0-.092-.339.476.476 0 0 0-.192-.214.666.666 0 0 0-.334-.073.804.804 0 0 0-.455.12c-.12.08-.18.21-.18.392 0 .118.008.235.025.35.017.115.025.2.025.256 0 .097-.028.179-.083.245-.056.066-.137.1-.243.1-.184 0-.298-.043-.342-.126a.683.683 0 0 1-.067-.324c0-.153.028-.3.083-.438.056-.14.138-.263.247-.371.109-.108.245-.194.41-.256.163-.063.352-.094.563-.094.256 0 .471.04.644.12.172.08.311.188.417.324.106.135.181.289.226.46.045.17.067.349.067.538v2.6c0 .202.025.338.075.407.05.07.123.105.217.105a.495.495 0 0 0 .192-.042.66.66 0 0 0 .193-.125l.067.115zm-1.463-2.445h-.016c-.012.091-.104.181-.276.272l-.627.313a.962.962 0 0 0-.41.382 1.2 1.2 0 0 0-.142.61c0 .105.009.213.026.324.016.112.047.211.092.298a.57.57 0 0 0 .188.214c.08.056.185.084.313.084a.665.665 0 0 0 .447-.146.92.92 0 0 0 .259-.366c.059-.146.097-.304.117-.475.02-.171.029-.326.029-.465V30.18zM85.512 28.26h.644v-1.348c.044.021.086.038.125.053.04.013.106.02.201.02a.589.589 0 0 0 .217-.036.528.528 0 0 0 .176-.12v1.43h1.186v.147h-1.186v3.415c0 .195.015.354.046.476.03.121.07.215.12.281a.36.36 0 0 0 .163.131.503.503 0 0 0 .172.031.547.547 0 0 0 .472-.266c.12-.177.196-.381.23-.611l.117.052c-.017.09-.042.192-.075.303a1.144 1.144 0 0 1-.155.319.85.85 0 0 1-.272.25.807.807 0 0 1-.418.1c-.417 0-.708-.102-.873-.303-.164-.202-.246-.488-.246-.857v-3.321h-.644v-.146z"/>
                <path d="M88.178 32.594h.644v-4.188h-.644v-.146h1.362v4.334h.644v.146h-2.006v-.146zm.543-6.768a.61.61 0 0 1 .13-.392.39.39 0 0 1 .313-.161.39.39 0 0 1 .314.161.61.61 0 0 1 .13.392.61.61 0 0 1-.13.392.39.39 0 0 1-.314.162.39.39 0 0 1-.313-.162.61.61 0 0 1-.13-.392zM90.585 30.505c0-.34.06-.658.18-.95.119-.293.272-.545.458-.758.188-.212.396-.377.628-.496.23-.118.458-.177.68-.177.223 0 .45.059.681.177.232.119.44.284.627.496.187.213.34.465.46.758.12.292.18.61.18.95a2.643 2.643 0 0 1-.606 1.682 2.11 2.11 0 0 1-.623.512 1.506 1.506 0 0 1-.719.187c-.245 0-.484-.062-.718-.187a2.11 2.11 0 0 1-.622-.512 2.643 2.643 0 0 1-.606-1.682zm.835 0c0 .494.03.888.092 1.18.061.293.142.518.243.674.1.157.217.26.35.308.134.049.276.073.426.073.15 0 .293-.024.427-.073a.72.72 0 0 0 .35-.308c.1-.156.182-.381.243-.674.061-.292.092-.686.092-1.18 0-.418-.023-.768-.067-1.05a2.299 2.299 0 0 0-.205-.689.878.878 0 0 0-.346-.381 1.008 1.008 0 0 0-.494-.115c-.189 0-.354.038-.493.115a.878.878 0 0 0-.346.381c-.092.178-.16.407-.205.69a6.793 6.793 0 0 0-.067 1.049zM94.854 32.594h.644v-4.188h-.644v-.146H96.2v1.117h.016c.033-.09.082-.205.147-.345.063-.139.151-.274.263-.407a1.51 1.51 0 0 1 .417-.34c.167-.094.371-.14.61-.14.368 0 .668.111.899.334.23.223.346.578.346 1.065v3.05h.644v.146h-2.005v-.146h.643V29.22c0-.271-.052-.494-.155-.668a.519.519 0 0 0-.48-.261.974.974 0 0 0-.51.146 1.417 1.417 0 0 0-.426.407c-.122.174-.219.38-.288.617a2.72 2.72 0 0 0-.104.772v2.36h.643v.147h-2.006v-.146z"/>
            </g>
            <g>
                <path d="M102.132 32.561h.735l2.256-7.478h.201l2.273 7.478h.744v.146h-2.574v-.146h.927l-.877-2.904h-1.938L103 32.561h.927v.146h-1.796v-.146zm2.715-6.09l-.919 3.04h1.839l-.92-3.04zM107.63 28.227h2.014v.146h-.694l.936 3.258.869-2.58-.209-.678h-.35v-.147h1.662v.147h-.56l.97 3.238 1.044-3.238h-.786v-.147h1.362v.147h-.442l-1.496 4.68-1.136-3.793-1.27 3.792-1.346-4.68h-.568v-.145zM117.557 32.592c-.073.07-.159.13-.26.183a.792.792 0 0 1-.367.079c-.268 0-.461-.072-.58-.215-.12-.142-.203-.343-.247-.6h-.017a4.938 4.938 0 0 1-.092.235.923.923 0 0 1-.501.49 1.273 1.273 0 0 1-.51.09c-.234 0-.42-.034-.56-.1a.9.9 0 0 1-.325-.245.765.765 0 0 1-.155-.329 1.69 1.69 0 0 1-.037-.34c0-.243.038-.438.116-.585a.977.977 0 0 1 .305-.35c.126-.087.265-.158.418-.214.153-.055.308-.115.464-.177.184-.077.336-.143.455-.199a.792.792 0 0 0 .28-.203.677.677 0 0 0 .138-.303c.025-.122.038-.287.038-.496 0-.167-.009-.317-.025-.45a1.115 1.115 0 0 0-.093-.339.472.472 0 0 0-.192-.214.66.66 0 0 0-.334-.073.805.805 0 0 0-.455.12c-.12.08-.18.21-.18.392 0 .118.008.235.025.35.017.115.025.2.025.256 0 .097-.028.18-.083.245-.056.066-.137.1-.242.1-.185 0-.299-.043-.343-.126a.682.682 0 0 1-.067-.324c0-.153.028-.3.084-.439a1.093 1.093 0 0 1 .656-.626c.164-.063.352-.094.564-.094.256 0 .47.04.643.12.173.08.312.188.418.323.106.137.18.29.225.46.045.171.067.35.067.538v2.6c0 .203.025.339.075.408a.25.25 0 0 0 .217.104.498.498 0 0 0 .193-.041.672.672 0 0 0 .192-.126l.067.115zm-1.463-2.444h-.016c-.012.09-.104.182-.276.272l-.627.313a.965.965 0 0 0-.409.381 1.203 1.203 0 0 0-.142.612c0 .104.008.212.025.323.017.112.047.21.092.298a.573.573 0 0 0 .188.214.542.542 0 0 0 .313.083.662.662 0 0 0 .447-.146c.114-.097.2-.22.26-.365.058-.146.097-.305.116-.475.02-.17.03-.326.03-.465v-1.045zM117.598 32.561h.644v-4.188h-.644v-.146h1.345v1.054h.017c.023-.104.059-.222.109-.355.05-.132.12-.259.209-.38.09-.123.196-.226.322-.31a.802.802 0 0 1 .455-.124.68.68 0 0 1 .334.078.748.748 0 0 1 .234.198c.061.08.106.173.134.277.028.104.042.209.042.314 0 .23-.042.382-.126.46a.42.42 0 0 1-.292.114c-.245 0-.368-.097-.368-.293 0-.062.005-.113.017-.15.011-.039.024-.078.038-.116.014-.038.026-.082.037-.13.01-.05.017-.119.017-.21 0-.222-.098-.334-.293-.334-.089 0-.184.042-.284.126-.1.083-.193.205-.28.365-.086.16-.159.354-.217.58a3.106 3.106 0 0 0-.088.778v2.392h.727v.146h-2.089v-.146zM123.28 25.177h1.362v7.384h.644v.146h-1.346V31.8h-.016a3.36 3.36 0 0 1-.1.303 1.32 1.32 0 0 1-.197.344 1.194 1.194 0 0 1-.326.287.903.903 0 0 1-.48.12c-.245 0-.478-.066-.698-.198a2.026 2.026 0 0 1-.58-.533A2.843 2.843 0 0 1 121 30.44c-.001-.313.046-.612.141-.897a2.53 2.53 0 0 1 .385-.747c.16-.213.348-.383.56-.512a1.28 1.28 0 0 1 .676-.193c.307 0 .555.094.744.282.189.188.323.418.401.689h.016v-3.74h-.643v-.145zm-1.445 5.138c0 .363.008.692.025.987.016.296.058.55.125.758a1 1 0 0 0 .301.48c.134.112.315.167.543.167.234 0 .422-.063.564-.188.142-.125.252-.287.33-.485a2.62 2.62 0 0 0 .159-.664c.028-.243.042-.48.042-.71 0-.272-.005-.507-.013-.705a5.204 5.204 0 0 0-.046-.527 1.86 1.86 0 0 0-.234-.71 1.082 1.082 0 0 0-.326-.345.888.888 0 0 0-.51-.136.758.758 0 0 0-.48.146.944.944 0 0 0-.292.418c-.07.181-.119.398-.147.653a7.934 7.934 0 0 0-.041.861zM125.778 31.245h.092c.04.167.09.336.15.506.062.171.144.328.247.47.103.143.23.26.38.35.15.091.332.136.543.136a.664.664 0 0 0 .477-.203c.139-.136.209-.357.209-.664 0-.264-.055-.45-.164-.559a1.23 1.23 0 0 0-.38-.256l-.651-.281a3.242 3.242 0 0 1-.272-.13.982.982 0 0 1-.271-.22 1.1 1.1 0 0 1-.205-.36 1.68 1.68 0 0 1-.08-.564c0-.195.031-.377.092-.544.062-.167.145-.313.251-.438a1.112 1.112 0 0 1 .86-.397c.123 0 .222.012.297.036a2.157 2.157 0 0 1 .347.146.325.325 0 0 0 .159.037.14.14 0 0 0 .134-.084h.091v1.191h-.091a5.249 5.249 0 0 0-.134-.444c-.05-.142-.11-.27-.18-.381a.79.79 0 0 0-.259-.261.69.69 0 0 0-.363-.094c-.268 0-.475.075-.623.224-.147.15-.221.35-.221.6 0 .224.063.393.188.507.125.115.31.222.555.32l.61.25c.262.111.477.265.644.46.167.194.25.452.25.772 0 .188-.029.373-.087.554a1.334 1.334 0 0 1-.677.804 1.228 1.228 0 0 1-.564.125 1.15 1.15 0 0 1-.338-.047 3.579 3.579 0 0 1-.285-.099 10.978 10.978 0 0 1-.238-.1.51.51 0 0 0-.2-.046c-.061 0-.106.015-.134.047a.43.43 0 0 0-.067.1h-.092v-1.463z"/>
            </g>
        </g>
    </g>
</svg>
