<svg xmlns="http://www.w3.org/2000/svg" width="99" height="62" viewBox="0 0 99 62">
    <g fill="#121212" fill-rule="nonzero">
        <path d="M4.67 2.371V8.73H2.347V2.37H0V.347h7.017v2.024H4.67zM12.44 6.203H8.752c.072.695.48 1.006 1.066 1.006.55 0 1.006-.12 1.629-.443l.826 1.377c-.778.455-1.581.718-2.563.718-1.892 0-2.934-1.341-2.934-3.27 0-2.166 1.222-3.28 2.874-3.28 1.725 0 2.803 1.138 2.803 3.473 0 .18 0 .311-.013.42zm-2.85-2.3c-.49 0-.766.336-.838.959h1.797c-.108-.635-.324-.958-.958-.958zM16.45 8.861c-1.843 0-2.945-1.173-2.945-3.292 0-1.929.982-3.258 2.994-3.258 1.185 0 1.868.55 2.419 1.437l-1.485 1.126c-.3-.551-.504-.815-.97-.815-.551 0-.827.551-.827 1.545 0 .995.3 1.509.887 1.509.406 0 .694-.228 1.09-.814l1.364 1.065c-.73 1.078-1.413 1.497-2.526 1.497zM23.802 8.73V5.16c0-.814-.275-1.03-.719-1.03-.455 0-.73.216-.73 1.006V8.73h-2.156V.862L22.353 0v2.862c.395-.3.838-.55 1.58-.55 1.378 0 2.037.921 2.037 2.574V8.73h-2.168zM31.129 8.861c-2.49 0-3.82-1.844-3.82-4.323 0-2.694 1.58-4.323 3.832-4.323 2.06 0 2.874.887 3.449 2.467l-2.108.827c-.3-.779-.587-1.27-1.353-1.27-.97 0-1.389.97-1.389 2.3 0 1.28.407 2.299 1.413 2.299.73 0 1.042-.396 1.497-1.186l1.964 1.042c-.563 1.102-1.497 2.167-3.485 2.167zM39.916 4.814c-.275-.3-.586-.527-1.006-.527-.527 0-.85.251-.85 1.018V8.73h-2.156V2.443h2.156v.455c.371-.36.79-.587 1.342-.587.454 0 .766.108 1.017.263l-.503 2.24zM45.04 8.73v-.42c-.383.3-.838.551-1.568.551-1.377 0-2.036-.921-2.036-2.575V2.443h2.167v3.569c0 .813.276 1.029.719 1.029.443 0 .718-.216.718-1.006V2.443h2.168V8.73H45.04zM52.367 8.73V5.16c0-.814-.275-1.03-.718-1.03-.455 0-.73.216-.73 1.006V8.73h-2.156V2.443h2.155v.419c.395-.3.839-.55 1.581-.55 1.377 0 2.036.921 2.036 2.574V8.73h-2.168zM58.736 8.861c-1.844 0-2.946-1.173-2.946-3.292 0-1.929.982-3.258 2.994-3.258 1.185 0 1.868.55 2.419 1.437l-1.485 1.126c-.3-.551-.503-.815-.97-.815-.551 0-.826.551-.826 1.545 0 .995.299 1.509.886 1.509.407 0 .694-.228 1.09-.814l1.365 1.065c-.73 1.078-1.413 1.497-2.527 1.497zM66.087 8.73V5.16c0-.814-.275-1.03-.718-1.03-.456 0-.731.216-.731 1.006V8.73h-2.155V.862L64.638 0v2.862c.395-.3.838-.55 1.58-.55 1.378 0 2.037.921 2.037 2.574V8.73h-2.168zM7.785 11.995H0v25.112h8.752c4.422 0 7.269-1.627 7.269-12.556 0-10.828-1.983-12.556-8.236-12.556zm3.361 14.482c0 5.703-1.531 6.932-3.628 6.932h-2.8V15.652H7.35c2.01 0 3.82.41 3.82 8.792 0 .607-.025 1.478-.025 2.033zM17.563 11.995h4.623v25.112h-4.623zM30.836 15.587c-1.321 0-2.426.865-2.426 2.095 0 1.731 1.105 2.391 2.605 3.597l1.712 1.346v5.354s-1.8-1.367-4.647-3.428c-2.848-2.06-3.987-3.019-3.987-6.39 0-3.372 2.415-6.166 6.766-6.166 1.207 0 1.868.13 1.868.13v4.168s-.57-.706-1.891-.706zm.091 17.904c-2.87 0-2.517-3.644-2.517-5.353h-4.499c0 1.367-.338 4.866 1.39 6.765 2.004 2.204 4.373 2.204 5.353 2.204 1.116 0 2.073-.153 2.073-.153V32.99s-.59.501-1.8.501zM49.913 33.981v-5.005c0-3.229-1.147-4.234-3.23-4.915 2.26-.861 3.409-2.153 3.409-6.064 0-3.91-2.87-6.002-6.494-6.002h-9.221v25.112h4.593V26.174h3.125c2.144 0 2.985 1.724 2.985 3.182 0 1.874-.15 5.04.494 7.751h5.941c-.807-.41-1.602-1.845-1.602-3.126zm-7.769-11.366H38.97V15.52h3.496c1.59 0 2.7 1.337 2.7 3.511 0 2.015-.559 3.584-3.022 3.584z"/>
        <path d="M50.723 11.995h4.672V29.6c0 2.958 1.075 3.987 3.131 3.987s3.171-1.2 3.171-3.815V11.995h4.501v19.362c0 4.63-4.93 5.958-7.738 5.958-2.807 0-7.737-.857-7.737-7.03v-18.29zM75.93 11.995H67.14v25.112h4.63V26.556h3.944c2.872 0 6.559-1.758 6.559-7.117 0-5.358-2.701-7.444-6.345-7.444zm-1.78 11.088h-2.379V15.71h2.53c2.4 0 3.257 1.43 3.257 3.565 0 2.136-.643 3.808-3.408 3.808zM98.569 11.995h-15.47v4.2h5.456v20.912h4.677V16.195h5.337z"/>
        <g>
            <path d="M.214 48.762c0-.215.022-.416.065-.604.043-.187.11-.366.2-.535.088-.17.2-.335.335-.497.135-.162.292-.326.47-.49l.398-.371c.11-.096.198-.185.264-.268.066-.082.118-.164.154-.246a.929.929 0 0 0 .072-.268 2.81 2.81 0 0 0 .017-.329c0-.402-.16-.604-.48-.604a.497.497 0 0 0-.291.075.493.493 0 0 0-.165.206.969.969 0 0 0-.075.302 3.664 3.664 0 0 0-.017.364H.214v-.186c0-.452.121-.8.364-1.042.242-.243.624-.364 1.145-.364.494 0 .86.115 1.098.343.237.229.356.556.356.981 0 .156-.014.3-.04.436a1.648 1.648 0 0 1-.365.747 3.387 3.387 0 0 1-.35.36l-.548.508a2.04 2.04 0 0 0-.343.388 1.124 1.124 0 0 0-.158.326h1.832v.768H.214zM3.54 45.524c.023-.31.085-.587.186-.827.1-.24.252-.432.456-.576.203-.144.486-.216.847-.216.297 0 .543.043.737.127.195.085.35.221.467.409.116.187.199.43.247.73.048.3.072.664.072 1.094 0 .339-.012.663-.035.974-.023.31-.084.586-.185.826-.1.24-.253.43-.456.566-.203.137-.486.206-.847.206a2.01 2.01 0 0 1-.734-.117.956.956 0 0 1-.47-.397 1.97 1.97 0 0 1-.247-.73 7.057 7.057 0 0 1-.072-1.095c0-.338.012-.663.035-.974zm.978 1.938c.016.194.045.347.086.46.04.112.096.188.164.229a.499.499 0 0 0 .26.062.43.43 0 0 0 .269-.079.52.52 0 0 0 .16-.268 2.37 2.37 0 0 0 .083-.504c.016-.21.024-.47.024-.782v-.528c0-.306-.008-.556-.024-.75a1.818 1.818 0 0 0-.086-.46c-.041-.112-.096-.19-.164-.23a.499.499 0 0 0-.261-.062.428.428 0 0 0-.268.079.52.52 0 0 0-.16.268 2.387 2.387 0 0 0-.083.504c-.016.21-.024.47-.024.782v.528c0 .306.008.556.024.75zM7.924 45.332h-.967v-.645h.089c.329 0 .588-.062.778-.185.19-.123.31-.322.36-.597h.727v4.857h-.987v-3.43zM11.675 43.905h1.023v3.08h.466v.769h-.466v1.008h-.906v-1.008h-1.728v-.81l1.611-3.039zm.103 1.235l-.946 1.845h.96V45.14h-.014zM16.045 47.376c0 .115.009.218.027.312a.5.5 0 0 0 .305.387.8.8 0 0 0 .32.056.63.63 0 0 0 .408-.148c.12-.098.181-.25.181-.456a.824.824 0 0 0-.044-.285.565.565 0 0 0-.148-.216 1.057 1.057 0 0 0-.27-.174 3.871 3.871 0 0 0-.416-.162 3.54 3.54 0 0 1-.57-.24 1.536 1.536 0 0 1-.4-.305 1.087 1.087 0 0 1-.237-.405 1.697 1.697 0 0 1-.076-.531c0-.485.136-.846.405-1.084.27-.238.64-.357 1.112-.357.219 0 .421.024.607.072.185.048.345.126.48.233.134.108.24.245.315.412.076.167.113.367.113.6v.137h-.946c0-.233-.041-.412-.124-.538-.082-.125-.22-.189-.411-.189a.688.688 0 0 0-.275.048.438.438 0 0 0-.264.309.94.94 0 0 0-.024.213c0 .15.032.277.096.38.064.103.201.198.412.285l.761.33c.188.082.34.167.46.256.119.09.213.186.284.288a.96.96 0 0 1 .148.34c.027.124.041.26.041.412 0 .516-.15.893-.45 1.128-.299.235-.716.353-1.251.353-.558 0-.957-.121-1.197-.363-.24-.243-.36-.59-.36-1.043v-.199h.988v.144zM18.775 46.114c0-.215.034-.395.103-.539a.934.934 0 0 1 .277-.35c.117-.088.254-.153.412-.192.158-.038.326-.058.504-.058.283 0 .512.028.686.082a.942.942 0 0 1 .405.234.788.788 0 0 1 .195.36c.035.14.052.292.052.456v1.941c0 .174.008.309.024.405.015.096.047.199.092.309h-.905a.77.77 0 0 1-.072-.19 6.857 6.857 0 0 1-.045-.195h-.014c-.11.192-.236.317-.38.374-.144.057-.33.086-.56.086a.931.931 0 0 1-.418-.086.712.712 0 0 1-.274-.236 1.06 1.06 0 0 1-.15-.34 1.504 1.504 0 0 1-.049-.374c0-.174.018-.323.055-.449a.872.872 0 0 1 .168-.323.916.916 0 0 1 .288-.222c.117-.06.257-.113.422-.158l.535-.144c.142-.037.24-.087.295-.151.055-.064.082-.158.082-.281a.508.508 0 0 0-.1-.333c-.066-.08-.179-.12-.339-.12-.146 0-.256.043-.329.13a.523.523 0 0 0-.11.35v.103h-.85v-.089zm1.522.923c-.073.03-.14.051-.199.065-.192.04-.329.11-.411.206a.58.58 0 0 0-.124.39c0 .142.028.264.083.364.055.1.146.15.274.15.064 0 .13-.01.2-.03a.521.521 0 0 0 .33-.278.577.577 0 0 0 .053-.26v-.727a.87.87 0 0 1-.206.12zM22.986 45.071v.432H23c.1-.182.23-.316.39-.4.16-.085.344-.128.55-.128.301 0 .533.082.696.247.162.165.243.433.243.803v2.737h-.946v-2.545c0-.192-.032-.326-.096-.402-.065-.075-.167-.112-.31-.112-.333 0-.5.203-.5.61v2.449h-.946v-3.69h.905zM29.92 43.864v.81h-1.748v1.152h1.646v.81h-1.646v2.126h-.988v-4.898h2.737zM31.1 45.071v.494h.014c.097-.178.213-.321.35-.428a.786.786 0 0 1 .5-.162 1.137 1.137 0 0 1 .173.014v.906a3.548 3.548 0 0 0-.295-.014.939.939 0 0 0-.247.034.673.673 0 0 0-.227.113.57.57 0 0 0-.165.206.713.713 0 0 0-.061.312v2.216h-.947v-3.69h.906zM32.472 46.114c0-.215.035-.395.103-.539a.934.934 0 0 1 .278-.35c.117-.088.254-.153.411-.192.158-.038.326-.058.505-.058.283 0 .512.028.686.082a.942.942 0 0 1 .404.234.788.788 0 0 1 .196.36c.034.14.051.292.051.456v1.941c0 .174.008.309.024.405.016.096.047.199.093.309h-.906a.77.77 0 0 1-.072-.19 6.857 6.857 0 0 1-.044-.195h-.014c-.11.192-.237.317-.38.374-.145.057-.331.086-.56.086a.93.93 0 0 1-.418-.086.712.712 0 0 1-.274-.236 1.06 1.06 0 0 1-.151-.34 1.504 1.504 0 0 1-.048-.374c0-.174.018-.323.055-.449a.872.872 0 0 1 .168-.323.916.916 0 0 1 .288-.222c.117-.06.257-.113.422-.158l.535-.144c.141-.037.24-.087.295-.151.055-.064.082-.158.082-.281a.508.508 0 0 0-.1-.333c-.066-.08-.179-.12-.34-.12-.145 0-.255.043-.328.13a.523.523 0 0 0-.11.35v.103h-.85v-.089zm1.523.923c-.073.03-.14.051-.199.065-.192.04-.33.11-.411.206a.58.58 0 0 0-.124.39c0 .142.027.264.082.364.055.1.147.15.275.15.064 0 .13-.01.199-.03a.521.521 0 0 0 .33-.278.577.577 0 0 0 .054-.26v-.727a.872.872 0 0 1-.206.12zM36.684 45.071v.432h.014c.1-.182.23-.316.39-.4.16-.085.343-.128.55-.128.301 0 .533.082.695.247.163.165.244.433.244.803v2.737h-.947v-2.545c0-.192-.032-.326-.096-.402-.064-.075-.167-.112-.308-.112-.334 0-.501.203-.501.61v2.449h-.947v-3.69h.906zM40.967 46.135a.924.924 0 0 0-.061-.237.423.423 0 0 0-.127-.171.342.342 0 0 0-.22-.066.471.471 0 0 0-.281.08.47.47 0 0 0-.164.232 1.584 1.584 0 0 0-.076.391 6.59 6.59 0 0 0-.02.56c0 .228.006.424.02.585.014.163.039.297.076.402a.457.457 0 0 0 .154.23.429.429 0 0 0 .257.072c.16 0 .277-.069.35-.206.073-.137.11-.357.11-.658h.905c0 .484-.109.854-.326 1.107-.217.254-.577.38-1.08.38-.238 0-.445-.028-.62-.085a.903.903 0 0 1-.44-.308 1.538 1.538 0 0 1-.264-.597c-.06-.25-.089-.56-.089-.93 0-.379.037-.693.11-.943.073-.249.176-.448.308-.596.133-.149.29-.253.474-.312.182-.06.384-.09.603-.09.44 0 .77.128.991.384.222.257.333.604.333 1.043h-.905c0-.091-.006-.18-.018-.267zM43.364 43.81v.809h-.946v-.81h.946zm0 1.261v3.69h-.946v-3.69h.946zM44.723 47.678c0 .16.042.29.126.388.085.098.207.147.367.147a.527.527 0 0 0 .35-.11c.087-.073.13-.183.13-.329 0-.119-.034-.21-.102-.271a.814.814 0 0 0-.24-.147l-.666-.24c-.26-.092-.457-.221-.59-.388-.132-.167-.198-.38-.198-.641 0-.152.024-.294.075-.429a.899.899 0 0 1 .24-.353c.11-.1.25-.181.422-.24a1.9 1.9 0 0 1 .62-.09c.43 0 .748.092.954.275.206.183.309.441.309.775v.15h-.851c0-.191-.03-.332-.093-.42-.061-.09-.17-.135-.325-.135a.511.511 0 0 0-.312.1c-.09.066-.134.165-.134.298a.39.39 0 0 0 .086.247c.056.073.165.135.325.185l.57.192c.297.1.507.232.63.395.124.162.186.383.186.661 0 .197-.034.368-.103.512a1.004 1.004 0 0 1-.285.36 1.117 1.117 0 0 1-.432.206c-.167.04-.35.061-.552.061-.265 0-.486-.025-.662-.075a.959.959 0 0 1-.418-.227.817.817 0 0 1-.216-.367 1.765 1.765 0 0 1-.062-.483v-.13h.85v.123zM48.835 46.135a.913.913 0 0 0-.062-.237.423.423 0 0 0-.127-.171.342.342 0 0 0-.22-.066.471.471 0 0 0-.28.08.474.474 0 0 0-.166.232 1.624 1.624 0 0 0-.075.391c-.014.158-.02.345-.02.56 0 .228.006.424.02.585.014.163.04.297.075.402a.46.46 0 0 0 .155.23.427.427 0 0 0 .257.072c.16 0 .277-.069.35-.206.073-.137.11-.357.11-.658h.905c0 .484-.109.854-.326 1.107-.217.254-.577.38-1.08.38-.238 0-.445-.028-.62-.085a.903.903 0 0 1-.44-.308 1.538 1.538 0 0 1-.264-.597c-.06-.25-.089-.56-.089-.93 0-.379.037-.693.11-.943.073-.249.176-.448.308-.596.133-.149.29-.253.474-.312.182-.06.384-.09.603-.09.44 0 .77.128.992.384.221.257.332.604.332 1.043h-.905c0-.091-.006-.18-.017-.267zM50.203 46.08a1.61 1.61 0 0 1 .247-.607c.114-.163.264-.286.449-.371.185-.084.413-.127.682-.127.284-.004.52.034.707.114a.99.99 0 0 1 .446.366c.11.165.187.369.233.611.046.242.069.526.069.85 0 .316-.026.595-.076.837-.05.243-.133.445-.247.607a1.02 1.02 0 0 1-.449.36 1.77 1.77 0 0 1-.683.117 1.83 1.83 0 0 1-.706-.106.951.951 0 0 1-.446-.357 1.607 1.607 0 0 1-.233-.61 4.644 4.644 0 0 1-.069-.847c0-.316.025-.595.076-.838zm.884 1.358c.01.16.032.297.066.412a.59.59 0 0 0 .154.267c.068.064.16.096.274.096.192 0 .325-.1.398-.302.074-.201.11-.533.11-.994 0-.462-.036-.794-.11-.995-.073-.201-.206-.302-.398-.302a.386.386 0 0 0-.274.096.593.593 0 0 0-.154.268 1.838 1.838 0 0 0-.066.411 9.41 9.41 0 0 0 0 1.043zM1.687 57.365c0 .17.013.326.04.465.028.14.079.258.154.353.075.096.175.17.302.225a1.2 1.2 0 0 0 .475.082.942.942 0 0 0 .609-.22c.18-.147.271-.373.271-.68 0-.164-.022-.305-.067-.425a.84.84 0 0 0-.22-.322 1.57 1.57 0 0 0-.403-.26 5.83 5.83 0 0 0-.62-.24 5.29 5.29 0 0 1-.848-.359 2.277 2.277 0 0 1-.598-.455 1.63 1.63 0 0 1-.353-.603 2.542 2.542 0 0 1-.113-.793c0-.723.201-1.261.604-1.616.402-.354.954-.532 1.657-.532a3.6 3.6 0 0 1 .905.108 1.9 1.9 0 0 1 .716.347c.2.16.358.365.47.614.112.249.169.547.169.895v.205H3.425c0-.348-.06-.616-.184-.803-.123-.188-.327-.282-.613-.282-.164 0-.3.024-.41.072a.649.649 0 0 0-.394.46 1.385 1.385 0 0 0-.035.317c0 .225.048.415.143.568.096.153.3.295.614.424l1.135.491c.28.123.508.251.685.384.178.133.319.276.425.43.105.153.179.322.22.506.04.184.06.388.06.613 0 .77-.222 1.332-.669 1.683-.447.35-1.069.526-1.866.526-.832 0-1.427-.18-1.785-.542-.358-.361-.537-.88-.537-1.554v-.297h1.473v.215zM7.486 52.353v1.576h.818v.96h-.818v2.977c0 .218.032.373.097.465.064.092.2.138.404.138a2.532 2.532 0 0 0 .317-.02v.982c-.157 0-.309.005-.455.015-.147.01-.302.016-.465.016-.273 0-.497-.02-.67-.057a.68.68 0 0 1-.4-.225.967.967 0 0 1-.188-.445 3.903 3.903 0 0 1-.052-.695v-3.15h-.716v-.961h.716v-1.576h1.412zM8.784 55.483c0-.32.051-.588.154-.803.102-.215.24-.389.414-.522.174-.132.379-.228.614-.286.235-.058.486-.087.751-.087.423 0 .764.041 1.023.123a1.4 1.4 0 0 1 .603.348c.144.15.24.329.292.537.051.208.077.434.077.68v2.894c0 .26.011.46.035.604.024.143.07.296.139.46h-1.35a1.16 1.16 0 0 1-.108-.281 11.004 11.004 0 0 1-.066-.292h-.02c-.165.287-.354.472-.569.557-.214.086-.492.128-.833.128-.245 0-.454-.042-.624-.128a1.057 1.057 0 0 1-.409-.352 1.585 1.585 0 0 1-.225-.506 2.249 2.249 0 0 1-.072-.558c0-.259.028-.482.082-.67.055-.187.138-.347.25-.48.113-.133.256-.244.43-.333a3.38 3.38 0 0 1 .63-.235l.797-.215c.211-.054.358-.13.44-.225.082-.095.123-.235.123-.419 0-.211-.05-.377-.149-.496-.099-.12-.267-.18-.506-.18-.218 0-.382.066-.49.195-.11.13-.164.304-.164.522v.153H8.784v-.133zm2.27 1.375a1.97 1.97 0 0 1-.296.098c-.286.061-.49.163-.613.306-.123.144-.185.338-.185.584 0 .211.041.392.123.542.082.15.218.224.41.224.095 0 .194-.015.296-.045a.782.782 0 0 0 .49-.414.86.86 0 0 0 .083-.39V56.68a1.258 1.258 0 0 1-.307.178zM15.064 53.928v.737h.02c.144-.266.317-.48.522-.64.204-.16.453-.24.746-.24a1.712 1.712 0 0 1 .256.02v1.35a5.269 5.269 0 0 0-.44-.02c-.122 0-.245.017-.368.051a.983.983 0 0 0-.337.17.844.844 0 0 0-.246.306 1.053 1.053 0 0 0-.092.465v3.304h-1.411v-5.503h1.35zM18.838 52.353v1.576h.818v.96h-.818v2.977c0 .218.032.373.097.465.065.092.2.138.404.138a2.532 2.532 0 0 0 .317-.02v.982c-.157 0-.309.005-.455.015-.147.01-.302.016-.465.016-.273 0-.496-.02-.67-.057a.68.68 0 0 1-.4-.225.967.967 0 0 1-.188-.445 3.903 3.903 0 0 1-.051-.695v-3.15h-.716v-.961h.716v-1.576h1.41zM22.95 58.786c-.15.273-.345.468-.584.583a1.851 1.851 0 0 1-.818.174c-.45 0-.796-.117-1.038-.353-.242-.235-.363-.629-.363-1.18v-4.082h1.411v3.795c0 .286.048.486.143.598.096.113.25.169.46.169.498 0 .747-.303.747-.91v-3.652h1.412v5.503h-1.35v-.645h-.02zM26.61 53.928v.583h.02c.158-.259.333-.445.528-.557.194-.113.434-.169.72-.169.58 0 1.006.227 1.279.68.273.454.41 1.192.41 2.215 0 1.022-.137 1.755-.41 2.199-.273.443-.699.664-1.278.664-.266 0-.493-.05-.68-.148a1.44 1.44 0 0 1-.507-.476h-.02V61.2H25.26v-7.272h1.35zm.2 4.107c.092.303.295.455.608.455.307 0 .507-.152.599-.455.092-.304.138-.755.138-1.355s-.046-1.052-.138-1.356c-.092-.303-.292-.455-.599-.455-.313 0-.516.152-.608.455-.092.304-.138.756-.138 1.356 0 .6.046 1.051.138 1.355zM35.334 52.128c.3 0 .578.031.834.092.256.062.475.164.66.307.184.143.327.334.429.573.102.239.153.532.153.88 0 .395-.092.734-.276 1.017-.184.283-.46.476-.828.578v.02c.409.055.733.23.971.522.239.293.358.685.358 1.176 0 .287-.037.56-.112.818-.075.26-.203.486-.384.68-.18.195-.416.35-.705.466-.29.116-.65.174-1.08.174H32.87v-7.303h2.465zm-.572 2.997c.409 0 .707-.073.894-.22.188-.146.282-.394.282-.741 0-.348-.086-.594-.256-.737-.17-.143-.44-.214-.808-.214h-.532v1.912h.42zm.153 3.222c.354 0 .64-.079.86-.236.217-.156.326-.446.326-.869 0-.211-.029-.387-.087-.527a.886.886 0 0 0-.235-.337.848.848 0 0 0-.353-.18 1.858 1.858 0 0 0-.45-.05h-.634v2.199h.573zM38.505 55.483c0-.32.05-.588.153-.803.103-.215.24-.389.414-.522.174-.132.379-.228.614-.286.235-.058.486-.087.752-.087.422 0 .763.041 1.023.123a1.4 1.4 0 0 1 .603.348c.143.15.24.329.291.537.052.208.077.434.077.68v2.894c0 .26.012.46.036.604.024.143.07.296.138.46h-1.35a1.16 1.16 0 0 1-.107-.281 11.004 11.004 0 0 1-.067-.292h-.02c-.164.287-.353.472-.568.557-.215.086-.493.128-.834.128-.245 0-.453-.042-.623-.128a1.057 1.057 0 0 1-.41-.352 1.585 1.585 0 0 1-.224-.506 2.249 2.249 0 0 1-.072-.558c0-.259.027-.482.082-.67.054-.187.138-.347.25-.48.113-.133.256-.244.43-.333a3.38 3.38 0 0 1 .629-.235l.798-.215c.21-.054.358-.13.44-.225.081-.095.122-.235.122-.419 0-.211-.05-.377-.148-.496-.099-.12-.268-.18-.506-.18-.219 0-.382.066-.491.195-.11.13-.164.304-.164.522v.153h-1.268v-.133zm2.27 1.375a1.97 1.97 0 0 1-.296.098c-.287.061-.491.163-.614.306-.123.144-.184.338-.184.584 0 .211.04.392.123.542.081.15.218.224.409.224.095 0 .194-.015.296-.045a.782.782 0 0 0 .49-.414.86.86 0 0 0 .083-.39V56.68a1.261 1.261 0 0 1-.307.178zM45.153 52.353v1.576h.818v.96h-.818v2.977c0 .218.032.373.097.465.064.092.2.138.404.138a2.532 2.532 0 0 0 .317-.02v.982c-.157 0-.309.005-.455.015-.147.01-.302.016-.466.016-.272 0-.496-.02-.67-.057a.68.68 0 0 1-.398-.225.967.967 0 0 1-.19-.445 3.903 3.903 0 0 1-.05-.695v-3.15h-.717v-.961h.716v-1.576h1.412zM48.18 52.353v1.576h.818v.96h-.818v2.977c0 .218.032.373.097.465.064.092.2.138.404.138a2.532 2.532 0 0 0 .317-.02v.982c-.157 0-.309.005-.455.015-.147.01-.302.016-.465.016-.273 0-.496-.02-.67-.057a.68.68 0 0 1-.4-.225.967.967 0 0 1-.188-.445 3.903 3.903 0 0 1-.052-.695v-3.15h-.716v-.961h.716v-1.576h1.412zM50.951 52.128v7.303H49.54v-7.303zM53.15 57.334c0 .164.012.322.036.476.024.153.063.29.117.409.055.12.127.215.215.286a.503.503 0 0 0 .327.107c.239 0 .413-.085.522-.255.109-.17.184-.43.225-.777h1.268c-.027.64-.198 1.128-.511 1.462-.314.334-.808.501-1.483.501-.512 0-.91-.085-1.197-.255a1.588 1.588 0 0 1-.634-.675 2.661 2.661 0 0 1-.25-.941c-.031-.348-.047-.696-.047-1.043 0-.369.026-.723.077-1.064.051-.34.154-.645.307-.91.153-.266.373-.477.66-.634.286-.157.668-.236 1.145-.236.41 0 .745.067 1.008.2.262.133.468.32.618.562.15.242.253.536.307.88.055.344.082.728.082 1.15v.317H53.15v.44zm1.4-1.836a1.43 1.43 0 0 0-.106-.409.572.572 0 0 0-.215-.255.654.654 0 0 0-.353-.087.6.6 0 0 0-.353.097.703.703 0 0 0-.22.255 1.268 1.268 0 0 0-.117.353 2.13 2.13 0 0 0-.036.389v.215h1.442a5.887 5.887 0 0 0-.041-.558zM56.27 54.89v-.962h.715v-.623c0-.246.034-.454.103-.624a.983.983 0 0 1 .29-.41 1.16 1.16 0 0 1 .466-.22c.184-.043.39-.066.614-.066.252 0 .504.01.757.03v1.003a.785.785 0 0 0-.143-.01h-.133c-.198 0-.338.034-.42.102-.081.069-.122.181-.122.338v.48h.818v.962h-.818v4.54h-1.412v-4.54h-.716zM61.168 52.047v1.206h-1.411v-1.206h1.411zm0 1.881v5.503h-1.411v-5.503h1.411zM63.367 57.334c0 .164.012.322.036.476.023.153.063.29.117.409.055.12.126.215.215.286a.503.503 0 0 0 .327.107c.239 0 .413-.085.522-.255.109-.17.184-.43.225-.777h1.268c-.027.64-.198 1.128-.511 1.462-.314.334-.808.501-1.483.501-.512 0-.91-.085-1.197-.255a1.588 1.588 0 0 1-.634-.675 2.661 2.661 0 0 1-.25-.941c-.031-.348-.047-.696-.047-1.043 0-.369.026-.723.077-1.064.051-.34.154-.645.307-.91.153-.266.373-.477.66-.634.286-.157.668-.236 1.145-.236.41 0 .745.067 1.007.2.263.133.47.32.62.562.15.242.251.536.306.88.055.344.082.728.082 1.15v.317h-2.792v.44zm1.4-1.836a1.43 1.43 0 0 0-.106-.409.572.572 0 0 0-.215-.255.654.654 0 0 0-.353-.087.6.6 0 0 0-.353.097.703.703 0 0 0-.22.255 1.268 1.268 0 0 0-.117.353 2.13 2.13 0 0 0-.036.389v.215h1.442a5.887 5.887 0 0 0-.041-.558zM68.358 52.128v7.303h-1.412v-7.303zM72.152 58.848c-.157.26-.332.44-.527.542a1.536 1.536 0 0 1-.72.153c-.58 0-1.007-.221-1.28-.664-.272-.444-.408-1.177-.408-2.2 0-1.022.136-1.76.409-2.213.272-.454.699-.68 1.278-.68.266 0 .493.054.68.163.188.11.357.273.507.49h.02v-2.31h1.411v7.302h-1.35v-.583h-.02zm-1.386-.813c.092.303.292.455.598.455.314 0 .517-.152.609-.455.092-.304.138-.755.138-1.355s-.046-1.052-.138-1.356c-.092-.303-.295-.455-.609-.455-.306 0-.506.152-.598.455-.092.304-.138.756-.138 1.356 0 .6.046 1.051.138 1.355z"/>
        </g>
    </g>
</svg>
