<svg xmlns="http://www.w3.org/2000/svg" width="82" height="68" viewBox="0 0 82 68">
    <g fill="#121212" fill-rule="nonzero">
        <path d="M7.92 51.386l-.818-2.545H2.689l-.875 2.545H0l4.818-12.228h.43l4.47 12.228H7.92zM4.956 42.32L3.118 47.63H6.64L4.956 42.32zM11.304 50.9v3.945H9.765V42.567h1.539v.724a2.856 2.856 0 0 1 2.113-.89c1.231 0 2.19.39 2.875 1.17.686.78 1.029 1.922 1.029 3.426 0 1.34-.346 2.433-1.037 3.281-.691.849-1.69 1.273-2.996 1.273-.367 0-.76-.066-1.178-.198-.419-.132-.688-.283-.806-.453zm0-6.431v5.138c.097.149.302.29.615.424.313.135.618.202.915.202 1.911 0 2.867-1.098 2.867-3.294 0-1.114-.227-1.93-.68-2.446-.454-.515-1.18-.774-2.179-.774-.216 0-.48.077-.793.231a2.606 2.606 0 0 0-.745.519zM19.466 50.9v3.945h-1.539V42.567h1.539v.724a2.856 2.856 0 0 1 2.113-.89c1.231 0 2.19.39 2.875 1.17.685.78 1.028 1.922 1.028 3.426 0 1.34-.345 2.433-1.036 3.281-.691.849-1.69 1.273-2.996 1.273-.368 0-.76-.066-1.179-.198-.418-.132-.687-.283-.805-.453zm0-6.431v5.138c.097.149.302.29.615.424.313.135.618.202.915.202 1.911 0 2.867-1.098 2.867-3.294 0-1.114-.227-1.93-.68-2.446-.454-.515-1.18-.774-2.179-.774-.216 0-.48.077-.794.231a2.606 2.606 0 0 0-.744.519z"/>
        <path d="M29.4 52.885c-.199.56-.619 1.026-1.259 1.4a4.17 4.17 0 0 1-2.141.56v-1.4c.642 0 1.193-.153 1.652-.458.458-.304.688-.676.688-1.115 0-.484-.084-.96-.251-1.429-.168-.47-.384-1.05-.648-1.742l-2.349-6.134h1.571l2.551 6.818 2.292-6.818h1.571l-3.676 10.318z"/>
        <g>
            <path d="M42.994 51.386l-.818-2.545h-4.414l-.874 2.545h-1.814l4.818-12.228h.43l4.47 12.228h-1.798zM40.03 42.32l-1.838 5.311h3.522L40.03 42.32zM52.095 51.55h-.405l-2.543-6.002-2.534 6.003h-.405l-3.102-9.01h1.644l1.854 5.79 2.308-5.79h.405l2.381 5.79 1.992-5.79h1.515zM60.24 50.373c-.615.785-1.557 1.178-2.826 1.178-.68 0-1.27-.252-1.77-.754-.499-.502-.748-1.127-.748-1.873 0-.895.384-1.651 1.154-2.269.769-.617 1.75-.926 2.943-.926.324 0 .691.071 1.101.214 0-1.428-.626-2.141-1.878-2.141-.961 0-1.7.263-2.219.79l-.648-1.309c.292-.242.695-.449 1.21-.622a4.637 4.637 0 0 1 1.479-.26c1.258 0 2.171.292 2.74.874.57.582.855 1.507.855 2.775v3.162c0 .774.227 1.29.68 1.548v.782c-.626 0-1.094-.09-1.405-.271-.31-.181-.533-.48-.668-.898zm-.145-3.318c-.486-.11-.826-.165-1.02-.165-.778 0-1.413.203-1.904.61-.491.405-.737.886-.737 1.44 0 .917.532 1.376 1.596 1.376.777 0 1.465-.376 2.065-1.129v-2.132zM67.69 44.074c-.335-.236-.673-.355-1.013-.355-.545 0-1.021.256-1.429.766-.408.51-.611 1.126-.611 1.845v5.056h-1.54v-8.82h1.54v1.409c.561-1.049 1.395-1.573 2.502-1.573.275 0 .672.05 1.19.148l-.64 1.524zM73.843 51.378v-.65c-.534.543-1.312.814-2.332.814-1.085 0-1.965-.395-2.64-1.185-.675-.791-1.012-1.845-1.012-3.162 0-1.323.389-2.453 1.166-3.39.777-.935 1.703-1.403 2.777-1.403.897 0 1.577.214 2.041.642v-4.092h1.539v12.426h-1.539zm0-6.769c-.389-.593-.92-.89-1.595-.89-.826 0-1.494.313-2.004.939-.51.626-.766 1.422-.766 2.388 0 2.125.95 3.187 2.85 3.187.244 0 .535-.078.875-.235.34-.156.554-.322.64-.498v-4.891zM75.94 50.859l.542-1.482c.858.57 1.55.856 2.073.856.95 0 1.425-.406 1.425-1.218 0-.583-.458-1.082-1.376-1.5-.708-.329-1.184-.579-1.43-.749a3.198 3.198 0 0 1-.64-.58 2.32 2.32 0 0 1-.404-.692 2.278 2.278 0 0 1-.134-.786c0-.725.26-1.29.778-1.697.518-.406 1.195-.61 2.032-.61.632 0 1.428.204 2.39.61l-.438 1.45c-.61-.495-1.223-.742-1.839-.742-.366 0-.676.088-.927.264-.25.176-.376.398-.376.667 0 .566.316.994.947 1.285l1.102.51c.674.313 1.166.67 1.473 1.07.308.401.462.904.462 1.508 0 .79-.273 1.41-.818 1.857-.545.447-1.301.67-2.267.67-.913 0-1.771-.23-2.576-.691z"/>
        </g>
        <g>
            <path d="M53.437 17.946c0 7.102-5.74 12.863-12.834 12.895v-1.479c6.285-.079 11.357-5.2 11.357-11.504 0-6.304-5.072-11.426-11.357-11.505v-1.3c7.094.031 12.834 5.792 12.834 12.893zM40.41 9.346l-6.033 15.252h2.277l1.126-3.172h2.823v7.936l-.148.001c-6.354 0-11.505-5.151-11.505-11.505 0-6.354 5.15-11.506 11.505-11.506l.148.001v2.993h-.193z"/>
            <path d="M40.603 13.142v6.796h-2.294zM46.622 24.598h-2.19l-1.045-3.172h-2.784v-1.488h2.294l-2.294-6.796V9.346h.352z"/>
        </g>
        <g>
            <path d="M29.52 67.184v-.217l2.49-3.814c.52-.8.781-1.478.781-2.035 0-.735-.414-1.101-1.242-1.101-.293 0-.568.077-.825.23a1.396 1.396 0 0 0-.56.583l-.699-.575c.123-.355.365-.637.724-.846.36-.21.795-.315 1.305-.315.764 0 1.36.177 1.79.529.431.353.647.852.647 1.495 0 .597-.286 1.349-.858 2.257l-1.785 2.833h3.115v.976h-4.884zM35.32 62.968c0-1.142.231-2.074.694-2.794.463-.72 1.114-1.08 1.954-1.08.831 0 1.456.3 1.874.901.418.6.627 1.65.627 3.147 0 1.288-.219 2.302-.657 3.042-.437.739-1.078 1.109-1.92 1.109-.843 0-1.483-.299-1.918-.895-.436-.597-.654-1.74-.654-3.43zm1.085.098c0 2.203.47 3.304 1.41 3.304.54 0 .935-.244 1.189-.732.253-.488.38-1.344.38-2.567 0-.843-.05-1.461-.147-1.855-.097-.394-.255-.693-.472-.895-.217-.203-.492-.304-.825-.304-1.023 0-1.535 1.016-1.535 3.05zM43.502 67.184v-6.093l-1.617 1.01v-1.015c.409-.207.844-.49 1.305-.852.461-.362.818-.706 1.072-1.031h.325v7.981h-1.085zM50.274 59.094l.526.58c-.318.128-.778.555-1.38 1.284-.603.729-.937 1.29-1.002 1.685.3-.29.718-.434 1.253-.434.702 0 1.265.224 1.688.673.423.448.635 1.065.635 1.85 0 .778-.218 1.403-.654 1.877-.436.474-.983.711-1.642.711-1.742 0-2.615-1.156-2.615-3.467 0-.963.34-1.947 1.024-2.954.681-1.008 1.404-1.61 2.167-1.805zM48.223 64.7c0 1.132.465 1.699 1.394 1.699.39 0 .699-.148.926-.442.225-.295.338-.685.338-1.17 0-.502-.119-.904-.358-1.204-.238-.301-.546-.45-.922-.45-.918 0-1.378.522-1.378 1.567z"/>
        </g>
        <path d="M54.481.023H26.808a3.933 3.933 0 0 0-3.922 3.922v27.648a3.933 3.933 0 0 0 3.922 3.922H54.481a3.897 3.897 0 0 0 3.897-3.897V3.92A3.896 3.896 0 0 0 54.48.023zm3.091 31.595a3.094 3.094 0 0 1-3.09 3.091H40.602V30.84h-.06c-7.121 0-12.894-5.772-12.894-12.894 0-7.12 5.773-12.894 12.894-12.894h.06V.83H54.48a3.094 3.094 0 0 1 3.091 3.09v27.7z"/>
    </g>
</svg>
