<svg xmlns="http://www.w3.org/2000/svg" width="42" height="42" viewBox="0 0 42 42">
    <g fill="#210051" fill-rule="nonzero">
        <path d="M21 0C9.402 0 0 9.402 0 21c0 11.597 9.402 21 21 21s21-9.403 21-21C42 9.402 32.598 0 21 0zm-2.382 32.99c-6.141 0-12.419-2.977-12.419-7.872 0-2.56 1.621-5.519 4.413-8.312 3.73-3.727 8.078-5.425 9.713-3.789.72.721.79 1.97.327 3.46-.242.75.705.335.705.336 3.014-1.262 5.643-1.336 6.604.037.512.732.463 1.758-.01 2.947-.218.547.068.633.485.757 1.698.527 3.588 1.8 3.588 4.044 0 3.714-5.355 8.391-13.406 8.391zm11.117-15.566a1.864 1.864 0 0 0-2.165-2.4.972.972 0 0 1-1.156-.748.974.974 0 0 1 .75-1.16 3.816 3.816 0 0 1 4.428 4.908.976.976 0 0 1-1.227.63.978.978 0 0 1-.628-1.23h-.002zm5.686 1.837v.004a1.134 1.134 0 0 1-2.157-.699v-.001a5.572 5.572 0 0 0-6.468-7.165 1.134 1.134 0 0 1-.474-2.218h.001a7.832 7.832 0 0 1 7.458 2.415 7.83 7.83 0 0 1 1.64 7.664z"/>
        <path d="M18.666 24.673c-.29-.116-.655.025-.826.31-.166.29-.075.617.218.737.296.122.676-.019.847-.313.164-.294.057-.626-.239-.734z"/>
        <path d="M17.482 19.584c-4.899.485-8.615 3.485-8.297 6.702.318 3.217 4.55 5.432 9.449 4.949 4.9-.484 8.615-3.485 8.298-6.704-.319-3.217-4.548-5.432-9.45-4.947zm4.3 7.588c-1 2.262-3.876 3.467-6.317 2.681-2.355-.76-3.353-3.088-2.321-5.183 1.012-2.055 3.649-3.217 5.98-2.61 2.414.624 3.645 2.9 2.658 5.112z"/>
        <path d="M16.796 25.449c-.76-.318-1.74.009-2.207.743-.475.737-.253 1.615.5 1.959.765.35 1.78.017 2.254-.739.466-.764.22-1.636-.547-1.963z"/>
    </g>
</svg>
