<svg xmlns="http://www.w3.org/2000/svg" width="42" height="42" viewBox="0 0 42 42">
    <g fill="none" fill-rule="evenodd">
        <path fill="#210051" fill-rule="nonzero" d="M21 42C9.42 42 0 32.58 0 21S9.42 0 21 0s21 9.42 21 21-9.42 21-21 21z"/>
        <g fill="#FFF">
            <path fill-rule="nonzero" d="M33.07 13.336c-.778.352-1.634.565-2.473.706.398-.067.985-.788 1.22-1.08.358-.444.656-.951.823-1.499.022-.043.038-.096-.005-.129-.053-.021-.088-.01-.13.011-.937.502-1.906.866-2.937 1.124a.196.196 0 0 1-.203-.054c-.086-.096-.166-.187-.257-.262a5.198 5.198 0 0 0-1.423-.872 4.95 4.95 0 0 0-2.182-.351c-.72.047-1.43.25-2.07.585a5.334 5.334 0 0 0-1.67 1.364 5.128 5.128 0 0 0-.997 1.997c-.172.703-.158 1.399-.053 2.11.016.117.006.133-.101.117-4.034-.6-7.378-2.044-10.092-5.137-.118-.134-.182-.134-.278.01-1.188 1.78-.612 4.641.872 6.047.198.187.401.375.62.546-.08.016-1.067-.09-1.947-.546-.118-.074-.177-.032-.188.102-.01.192.006.37.032.578.228 1.805 1.478 3.474 3.19 4.126.203.085.428.16.647.197-.39.086-.792.147-1.91.06-.14-.027-.193.042-.14.176.841 2.29 2.655 2.972 4.014 3.36.182.032.364.032.546.075-.01.016-.022.016-.032.032-.45.687-2.013 1.199-2.74 1.453-1.324.462-2.765.67-4.163.532-.224-.032-.271-.03-.332 0-.061.038-.008.092.064.15.284.187.573.353.867.514.888.47 1.814.845 2.783 1.113 5 1.38 10.632.366 14.387-3.364 2.948-2.93 3.981-6.97 3.981-11.014 0-.158.187-.246.299-.33.767-.576 1.376-1.265 1.948-2.036.129-.173.121-.326.121-.39v-.021c0-.065.008-.045-.092 0z"/>
            <path d="M15.954 30.994c2.073 0 .099 0 0 0 .272 0-.011 0 0 0zM15.954 30.994c-.033.002-.404 0 0 0 0 0-.065 0 0 0zM16.778 31.015c0-.041.433 0 0 0 0-.021.053 0 0 0zM25.435 10.95c-.027.02-.064.02-.101 0h.1z"/>
        </g>
    </g>
</svg>
