<svg width="42" height="42" viewBox="0 0 42 42" fill="none" xmlns="http://www.w3.org/2000/svg">
<g clip-path="url(#clip0_26954_81)">
<path d="M21 42C9.42 42 0 32.58 0 21C0 9.42 9.42 0 21 0C32.58 0 42 9.42 42 21C42 32.58 32.58 42 21 42Z" fill="#210051"/>
<path fill-rule="evenodd" clip-rule="evenodd" d="M15.954 30.994C18.027 30.994 16.053 30.994 15.954 30.994C16.226 30.994 15.943 30.994 15.954 30.994ZM15.954 30.994C15.921 30.996 15.55 30.994 15.954 30.994ZM16.778 31.015C17.211 31.015 16.778 30.974 16.778 31.015C16.831 31.015 16.778 30.994 16.778 31.015ZM25.435 10.95C25.408 10.97 25.371 10.97 25.334 10.95H25.435Z" fill="white"/>
<path d="M27.3263 11H30.6998L23.3297 19.4718L32 31H25.2112L19.894 24.0082L13.8099 31H10.4344L18.3174 21.9385L10 11H16.9611L21.7674 17.3908L27.3263 11ZM26.1423 28.9692H28.0116L15.9454 12.9241H13.9395L26.1423 28.9692Z" fill="white"/>
</g>
<defs>
<clipPath id="clip0_26954_81">
<rect width="42" height="42" fill="white"/>
</clipPath>
</defs>
</svg>
