<svg xmlns="http://www.w3.org/2000/svg" width="42" height="42" viewBox="0 0 42 42">
    <g fill="none" fill-rule="evenodd">
        <path fill="#210051" fill-rule="nonzero" d="M21 42C9.42 42 0 32.58 0 21S9.42 0 21 0s21 9.42 21 21-9.42 21-21 21z"/>
        <path fill="#FFF" d="M17.707 21.099V33.27c0 .175.142.317.317.317h4.52a.317.317 0 0 0 .317-.317V20.9h3.276a.317.317 0 0 0 .316-.29l.315-3.727a.317.317 0 0 0-.316-.343h-3.591v-2.644c0-.62.502-1.123 1.122-1.123h2.525a.317.317 0 0 0 .317-.317V8.73a.317.317 0 0 0-.317-.317h-4.267a4.534 4.534 0 0 0-4.534 4.534v3.593h-2.26a.317.317 0 0 0-.317.317v3.727c0 .175.142.317.317.317h2.26v.198z"/>
    </g>
</svg>
