<svg xmlns="http://www.w3.org/2000/svg" width="42" height="42" viewBox="0 0 42 42">
    <g fill="none" fill-rule="nonzero">
        <path fill="#210051" d="M21 42C9.42 42 0 32.58 0 21S9.42 0 21 0s21 9.42 21 21-9.42 21-21 21z"/>
        <path fill="#FFF" d="M32.872 22.599v7.84a.35.35 0 0 1-.35.352h-4.049a.35.35 0 0 1-.35-.351v-7.292c0-1.92-.686-3.23-2.406-3.23-1.312 0-2.092.883-2.436 1.737-.125.305-.157.73-.157 1.157v7.628a.35.35 0 0 1-.351.35h-4.047a.35.35 0 0 1-.35-.35c.008-1.942.05-11.365.008-13.58a.349.349 0 0 1 .35-.354h4.04a.35.35 0 0 1 .35.35v1.674c-.01.016-.023.032-.031.047h.031v-.047c.631-.971 1.757-2.36 4.28-2.36 3.125 0 5.468 2.042 5.468 6.429zM11.351 30.79h4.046a.35.35 0 0 0 .351-.351V16.857a.35.35 0 0 0-.35-.351H11.35a.35.35 0 0 0-.351.35V30.44c0 .194.157.35.35.35z"/>
        <circle cx="13.232" cy="12.146" r="2.542" fill="#FFF"/>
    </g>
</svg>
