<svg xmlns="http://www.w3.org/2000/svg" width="42" height="42" viewBox="0 0 42 42">
    <path fill="#210051" fill-rule="evenodd" d="M21 0C9.404 0 0 9.4 0 21c0 11.597 9.404 21 21 21 11.597 0 21-9.403 21-21C42 9.4 32.597 0 21 0zm12.204 30.725v-.412l-1.91-1.876a.57.57 0 0 1-.218-.547V14.11a.57.57 0 0 1 .217-.548l1.957-1.876v-.41h-6.77l-4.827 12.039-5.492-12.04H9.058v.411l2.289 2.757c.224.2.34.498.308.8V26.07c.066.39-.056.79-.33 1.075L8.75 30.268v.411h7.297v-.411l-2.574-3.122a1.29 1.29 0 0 1-.353-1.075v-9.366l6.405 13.974h.743l5.5-13.974v11.14c0 .297 0 .353-.194.547l-1.977 1.921v.412h9.607z"/>
</svg>
