<svg xmlns="http://www.w3.org/2000/svg" width="42" height="42" viewBox="0 0 42 42">
    <path fill="#210051" fill-rule="evenodd" d="M21 0C9.404 0 0 9.4 0 21c0 11.597 9.404 21 21 21 11.597 0 21-9.403 21-21C42 9.4 32.597 0 21 0zm9.7 28.68c1.556-1.126 2.55-2.794 2.55-4.647 0-3.395-3.304-6.15-7.38-6.15-4.075 0-7.38 2.755-7.38 6.15 0 3.396 3.305 6.15 7.38 6.15.842 0 1.656-.12 2.41-.337a.731.731 0 0 1 .217-.033.78.78 0 0 1 .392.114l1.615.932a.266.266 0 0 0 .142.046c.136 0 .245-.11.245-.245 0-.061-.023-.123-.038-.18-.011-.035-.209-.777-.333-1.241a.494.494 0 0 1 .18-.558zM17.605 11.096c-4.89 0-8.855 3.304-8.855 7.38 0 2.222 1.193 4.224 3.059 5.577a.587.587 0 0 1 .217.668c-.149.557-.387 1.448-.4 1.49-.017.07-.046.141-.046.215 0 .163.133.296.295.296a.333.333 0 0 0 .17-.056l1.94-1.119a.932.932 0 0 1 .47-.136c.09 0 .177.014.26.038a10.439 10.439 0 0 0 3.376.394 5.686 5.686 0 0 1-.297-1.81c0-3.715 3.615-6.728 8.076-6.728.163 0 .322.003.481.012-.666-3.526-4.327-6.221-8.746-6.221zm5.805 11.954a.984.984 0 1 1 .001-1.969.984.984 0 0 1-.001 1.97zm4.92 0a.983.983 0 1 1 0-1.966.983.983 0 0 1 0 1.966zm-13.676-5.756a1.18 1.18 0 1 1 0-2.361 1.18 1.18 0 0 1 0 2.361zm5.903 0a1.18 1.18 0 1 1 0-2.361 1.18 1.18 0 0 1 0 2.361z"/>
</svg>
