<svg xmlns="http://www.w3.org/2000/svg" xmlns:xlink="http://www.w3.org/1999/xlink" width="64" height="32" viewBox="0 0 64 32">
    <defs>
        <path id="a" d="M0 0h64v32H0z"/>
    </defs>
    <g fill="none" fill-rule="evenodd">
        <g>
            <mask id="b" fill="#fff">
                <use xlink:href="#a"/>
            </mask>
            <path fill="#A95AFF" d="M62 32H2a2 2 0 0 1-2-2V2a2 2 0 0 1 2-2h60a2 2 0 0 1 2 2v28a2 2 0 0 1-2 2" mask="url(#b)"/>
        </g>
        <path fill="#FFF" d="M9.42 13.63c-.33-.33-.495-.768-.495-1.315v-3.55c0-.547.165-.983.495-1.31.33-.326.766-.49 1.305-.49.547 0 .985.164 1.315.49.33.327.495.763.495 1.31v.16c0 .067-.033.1-.099.1l-.76.04c-.068 0-.1-.033-.1-.1v-.26c0-.273-.079-.493-.236-.66a.805.805 0 0 0-.615-.25.793.793 0 0 0-.61.25c-.153.167-.23.387-.23.66v3.68c0 .273.077.494.23.66a.79.79 0 0 0 .61.25.802.802 0 0 0 .615-.25c.157-.166.235-.387.235-.66v-.26c0-.066.033-.1.1-.1l.761.04c.066 0 .1.033.1.1v.15c0 .547-.166.985-.496 1.315-.33.33-.768.495-1.315.495-.539 0-.975-.165-1.305-.495M16.73 9.31c.224.283.336.685.336 1.205v3.43c0 .067-.034.1-.101.1h-.76c-.066 0-.1-.033-.1-.1v-3.35c0-.28-.06-.497-.18-.65a.597.597 0 0 0-.5-.23.629.629 0 0 0-.514.225c-.123.15-.192.362-.205.635 0 .04-.004.06-.01.06v3.31c0 .067-.033.1-.101.1h-.76c-.066 0-.1-.033-.1-.1v-6.8c0-.067.034-.1.1-.1h.76c.068 0 .1.033.1.1v2.18c0 .013.007.022.02.025.014.003.027-.005.04-.025.24-.293.578-.44 1.01-.44.42 0 .742.142.966.425M18.366 13.945v-4.89c0-.067.032-.1.1-.1h.758c.067 0 .102.033.102.1v4.89c0 .067-.035.1-.102.1h-.759c-.067 0-.1-.033-.1-.1m.01-5.97a.622.622 0 0 1-.18-.46c0-.187.06-.34.18-.46s.273-.18.46-.18c.194 0 .348.059.465.175a.632.632 0 0 1 .174.465c0 .187-.058.34-.178.46a.624.624 0 0 1-.46.18.622.622 0 0 1-.46-.18M23.67 9.31c.224.283.335.685.335 1.205v3.43c0 .067-.033.1-.1.1h-.759c-.068 0-.1-.033-.1-.1v-3.35c0-.28-.06-.497-.18-.65a.598.598 0 0 0-.5-.23.632.632 0 0 0-.516.225c-.123.15-.192.362-.204.635 0 .04-.004.06-.01.06v3.31c0 .067-.034.1-.1.1h-.76c-.068 0-.1-.033-.1-.1v-4.89c0-.067.032-.1.1-.1h.76c.066 0 .1.033.1.1v.27c0 .013.006.022.02.025.012.003.026-.005.04-.025.24-.293.576-.44 1.01-.44.42 0 .74.142.964.425M26.315 9.935a.867.867 0 0 0-.2.59v.53c0 .026.013.04.04.04h1.37c.027 0 .04-.014.04-.04v-.53a.867.867 0 0 0-.2-.59.671.671 0 0 0-.53-.23.66.66 0 0 0-.52.23m2.1 1.96h-2.26c-.027 0-.04.013-.04.04v.54c0 .24.067.437.2.59a.66.66 0 0 0 .52.23.68.68 0 0 0 .47-.17.752.752 0 0 0 .24-.44c.02-.053.057-.08.11-.08l.74.04c.033 0 .059.01.075.03.017.02.022.043.015.07-.046.433-.211.772-.494 1.015-.284.243-.67.365-1.155.365-.514 0-.922-.144-1.226-.43-.303-.287-.454-.67-.454-1.15v-2.08c0-.473.15-.857.454-1.15.304-.294.712-.44 1.226-.44.519 0 .929.146 1.229.44.3.293.45.677.45 1.15v1.33c0 .067-.033.1-.1.1M29.91 13.74c-.29-.244-.436-.572-.436-.986v-.09c0-.066.034-.1.101-.1h.71c.066 0 .1.034.1.1v.07c0 .18.07.332.21.456a.753.753 0 0 0 .52.184c.2 0 .361-.06.484-.18a.616.616 0 0 0 .186-.46.545.545 0 0 0-.13-.37.932.932 0 0 0-.306-.235 10.144 10.144 0 0 0-.535-.234 4.923 4.923 0 0 1-.644-.33 1.524 1.524 0 0 1-.455-.46c-.134-.2-.2-.454-.2-.76 0-.454.141-.806.424-1.06.283-.254.665-.38 1.146-.38.493 0 .882.13 1.165.39.283.26.425.613.425 1.06v.03c0 .066-.034.1-.1.1h-.69c-.067 0-.1-.034-.1-.1v-.07a.626.626 0 0 0-.19-.46.667.667 0 0 0-.49-.19.642.642 0 0 0-.49.19.646.646 0 0 0-.18.46c0 .14.04.257.12.35.08.094.176.169.29.225.113.056.293.138.54.244.273.12.5.236.68.345.18.11.338.266.475.466.137.2.205.45.205.75 0 .434-.148.777-.445 1.03-.297.254-.699.38-1.205.38-.5 0-.895-.122-1.185-.366M34.835 9.935a.863.863 0 0 0-.2.59v.53c0 .026.013.04.04.04h1.37c.026 0 .04-.014.04-.04v-.53a.863.863 0 0 0-.2-.59.67.67 0 0 0-.53-.23.658.658 0 0 0-.52.23m2.1 1.96h-2.26c-.027 0-.04.013-.04.04v.54c0 .24.066.437.2.59.133.153.307.23.52.23a.682.682 0 0 0 .47-.17.756.756 0 0 0 .24-.44c.02-.053.056-.08.11-.08l.74.04c.033 0 .06.01.075.03.017.02.022.043.015.07-.047.433-.212.772-.495 1.015-.283.243-.668.365-1.155.365-.513 0-.92-.144-1.225-.43-.304-.287-.455-.67-.455-1.15v-2.08c0-.473.151-.857.455-1.15.304-.294.712-.44 1.225-.44.52 0 .93.146 1.23.44.3.293.45.677.45 1.15v1.33c0 .067-.034.1-.1.1M43.454 7.045h.75c.066 0 .101.033.101.1v6.8c0 .067-.035.1-.1.1h-.86c-.054 0-.09-.026-.11-.08l-1.7-4.57c-.008-.013-.018-.018-.03-.015-.014.003-.02.012-.02.025l.01 4.54c0 .067-.034.1-.1.1h-.76c-.068 0-.1-.033-.1-.1v-6.8c0-.067.032-.1.1-.1h.85c.052 0 .09.027.11.08l1.71 4.57c.005.02.016.028.03.025.013-.003.02-.015.02-.035v-4.54c0-.067.033-.1.1-.1M46.765 9.935a.863.863 0 0 0-.2.59v.53c0 .026.013.04.04.04h1.37c.026 0 .04-.014.04-.04v-.53a.863.863 0 0 0-.2-.59.67.67 0 0 0-.53-.23.658.658 0 0 0-.52.23m2.1 1.96h-2.26c-.027 0-.04.013-.04.04v.54c0 .24.066.437.2.59.133.153.307.23.52.23a.682.682 0 0 0 .47-.17.756.756 0 0 0 .239-.44c.02-.053.057-.08.11-.08l.74.04c.034 0 .06.01.076.03.017.02.022.043.015.07-.047.433-.212.772-.495 1.015-.283.243-.668.365-1.155.365-.513 0-.921-.144-1.225-.43-.304-.287-.455-.67-.455-1.15v-2.08c0-.473.15-.857.455-1.15.304-.294.712-.44 1.225-.44.52 0 .93.146 1.23.44.3.293.45.677.45 1.15v1.33c0 .067-.034.1-.1.1M50.784 13.955l-1.069-4.89v-.02c0-.06.03-.09.09-.09h.73c.066 0 .103.03.11.09l.62 3.45c.006.013.013.02.02.02.006 0 .013-.007.02-.02l.63-3.45c.013-.06.05-.09.11-.09h.66c.066 0 .102.03.11.09l.65 3.45c.007.013.012.02.02.02.006 0 .013-.007.02-.02l.63-3.45c.012-.06.05-.09.11-.09l.72.01c.033 0 .057.01.075.03.016.02.021.046.015.08l-1.08 4.88c-.007.06-.044.09-.11.09h-.75c-.06 0-.098-.03-.11-.09l-.63-3.28c-.007-.013-.014-.02-.02-.02-.008 0-.014.007-.02.02l-.61 3.28c-.007.06-.044.09-.11.09h-.72c-.06 0-.097-.03-.11-.09M25.53 24.935v-2.86l-.01-.05-1.39-3.87-.01-.04c0-.047.03-.07.09-.07h.8c.06 0 .1.027.12.08l.85 2.76c.006.013.017.02.03.02.013 0 .023-.007.03-.02l.85-2.76c.02-.053.06-.08.12-.08h.8c.075 0 .1.036.08.11l-1.39 3.87-.01.05v2.86c0 .066-.032.1-.1.1h-.76c-.066 0-.1-.034-.1-.1M29.58 20.935a.863.863 0 0 0-.2.59v.53c0 .026.013.04.04.04h1.37c.026 0 .04-.014.04-.04v-.53a.863.863 0 0 0-.2-.59.67.67 0 0 0-.53-.23.658.658 0 0 0-.52.23m2.1 1.96h-2.26c-.027 0-.04.013-.04.04v.54c0 .24.066.437.2.59.133.153.307.23.52.23a.682.682 0 0 0 .47-.17.756.756 0 0 0 .24-.44c.02-.053.056-.08.11-.08l.74.04c.033 0 .06.01.075.03.017.02.022.043.015.07-.047.433-.212.772-.495 1.015-.283.243-.668.365-1.155.365-.513 0-.92-.144-1.225-.43-.304-.287-.455-.67-.455-1.15v-2.08c0-.473.151-.857.455-1.15.304-.294.712-.44 1.225-.44.52 0 .93.146 1.23.44.3.293.45.677.45 1.15v1.33c0 .067-.034.1-.1.1M34.96 24.065c.174-.146.26-.354.26-.62v-.68c0-.027-.013-.04-.04-.04h-.61c-.266 0-.48.072-.64.215-.159.144-.24.352-.24.625 0 .24.06.42.18.54.12.12.28.18.481.18a.918.918 0 0 0 .61-.22m.754-3.73c.31.307.465.71.465 1.21v3.4c0 .067-.033.1-.1.1h-.76c-.067 0-.1-.033-.1-.1v-.22a.033.033 0 0 0-.015-.03c-.01-.006-.02-.004-.035.01-.233.28-.576.42-1.03.42-.38 0-.715-.108-1.005-.325-.29-.216-.435-.602-.435-1.155 0-.58.175-1.005.526-1.275.35-.27.807-.405 1.375-.405h.58c.026 0 .04-.013.04-.04v-.29c0-.28-.068-.505-.2-.675a.632.632 0 0 0-.52-.255.57.57 0 0 0-.42.17.713.713 0 0 0-.2.44c0 .067-.034.1-.1.1h-.81c-.068 0-.1-.033-.1-.1.032-.427.202-.773.51-1.04.306-.267.685-.4 1.14-.4.486 0 .884.153 1.194.46M39.74 20.015c.047.026.063.07.05.13l-.15.76c-.005.06-.046.08-.12.06a.782.782 0 0 0-.46-.03c-.207.02-.379.133-.515.34a1.323 1.323 0 0 0-.205.75v2.92c0 .067-.034.1-.1.1h-.76c-.066 0-.1-.033-.1-.1v-4.89c0-.067.033-.1.1-.1h.76c.066 0 .1.033.1.1v.58c0 .02.004.03.015.035.01.003.019-.005.026-.025.193-.493.504-.74.93-.74.166 0 .31.036.43.11"/>
    </g>
</svg>
