<svg xmlns="http://www.w3.org/2000/svg" xmlns:xlink="http://www.w3.org/1999/xlink" width="64" height="32" viewBox="0 0 64 32">
    <defs>
        <path id="a" d="M0 0h64v32H0z"/>
    </defs>
    <g fill="none" fill-rule="evenodd">
        <g>
            <mask id="b" fill="#fff">
                <use xlink:href="#a"/>
            </mask>
            <path fill="#A95AFF" d="M62 32H2a2 2 0 0 1-2-2V2a2 2 0 0 1 2-2h60a2 2 0 0 1 2 2v28a2 2 0 0 1-2 2" mask="url(#b)"/>
        </g>
        <path fill="#FFF" d="M11.816 6.96h.76c.066 0 .098.033.098.1v6.8c0 .067-.032.1-.098.1h-.76c-.068 0-.102-.033-.102-.1v-2.95c0-.027-.011-.04-.04-.04h-1.508c-.027 0-.04.013-.04.04v2.95c0 .067-.034.1-.1.1h-.76c-.068 0-.1-.033-.1-.1v-6.8c0-.067.032-.1.1-.1h.76c.066 0 .1.033.1.1V10c0 .027.013.04.04.04h1.508c.029 0 .04-.013.04-.04V7.06c0-.067.034-.1.101-.1M16.195 12.975c.14-.15.21-.35.21-.595v-1.94a.84.84 0 0 0-.21-.59.688.688 0 0 0-.53-.23.672.672 0 0 0-.525.23.856.856 0 0 0-.205.59v1.94c0 .246.07.445.205.595.136.15.312.225.525.225a.694.694 0 0 0 .53-.225m-1.766.63c-.302-.29-.454-.675-.454-1.155v-2.07c0-.473.154-.857.46-1.15.307-.294.716-.44 1.23-.44.52 0 .933.146 1.24.44.307.293.46.677.46 1.15v2.07c0 .48-.153.865-.46 1.155-.307.29-.72.435-1.24.435s-.932-.145-1.236-.435M21.55 9.225c.224.283.335.685.335 1.205v3.43c0 .067-.033.1-.1.1h-.76c-.067 0-.1-.033-.1-.1v-3.35c0-.28-.06-.497-.18-.65a.598.598 0 0 0-.5-.23.632.632 0 0 0-.515.225c-.123.15-.192.362-.204.635 0 .04-.004.06-.011.06v3.31c0 .067-.033.1-.1.1h-.76c-.067 0-.1-.033-.1-.1V8.97c0-.067.033-.1.1-.1h.76c.067 0 .1.033.1.1v.27c0 .013.007.022.02.025.013.003.027-.005.04-.025.24-.293.577-.44 1.01-.44.42 0 .74.142.965.425M25.255 12.975c.14-.15.21-.35.21-.595v-1.94a.84.84 0 0 0-.21-.59.688.688 0 0 0-.53-.23.672.672 0 0 0-.525.23.856.856 0 0 0-.205.59v1.94c0 .246.069.445.205.595.136.15.312.225.525.225a.694.694 0 0 0 .53-.225m-1.766.63c-.302-.29-.454-.675-.454-1.155v-2.07c0-.473.154-.857.46-1.15.307-.294.716-.44 1.23-.44.52 0 .933.146 1.24.44.307.293.46.677.46 1.15v2.07c0 .48-.153.865-.46 1.155-.307.29-.72.435-1.24.435s-.932-.145-1.236-.435M29.975 8.93c.047.026.063.07.05.13l-.15.76c-.006.06-.046.08-.12.06a.778.778 0 0 0-.46-.03c-.207.02-.378.133-.514.34a1.323 1.323 0 0 0-.205.75v2.92c0 .067-.034.1-.101.1h-.76c-.066 0-.1-.033-.1-.1V8.97c0-.067.034-.1.1-.1h.76c.067 0 .1.033.1.1v.58c0 .02.005.031.015.035.01.003.019-.005.026-.025.193-.493.503-.74.929-.74.167 0 .31.036.43.11M35.67 12.81c.176-.207.265-.5.265-.88 0-.387-.087-.688-.26-.905-.174-.216-.414-.325-.721-.325h-.699c-.027 0-.04.013-.04.04v2.34c0 .026.013.04.04.04h.689c.307 0 .549-.103.726-.31m-1.455-4.98v2.12c0 .027.013.04.04.04h.64c.313 0 .556-.095.73-.285.173-.19.26-.455.26-.795 0-.353-.087-.628-.26-.825-.174-.197-.417-.295-.73-.295h-.64c-.027 0-.04.013-.04.04m2.165 5.63c-.344.333-.795.5-1.356.5h-1.669c-.067 0-.1-.033-.1-.1v-6.8c0-.067.033-.1.1-.1h1.53c.606 0 1.081.158 1.425.475.342.316.514.778.514 1.385 0 .72-.257 1.217-.769 1.49-.033.02-.037.037-.01.05.267.16.475.383.625.67.149.287.225.627.225 1.02 0 .607-.172 1.076-.515 1.41M40.045 12.98c.173-.146.26-.354.26-.62v-.68c0-.027-.014-.04-.04-.04h-.611c-.266 0-.479.072-.639.215-.16.144-.241.352-.241.625 0 .24.061.42.18.54.12.12.28.18.481.18a.92.92 0 0 0 .61-.22m.755-3.73c.309.307.465.71.465 1.21v3.4c0 .067-.033.1-.1.1h-.761c-.066 0-.099-.033-.099-.1v-.22a.033.033 0 0 0-.015-.03c-.011-.006-.022-.004-.035.01-.233.28-.577.42-1.03.42-.38 0-.715-.108-1.005-.325-.29-.216-.436-.602-.436-1.155 0-.58.176-1.005.526-1.275.349-.27.808-.405 1.375-.405h.58c.026 0 .04-.013.04-.04v-.29c0-.28-.067-.505-.2-.675a.632.632 0 0 0-.52-.255.57.57 0 0 0-.42.17.702.702 0 0 0-.2.44c0 .067-.034.1-.101.1h-.809c-.067 0-.101-.033-.101-.1.034-.427.204-.773.511-1.04.307-.267.686-.4 1.14-.4.486 0 .884.153 1.195.46M44.53 13.025a.784.784 0 0 0 .234-.485v-2.25a.784.784 0 0 0-.235-.485.665.665 0 0 0-.475-.185.674.674 0 0 0-.525.23.853.853 0 0 0-.205.59v1.95c0 .24.068.437.205.59.137.153.312.23.525.23a.661.661 0 0 0 .475-.185m.335-6.065h.761c.066 0 .1.033.1.1v6.8c0 .067-.034.1-.1.1h-.76c-.067 0-.1-.033-.1-.1v-.16a.036.036 0 0 0-.015-.03c-.01-.006-.023-.003-.035.01a1.35 1.35 0 0 1-.911.36c-.44 0-.788-.145-1.045-.435-.256-.29-.384-.671-.384-1.145v-2.08c0-.493.128-.881.384-1.165.257-.283.605-.425 1.045-.425a1.35 1.35 0 0 1 .911.36c.012.014.024.017.035.01a.035.035 0 0 0 .014-.03V7.06c0-.067.034-.1.1-.1M49.13 12.905c.13-.15.194-.345.194-.585v-1.88a.881.881 0 0 0-.194-.59.644.644 0 0 0-.516-.23.656.656 0 0 0-.52.23.865.865 0 0 0-.2.59v1.88c0 .24.067.435.2.585.134.15.307.225.52.225a.65.65 0 0 0 .516-.225m.295-4.035h.76c.066 0 .099.034.099.1v4.84c0 .7-.16 1.242-.48 1.625-.32.384-.87.575-1.65.575l-.27-.01c-.066-.007-.1-.043-.1-.11v-.64c0-.067.037-.1.11-.1.548.02.923-.088 1.126-.325.203-.236.304-.605.304-1.105v-.21c0-.013-.005-.022-.014-.025-.01-.003-.022.002-.035.015-.227.307-.55.46-.97.46-.441 0-.78-.141-1.015-.425-.237-.283-.355-.668-.355-1.155v-2c0-.493.12-.881.36-1.165.239-.283.576-.425 1.01-.425.433 0 .757.154.97.46.013.013.025.017.035.01.009-.006.014-.017.014-.03v-.26c0-.066.035-.1.1-.1M52.574 9.85a.867.867 0 0 0-.199.59v.53c0 .026.012.04.04.04h1.37c.026 0 .04-.014.04-.04v-.53a.867.867 0 0 0-.2-.59.671.671 0 0 0-.53-.23.66.66 0 0 0-.52.23m2.1 1.96h-2.26c-.028 0-.04.013-.04.04v.54c0 .24.066.437.2.59a.66.66 0 0 0 .52.23.68.68 0 0 0 .47-.17.752.752 0 0 0 .24-.44c.02-.053.056-.08.11-.08l.74.04c.032 0 .058.01.074.03.017.02.022.043.015.07-.046.433-.21.772-.494 1.015-.284.243-.669.365-1.155.365-.514 0-.922-.144-1.226-.43-.303-.287-.454-.67-.454-1.15v-2.08c0-.473.151-.857.454-1.15.304-.294.712-.44 1.226-.44.52 0 .93.146 1.23.44.3.293.45.677.45 1.15v1.33c0 .067-.034.1-.1.1M15.59 24.86v-6.8c0-.067.033-.1.1-.1h.76c.067 0 .1.033.1.1v6.8c0 .067-.033.1-.1.1h-.76c-.067 0-.1-.033-.1-.1M19.87 23.98c.174-.146.26-.354.26-.62v-.68c0-.027-.013-.04-.04-.04h-.61c-.266 0-.48.072-.64.215-.159.144-.24.352-.24.625 0 .24.06.42.18.54.12.12.28.18.481.18a.918.918 0 0 0 .61-.22m.754-3.73c.31.307.465.71.465 1.21v3.4c0 .067-.033.1-.1.1h-.76c-.067 0-.1-.033-.1-.1v-.22a.033.033 0 0 0-.015-.03c-.01-.006-.02-.004-.035.01-.233.28-.576.42-1.03.42-.38 0-.715-.108-1.005-.325-.29-.216-.435-.602-.435-1.155 0-.58.175-1.005.526-1.275.35-.27.807-.405 1.375-.405h.58c.026 0 .04-.013.04-.04v-.29c0-.28-.068-.505-.2-.675a.632.632 0 0 0-.52-.255.57.57 0 0 0-.42.17.713.713 0 0 0-.2.44c0 .067-.034.1-.1.1h-.81c-.068 0-.1-.033-.1-.1.032-.427.202-.773.51-1.04.306-.267.685-.4 1.14-.4.486 0 .884.153 1.194.46M24.7 19.87h.76c.066 0 .1.033.1.1v4.89c0 .067-.034.1-.1.1h-.76c-.067 0-.1-.033-.1-.1v-.29c0-.02-.005-.03-.015-.03-.01 0-.022.007-.035.02-.2.313-.52.47-.96.47-.4 0-.724-.122-.97-.365-.247-.243-.37-.615-.37-1.115v-3.58c0-.067.033-.1.1-.1h.76c.067 0 .1.033.1.1v3.37c0 .573.226.86.68.86a.622.622 0 0 0 .525-.245c.123-.164.184-.388.184-.675v-3.31c0-.067.034-.1.101-.1M29.855 20.225c.223.283.334.685.334 1.205v3.43c0 .067-.032.1-.1.1h-.758c-.069 0-.101-.033-.101-.1v-3.35c0-.28-.06-.497-.18-.65a.598.598 0 0 0-.5-.23.632.632 0 0 0-.515.225c-.123.15-.192.362-.204.635 0 .04-.005.06-.011.06v3.31c0 .067-.034.1-.1.1h-.76c-.068 0-.1-.033-.1-.1v-4.89c0-.067.032-.1.1-.1h.76c.067 0 .1.033.1.1v.27c0 .013.006.022.02.025.012.003.026-.005.04-.025.24-.293.576-.44 1.01-.44.42 0 .74.142.965.425M31.795 24.61c-.304-.287-.455-.673-.455-1.16v-2.07c0-.473.151-.856.455-1.15.304-.293.712-.44 1.225-.44.34 0 .638.065.895.195s.453.307.59.53c.137.223.205.475.205.755v.13c0 .067-.033.1-.1.1l-.76.03c-.067 0-.1-.033-.1-.1v-.1c0-.193-.07-.36-.21-.5a.706.706 0 0 0-.52-.21.658.658 0 0 0-.52.23.865.865 0 0 0-.2.59v1.95c0 .24.066.437.2.59.133.153.307.23.52.23.207 0 .38-.07.52-.21.14-.14.21-.307.21-.5v-.1c0-.066.033-.1.1-.1l.76.01c.067 0 .1.033.1.1v.15c0 .433-.153.789-.46 1.065-.307.277-.717.415-1.23.415s-.921-.143-1.225-.43M38.805 20.225c.224.283.335.685.335 1.205v3.43c0 .067-.033.1-.1.1h-.76c-.067 0-.1-.033-.1-.1v-3.35c0-.28-.06-.497-.18-.65a.598.598 0 0 0-.5-.23.632.632 0 0 0-.515.225c-.123.15-.192.362-.204.635 0 .04-.004.06-.011.06v3.31c0 .067-.033.1-.1.1h-.76c-.067 0-.1-.033-.1-.1v-6.8c0-.067.033-.1.1-.1h.76c.067 0 .1.033.1.1v2.18c0 .013.007.022.02.025.013.003.027-.005.04-.025.24-.293.577-.44 1.01-.44.42 0 .74.142.965.425M41.45 20.85a.867.867 0 0 0-.2.59v.53c0 .026.012.04.04.04h1.37c.026 0 .04-.014.04-.04v-.53a.867.867 0 0 0-.2-.59.671.671 0 0 0-.53-.23.66.66 0 0 0-.52.23m2.1 1.96h-2.26c-.028 0-.04.013-.04.04v.54c0 .24.066.437.2.59a.66.66 0 0 0 .52.23.68.68 0 0 0 .47-.17.752.752 0 0 0 .24-.44c.02-.053.056-.08.11-.08l.74.04c.032 0 .058.01.074.03.017.02.022.043.015.07-.046.433-.21.772-.494 1.015-.284.243-.669.365-1.155.365-.514 0-.922-.144-1.226-.43-.303-.287-.454-.67-.454-1.15v-2.08c0-.473.151-.857.454-1.15.304-.294.712-.44 1.226-.44.52 0 .93.146 1.23.44.3.293.45.677.45 1.15v1.33c0 .067-.034.1-.1.1M46.864 24.025a.784.784 0 0 0 .235-.485v-2.25a.784.784 0 0 0-.235-.485.665.665 0 0 0-.475-.185.674.674 0 0 0-.525.23.853.853 0 0 0-.205.59v1.95c0 .24.068.437.205.59.137.153.312.23.525.23a.661.661 0 0 0 .475-.185m.335-6.065h.761c.066 0 .1.033.1.1v6.8c0 .067-.034.1-.1.1h-.76c-.067 0-.1-.033-.1-.1v-.16a.036.036 0 0 0-.015-.03c-.01-.006-.023-.003-.035.01a1.35 1.35 0 0 1-.911.36c-.44 0-.788-.145-1.045-.435-.256-.29-.384-.671-.384-1.145v-2.08c0-.493.128-.881.384-1.165.257-.283.605-.425 1.045-.425a1.35 1.35 0 0 1 .911.36c.012.014.024.017.035.01a.035.035 0 0 0 .014-.03v-2.07c0-.067.034-.1.1-.1"/>
    </g>
</svg>
