<svg xmlns="http://www.w3.org/2000/svg" xmlns:xlink="http://www.w3.org/1999/xlink" width="15" height="15" viewBox="0 0 15 15">
    <defs>
        <path id="a" d="M0 0h15v15H0z"/>
    </defs>
    <g fill="none" fill-rule="evenodd">
        <g>
            <mask id="b" fill="#fff">
                <use xlink:href="#a"/>
            </mask>
            <path fill="#A95AFF" d="M15 7.5a7.5 7.5 0 1 1-15 0 7.5 7.5 0 0 1 15 0" mask="url(#b)"/>
        </g>
        <path fill="#FFF" d="M10.323 4.236c-.021.304-.296.528-.601.528H8.377v-.107l.972-.882c.151-.136.36-.2.553-.142.278.083.442.32.421.603m-3.7.431v.097H5.249a.576.576 0 1 1 .386-1.002l.989.896-.001.01m4.773.096h-.652c.087-.136.143-.289.159-.45a1.15 1.15 0 0 0-.684-1.186 1.148 1.148 0 0 0-1.249.201l-.823.747a.874.874 0 0 0-1.295.001l-.825-.748a1.146 1.146 0 0 0-1.249-.2 1.15 1.15 0 0 0-.684 1.185c.017.162.074.314.16.45h-.651a.585.585 0 0 0-.585.585v.877c0 .161.131.292.293.292h8.378a.292.292 0 0 0 .292-.292V5.35a.585.585 0 0 0-.585-.585M3.603 7.103v4.286c0 .323.262.585.585.585h2.728V7.103H3.603zM8.085 7.103v4.87h2.728a.585.585 0 0 0 .584-.584V7.103H8.085z"/>
    </g>
</svg>
