<svg xmlns="http://www.w3.org/2000/svg" width="32" height="32" viewBox="0 0 32 32">
    <defs>
        <linearGradient id="a" x1="24.639%" x2="89.608%" y1="75.359%" y2="10.382%">
            <stop offset="0%" stop-color="#AA5BFF"/>
            <stop offset="99.44%" stop-color="#55FF8D"/>
        </linearGradient>
    </defs>
    <path fill="url(#a)" fill-rule="nonzero" d="M14.129 4.545A9.514 9.514 0 0 1 20.9 1.74c2.558 0 4.963.996 6.772 2.805a9.514 9.514 0 0 1 2.805 6.771 9.514 9.514 0 0 1-2.805 6.772.536.536 0 1 0 .76.76 10.58 10.58 0 0 0 3.12-7.532 10.58 10.58 0 0 0-3.12-7.532A10.578 10.578 0 0 0 20.9.664c-2.845 0-5.52 1.108-7.53 3.12a.536.536 0 1 0 .759.76zm9.525 10.285a.532.532 0 0 0 .76 0 4.975 4.975 0 0 0 0-7.028A4.938 4.938 0 0 0 20.9 6.346a4.938 4.938 0 0 0-3.513 1.456.536.536 0 1 0 .76.761c1.47-1.472 4.037-1.472 5.507 0a3.898 3.898 0 0 1 0 5.506c-.21.21-.21.55 0 .76zm2.37 2.148a.535.535 0 0 0 .38-.158 7.732 7.732 0 0 0 2.28-5.504c0-2.079-.81-4.034-2.28-5.505-3.035-3.035-7.973-3.035-11.008 0a.536.536 0 1 0 .76.76A6.668 6.668 0 0 1 20.9 4.608c1.792 0 3.477.698 4.744 1.965a6.668 6.668 0 0 1 1.965 4.744 6.667 6.667 0 0 1-1.965 4.744.536.536 0 0 0 .38.918zm1.787 4.03c-1.149-1.15-2.995-1.28-4.26-.329l-2.913 1.867c-.016.008-1.888.745-6.92-4.266-4.976-4.996-4.284-6.876-4.29-6.876l1.868-2.924a3.3 3.3 0 0 0-.306-4.293l-2.778-2.78a3.287 3.287 0 0 0-4.95.352.638.638 0 0 0-.029.043L1.837 4.095c-.232.317-5.526 7.902 6.209 19.727.014.017.03.033.045.048l.368-.392-.295.465a.433.433 0 0 0 .042.038c6.14 6.084 11.135 7.573 14.555 7.573 3.156 0 4.97-1.27 5.105-1.368l2.373-1.45a3.283 3.283 0 0 0 .35-4.95l-2.778-2.778zm1.825 6.84l-2.368 1.444c-.07.051-7.156 4.996-18.343-6.113a.372.372 0 0 0-.039-.035l-.034-.034a.576.576 0 0 0-.033-.036C-2.242 11.934 2.5 5.016 2.73 4.692l1.408-2.307A2.209 2.209 0 0 1 7.45 2.17l2.78 2.778c.77.772.86 2.014.181 2.92l-1.9 2.974c-.232.392-1.104 2.628 4.446 8.2 5.57 5.547 7.807 4.677 8.216 4.436l2.989-1.914a2.22 2.22 0 0 1 2.888.205l2.778 2.78c.453.452.688 1.079.642 1.718a2.192 2.192 0 0 1-.835 1.581z"/>
</svg>
