<svg xmlns="http://www.w3.org/2000/svg" width="32" height="30" viewBox="0 0 32 30">
    <defs>
        <linearGradient id="a" x1="-250.759%" x2="163.599%" y1="412.107%" y2="-97.913%">
            <stop offset="0%" stop-color="#AA5BFF"/>
            <stop offset="99.44%" stop-color="#55FF8D"/>
        </linearGradient>
        <linearGradient id="b" x1="-1466.5%" x2="931.283%" y1="1595.238%" y2="-848.729%">
            <stop offset="0%" stop-color="#AA5BFF"/>
            <stop offset="99.44%" stop-color="#55FF8D"/>
        </linearGradient>
        <linearGradient id="c" x1="-598.482%" x2="1711.944%" y1="661.367%" y2="-1516.786%">
            <stop offset="0%" stop-color="#AA5BFF"/>
            <stop offset="99.44%" stop-color="#55FF8D"/>
        </linearGradient>
        <linearGradient id="d" x1="9.487%" x2="94.048%" y1="85.119%" y2="8.222%">
            <stop offset="0%" stop-color="#AA5BFF"/>
            <stop offset="99.44%" stop-color="#55FF8D"/>
        </linearGradient>
        <linearGradient id="e" x1="-478.905%" x2="1831.521%" y1="548.635%" y2="-1629.526%">
            <stop offset="0%" stop-color="#AA5BFF"/>
            <stop offset="99.44%" stop-color="#55FF8D"/>
        </linearGradient>
    </defs>
    <g fill="none" fill-rule="evenodd">
        <path d="M28.19 2.263H16.033c-1.12 0-2.031.886-2.031 1.976V17.23l1.178-1.064c.04-.036.082-.071.123-.106.033-.027.065-.053.09-.078.77-.709 1.012-.848 2.04-.825.13.003.282.004.468.004h10.29a1.985 1.985 0 0 0 1.972-1.993v-8.93a1.953 1.953 0 0 0-1.973-1.976zm-6.257 10.96a1.022 1.022 0 0 1-1.026-1.04c0-.59.45-1.05 1.026-1.05a1.045 1.045 0 0 1 0 2.09zm1.492-3.745c-.133.112-.398.334-.472.434a1.034 1.034 0 0 1-1.036.99 1.03 1.03 0 0 1-1.05-1.023c-.008-.965.686-1.548 1.193-1.973.205-.172.587-.493.587-.606a.536.536 0 0 0-1.07 0 1.044 1.044 0 0 1-2.088 0 2.625 2.625 0 0 1 2.622-2.622 2.623 2.623 0 0 1 2.621 2.62c0 1.083-.787 1.743-1.307 2.18z"/>
        <path fill="url(#a)" fill-rule="nonzero" d="M22.111 5.179c-1.17 0-2.122.951-2.122 2.121a.544.544 0 0 0 1.087 0c0-.57.465-1.034 1.035-1.034.57 0 1.035.464 1.035 1.034 0 .323-.28.582-.744.971-.499.419-1.04.874-1.035 1.603a.533.533 0 0 0 .544.527.54.54 0 0 0 .39-.158c.1-.1.154-.234.153-.377-.002-.19.16-.36.617-.743.535-.45 1.161-.975 1.161-1.826a2.122 2.122 0 0 0-2.12-2.118z"/>
        <path fill="url(#b)" fill-rule="nonzero" d="M21.933 11.634a.529.529 0 0 0-.526.543c0 .31.23.547.526.547a.546.546 0 0 0 0-1.09z"/>
        <path fill="url(#c)" fill-rule="nonzero" d="M8.155 17.704c0 .3.244.543.543.543h.066a.544.544 0 0 0 0-1.087h-.066c-.3 0-.543.244-.543.544z"/>
        <path fill="url(#d)" fill-rule="nonzero" d="M28.19.676H16.033c-1.995 0-3.618 1.598-3.618 3.562v5.606H3.854A3.602 3.602 0 0 0 .25 13.436v8.93c0 1.958 1.617 3.551 3.604 3.551h11.283l3.55 3.257c.17.156.415.18.578.108a.53.53 0 0 0 .32-.493V19.45a.544.544 0 0 0-1.087 0v8.111l-2.791-2.573a.55.55 0 0 0-.36-.158H3.854c-1.388 0-2.517-1.105-2.517-2.464v-8.93a2.514 2.514 0 0 1 2.517-2.505h8.561v8.66a.56.56 0 0 0 .34.498.556.556 0 0 0 .595-.096l3.117-2.842c.209-.191.341-.311.418-.362l.112-.041c.068-.006.245-.007.403-.004.138.003.302.004.501.004h10.29c1.962 0 3.56-1.606 3.56-3.58v-8.93A3.565 3.565 0 0 0 28.19.677zm2.473 12.493c0 1.374-1.11 2.493-2.473 2.493H17.901c-.19 0-.346 0-.478-.004-.882-.018-1.004.062-1.69.693-.032.03-.07.062-.11.095-.036.03-.073.06-.107.091l-2.014 1.82V4.238c0-1.365 1.135-2.476 2.53-2.476h12.159a2.448 2.448 0 0 1 2.472 2.476v8.93z"/>
        <path fill="url(#e)" fill-rule="nonzero" d="M5.397 17.704c0 .3.244.543.544.543h.066a.544.544 0 0 0 0-1.087H5.94c-.3 0-.543.244-.543.544z"/>
    </g>
</svg>
