<svg xmlns="http://www.w3.org/2000/svg" xmlns:xlink="http://www.w3.org/1999/xlink" width="185" height="26" viewBox="0 0 185 26">
    <defs>
        <path id="a" d="M0 .687h3.563V4.25H0z"/>
        <path id="c" d="M.436.687h3.563V4.25H.436z"/>
        <path id="e" d="M.208.687H3.77V4.25H.208z"/>
        <path id="g" d="M.824.687h3.563V4.25H.824z"/>
    </defs>
    <g fill="none" fill-rule="evenodd">
        <path stroke="#39D965" stroke-linecap="round" stroke-linejoin="round" stroke-width=".85" d="M22.986 15.429V7.435"/>
        <path stroke="#39D965" stroke-linejoin="round" stroke-width=".85" d="M22.986 23.992v-8.049"/>
        <path fill="#1F014F" d="M57.07 12.517c.617.82.926 1.968.926 3.442v9.317c0 .185-.092.276-.277.276h-2.073c-.184 0-.276-.091-.276-.276v-9.124c0-.81-.167-1.441-.497-1.894-.333-.45-.775-.676-1.328-.676-.59 0-1.06.226-1.41.676-.35.453-.525 1.075-.525 1.866v9.152c0 .185-.093.276-.277.276H49.26c-.185 0-.277-.091-.277-.276v-9.124c0-.81-.166-1.441-.497-1.894-.333-.45-.775-.676-1.327-.676-.59 0-1.06.226-1.41.676-.35.453-.526 1.075-.526 1.866v9.152c0 .185-.092.276-.276.276h-2.074c-.184 0-.276-.091-.276-.276v-13.52c0-.183.092-.276.276-.276h2.074c.184 0 .276.093.276.276v.692c0 .036.014.065.042.083.027.018.06.009.097-.029a3.597 3.597 0 0 1 1.27-.91 3.66 3.66 0 0 1 1.439-.305c1.4 0 2.405.617 3.013 1.852.019.037.046.051.084.042.036-.01.064-.051.083-.124.368-.628.838-1.08 1.41-1.355a4.02 4.02 0 0 1 1.769-.415c1.142 0 2.022.41 2.64 1.23M64.41 14.19c-.369.423-.553.967-.553 1.63v1.466c0 .074.037.11.11.11h3.789c.073 0 .11-.036.11-.11V15.82c0-.663-.184-1.207-.553-1.63-.37-.424-.858-.636-1.466-.636-.59 0-1.069.212-1.437.635m5.805 5.42h-6.248c-.073 0-.11.036-.11.11v1.493c0 .663.184 1.208.553 1.631.368.424.847.636 1.437.636.516 0 .95-.156 1.3-.47.35-.313.571-.72.664-1.216.054-.148.156-.221.303-.221l2.046.11c.093 0 .162.028.208.083.045.056.06.12.041.193-.129 1.199-.585 2.134-1.368 2.806-.784.673-1.848 1.01-3.194 1.01-1.42 0-2.548-.397-3.386-1.19-.84-.791-1.258-1.852-1.258-3.179v-5.75c0-1.308.419-2.368 1.258-3.18.838-.811 1.967-1.216 3.386-1.216 1.438 0 2.572.405 3.401 1.216.829.812 1.245 1.872 1.245 3.18v3.677c0 .184-.093.276-.278.276M79.284 22.843c.48-.406.719-.977.719-1.715v-1.88c0-.073-.037-.11-.11-.11h-1.687c-.738 0-1.328.199-1.77.595-.442.397-.663.972-.663 1.728 0 .663.165 1.16.498 1.492.331.333.774.499 1.327.499a2.53 2.53 0 0 0 1.686-.61m2.088-10.311c.856.847 1.286 1.962 1.286 3.345v9.4c0 .184-.094.277-.278.277h-2.1c-.185 0-.277-.093-.277-.277v-.609a.095.095 0 0 0-.042-.082c-.027-.02-.06-.01-.097.027-.645.774-1.594 1.16-2.847 1.16-1.05 0-1.977-.297-2.779-.897-.801-.599-1.202-1.662-1.202-3.193 0-1.603.483-2.779 1.451-3.525.969-.747 2.235-1.12 3.802-1.12h1.604c.073 0 .11-.037.11-.11v-.802c0-.774-.184-1.396-.553-1.867-.37-.47-.848-.705-1.438-.705-.46 0-.848.158-1.16.47-.314.314-.498.72-.554 1.218 0 .183-.092.276-.276.276h-2.24c-.184 0-.276-.093-.276-.276.092-1.18.562-2.14 1.41-2.876.847-.737 1.898-1.106 3.152-1.106 1.344 0 2.447.424 3.304 1.272M86.707 24.709c-.802-.672-1.203-1.58-1.203-2.723v-.249c0-.184.092-.276.276-.276h1.964c.183 0 .276.092.276.276v.193c0 .498.194.918.58 1.258.388.342.867.512 1.439.512.552 0 .999-.166 1.34-.497.341-.333.512-.756.512-1.273 0-.404-.12-.746-.36-1.023a2.624 2.624 0 0 0-.843-.649 31.187 31.187 0 0 0-1.479-.65 13.632 13.632 0 0 1-1.783-.912c-.47-.295-.89-.72-1.258-1.272-.369-.553-.553-1.253-.553-2.1 0-1.255.391-2.23 1.175-2.932.783-.7 1.839-1.05 3.166-1.05 1.363 0 2.437.36 3.22 1.078.784.72 1.175 1.695 1.175 2.93v.084c0 .184-.092.276-.276.276h-1.908c-.184 0-.276-.092-.276-.276v-.194c0-.498-.176-.921-.525-1.272-.351-.35-.803-.525-1.355-.525-.571 0-1.023.175-1.355.525-.332.35-.497.774-.497 1.272 0 .387.11.71.331.967a2.5 2.5 0 0 0 .802.622c.313.158.81.384 1.492.678.757.331 1.383.65 1.88.954.498.304.936.732 1.314 1.286.377.553.567 1.243.567 2.074 0 1.197-.41 2.147-1.231 2.846-.82.7-1.93 1.05-3.331 1.05-1.382 0-2.474-.335-3.276-1.008M104.028 11.48h2.1c.184 0 .277.093.277.276v13.52c0 .184-.093.277-.276.277h-2.101c-.185 0-.277-.093-.277-.278v-.801c0-.055-.014-.083-.041-.083-.028 0-.06.02-.097.055-.553.867-1.438 1.3-2.654 1.3-1.107 0-2-.336-2.682-1.01-.682-.672-1.023-1.7-1.023-3.082v-9.898c0-.183.092-.276.276-.276h2.101c.185 0 .277.093.277.276v9.317c0 1.585.626 2.378 1.88 2.378.626 0 1.11-.226 1.452-.678.34-.45.511-1.074.511-1.866v-9.15c0-.184.092-.277.277-.277M116.523 11.646c.13.074.175.194.139.36l-.415 2.1c-.019.166-.13.22-.331.166a2.13 2.13 0 0 0-.775-.138c-.11 0-.276.019-.497.055-.572.056-1.046.37-1.425.941-.377.571-.566 1.262-.566 2.073v8.073c0 .184-.092.276-.277.276h-2.101c-.185 0-.276-.092-.276-.276v-13.52c0-.183.091-.276.276-.276h2.101c.185 0 .277.093.277.276v1.604c0 .056.014.087.042.097.027.01.05-.014.069-.069.534-1.365 1.391-2.046 2.571-2.046.46 0 .857.102 1.188.304M124.762 22.843c.48-.406.719-.977.719-1.715v-1.88c0-.073-.037-.11-.11-.11h-1.687c-.738 0-1.328.199-1.77.595-.442.397-.663.972-.663 1.728 0 .663.165 1.16.498 1.492.331.333.774.499 1.326.499a2.53 2.53 0 0 0 1.687-.61m2.087-10.311c.857.847 1.286 1.962 1.286 3.345v9.4c0 .184-.093.277-.277.277h-2.1c-.185 0-.277-.093-.277-.277v-.609a.095.095 0 0 0-.042-.082c-.027-.02-.06-.01-.097.027-.645.774-1.594 1.16-2.847 1.16-1.05 0-1.977-.297-2.779-.897-.801-.599-1.203-1.662-1.203-3.193 0-1.603.484-2.779 1.452-3.525.968-.747 2.235-1.12 3.801-1.12h1.604c.074 0 .11-.037.11-.11v-.802c0-.774-.184-1.396-.552-1.867-.37-.47-.848-.705-1.438-.705-.46 0-.848.158-1.16.47-.315.314-.498.72-.554 1.218 0 .183-.092.276-.276.276h-2.24c-.184 0-.276-.093-.276-.276.092-1.18.562-2.14 1.41-2.876.847-.737 1.898-1.106 3.151-1.106 1.345 0 2.448.424 3.304 1.272M137.52 14.19c-.377-.424-.862-.636-1.452-.636-.57 0-1.04.212-1.409.635-.369.424-.553.968-.553 1.631v5.392c0 .663.184 1.208.553 1.631.368.424.838.636 1.41.636.59 0 1.074-.212 1.451-.636.378-.423.567-.968.567-1.631V15.82c0-.663-.19-1.207-.567-1.63m2.143-1.756c.7.784 1.05 1.857 1.05 3.22v5.751c0 1.309-.355 2.365-1.064 3.165-.71.803-1.664 1.203-2.862 1.203-.442 0-.889-.083-1.34-.248a3.462 3.462 0 0 1-1.203-.747c-.037-.037-.07-.046-.097-.027a.093.093 0 0 0-.041.082v.443c0 .184-.092.276-.277.276h-2.1c-.185 0-.277-.092-.277-.276v-18.8c0-.184.092-.276.276-.276h2.101c.185 0 .277.092.277.276v5.75c0 .037.018.061.055.07.036.009.074-.014.11-.07.7-.644 1.54-.967 2.516-.967 1.217 0 2.176.391 2.876 1.175M143.948 25.276v-18.8c0-.184.092-.276.277-.276h2.1c.185 0 .278.092.278.276v18.8c0 .184-.093.276-.277.276h-2.101c-.185 0-.277-.092-.277-.276M152.989 14.19c-.37.423-.554.967-.554 1.63v1.466c0 .074.038.11.11.11h3.79c.072 0 .109-.036.109-.11V15.82c0-.663-.184-1.207-.553-1.63-.369-.424-.857-.636-1.465-.636-.59 0-1.07.212-1.437.635m5.805 5.42h-6.248c-.073 0-.11.036-.11.11v1.493c0 .663.184 1.208.553 1.631.368.424.847.636 1.437.636.516 0 .95-.156 1.3-.47.35-.313.57-.72.663-1.216.055-.148.157-.221.304-.221l2.046.11c.093 0 .161.028.207.083.046.056.06.12.042.193-.13 1.199-.585 2.134-1.369 2.806-.783.673-1.847 1.01-3.193 1.01-1.42 0-2.548-.397-3.386-1.19-.84-.791-1.258-1.852-1.258-3.179v-5.75c0-1.308.419-2.368 1.258-3.18.838-.811 1.966-1.216 3.386-1.216 1.438 0 2.571.405 3.4 1.216.83.812 1.245 1.872 1.245 3.18v3.677c0 .184-.092.276-.277.276"/>
        <path fill="#39D965" d="M162.167 25.055c-.332-.332-.497-.756-.497-1.272s.165-.94.497-1.272c.332-.332.756-.497 1.272-.497s.94.165 1.271.497c.333.331.498.756.498 1.272s-.165.94-.498 1.272c-.331.332-.755.497-1.271.497-.516 0-.94-.165-1.272-.497"/>
        <path fill="#1F014F" d="M174.11 22.843c.48-.406.719-.977.719-1.715v-1.88c0-.073-.037-.11-.11-.11h-1.687c-.738 0-1.328.199-1.77.595-.442.397-.663.972-.663 1.728 0 .663.165 1.16.498 1.492.331.333.774.499 1.327.499a2.53 2.53 0 0 0 1.686-.61m2.088-10.311c.856.847 1.286 1.962 1.286 3.345v9.4c0 .184-.094.277-.278.277h-2.1c-.185 0-.277-.093-.277-.277v-.609a.095.095 0 0 0-.042-.082c-.027-.02-.06-.01-.097.027-.645.774-1.594 1.16-2.847 1.16-1.05 0-1.977-.297-2.779-.897-.801-.599-1.202-1.662-1.202-3.193 0-1.603.483-2.779 1.451-3.525.969-.747 2.235-1.12 3.802-1.12h1.604c.073 0 .11-.037.11-.11v-.802c0-.774-.184-1.396-.553-1.867-.37-.47-.848-.705-1.438-.705-.46 0-.848.158-1.16.47-.314.314-.498.72-.554 1.218 0 .183-.092.276-.276.276h-2.24c-.184 0-.276-.093-.276-.276.092-1.18.562-2.14 1.41-2.876.847-.737 1.898-1.106 3.152-1.106 1.344 0 2.447.424 3.304 1.272M180.966 25.276v-13.52c0-.183.092-.276.277-.276h2.1c.184 0 .278.093.278.277v13.519c0 .184-.094.276-.277.276h-2.101c-.185 0-.277-.092-.277-.276m.028-16.505c-.332-.332-.498-.756-.498-1.272s.166-.94.498-1.272c.332-.332.755-.498 1.271-.498.535 0 .963.162 1.286.484.322.323.484.751.484 1.286 0 .516-.166.94-.497 1.272-.333.332-.757.497-1.273.497-.516 0-.94-.165-1.271-.497"/>
        <path stroke="#1F014F" stroke-linecap="round" stroke-linejoin="round" stroke-width="1.275" d="M30.248 23.992V7.435M30.248 7.435L16.015 23.992V7.435L1.782 23.992"/>
        <path fill="#39D965" d="M32.423 2.631a1.782 1.782 0 1 1-3.564.001 1.782 1.782 0 0 1 3.564 0"/>
        <g transform="translate(0 21.523)">
            <mask id="b" fill="#fff">
                <use xlink:href="#a"/>
            </mask>
            <path fill="#1F014F" d="M3.563 2.468a1.782 1.782 0 1 1-3.563 0 1.782 1.782 0 0 1 3.563 0" mask="url(#b)"/>
        </g>
        <g transform="translate(28.05 21.523)">
            <mask id="d" fill="#fff">
                <use xlink:href="#c"/>
            </mask>
            <path fill="#1F014F" d="M3.999 2.468a1.782 1.782 0 1 1-3.564 0 1.782 1.782 0 0 1 3.564 0" mask="url(#d)"/>
        </g>
        <path stroke="#39D965" stroke-linecap="round" stroke-linejoin="round" stroke-width=".85" d="M22.986 7.435L8.753 23.992"/>
        <g transform="translate(6.8 21.523)">
            <mask id="f" fill="#fff">
                <use xlink:href="#e"/>
            </mask>
            <path fill="#39D965" d="M3.77 2.468a1.782 1.782 0 1 1-3.563 0 1.782 1.782 0 0 1 3.564 0" mask="url(#f)"/>
        </g>
        <g transform="translate(20.4 21.523)">
            <mask id="h" fill="#fff">
                <use xlink:href="#g"/>
            </mask>
            <path fill="#39D965" d="M4.387 2.468a1.782 1.782 0 1 1-3.563 0 1.782 1.782 0 0 1 3.563 0" mask="url(#h)"/>
        </g>
    </g>
</svg>
