<svg xmlns="http://www.w3.org/2000/svg" xmlns:xlink="http://www.w3.org/1999/xlink" width="218" height="30" viewBox="0 0 218 30">
    <defs>
        <path id="a" d="M0 29.381h217.441V0H0z"/>
    </defs>
    <g fill="none" fill-rule="evenodd">
        <path fill="#55FF8D" d="M27.16 17.812a.627.627 0 0 1-.628-.626V7.764c0-.348.281-.626.627-.626.347 0 .628.278.628.626v9.422c0 .346-.281.626-.628.626"/>
        <mask id="b" fill="#fff">
            <use xlink:href="#a"/>
        </mask>
        <path fill="#55FF8D" d="M26.531 27.28h1.255v-9.487h-1.255z" mask="url(#b)"/>
        <path fill="#FFF" d="M67.43 13.754c.73.967 1.094 2.32 1.094 4.058v10.982c0 .219-.109.327-.327.327h-2.45c-.218 0-.326-.108-.326-.327V18.041c0-.956-.195-1.701-.587-2.234-.393-.531-.915-.798-1.568-.798-.698 0-1.253.267-1.667.798-.413.533-.62 1.267-.62 2.201v10.786c0 .219-.11.327-.327.327h-2.45c-.217 0-.327-.108-.327-.327V18.041c0-.956-.195-1.701-.587-2.234-.393-.531-.915-.798-1.568-.798-.698 0-1.253.267-1.666.798-.414.533-.62 1.267-.62 2.201v10.786c0 .219-.11.327-.328.327h-2.449c-.219 0-.328-.108-.328-.327V12.858c0-.217.109-.326.328-.326h2.45c.216 0 .327.11.327.326v.815c0 .044.015.077.049.098.032.022.069.01.113-.033a4.251 4.251 0 0 1 1.502-1.075 4.357 4.357 0 0 1 1.7-.359c1.655 0 2.841.728 3.56 2.182.022.046.055.061.098.05.043-.01.076-.06.098-.146.436-.738.99-1.271 1.666-1.598a4.757 4.757 0 0 1 2.09-.488c1.35 0 2.39.484 3.12 1.45M76.102 15.726c-.436.5-.654 1.142-.654 1.923v1.726c0 .088.044.132.13.132h4.476c.088 0 .13-.044.13-.132v-1.726c0-.781-.216-1.423-.652-1.923-.436-.5-1.014-.75-1.732-.75-.696 0-1.262.25-1.698.75m6.86 6.388h-7.383c-.087 0-.13.044-.13.13v1.76c0 .781.217 1.423.653 1.923.436.5 1.002.75 1.698.75.61 0 1.122-.184 1.536-.555.413-.369.674-.847.784-1.433.064-.174.185-.262.36-.262l2.416.13c.11 0 .191.034.245.098a.248.248 0 0 1 .049.23c-.152 1.411-.69 2.514-1.617 3.307-.925.792-2.183 1.188-3.773 1.188-1.677 0-3.01-.466-4-1.4-.992-.934-1.488-2.184-1.488-3.747v-6.78c0-1.542.496-2.792 1.488-3.748.99-.955 2.323-1.433 4-1.433 1.7 0 3.039.478 4.019 1.433.98.956 1.47 2.206 1.47 3.749v4.334c0 .217-.11.326-.328.326M93.676 25.926c.566-.477.85-1.15.85-2.02V21.69c0-.087-.044-.13-.13-.13h-1.994c-.87 0-1.568.233-2.09.701-.522.467-.784 1.145-.784 2.036 0 .782.196 1.369.588 1.76.391.39.915.586 1.568.586.762 0 1.426-.239 1.992-.717m2.467-12.155c1.012.998 1.519 2.314 1.519 3.943v11.081c0 .216-.11.326-.326.326h-2.484c-.218 0-.326-.11-.326-.326v-.717a.113.113 0 0 0-.049-.098c-.033-.022-.072-.012-.115.032-.762.914-1.883 1.369-3.364 1.369-1.241 0-2.336-.353-3.284-1.06-.946-.704-1.42-1.96-1.42-3.764 0-1.889.572-3.275 1.715-4.155 1.143-.88 2.64-1.32 4.49-1.32h1.896c.087 0 .13-.042.13-.13v-.944c0-.914-.218-1.647-.653-2.202-.436-.553-1.002-.83-1.698-.83-.544 0-1.002.186-1.373.554-.37.37-.588.848-.652 1.434 0 .218-.11.325-.327.325h-2.647c-.218 0-.326-.107-.326-.325.108-1.39.664-2.52 1.666-3.39 1.002-.869 2.242-1.303 3.724-1.303 1.589 0 2.89.501 3.904 1.5M102.446 28.127c-.946-.793-1.42-1.863-1.42-3.21v-.293c0-.219.109-.328.326-.328h2.32c.217 0 .326.11.326.328v.227c0 .587.228 1.082.687 1.483.457.402 1.023.602 1.698.602.653 0 1.18-.195 1.583-.586.404-.39.605-.89.605-1.499 0-.477-.142-.88-.424-1.206a3.092 3.092 0 0 0-.997-.764 37.37 37.37 0 0 0-1.747-.767c-.85-.37-1.552-.729-2.107-1.076-.556-.347-1.052-.847-1.486-1.499-.435-.651-.654-1.477-.654-2.477 0-1.478.463-2.628 1.389-3.454.924-.826 2.173-1.238 3.74-1.238 1.61 0 2.88.423 3.806 1.27.924.847 1.388 1.999 1.388 3.455v.098c0 .218-.11.325-.327.325h-2.254c-.219 0-.327-.107-.327-.325v-.228c0-.586-.207-1.086-.62-1.5-.414-.412-.948-.62-1.602-.62-.674 0-1.207.208-1.6.62a2.1 2.1 0 0 0-.588 1.5c0 .456.131.836.392 1.14.262.304.578.55.948.733.37.185.958.451 1.764.799.892.39 1.633.765 2.22 1.125.59.357 1.106.863 1.552 1.514.447.652.67 1.467.67 2.445 0 1.413-.484 2.53-1.454 3.357-.969.825-2.28 1.238-3.937 1.238-1.631 0-2.922-.397-3.87-1.19M122.91 12.533h2.484c.218 0 .326.108.326.326v15.935c0 .219-.108.327-.326.327h-2.483c-.219 0-.326-.108-.326-.327v-.945c0-.065-.017-.098-.05-.098-.032 0-.07.023-.114.065-.654 1.022-1.7 1.532-3.136 1.532-1.306 0-2.363-.395-3.169-1.188-.805-.793-1.208-2.005-1.208-3.636V12.86c0-.218.108-.326.327-.326h2.483c.217 0 .326.108.326.326V23.84c0 1.87.74 2.803 2.221 2.803.74 0 1.311-.266 1.715-.799.403-.531.605-1.265.605-2.2V12.86c0-.218.107-.326.326-.326M137.675 12.727c.153.089.207.23.163.424l-.49 2.477c-.02.196-.151.26-.391.196a2.523 2.523 0 0 0-.915-.163c-.13 0-.327.021-.588.065-.675.065-1.236.434-1.682 1.108-.446.673-.67 1.489-.67 2.444v9.516c0 .219-.108.326-.326.326h-2.482c-.219 0-.328-.107-.328-.326V12.857c0-.216.109-.325.328-.325h2.482c.218 0 .326.11.326.325v1.89c0 .068.017.104.048.116.033.01.061-.018.082-.082.632-1.608 1.645-2.411 3.038-2.411.545 0 1.013.12 1.405.357M147.41 25.926c.565-.477.849-1.15.849-2.02V21.69c0-.087-.044-.13-.13-.13h-1.994c-.87 0-1.568.233-2.09.701-.522.467-.784 1.145-.784 2.036 0 .782.196 1.369.588 1.76.391.39.915.586 1.568.586.762 0 1.426-.239 1.992-.717m2.467-12.155c1.012.998 1.519 2.314 1.519 3.943v11.081c0 .216-.11.326-.326.326h-2.484c-.218 0-.326-.11-.326-.326v-.717a.113.113 0 0 0-.049-.098c-.033-.022-.072-.012-.115.032-.762.914-1.884 1.369-3.364 1.369-1.241 0-2.336-.353-3.284-1.06-.946-.704-1.42-1.96-1.42-3.764 0-1.889.572-3.275 1.715-4.155 1.143-.88 2.64-1.32 4.49-1.32h1.896c.087 0 .13-.042.13-.13v-.944c0-.914-.218-1.647-.653-2.202-.436-.553-1.002-.83-1.699-.83-.543 0-1.001.186-1.372.554-.37.37-.588.848-.652 1.434 0 .218-.11.325-.327.325h-2.646c-.218 0-.327-.107-.327-.325.109-1.39.664-2.52 1.666-3.39 1.002-.869 2.243-1.303 3.724-1.303 1.589 0 2.89.501 3.904 1.5M162.483 15.726c-.445-.5-1.018-.75-1.715-.75-.675 0-1.23.25-1.665.75-.436.5-.653 1.14-.653 1.923v6.355c0 .781.217 1.423.653 1.923.435.499.99.749 1.665.749.697 0 1.27-.25 1.715-.749.446-.5.67-1.142.67-1.923v-6.355c0-.782-.224-1.423-.67-1.923m2.533-2.069c.826.923 1.24 2.19 1.24 3.795v6.781c0 1.542-.42 2.786-1.259 3.732-.838.943-1.964 1.415-3.379 1.415-.523 0-1.05-.097-1.585-.293a4.09 4.09 0 0 1-1.42-.88c-.044-.042-.082-.053-.114-.03-.033.02-.05.052-.05.096v.521c0 .219-.109.326-.327.326h-2.482c-.218 0-.326-.107-.326-.326V6.634c0-.217.108-.327.326-.327h2.482c.218 0 .328.11.328.326v6.778c0 .046.02.072.064.083.044.01.088-.016.131-.083.828-.76 1.818-1.14 2.973-1.14 1.438 0 2.568.461 3.398 1.386M170.079 28.794V6.634c0-.218.108-.326.326-.326h2.483c.217 0 .326.108.326.325v22.161c0 .219-.109.326-.326.326h-2.483c-.218 0-.326-.107-.326-.326M180.76 15.726c-.436.5-.654 1.142-.654 1.923v1.726c0 .088.044.132.13.132h4.476c.087 0 .13-.044.13-.132v-1.726c0-.781-.217-1.423-.653-1.923-.436-.5-1.013-.75-1.73-.75-.698 0-1.264.25-1.7.75m6.86 6.388h-7.383c-.086 0-.13.044-.13.13v1.76c0 .781.218 1.423.654 1.923.435.5 1.001.75 1.698.75.61 0 1.12-.184 1.535-.555.414-.369.675-.847.785-1.433.064-.174.185-.262.36-.262l2.416.13c.109 0 .19.034.244.098a.248.248 0 0 1 .05.23c-.152 1.411-.691 2.514-1.617 3.307-.926.792-2.184 1.188-3.773 1.188-1.677 0-3.01-.466-4-1.4-.993-.934-1.488-2.184-1.488-3.747v-6.78c0-1.542.495-2.792 1.487-3.748.991-.955 2.324-1.433 4.001-1.433 1.698 0 3.038.478 4.018 1.433.98.956 1.47 2.206 1.47 3.749v4.334c0 .217-.109.326-.327.326" mask="url(#b)"/>
        <path fill="#55FF8D" d="M191.604 28.534c-.392-.391-.587-.89-.587-1.5 0-.608.195-1.108.587-1.498.392-.391.893-.587 1.503-.587.609 0 1.111.196 1.503.587.391.39.587.89.587 1.499 0 .609-.196 1.108-.587 1.499-.392.39-.894.586-1.503.586-.61 0-1.11-.196-1.503-.586" mask="url(#b)"/>
        <path fill="#FFF" d="M205.715 25.926c.566-.477.85-1.15.85-2.02V21.69c0-.087-.044-.13-.131-.13h-1.993c-.87 0-1.568.233-2.09.701-.523.467-.784 1.145-.784 2.036 0 .782.196 1.369.588 1.76.391.39.915.586 1.567.586.762 0 1.427-.239 1.993-.717m2.467-12.155c1.011.998 1.518 2.314 1.518 3.943v11.081c0 .216-.11.326-.326.326h-2.483c-.218 0-.327-.11-.327-.326v-.717a.113.113 0 0 0-.048-.098c-.033-.022-.072-.012-.115.032-.763.914-1.884 1.369-3.364 1.369-1.242 0-2.336-.353-3.284-1.06-.947-.704-1.42-1.96-1.42-3.764 0-1.889.571-3.275 1.715-4.155 1.142-.88 2.64-1.32 4.49-1.32h1.896c.087 0 .13-.042.13-.13v-.944c0-.914-.218-1.647-.654-2.202-.435-.553-1.001-.83-1.698-.83-.543 0-1.002.186-1.372.554-.37.37-.587.848-.653 1.434 0 .218-.109.325-.326.325h-2.647c-.218 0-.326-.107-.326-.325.108-1.39.664-2.52 1.666-3.39 1.002-.869 2.242-1.303 3.724-1.303 1.588 0 2.89.501 3.904 1.5M213.816 28.794V12.858c0-.217.108-.326.326-.326h2.483c.218 0 .326.11.326.326v15.936c0 .219-.108.326-.326.326h-2.483c-.218 0-.326-.107-.326-.326m.032-19.455c-.391-.391-.587-.891-.587-1.5 0-.608.196-1.109.587-1.499.392-.391.893-.586 1.503-.586.632 0 1.137.19 1.52.57.38.38.57.885.57 1.516 0 .608-.196 1.108-.587 1.499-.393.39-.894.585-1.503.585-.61 0-1.11-.195-1.503-.585M35.74 6.75c-.56 0-1.016.455-1.016 1.013v19.518a1.015 1.015 0 0 0 2.03 0V7.763c0-.558-.455-1.012-1.015-1.012" mask="url(#b)"/>
        <path fill="#FFF" d="M36.4 6.995a1.019 1.019 0 0 0-1.431.108L19.937 24.55V7.763c0-.42-.266-.802-.662-.95a1.023 1.023 0 0 0-1.123.29L1.335 26.62a1.01 1.01 0 0 0 .108 1.43 1.02 1.02 0 0 0 1.432-.108l15.032-17.446v16.786a1.015 1.015 0 0 0 1.785.66L36.509 8.424c.177-.205.262-.467.242-.736a1.003 1.003 0 0 0-.35-.693M38.309 2.101c0 1.16-.943 2.1-2.105 2.1a2.103 2.103 0 0 1-2.106-2.1c0-1.16.943-2.1 2.106-2.1 1.162 0 2.105.94 2.105 2.1" mask="url(#b)"/>
        <path fill="#FFF" d="M4.21 27.281c0 1.159-.942 2.1-2.105 2.1A2.103 2.103 0 0 1 0 27.28c0-1.16.943-2.1 2.105-2.1 1.163 0 2.105.94 2.105 2.1M37.867 27.281c0 1.159-.942 2.1-2.106 2.1a2.103 2.103 0 0 1-2.105-2.1c0-1.16.943-2.1 2.105-2.1 1.164 0 2.106.94 2.106 2.1" mask="url(#b)"/>
        <path fill="#55FF8D" d="M10.342 27.907a.628.628 0 0 1-.476-1.035L26.683 7.355a.628.628 0 0 1 .885-.067.624.624 0 0 1 .067.883L10.818 27.69a.623.623 0 0 1-.476.218" mask="url(#b)"/>
        <path fill="#55FF8D" d="M12.49 27.281c0 1.159-.942 2.1-2.105 2.1a2.103 2.103 0 0 1-2.106-2.1c0-1.16.943-2.1 2.106-2.1 1.163 0 2.105.94 2.105 2.1M29.288 27.281c0 1.159-.943 2.1-2.106 2.1a2.103 2.103 0 0 1-2.105-2.1c0-1.16.943-2.1 2.105-2.1 1.163 0 2.106.94 2.106 2.1" mask="url(#b)"/>
    </g>
</svg>
