<svg xmlns="http://www.w3.org/2000/svg" width="157" height="27" viewBox="0 0 157 27">
    <g fill="#000" fill-rule="nonzero">
        <path d="M41.903 9.109v8.398h-1.088V11.53c0-.09.003-.185.009-.287.006-.101.012-.204.02-.31l-2.795 5.13c-.098.19-.248.286-.45.286h-.176a.465.465 0 0 1-.444-.287l-2.849-5.146c.024.218.036.423.036.614v5.977h-1.094V9.109h.924c.109 0 .194.01.254.032s.118.08.173.178l2.807 5.03c.055.101.105.209.152.322.047.113.092.226.135.339.082-.23.177-.452.286-.667l2.755-5.024c.05-.097.106-.157.167-.178a.791.791 0 0 1 .254-.032h.924zM48.675 16.659c-.14.164-.302.305-.485.424a2.827 2.827 0 0 1-.585.29c-.207.074-.42.128-.64.163-.22.035-.438.053-.652.053-.41 0-.79-.07-1.138-.208a2.525 2.525 0 0 1-.906-.608 2.768 2.768 0 0 1-.597-.994 4.026 4.026 0 0 1-.213-1.366c0-.413.064-.798.193-1.155.128-.357.313-.667.552-.933.24-.265.533-.474.88-.625a2.887 2.887 0 0 1 1.17-.229c.363 0 .697.06 1.003.179.306.119.57.291.793.517a2.4 2.4 0 0 1 .523.837c.127.331.19.71.19 1.134 0 .176-.02.294-.058.354-.04.06-.111.09-.217.09h-3.895c.012.356.063.665.152.928.09.263.214.482.372.658.158.175.346.306.564.391.219.086.462.13.731.13a2.2 2.2 0 0 0 .658-.088c.185-.059.345-.122.48-.19.134-.069.247-.132.339-.19a.47.47 0 0 1 .243-.088c.093 0 .165.035.216.105l.327.42zm-.941-2.784c0-.226-.032-.435-.097-.626a1.42 1.42 0 0 0-.284-.497 1.291 1.291 0 0 0-.456-.327 1.542 1.542 0 0 0-.62-.117c-.48 0-.856.138-1.131.415-.275.277-.45.661-.524 1.152h3.112zM50.073 12.396a3.4 3.4 0 0 1 1.08-.708 3.397 3.397 0 0 1 1.277-.234c.34 0 .64.055.9.167.262.11.482.266.661.465.18.198.315.436.407.713.092.277.137.583.137.918v3.79h-.508a.484.484 0 0 1-.258-.056c-.058-.037-.105-.106-.14-.207l-.123-.52c-.152.14-.302.263-.45.37a2.892 2.892 0 0 1-.465.276 2.379 2.379 0 0 1-.518.172 2.934 2.934 0 0 1-.608.059 2.18 2.18 0 0 1-.658-.097 1.391 1.391 0 0 1-.895-.792 1.712 1.712 0 0 1-.131-.696c0-.234.063-.46.19-.676.127-.216.333-.41.62-.582.286-.171.66-.312 1.123-.42.462-.11 1.03-.172 1.704-.188v-.433c0-.448-.095-.783-.286-1.006-.191-.222-.472-.333-.842-.333-.25 0-.46.031-.629.093a2.42 2.42 0 0 0-.438.208c-.123.076-.23.146-.322.208a.497.497 0 0 1-.284.093.323.323 0 0 1-.202-.064.537.537 0 0 1-.137-.152l-.205-.368zm3.345 2.473a8.665 8.665 0 0 0-1.18.109 3.24 3.24 0 0 0-.79.225c-.203.093-.35.204-.439.33a.716.716 0 0 0-.135.424c0 .148.025.276.074.383a.713.713 0 0 0 .199.264.798.798 0 0 0 .295.149c.113.031.236.046.368.046a1.92 1.92 0 0 0 1.263-.439c.118-.093.233-.2.346-.321v-1.17zM59.805 12.588a.32.32 0 0 1-.1.109.252.252 0 0 1-.134.032.43.43 0 0 1-.208-.064 4.347 4.347 0 0 0-.275-.14 2.696 2.696 0 0 0-.377-.141 1.822 1.822 0 0 0-.515-.064c-.163 0-.312.02-.447.06a1.061 1.061 0 0 0-.342.17.756.756 0 0 0-.216.258.69.69 0 0 0-.076.319.53.53 0 0 0 .131.368c.088.098.203.181.345.252.143.07.304.133.486.19.181.056.366.116.555.178.19.062.375.134.556.213.181.08.343.18.485.299.143.119.257.262.345.43.088.167.132.372.132.614 0 .277-.05.533-.15.769-.099.236-.245.44-.438.61a2.077 2.077 0 0 1-.716.405c-.285.097-.61.146-.977.146-.41 0-.787-.069-1.135-.205a2.843 2.843 0 0 1-.871-.52l.27-.44a.348.348 0 0 1 .116-.125.35.35 0 0 1 .187-.044.4.4 0 0 1 .228.082c.078.055.172.114.28.179.11.064.243.122.399.175.155.053.35.079.585.079.194 0 .364-.024.508-.073.144-.049.264-.115.36-.199a.81.81 0 0 0 .214-.29.869.869 0 0 0 .07-.345.58.58 0 0 0-.132-.389 1.136 1.136 0 0 0-.345-.266 2.781 2.781 0 0 0-.488-.193c-.184-.054-.37-.113-.562-.175a5.69 5.69 0 0 1-.561-.217 1.919 1.919 0 0 1-.489-.31 1.442 1.442 0 0 1-.345-.456 1.48 1.48 0 0 1-.131-.655c0-.23.047-.45.143-.66.095-.211.234-.396.415-.556.181-.16.406-.288.673-.383.267-.095.572-.143.915-.143a2.9 2.9 0 0 1 1.067.187c.318.125.59.296.816.514l-.251.415zM66.56 11.565v5.942h-.685c-.156 0-.257-.076-.304-.228l-.082-.597a4.005 4.005 0 0 1-.403.375 2.504 2.504 0 0 1-.96.476c-.179.045-.372.068-.579.068-.327 0-.614-.055-.862-.164a1.708 1.708 0 0 1-.623-.46 1.986 1.986 0 0 1-.38-.71 3.09 3.09 0 0 1-.129-.918v-3.784H62.7v3.784c0 .425.098.755.293.991.195.236.493.354.895.354.292 0 .565-.069.819-.207.253-.139.49-.329.713-.57v-4.352h1.14zM69.466 12.705c.19-.39.421-.695.69-.918.269-.222.593-.333.97-.333.13 0 .251.015.366.044.115.029.216.073.302.131l-.077.86c-.027.105-.091.158-.192.158-.055 0-.137-.01-.246-.032a1.822 1.822 0 0 0-.351-.032c-.183 0-.345.026-.485.079a1.13 1.13 0 0 0-.378.233c-.11.104-.21.23-.295.38-.086.15-.166.321-.24.512v3.72h-1.14v-5.942h.655c.125 0 .21.022.254.067.045.045.077.124.097.237l.07.836zM72.665 12.396a3.4 3.4 0 0 1 1.079-.708 3.398 3.398 0 0 1 1.278-.234c.339 0 .64.055.9.167.262.11.482.266.661.465.18.198.315.436.407.713.091.277.137.583.137.918v3.79h-.508a.484.484 0 0 1-.258-.056c-.058-.037-.105-.106-.14-.207l-.123-.52c-.152.14-.302.263-.45.37a2.892 2.892 0 0 1-.465.276 2.379 2.379 0 0 1-.518.172 2.934 2.934 0 0 1-.608.059 2.18 2.18 0 0 1-.658-.097 1.391 1.391 0 0 1-.895-.792 1.71 1.71 0 0 1-.131-.696c0-.234.063-.46.19-.676.126-.216.333-.41.62-.582.286-.171.66-.312 1.122-.42.463-.11 1.03-.172 1.705-.188v-.433c0-.448-.095-.783-.286-1.006-.191-.222-.472-.333-.842-.333-.25 0-.46.031-.63.093a2.42 2.42 0 0 0-.438.208 9.14 9.14 0 0 0-.321.208.497.497 0 0 1-.284.093.323.323 0 0 1-.202-.064.537.537 0 0 1-.137-.152l-.205-.368zm3.345 2.473a8.666 8.666 0 0 0-1.181.109 3.24 3.24 0 0 0-.79.225c-.202.093-.349.204-.438.33a.716.716 0 0 0-.135.424c0 .148.024.276.073.383a.713.713 0 0 0 .2.264.798.798 0 0 0 .295.149c.113.031.235.046.368.046a1.92 1.92 0 0 0 1.263-.439c.117-.093.232-.2.345-.321v-1.17zM80.034 12.384c.245-.273.524-.493.836-.661a2.214 2.214 0 0 1 1.065-.252c.346 0 .66.068.938.202.279.135.516.328.71.58.196.25.346.556.45.915.106.358.159.764.159 1.216 0 .48-.06.916-.178 1.31a3.048 3.048 0 0 1-.51 1.012c-.22.28-.488.498-.803.652-.316.154-.671.23-1.065.23-.19 0-.366-.018-.526-.055a1.803 1.803 0 0 1-.813-.418 2.728 2.728 0 0 1-.322-.345l-.052.497c-.032.16-.13.24-.293.24h-.737V8.875h1.14v3.509zm0 3.66c.187.247.39.418.608.515.218.098.456.147.713.147.53 0 .94-.19 1.226-.568.286-.378.43-.949.43-1.713 0-.706-.127-1.224-.38-1.553-.254-.33-.613-.494-1.077-.494-.327 0-.61.074-.85.222a2.51 2.51 0 0 0-.67.632v2.813zM86.87 8.875v8.632h-1.146V8.875zM93.608 16.659c-.14.164-.302.305-.486.424a2.827 2.827 0 0 1-.585.29c-.206.074-.42.128-.64.163-.22.035-.438.053-.652.053-.41 0-.789-.07-1.138-.208a2.526 2.526 0 0 1-.906-.608 2.768 2.768 0 0 1-.597-.994 4.026 4.026 0 0 1-.213-1.366c0-.413.064-.798.193-1.155s.313-.667.553-.933c.24-.265.533-.474.88-.625a2.887 2.887 0 0 1 1.17-.229c.362 0 .696.06 1.003.179.305.119.57.291.792.517a2.4 2.4 0 0 1 .523.837c.127.331.19.71.19 1.134 0 .176-.019.294-.058.354-.039.06-.111.09-.216.09h-3.895c.011.356.062.665.152.928s.213.482.371.658c.158.175.346.306.565.391.218.086.461.13.73.13a2.2 2.2 0 0 0 .659-.088c.185-.059.345-.122.479-.19.135-.069.248-.132.34-.19a.47.47 0 0 1 .242-.088c.094 0 .166.035.216.105l.328.42zm-.942-2.784c0-.226-.032-.435-.096-.626a1.42 1.42 0 0 0-.284-.497 1.291 1.291 0 0 0-.456-.327 1.542 1.542 0 0 0-.62-.117c-.48 0-.857.138-1.132.415-.275.277-.449.661-.523 1.152h3.111zM105.907 13.308c0 .628-.1 1.199-.301 1.714-.201.514-.485.956-.851 1.324a3.815 3.815 0 0 1-1.316.857 4.576 4.576 0 0 1-1.702.304h-3.158V9.11h3.158c.623 0 1.191.101 1.702.304.51.203.949.488 1.316.857.366.368.65.81.85 1.327.201.517.302 1.087.302 1.71zm-1.275 0c0-.5-.069-.947-.205-1.342a2.844 2.844 0 0 0-.582-1.006 2.483 2.483 0 0 0-.912-.629 3.166 3.166 0 0 0-1.196-.216H99.83V16.5h1.907c.44 0 .84-.072 1.196-.216.356-.144.66-.354.912-.629s.445-.61.582-1.003c.136-.394.205-.842.205-1.345zM107.17 12.396a3.4 3.4 0 0 1 1.08-.708 3.397 3.397 0 0 1 1.277-.234c.34 0 .64.055.9.167.262.11.482.266.661.465.18.198.315.436.407.713.092.277.137.583.137.918v3.79h-.508a.484.484 0 0 1-.258-.056c-.058-.037-.105-.106-.14-.207l-.123-.52c-.152.14-.302.263-.45.37a2.892 2.892 0 0 1-.465.276 2.379 2.379 0 0 1-.518.172 2.934 2.934 0 0 1-.608.059 2.18 2.18 0 0 1-.658-.097 1.391 1.391 0 0 1-.895-.792 1.712 1.712 0 0 1-.131-.696c0-.234.063-.46.19-.676.126-.216.333-.41.62-.582.286-.171.66-.312 1.123-.42.462-.11 1.03-.172 1.704-.188v-.433c0-.448-.095-.783-.286-1.006-.191-.222-.472-.333-.842-.333-.25 0-.46.031-.629.093a2.42 2.42 0 0 0-.439.208c-.122.076-.23.146-.321.208a.497.497 0 0 1-.284.093.323.323 0 0 1-.202-.064.538.538 0 0 1-.137-.152l-.205-.368zm3.345 2.473a8.665 8.665 0 0 0-1.181.109 3.24 3.24 0 0 0-.79.225c-.202.093-.349.204-.438.33a.716.716 0 0 0-.135.424c0 .148.025.276.074.383a.712.712 0 0 0 .198.264.798.798 0 0 0 .296.149c.113.031.236.046.368.046a1.92 1.92 0 0 0 1.263-.439c.117-.093.232-.2.345-.321v-1.17zM115.183 17.6c-.48 0-.85-.134-1.109-.403-.26-.269-.389-.653-.389-1.152v-3.556h-.69a.238.238 0 0 1-.167-.061c-.045-.041-.067-.103-.067-.185v-.461l.965-.135.258-1.772a.274.274 0 0 1 .09-.155.262.262 0 0 1 .173-.056h.579v1.995h1.684v.83h-1.684v3.48c0 .234.057.408.172.523a.598.598 0 0 0 .442.173.81.81 0 0 0 .272-.041 1.08 1.08 0 0 0 .196-.09 2.59 2.59 0 0 0 .14-.091.19.19 0 0 1 .105-.041.14.14 0 0 1 .091.026.33.33 0 0 1 .067.085l.34.55c-.188.171-.41.304-.667.397a2.33 2.33 0 0 1-.801.14zM117.639 12.396a3.4 3.4 0 0 1 1.079-.708 3.397 3.397 0 0 1 1.277-.234c.34 0 .64.055.901.167.261.11.482.266.66.465.18.198.316.436.407.713.092.277.138.583.138.918v3.79h-.509a.484.484 0 0 1-.257-.056c-.059-.037-.106-.106-.14-.207l-.123-.52c-.153.14-.303.263-.45.37a2.892 2.892 0 0 1-.466.276 2.379 2.379 0 0 1-.517.172 2.934 2.934 0 0 1-.609.059 2.18 2.18 0 0 1-.657-.097 1.391 1.391 0 0 1-.895-.792 1.712 1.712 0 0 1-.132-.696c0-.234.064-.46.19-.676.127-.216.334-.41.62-.582.287-.171.661-.312 1.123-.42.462-.11 1.03-.172 1.705-.188v-.433c0-.448-.096-.783-.287-1.006-.19-.222-.472-.333-.842-.333-.25 0-.459.031-.628.093a2.42 2.42 0 0 0-.44.208c-.122.076-.23.146-.32.208a.497.497 0 0 1-.284.093.323.323 0 0 1-.202-.064.538.538 0 0 1-.138-.152l-.204-.368zm3.345 2.473a8.665 8.665 0 0 0-1.182.109 3.24 3.24 0 0 0-.789.225c-.203.093-.35.204-.439.33a.716.716 0 0 0-.134.424c0 .148.024.276.073.383a.712.712 0 0 0 .199.264.798.798 0 0 0 .295.149c.113.031.236.046.369.046a1.92 1.92 0 0 0 1.263-.439c.117-.093.232-.2.345-.321v-1.17zM132.663 10.15h-2.667v7.357h-1.24V10.15h-2.678V9.109h6.585v1.04zM134.985 11.472c.436 0 .831.07 1.184.213s.653.347.9.614c.248.267.438.589.57.965.133.376.2.798.2 1.266 0 .468-.067.891-.2 1.27-.132.378-.322.7-.57.964a2.483 2.483 0 0 1-.9.611 3.143 3.143 0 0 1-1.184.214c-.44 0-.838-.071-1.19-.214a2.51 2.51 0 0 1-.904-.61 2.708 2.708 0 0 1-.576-.966 3.769 3.769 0 0 1-.202-1.269c0-.468.067-.89.202-1.266.134-.376.326-.698.576-.965.25-.267.55-.472.904-.614.352-.142.75-.213 1.19-.213zm0 5.228c.561 0 .98-.19 1.257-.567.277-.379.415-.91.415-1.597 0-.686-.138-1.22-.415-1.6-.277-.38-.696-.57-1.257-.57-.57 0-.994.19-1.272.57-.28.38-.418.914-.418 1.6s.139 1.218.418 1.597c.278.378.702.567 1.272.567zM140.482 8.875v5.047h.27c.08 0 .15-.012.204-.035a.48.48 0 0 0 .17-.14l1.777-1.96a.579.579 0 0 1 .182-.166.512.512 0 0 1 .251-.056h1.041l-2.1 2.298a1.365 1.365 0 0 1-.362.334c.074.05.14.109.196.175.056.067.112.139.167.217l2.233 2.918h-1.023a.58.58 0 0 1-.242-.047.455.455 0 0 1-.185-.17l-1.836-2.385a.442.442 0 0 0-.176-.173.695.695 0 0 0-.263-.038h-.304v2.813h-1.14V8.875h1.14zM150.144 16.659c-.141.164-.303.305-.486.424a2.823 2.823 0 0 1-.585.29c-.206.074-.42.128-.64.163-.22.035-.438.053-.652.053-.41 0-.789-.07-1.138-.208a2.525 2.525 0 0 1-.906-.608 2.769 2.769 0 0 1-.597-.994 4.026 4.026 0 0 1-.213-1.366c0-.413.064-.798.193-1.155.128-.357.313-.667.552-.933.24-.265.533-.474.88-.625a2.887 2.887 0 0 1 1.17-.229c.363 0 .697.06 1.003.179.306.119.57.291.793.517a2.4 2.4 0 0 1 .523.837c.127.331.19.71.19 1.134 0 .176-.02.294-.058.354-.04.06-.111.09-.217.09h-3.895c.012.356.063.665.152.928.09.263.214.482.372.658.158.175.346.306.564.391.219.086.462.13.731.13a2.2 2.2 0 0 0 .658-.088c.185-.059.345-.122.48-.19.134-.069.247-.132.339-.19a.47.47 0 0 1 .243-.088c.093 0 .165.035.216.105l.328.42zm-.942-2.784c0-.226-.032-.435-.097-.626a1.42 1.42 0 0 0-.283-.497 1.29 1.29 0 0 0-.456-.327 1.542 1.542 0 0 0-.62-.117c-.48 0-.857.138-1.132.415-.275.277-.45.661-.523 1.152h3.11zM152.763 12.39a4.06 4.06 0 0 1 .404-.375 2.401 2.401 0 0 1 1.538-.544c.327 0 .615.055.863.164.247.11.455.262.622.46.168.196.295.433.38.71a3.1 3.1 0 0 1 .13.918v3.784h-1.147v-3.784c0-.425-.098-.755-.292-.991-.195-.236-.494-.354-.895-.354-.293 0-.567.07-.822.207a2.74 2.74 0 0 0-.71.565v4.357h-1.141v-5.942h.684c.16 0 .26.076.299.228l.087.597z"/>
        <g>
            <circle cx="24.013" cy="7.379" r="2.131"/>
            <circle cx="24.013" cy="19.51" r="2.131"/>
            <circle cx="2.131" cy="7.379" r="2.131"/>
            <circle cx="2.131" cy="19.51" r="2.131"/>
            <path d="M2.131 16.922c.347 0 .677.07.98.194V9.773a2.572 2.572 0 0 1-2.004-.018v7.38a2.57 2.57 0 0 1 1.024-.213z"/>
            <path d="M21.461 7.789l-8.39 4.844L4.683 7.79a2.588 2.588 0 0 1-1.061 1.701l9.373 5.411.076.044.076-.044 9.374-5.412c-.556-.394-.948-1-1.06-1.701z" opacity=".6"/>
            <path d="M24.013 16.922c.363 0 .708.076 1.021.21V9.757a2.573 2.573 0 0 1-2.003.016v7.345c.303-.125.634-.195.982-.195z"/>
            <path d="M13.311.347l-.006-.003-.003-.002a.462.462 0 0 0-.047-.023L13.25.318l-.006-.002A.426.426 0 0 0 13.2.3l-.014-.004a.48.48 0 0 0-.044-.008l-.015-.003a.478.478 0 0 0-.055-.003h-.005a.464.464 0 0 0-.054.003h-.003L13 .289a.51.51 0 0 0-.044.01L12.941.3a.493.493 0 0 0-.101.041l-.002.001-.008.004L3.906 5.5c.235.222.428.487.567.783l8.117-4.686v6.075a.482.482 0 0 0 .962 0V1.597l8.119 4.688a2.59 2.59 0 0 1 .566-.784L13.311.347z" opacity=".6"/>
            <circle cx="13.071" cy="13.445" r="2.131"/>
            <path d="M21.653 20.568l-8.101 4.678V19.17a.482.482 0 0 0-.962 0v6.075l-8.1-4.677a2.592 2.592 0 0 1-.553.792l8.893 5.135.007.003.003.001a.484.484 0 0 0 .047.023l.004.002.006.002.044.015.014.003.044.01.015.001a.48.48 0 0 0 .114 0h.003l.01-.001a.515.515 0 0 0 .045-.01l.014-.003a.47.47 0 0 0 .102-.041h.001l.008-.005 8.895-5.136a2.595 2.595 0 0 1-.553-.792z" opacity=".6"/>
        </g>
    </g>
</svg>
