<svg xmlns="http://www.w3.org/2000/svg" xmlns:xlink="http://www.w3.org/1999/xlink" width="157" height="22" viewBox="0 0 157 22">
    <defs>
        <path id="a" d="M.293.621H8.5V13H.293z"/>
        <path id="c" d="M.082.621h8.206V13H.082z"/>
        <path id="e" d="M.171.621h8.206V13H.171z"/>
        <path id="g" d="M.615.743h3.04v3.039H.615z"/>
        <path id="i" d="M0 .68h27.335V17H0z"/>
    </defs>
    <g fill="none" fill-rule="evenodd" opacity=".1">
        <path fill="#231454" d="M46.424 8.902a3.43 3.43 0 0 0-1.51.354c-.486.236-.887.62-1.201 1.155-.017.063-.04.098-.071.106-.032.008-.056-.003-.072-.035-.518-1.053-1.375-1.58-2.57-1.58-.41 0-.817.086-1.226.26-.41.171-.77.431-1.084.776-.033.032-.06.04-.082.025a.08.08 0 0 1-.036-.07v-.59c0-.158-.08-.237-.236-.237h-1.768c-.158 0-.237.08-.237.236v11.532c0 .157.079.235.237.235h1.768c.157 0 .236-.078.236-.235v-7.806c0-.676.15-1.207.448-1.591.299-.385.699-.577 1.203-.577.472 0 .848.192 1.132.577.283.385.423.923.423 1.615v7.782c0 .157.079.235.237.235h1.768c.157 0 .236-.078.236-.235v-7.806c0-.676.149-1.207.448-1.591.298-.385.699-.577 1.202-.577.473 0 .85.192 1.133.577.282.385.424.923.424 1.615v7.782c0 .157.078.235.236.235h1.768c.157 0 .236-.078.236-.235v-7.947c0-1.258-.264-2.237-.79-2.936-.527-.7-1.278-1.05-2.252-1.05M57.884 14.018c0 .063-.031.095-.095.095h-3.23c-.064 0-.095-.032-.095-.095v-1.25c0-.565.157-1.03.473-1.391.313-.361.722-.542 1.225-.542.519 0 .936.18 1.249.542.316.362.473.826.473 1.392v1.249zm-1.722-5.14c-1.211 0-2.173.346-2.888 1.037-.716.693-1.074 1.596-1.074 2.712v4.905c0 1.132.358 2.036 1.074 2.712.715.676 1.677 1.013 2.888 1.013 1.148 0 2.056-.286 2.724-.861.668-.573 1.057-1.37 1.167-2.392a.181.181 0 0 0-.035-.166c-.04-.047-.1-.07-.178-.07l-1.744-.095c-.126 0-.212.064-.26.189a1.776 1.776 0 0 1-.565 1.037c-.3.268-.67.4-1.11.4-.502 0-.911-.18-1.224-.541-.316-.361-.473-.826-.473-1.391v-1.273c0-.063.03-.095.095-.095h5.329c.157 0 .236-.078.236-.236v-3.136c0-1.116-.354-2.02-1.061-2.712-.707-.691-1.675-1.037-2.901-1.037z"/>
        <g transform="translate(62 8.257)">
            <mask id="b" fill="#fff">
                <use xlink:href="#a"/>
            </mask>
            <path fill="#231454" d="M6.235 9.04c0 .627-.204 1.115-.613 1.461a2.158 2.158 0 0 1-1.438.518c-.472 0-.849-.14-1.133-.424-.282-.283-.423-.708-.423-1.274 0-.644.188-1.135.565-1.473.377-.338.88-.507 1.51-.507H6.14c.063 0 .095.031.095.094V9.04zM4.585.62c-1.07 0-1.966.314-2.689.943-.723.63-1.124 1.447-1.202 2.452 0 .158.078.236.235.236h1.91c.158 0 .236-.078.236-.236.048-.424.205-.77.472-1.037.267-.267.597-.4.991-.4.503 0 .911.2 1.225.6.315.401.472.931.472 1.591v.685c0 .063-.032.094-.095.094H4.773c-1.337 0-2.417.318-3.242.955C.706 7.14.293 8.144.293 9.51c0 1.305.341 2.213 1.025 2.723.684.512 1.475.767 2.37.767 1.068 0 1.878-.33 2.43-.99.03-.03.058-.039.082-.024.023.016.035.04.035.071v.52c0 .156.078.235.235.235h1.793c.157 0 .236-.079.236-.236V4.56c0-1.179-.366-2.13-1.097-2.853C6.672.983 5.732.621 4.585.621z" mask="url(#b)"/>
        </g>
        <path fill="#231454" d="M79.035 15.02a13.567 13.567 0 0 0-1.604-.813 27.672 27.672 0 0 1-1.273-.578 2.167 2.167 0 0 1-.685-.53 1.235 1.235 0 0 1-.282-.826c0-.424.142-.786.425-1.084.282-.299.667-.449 1.155-.449.471 0 .857.15 1.156.45.298.297.448.66.448 1.083v.165c0 .157.078.236.235.236h1.627c.157 0 .236-.079.236-.236v-.07c0-1.054-.334-1.887-1.001-2.5-.669-.613-1.585-.92-2.748-.92-1.132 0-2.032.3-2.7.896-.669.598-1.003 1.43-1.003 2.5 0 .723.158 1.321.472 1.792.314.472.672.833 1.073 1.084.402.252.907.511 1.522.78.565.235.985.42 1.26.553.276.133.515.318.72.554.204.235.307.527.307.873 0 .44-.147.801-.438 1.084-.29.283-.672.425-1.142.425-.489 0-.897-.146-1.227-.437a1.373 1.373 0 0 1-.495-1.072v-.166c0-.157-.079-.236-.235-.236h-1.675c-.157 0-.235.08-.235.236v.213c0 .975.341 1.748 1.025 2.322.685.574 1.615.861 2.795.861 1.194 0 2.141-.298 2.841-.896.699-.597 1.049-1.407 1.049-2.429 0-.707-.162-1.297-.484-1.768a3.7 3.7 0 0 0-1.119-1.097M90.517 9.067h-1.792c-.157 0-.235.079-.235.235v7.806c0 .676-.146 1.206-.437 1.59-.29.387-.703.579-1.237.579-1.07 0-1.604-.676-1.604-2.028V9.302c0-.156-.079-.235-.236-.235h-1.792c-.157 0-.235.079-.235.235v8.442c0 1.179.291 2.056.873 2.629.581.574 1.343.86 2.286.86 1.038 0 1.793-.368 2.264-1.108.031-.03.058-.046.082-.046s.036.023.036.07v.684c0 .157.078.236.235.236h1.792c.157 0 .236-.08.236-.236V9.302c0-.156-.079-.235-.236-.235M98.37 8.949c-1.007 0-1.737.582-2.193 1.745-.016.047-.036.067-.059.059-.023-.008-.035-.035-.035-.083V9.303c0-.157-.079-.236-.236-.236h-1.791c-.159 0-.237.079-.237.236v11.53c0 .158.078.236.237.236h1.791c.157 0 .236-.078.236-.235v-6.886c0-.692.161-1.281.482-1.768.324-.487.728-.755 1.216-.802a2.75 2.75 0 0 1 .424-.047c.236 0 .456.039.66.117.173.047.267 0 .283-.141l.354-1.792c.031-.142-.008-.244-.118-.307-.283-.172-.621-.26-1.014-.26"/>
        <g transform="translate(101 8.257)">
            <mask id="d" fill="#fff">
                <use xlink:href="#c"/>
            </mask>
            <path fill="#231454" d="M6.024 9.04c0 .627-.205 1.115-.614 1.461a2.154 2.154 0 0 1-1.438.518c-.47 0-.849-.14-1.132-.424-.283-.283-.424-.708-.424-1.274 0-.644.188-1.135.565-1.473.378-.338.881-.507 1.51-.507H5.93c.062 0 .095.031.095.094V9.04zM4.374.62c-1.07 0-1.966.314-2.689.943C.962 2.194.561 3.011.483 4.016c0 .158.078.236.234.236h1.911c.157 0 .236-.078.236-.236.048-.424.204-.77.472-1.037.266-.267.596-.4.99-.4.503 0 .911.2 1.226.6.314.401.472.931.472 1.591v.685c0 .063-.033.094-.095.094H4.562c-1.337 0-2.417.318-3.243.955C.494 7.14.082 8.144.082 9.51c0 1.305.341 2.213 1.025 2.723.684.512 1.474.767 2.37.767 1.068 0 1.878-.33 2.43-.99.03-.03.057-.039.081-.024.023.016.036.04.036.071v.52c0 .156.078.235.235.235h1.792c.157 0 .237-.079.237-.236V4.56c0-1.179-.367-2.13-1.098-2.853C6.46.983 5.52.621 4.373.621z" mask="url(#d)"/>
        </g>
        <path fill="#231454" d="M117.776 17.367c0 .565-.162 1.03-.484 1.391-.323.362-.735.542-1.238.542-.487 0-.888-.18-1.203-.542-.313-.36-.47-.826-.47-1.39v-4.599c0-.566.157-1.03.47-1.392a1.527 1.527 0 0 1 1.203-.542c.503 0 .915.181 1.238.542.322.362.484.826.484 1.392v4.598zm-1.109-8.489c-.833 0-1.548.275-2.146.825-.03.047-.062.068-.095.06-.03-.009-.046-.029-.046-.06V4.8c0-.157-.079-.236-.236-.236h-1.792c-.158 0-.236.08-.236.236v16.034c0 .157.078.236.236.236h1.792c.157 0 .236-.079.236-.236v-.378c0-.03.012-.055.036-.07.023-.016.05-.008.082.024.3.282.64.495 1.025.636.386.142.767.212 1.144.212 1.021 0 1.836-.342 2.44-1.025.606-.684.908-1.584.908-2.7v-4.905c0-1.163-.299-2.079-.895-2.747-.599-.668-1.415-1.002-2.453-1.002zM124.803 4.563h-1.792c-.157 0-.236.079-.236.236v16.034c0 .157.079.236.236.236h1.792c.157 0 .236-.08.236-.236V4.799c0-.157-.08-.236-.236-.236M133.433 14.018c0 .063-.031.095-.094.095h-3.23c-.065 0-.096-.032-.096-.095v-1.25c0-.565.157-1.03.472-1.391.314-.361.723-.542 1.226-.542.518 0 .935.18 1.25.542.315.362.471.826.471 1.392v1.249zm-1.721-5.14c-1.212 0-2.174.346-2.89 1.037-.715.693-1.073 1.596-1.073 2.712v4.905c0 1.132.358 2.036 1.073 2.712.715.676 1.678 1.013 2.89 1.013 1.147 0 2.055-.286 2.724-.861.666-.573 1.056-1.37 1.166-2.392a.179.179 0 0 0-.035-.166c-.04-.047-.099-.07-.178-.07l-1.745-.095c-.126 0-.212.064-.258.189a1.782 1.782 0 0 1-.565 1.037c-.3.268-.67.4-1.11.4-.503 0-.912-.18-1.226-.541-.315-.361-.472-.826-.472-1.391v-1.273c0-.063.031-.095.095-.095h5.33c.156 0 .235-.078.235-.236v-3.136c0-1.116-.355-2.02-1.06-2.712-.708-.691-1.675-1.037-2.901-1.037zM139.398 18.05c-.44 0-.802.142-1.085.425-.283.283-.424.645-.424 1.085 0 .44.141.802.424 1.085.283.282.645.424 1.085.424.44 0 .802-.142 1.085-.424.282-.283.425-.645.425-1.085 0-.44-.143-.802-.425-1.085-.283-.283-.646-.424-1.085-.424"/>
        <g transform="translate(143 8.257)">
            <mask id="f" fill="#fff">
                <use xlink:href="#e"/>
            </mask>
            <path fill="#231454" d="M6.113 9.04c0 .627-.204 1.115-.613 1.461a2.158 2.158 0 0 1-1.439.518c-.47 0-.848-.14-1.132-.424-.282-.283-.423-.708-.423-1.274 0-.644.188-1.135.565-1.473.377-.338.88-.507 1.51-.507h1.438c.062 0 .094.031.094.094V9.04zM4.463.62c-1.07 0-1.966.314-2.689.943C1.051 2.194.65 3.011.572 4.016c0 .158.078.236.235.236h1.91c.158 0 .237-.078.237-.236.047-.424.204-.77.471-1.037.267-.267.597-.4.991-.4.502 0 .911.2 1.225.6.314.401.472.931.472 1.591v.685c0 .063-.032.094-.094.094H4.651c-1.337 0-2.417.318-3.242.955C.584 7.14.171 8.144.171 9.51c0 1.305.341 2.213 1.025 2.723.685.512 1.475.767 2.37.767 1.068 0 1.878-.33 2.43-.99.03-.03.058-.039.082-.024.023.016.035.04.035.071v.52c0 .156.078.235.236.235h1.792c.157 0 .236-.079.236-.236V4.56c0-1.179-.366-2.13-1.097-2.853C6.55.983 5.61.621 4.463.621z" mask="url(#f)"/>
        </g>
        <path fill="#231454" d="M156.375 9.067h-1.791c-.158 0-.236.079-.236.235v11.53c0 .158.078.237.236.237h1.79c.158 0 .237-.08.237-.236V9.302c0-.156-.08-.235-.236-.235M155.456 7.18c.439 0 .802-.141 1.085-.424.283-.283.424-.644.424-1.085 0-.455-.137-.821-.412-1.096-.276-.275-.641-.413-1.097-.413-.44 0-.802.142-1.085.424-.282.283-.425.646-.425 1.085 0 .44.143.802.425 1.085.283.283.645.424 1.085.424"/>
        <g transform="translate(24 -.743)">
            <mask id="h" fill="#fff">
                <use xlink:href="#g"/>
            </mask>
            <path fill="#231454" d="M2.135.743a1.52 1.52 0 1 0-.002 3.038A1.52 1.52 0 0 0 2.135.743" mask="url(#h)"/>
        </g>
        <g transform="translate(0 4.257)">
            <mask id="j" fill="#fff">
                <use xlink:href="#i"/>
            </mask>
            <path fill="#231454" d="M14.339 8.18l4.813-5.599V8.05l-4.813 5.598V8.18zm12.14 5.95V1.36c0-.01-.004-.017-.005-.026-.002-.05-.017-.095-.03-.143-.01-.039-.014-.079-.031-.114-.015-.036-.043-.066-.065-.099-.03-.04-.054-.082-.09-.115-.007-.005-.01-.014-.016-.019-.025-.022-.056-.03-.084-.047-.04-.027-.078-.054-.125-.07-.046-.017-.092-.022-.14-.029-.032-.004-.061-.019-.094-.019-.01 0-.016.005-.024.005-.05.002-.096.017-.143.03-.04.01-.08.014-.114.03-.036.017-.067.044-.1.067-.04.028-.081.053-.114.09-.006.006-.015.008-.021.015l-5.224 6.078V1.36c0-.007-.007-.01-.007-.017-.003-.059-.041-.104-.067-.159-.024-.053-.033-.112-.076-.152-.005-.004-.003-.01-.008-.016-.043-.037-.1-.03-.151-.049-.05-.019-.088-.06-.144-.06-.007 0-.01.006-.017.007-.06.001-.104.041-.16.065-.052.026-.111.034-.151.077-.004.005-.012.003-.016.01L14.339 6.79V1.36a.679.679 0 1 0-1.194-.443L1.869 14.03c-.115-.028-.225-.07-.35-.07a1.52 1.52 0 1 0 1.402.932l10.06-11.7V8.37l-4.907 5.707a1.476 1.476 0 0 0-.577-.117c-.84 0-1.52.68-1.52 1.52a1.518 1.518 0 1 0 3.04 0c0-.302-.111-.567-.263-.804l4.227-4.916v5.72a.676.676 0 0 0 .678.68.678.678 0 0 0 .516-.238l4.977-5.79v3.922c-.605.2-1.05.753-1.05 1.425a1.52 1.52 0 1 0 3.04 0c0-.684-.461-1.24-1.083-1.43V9.08l5.06-5.888V14.15c-.482.255-.823.746-.823 1.33a1.52 1.52 0 1 0 3.039 0c0-.598-.353-1.103-.855-1.35z" mask="url(#j)"/>
        </g>
    </g>
</svg>
