<svg xmlns="http://www.w3.org/2000/svg" width="80" height="146" viewBox="0 0 80 146">
    <g fill="none" fill-rule="evenodd" opacity=".1">
        <path fill="#AE1F23" d="M50.85.21l-.058 32.04-.056 32.04-2.6-7.438v-.019l-3.37 71.326c3.314 9.46 5.085 14.513 5.104 14.532.018.02 1.902.134 4.18.248 6.893.344 15.443 1.087 21.94 1.907 1.507.191 2.788.286 2.882.21.094-.076.113-32.688.094-72.49L78.91.21H50.85z"/>
        <path stroke="#000" stroke-width=".191" d="M50.85.21l-.058 32.04-.056 32.04-2.6-7.438v-.019l-3.37 71.326c3.314 9.46 5.085 14.513 5.104 14.532.018.02 1.902.134 4.18.248 6.893.344 15.443 1.087 21.94 1.907 1.507.191 2.788.286 2.882.21.094-.076.113-32.688.094-72.49L78.91.21H50.85z"/>
        <path fill="#AE1F23" d="M.094.115v72.433c0 39.839.038 72.47.095 72.528.055.057 2.485-.191 5.423-.515 2.938-.325 6.987-.744 9.002-.916 3.09-.267 12.355-.858 13.41-.877.32 0 .338-1.621.376-30.686l.057-30.685 2.24 6.408c.34.99.452 1.297.792 2.269l3.371-71.307c-.717-2.041-.34-.973-1.15-3.3C30.962 7.59 28.627.935 28.533.63l-.188-.534H.094v.019z"/>
        <path stroke="#000" stroke-width=".191" d="M.094.115v72.433c0 39.839.038 72.47.095 72.528.055.057 2.485-.191 5.423-.515 2.938-.325 6.987-.744 9.002-.916 3.09-.267 12.355-.858 13.41-.877.32 0 .338-1.621.376-30.686l.057-30.685 2.24 6.408c.34.99.452 1.297.792 2.269l3.371-71.307c-.717-2.041-.34-.973-1.15-3.3C30.962 7.59 28.627.935 28.533.63l-.188-.534H.094v.019z"/>
        <path fill="#AE1F23" d="M50.85.21l-.058 32.04-.056 32.04-2.6-7.438v-.019l-3.37 71.326c3.314 9.46 5.085 14.513 5.104 14.532.018.02 1.902.134 4.18.248 6.893.344 15.443 1.087 21.94 1.907 1.507.191 2.788.286 2.882.21.094-.076.113-32.688.094-72.49L78.91.21H50.85zM.094.115v72.433c0 39.839.038 72.47.095 72.528.055.057 2.485-.191 5.423-.515 2.938-.325 6.987-.744 9.002-.916 3.09-.267 12.355-.858 13.41-.877.32 0 .338-1.621.376-30.686l.057-30.685 2.24 6.408c.34.99.452 1.297.792 2.269l3.371-71.307c-.717-2.041-.34-.973-1.15-3.3C30.962 7.59 28.627.935 28.533.63l-.188-.534H.094v.019z"/>
        <path fill="#E21E26" d="M.094.115l28.343 81.339v-.038l2.242 6.408c12.448 35.682 19.135 54.83 19.172 54.868.018.019 1.902.133 4.18.248 6.894.343 15.444 1.087 21.94 1.907 1.489.19 2.788.286 2.863.209L50.735 64.27v.019l-2.599-7.438c-2.542-7.266-4.237-12.13-14.463-41.385C30.923 7.59 28.587.935 28.495.63l-.19-.534H14.2L.094.115z"/>
    </g>
</svg>
