<svg xmlns="http://www.w3.org/2000/svg" width="65" height="65" viewBox="0 0 65 65">
    <defs>
        <linearGradient id="a" x1="8.852%" x2="91.148%" y1="79.423%" y2="10.013%">
            <stop offset="0%" stop-color="#AA5BFF"/>
            <stop offset="99.44%" stop-color="#55FF8D"/>
        </linearGradient>
    </defs>
    <path fill="url(#a)" fill-rule="nonzero" d="M60.995.177H4.005A4.01 4.01 0 0 0 0 4.182v38.672a4.01 4.01 0 0 0 4.005 4.005H23.28l-.78 6.237h-3.23a.952.952 0 1 0 0 1.904h26.46a.952.952 0 0 0 0-1.904H42.5l-.78-6.237h19.275A4.01 4.01 0 0 0 65 42.854V4.182A4.01 4.01 0 0 0 60.995.177zM24.419 53.096l.78-6.237h3.504l.344 1.374A3.554 3.554 0 0 0 32.5 50.93a3.555 3.555 0 0 0 3.453-2.697l.343-1.374h3.505l.78 6.237H24.419zm6.248-6.237h3.666l-.227.913a1.653 1.653 0 0 1-1.606 1.253c-.761 0-1.42-.515-1.605-1.253l-.228-.913zm32.429-4.005c0 1.158-.943 2.1-2.101 2.1H4.005a2.103 2.103 0 0 1-2.1-2.1V4.182c0-1.158.942-2.1 2.1-2.1h56.99c1.158 0 2.1.942 2.1 2.1v38.672zm-56.037-1.97H5.975V6.152h47.896a.952.952 0 0 0 0-1.904H5.023a.952.952 0 0 0-.952.952v36.636c0 .526.426.952.952.952h2.035a.952.952 0 1 0 0-1.904zM59.977 4.248h-2.035a.952.952 0 1 0 0 1.904h1.083v34.732H11.13a.952.952 0 0 0 0 1.904h48.848a.952.952 0 0 0 .953-.952V5.2a.952.952 0 0 0-.953-.952zM26.851 28.352c.118 0 .236-.006.356-.02l13.379-1.574a3.995 3.995 0 0 0 3.46-3.193l1.6-8.002a.95.95 0 0 0-.89-1.138l-22.39-1.018h-.051a1.977 1.977 0 0 0-.792-1.066l-2.742-1.828a.952.952 0 0 0-1.056 1.585l2.741 1.827a.071.071 0 0 1 .027.037l3.493 12.223c.109.382.288.724.518 1.02l-1.278 2.556a1.973 1.973 0 0 0 .575 2.454c-.25.436-.394.941-.394 1.479a2.99 2.99 0 0 0 2.987 2.988 2.991 2.991 0 0 0 2.988-2.988 2.97 2.97 0 0 0-.205-1.083h8.681a2.99 2.99 0 0 0 2.783 4.07 2.991 2.991 0 0 0 2.988-2.987c0-.478-.113-.93-.314-1.33a.95.95 0 0 0-.638-1.657h-17.69c-.013 0-.036 0-.055-.031-.019-.031-.009-.051-.003-.064l1.177-2.354c.24.062.49.095.745.095zm13.79 4.26c.598 0 1.084.485 1.084 1.083a1.085 1.085 0 0 1-2.167 0c0-.598.486-1.084 1.083-1.084zm-14.247 0c.597 0 1.083.485 1.083 1.083 0 .597-.486 1.083-1.083 1.083a1.085 1.085 0 0 1-1.083-1.083c0-.598.486-1.084 1.083-1.084zm6.172-6.828l-2.226.262-.763-4.629h2.989v4.367zm7.557-9.663l3.438.156-.647 3.235h-3.098l.307-3.39zm-.48 5.296h2.89l-.355 1.775a2.096 2.096 0 0 1-1.815 1.675l-1.043.122.324-3.572zm-5.173-5.553l3.749.17-.315 3.478H34.47v-3.648zm0 5.553h3.261l-.343 3.8-2.918.343v-4.143zm-1.904-5.64v3.735h-3.303l-.646-3.914 3.949.18zm-8.507 3.735l-1.193-4.175 3.807.173.66 4.002h-3.274zm1.758 6.15l-1.213-4.245h3.043l.8 4.851-1.462.173a1.078 1.078 0 0 1-1.168-.779z" transform="translate(0 10)"/>
</svg>
