<svg xmlns="http://www.w3.org/2000/svg" xmlns:xlink="http://www.w3.org/1999/xlink" width="50" height="50" viewBox="0 0 50 50">
    <defs>
        <linearGradient id="6xa42ii5sb" x1="0%" x2="100%" y1="78.152%" y2="21.848%">
            <stop offset="0%" stop-color="#A665FF"/>
            <stop offset="100%" stop-color="#68FF92"/>
        </linearGradient>
        <path id="oufmtfdfva" d="M0 0L50.05 0 50.05 37.555 0 37.555z"/>
    </defs>
    <g fill="none" fill-rule="evenodd">
        <g>
            <g>
                <g transform="translate(-801 -1637) translate(801 1637) translate(0 12.32)">
                    <mask id="2v5ni62wmc" fill="#fff">
                        <use xlink:href="#oufmtfdfva"/>
                    </mask>
                    <path fill="url(#6xa42ii5sb)" d="M6.993 3.233l-.28 1.616c3.184.694 5.68 2.924 6.837 5.768l1.54-.565c-1.354-3.375-4.315-6.02-8.097-6.819zm29.452 25.121l4.188-7.456.214.003c3.98.074 7.364 3.104 7.871 7.048l.052.405H36.445zm6.03 7.933h-.123c-2.244-.069-4.002-1.88-4.002-4.124 0-.863.263-1.691.764-2.393l.108-.15h6.51l.107.15c.5.702.764 1.53.764 2.393 0 2.252-1.832 4.102-4.127 4.124zM5.246 30.34l.065-.414c.26-1.674 1.144-3.176 2.493-4.235 1.19-.933 2.62-1.426 4.134-1.426 3.268 0 6.117 2.434 6.625 5.66l.065.415H5.245zm10.831 1.692c-.007.042-.014.087-.014.13 0 2.253-1.831 4.103-4.125 4.125h-.126c-2.244-.069-4-1.88-4-4.124 0-.044-.006-.089-.014-.131l-.082-.427h8.444l-.083.427zM4.144 16.734h4.488l-1.174.67c-.458.262-.91.554-1.347.87l-.248.18-1.719-1.72zM1.266 14.12V8.96l.005-.19c0-.04.022-.984.338-2.082C2.614 3.445 5.567 1.266 8.96 1.266h6.395c.745 0 1.35.606 1.35 1.35V14.12c0 .744-.605 1.35-1.35 1.35H2.616c-.744 0-1.35-.606-1.35-1.35zm18.058-1.351h3.618c.746 0 1.35.606 1.35 1.35 0 .745-.604 1.351-1.35 1.351h-3.618c-.745 0-1.35-.606-1.35-1.35 0-.745.605-1.351 1.35-1.351zM32.56 7.24c-.469 0-.85-.382-.85-.851V4.598c0-.47.381-.852.85-.852h5.855c.469 0 .85.382.85.852v1.79c0 .47-.381.852-.85.852H32.56zm-4.66 0c-.525 0-.953-.428-.953-.954s.428-.953.953-.953h2.544v1.056c0 .144.015.285.043.42l.086.431H27.9zm13.982-3.134h1.35v2.701h-1.35c-.745 0-1.35-.606-1.35-1.35 0-.745.605-1.35 1.35-1.35zm-.835 15.533l-.278-.01-2.454-11.09.386-.054c.52-.07.993-.332 1.333-.736l.201-.238.264.165c.414.259.893.397 1.383.397h1.983c.348 0 .633-.284.633-.633V3.473c0-.348-.285-.632-.633-.632h-1.983c-.506 0-.996.145-1.418.42l-.26.168L40 3.198c-.402-.456-.98-.718-1.584-.718H32.56c-.867 0-1.66.546-1.974 1.358l-.09.229H27.9c-1.223 0-2.218.996-2.218 2.22 0 1.223.995 2.218 2.218 2.218h5.463v2.79c0 .348.284.631.633.631.348 0 .633-.283.633-.632V8.505h2.381l2.582 11.661-4.779 8.51c-.578 1.027-1.668 1.664-2.846 1.664H19.89l-.037-.316C19.374 26.02 15.97 23 11.937 23c-1.804 0-3.505.587-4.926 1.702-1.68 1.322-2.742 3.212-2.99 5.32l-.038.318h-2.72l.005-.366c.132-7.3 6.182-13.238 13.485-13.238h7.034c.753 0 1.365.613 1.365 1.366v8.905c0 .349.284.632.634.632h5.275c2.023 0 3.885-1.099 4.863-2.869.453-.818.692-1.744.693-2.68l.005-8.214c0-.349-.284-.633-.633-.634-.35 0-.632.284-.633.632l-.006 8.215c0 .722-.184 1.437-.534 2.07-.755 1.366-2.193 2.215-3.755 2.215H24.42v-8.272c0-.43-.108-.859-.31-1.238l-.163-.305.3-.174c.81-.468 1.312-1.337 1.312-2.266 0-1.443-1.173-2.617-2.616-2.617h-3.618c-.298 0-.592.05-.873.15l-.478.17V2.616C17.973 1.173 16.8 0 15.357 0H8.961C4.603 0 .799 3.243.1 7.594c-.02.063-.03.127-.032.254C.024 8.218 0 8.592 0 8.96v5.159c0 1.283.956 2.395 2.226 2.586l.116.018 2.54 2.54-.268.252C1.639 22.335 0 26.137 0 30.224v.75c0 .348.284.631.632.631h6.009l-.084.427c-.007.042-.013.087-.013.13 0 1.297.47 2.55 1.322 3.53l.516.595H.632c-.348 0-.632.283-.632.632 0 .349.284.633.632.633h11.19l.115.003c2.973 0 5.393-2.419 5.393-5.392 0-.044-.006-.089-.014-.131l-.083-.427h14.734c1.433 0 2.795-.687 3.646-1.84l.107-.146h1.972l-.203.496c-.268.655-.405 1.344-.405 2.048 0 1.295.47 2.548 1.322 3.53l.516.594H25.275c-.348 0-.632.283-.632.632 0 .349.284.633.632.633l17.2.003c2.974 0 5.394-2.419 5.394-5.392 0-.704-.137-1.393-.405-2.048l-.204-.496h2.157c.349 0 .633-.284.633-.633 0-5.054-3.956-9.16-9.003-9.347zM22.783 36.287c-.166 0-.33.067-.447.185-.119.117-.185.28-.185.447 0 .166.067.33.185.448.118.117.28.185.447.185.166 0 .33-.068.447-.186.118-.117.186-.28.186-.447 0-.167-.068-.33-.186-.447-.117-.117-.28-.185-.447-.185zm-12.6-25.258c-.506-.088-.845-.57-.757-1.075.088-.507.57-.845 1.075-.757.507.088.845.569.758 1.075-.088.506-.57.844-1.076.757zM7.754 8.955c-.505-.088-.844-.57-.756-1.075.088-.506.569-.845 1.075-.757.506.089.845.57.757 1.075-.088.507-.57.845-1.076.757zm-.392 3.01c-.507-.087-.847-.57-.76-1.077.089-.506.571-.846 1.079-.757.507.088.846.57.758 1.076-.087.508-.57.846-1.077.759zm-.915-6.383l-1.462 8.415 7.96-2.92C11.85 8.372 9.48 6.249 6.447 5.583z" mask="url(#2v5ni62wmc)"/>
                </g>
            </g>
        </g>
    </g>
</svg>
