<svg xmlns="http://www.w3.org/2000/svg" width="65" height="65" viewBox="0 0 65 65">
    <defs>
        <linearGradient id="a" x1="18.921%" x2="82.759%" y1="94.103%" y2="9.133%">
            <stop offset="0%" stop-color="#AA5BFF"/>
            <stop offset="99.44%" stop-color="#55FF8D"/>
        </linearGradient>
    </defs>
    <path fill="url(#a)" fill-rule="nonzero" d="M32.369 48.726H10.834a.959.959 0 0 0 0 1.917h21.535a.958.958 0 1 0 0-1.917zm0 4.043H10.834a.958.958 0 1 0 0 1.916h21.535a.958.958 0 1 0 0-1.916zm15.59-24.687c.53 0 .958-.429.958-.958V3.43A3.434 3.434 0 0 0 45.487 0H21.705a3.433 3.433 0 0 0-3.43 3.43v6.482h-2.853a.958.958 0 1 0 0 1.916h20.824c.945 0 1.713.769 1.713 1.714V61.37c0 .945-.768 1.714-1.713 1.714H19.233a.958.958 0 1 0 0 1.916h17.012a3.634 3.634 0 0 0 3.63-3.63v-2.075h5.613a3.433 3.433 0 0 0 3.43-3.43V30.957a.959.959 0 0 0-1.918 0v19.136h-7.125V13.542a3.635 3.635 0 0 0-3.63-3.63h-.053V5.686a.958.958 0 1 0-1.917 0v4.224H31.41V5.687a.958.958 0 1 0-1.917 0v4.224h-2.865V5.687a.958.958 0 1 0-1.917 0v4.224h-4.52V3.43c0-.834.678-1.513 1.513-1.513h23.784c.834 0 1.512.679 1.512 1.513v23.694c0 .529.43.958.959.958zm-8.084 23.929H47v3.854c0 .834-.678 1.512-1.512 1.512h-5.613v-5.366zm2.397-46.324V39.48a.958.958 0 1 0 1.917 0V5.687a.958.958 0 1 0-1.917 0zm-20.67 11.991c-6.466 0-11.727 5.26-11.727 11.726 0 6.466 5.26 11.726 11.727 11.726 6.465 0 11.725-5.26 11.725-11.726 0-6.466-5.26-11.726-11.725-11.726zm8.304 6.704c.035-.008.068-.018.1-.028a9.744 9.744 0 0 1 1.357 4.092h-3.898a22.6 22.6 0 0 0-.411-3.545 37.51 37.51 0 0 0 2.852-.52zm-1.182-1.711a35.63 35.63 0 0 1-2.145.364 14.175 14.175 0 0 0-.624-1.643 10.717 10.717 0 0 0-.533-1.022 9.844 9.844 0 0 1 3.302 2.3zm-7.122-3.076c1.092 0 2.257 1.37 3.04 3.653a36.692 36.692 0 0 1-6.08 0c.782-2.284 1.947-3.653 3.04-3.653zm0 5.697c1.184 0 2.369-.058 3.547-.168.209 1.005.349 2.12.398 3.322h-7.891c.05-1.202.19-2.317.398-3.322 1.178.11 2.363.168 3.548.168zM17.78 20.37c-.188.315-.366.655-.533 1.022-.234.51-.442 1.061-.625 1.643a35.778 35.778 0 0 1-2.145-.364 9.85 9.85 0 0 1 3.303-2.3zm-4.585 3.984c.032.01.066.02.1.028.943.21 1.896.382 2.854.52a22.53 22.53 0 0 0-.411 3.544h-3.9a9.73 9.73 0 0 1 1.357-4.092zm.1 10.072a.873.873 0 0 0-.1.03 9.738 9.738 0 0 1-1.356-4.093h3.898c.048 1.232.187 2.426.411 3.544-.958.138-1.91.309-2.853.52zm1.182 1.712c.711-.143 1.427-.265 2.145-.364.183.581.39 1.132.625 1.643.167.366.345.706.533 1.022a9.856 9.856 0 0 1-3.303-2.301zm7.124 3.075c-1.093 0-2.258-1.368-3.041-3.652a36.569 36.569 0 0 1 6.08 0c-.782 2.284-1.947 3.652-3.04 3.652zm-3.549-5.53a20.599 20.599 0 0 1-.398-3.32h7.892a20.542 20.542 0 0 1-.398 3.32 38.597 38.597 0 0 0-7.096 0zm7.37 4.755c.187-.315.365-.655.532-1.021a14.31 14.31 0 0 0 .625-1.643c.719.099 1.434.221 2.144.364a9.845 9.845 0 0 1-3.302 2.3zm4.584-3.983a.911.911 0 0 0-.1-.029 37.501 37.501 0 0 0-2.854-.519 22.58 22.58 0 0 0 .412-3.544h3.898a9.744 9.744 0 0 1-1.356 4.092zM15.399 63.083h-8.84V11.828h5.029a.958.958 0 1 0 0-1.916H2.405a2.325 2.325 0 0 0-2.323 2.322v50.444A2.325 2.325 0 0 0 2.406 65h12.993a.958.958 0 1 0 0-1.917zm-10.757 0h-2.15a.493.493 0 0 1-.493-.492v-50.27c0-.272.221-.493.493-.493h2.15v51.255z"/>
</svg>
