<svg xmlns="http://www.w3.org/2000/svg" width="65" height="65" viewBox="0 0 65 65">
    <defs>
        <linearGradient id="a" x1="11.981%" x2="87.416%" y1="82.751%" y2="7.312%">
            <stop offset="0%" stop-color="#AA5BFF"/>
            <stop offset="99.44%" stop-color="#55FF8D"/>
        </linearGradient>
    </defs>
    <path fill="url(#a)" fill-rule="nonzero" d="M54.53 9.978l2.188-2.187a1.086 1.086 0 1 0-1.537-1.538L52.995 8.44C42.151-1.678 25.466-2.834 13.351 5.704c-2.132-1.906-5.407-1.856-7.453.192-2.046 2.046-2.097 5.322-.191 7.453-8.747 12.41-7.326 29.62 3.485 40.431C15.34 59.926 23.414 63 31.488 63c8.073 0 16.148-3.074 22.295-9.22 12.033-12.036 12.278-31.456.748-43.802zM7.436 7.433a3.235 3.235 0 0 1 2.307-.954c.871 0 1.69.339 2.305.954.087.087.154.185.229.28l.063.083a3.257 3.257 0 0 1 .643 2.167l-.005.051a3.51 3.51 0 0 1-.08.5c-.01.04-.023.077-.035.117a3.28 3.28 0 0 1-.145.422c-.032.074-.075.145-.113.216-.053.1-.102.203-.166.299a3.023 3.023 0 0 1-.885.877c-.013.009-.027.014-.04.022-.7.44-1.56.59-2.37.448l-.067-.013a3.554 3.554 0 0 1-.433-.123c-.087-.032-.174-.061-.257-.1-.062-.027-.12-.061-.18-.091a3.233 3.233 0 0 1-.408-.25l-.018-.014c-.118-.088-.239-.171-.345-.278a3.265 3.265 0 0 1 0-4.613zm44.81 44.81c-11.446 11.445-30.07 11.445-41.516 0C.679 42.19-.662 26.197 7.442 14.648c.23.108.469.192.712.266.041.012.083.027.124.037.235.067.473.118.718.151.043.006.087.008.13.014.205.022.407.06.616.06.524 0 1.03-.099 1.518-.242.103-.03.204-.057.304-.091a5.368 5.368 0 0 0 .926-.435c.12-.071.243-.137.358-.218.259-.18.509-.377.737-.606a5.29 5.29 0 0 0 .622-.763c.07-.1.127-.206.19-.31a5.352 5.352 0 0 0 .44-.93c.048-.134.084-.27.121-.408.18-.658.233-1.336.161-2.011-.006-.06-.009-.119-.017-.179a5.374 5.374 0 0 0-.198-.863 5.205 5.205 0 0 0-.25-.66l-.006-.018C25.902-.455 41.358.639 51.442 9.993l-3.848 3.85c-9.374-8.563-23.953-8.338-33.02.729-9.326 9.326-9.326 24.5 0 33.826 4.664 4.663 10.79 6.995 16.915 6.995s12.25-2.332 16.914-6.995c3.763-3.762 6.139-8.708 6.787-13.994a5.361 5.361 0 0 0 2.438-1.382 5.445 5.445 0 0 0 0-7.688c-.976-.976-2.235-1.48-3.516-1.558a23.912 23.912 0 0 0-4.965-8.412l3.849-3.848c10.68 11.497 10.436 29.539-.752 40.727zm1.538-26.325c.835 0 1.67.319 2.306.954a3.267 3.267 0 0 1 0 4.613 3.25 3.25 0 0 1-1.667.888l-.316.032a3.328 3.328 0 0 1-1.405-.162l-.033-.01a3.127 3.127 0 0 1-.567-.272c-.024-.015-.051-.024-.075-.039a3.146 3.146 0 0 1-.55-.437 3.265 3.265 0 0 1 0-4.613 3.24 3.24 0 0 1 1.97-.919l.317-.032c.004 0 .012-.003.02-.003zm-1.891-1.822a5.382 5.382 0 0 0-.873.423c-.059.034-.122.058-.18.094a5.43 5.43 0 0 0-.902.721 5.443 5.443 0 0 0 0 7.688c.237.237.497.442.768.627.105.072.216.131.325.195a5.279 5.279 0 0 0 .951.443c.133.046.266.084.402.118.188.05.375.097.567.127.016.002.031.008.046.01a21.732 21.732 0 0 1-6.135 12.318c-8.48 8.48-22.273 8.48-30.752 0-8.479-8.478-8.479-22.273 0-30.752 4.239-4.239 9.807-6.358 15.376-6.358a21.673 21.673 0 0 1 14.57 5.629l-4.613 4.612a15.1 15.1 0 0 0-9.957-3.72c-4.07 0-7.893 1.581-10.762 4.451a15.121 15.121 0 0 0-4.451 10.763c0 4.07 1.58 7.894 4.45 10.763a15.121 15.121 0 0 0 10.763 4.45c4.071 0 7.894-1.58 10.763-4.45a15.121 15.121 0 0 0 4.451-10.763 15.1 15.1 0 0 0-3.72-9.957l4.61-4.609c1.886 2.088 3.38 4.517 4.334 7.16-.01.005-.02.013-.031.017zm-21.174 8.158a1.084 1.084 0 0 0 1.537 0l9.188-9.188a12.946 12.946 0 0 1 3.083 8.42c0 3.49-1.355 6.766-3.814 9.224a12.961 12.961 0 0 1-9.226 3.815c-3.49 0-6.767-1.355-9.225-3.815a12.961 12.961 0 0 1-3.814-9.225c0-3.49 1.355-6.767 3.814-9.225a12.961 12.961 0 0 1 9.225-3.814c3.124 0 6.072 1.091 8.42 3.082l-9.188 9.188a1.086 1.086 0 0 0 0 1.538z" transform="translate(0 2)"/>
</svg>
