<svg xmlns="http://www.w3.org/2000/svg" xmlns:xlink="http://www.w3.org/1999/xlink" width="50" height="50" viewBox="0 0 50 50">
    <defs>
        <linearGradient id="fjav5kctkb" x1="0%" x2="100%" y1="99.985%" y2=".015%">
            <stop offset="0%" stop-color="#A665FF"/>
            <stop offset="100%" stop-color="#68FF92"/>
        </linearGradient>
        <path id="1c3wpkhiya" d="M0 0L48.517 0 48.517 48.51 0 48.51z"/>
    </defs>
    <g fill="none" fill-rule="evenodd">
        <g>
            <g>
                <g transform="translate(-1046 -1665) translate(1046 1665) translate(.77 .77)">
                    <mask id="iewtdiqtzc" fill="#fff">
                        <use xlink:href="#1c3wpkhiya"/>
                    </mask>
                    <path fill="url(#fjav5kctkb)" d="M29.38 41.684H16.708l-.876-2.554h14.426l-.876 2.554zm1.008-3.976H15.7c-.427 0-.831.208-1.08.556-.248.348-.314.797-.175 1.202l.94 2.743c.184.537.689.897 1.256.897h12.807c.567 0 1.072-.36 1.256-.897l.94-2.743c.14-.405.073-.854-.175-1.202-.249-.348-.652-.556-1.08-.556zm-21.785-.555c-1.176 0-2.132-.956-2.132-2.132 0-1.176.956-2.132 2.132-2.132 1.175 0 2.131.956 2.131 2.132 0 1.176-.956 2.132-2.131 2.132zm0-5.685c-1.96 0-3.554 1.594-3.554 3.553 0 1.96 1.595 3.553 3.554 3.553 1.96 0 3.553-1.593 3.553-3.553 0-1.959-1.594-3.553-3.553-3.553zm22.402 1.556c-.392 0-.71.318-.71.71v1.905c0 .393.318.71.71.71.393 0 .712-.317.712-.71v-1.905c0-.392-.32-.71-.712-.71zM15.857 36.35c.392 0 .71-.318.71-.71v-1.906c0-.392-.318-.71-.71-.71-.393 0-.71.318-.71.71v1.905c0 .393.317.71.71.71zm28.81 9.751c0 .545-.444.988-.988.988H40c-.544 0-.988-.443-.988-.988v-.755c.19-.134.367-.289.528-.462l5.127-5.536V46.1zm-7.626-1.547H9.046c-.551 0-1.082-.231-1.456-.636l-5.437-5.873c-.472-.509-.732-1.171-.732-1.866v-3.237c0-1.365.805-2.605 2.053-3.16l1.252-.556H41.36l1.253.556c1.246.555 2.053 1.795 2.053 3.16v3.237c0 .695-.26 1.357-.733 1.866l-5.437 5.873c-.374.405-.904.636-1.456.636zm-35.61-17.12v-1.502c0-.204.165-.37.37-.37h3.472l-1.145 2.242H1.801c-.205 0-.37-.166-.37-.37zm14.788.37h-3.447c.28-.676.947-1.154 1.724-1.154s1.443.478 1.723 1.154zm-1.723-2.575c-1.569 0-2.883 1.104-3.209 2.575h-1.174c.34-2.112 2.176-3.73 4.383-3.73 2.206 0 4.042 1.618 4.383 3.73h-1.174c-.326-1.471-1.642-2.575-3.21-2.575zm-5.087-4.646c.522-1.023 1.56-1.659 2.71-1.659H33.968c1.15 0 2.189.636 2.71 1.66l3.685 7.22h-20.05c-.352-2.898-2.826-5.15-5.817-5.15-2.992 0-5.466 2.252-5.818 5.15H5.724l3.685-7.22zm8.646-6.01c.101-.21.316-.346.549-.346h8.7c.232 0 .448.136.548.346l1.398 2.93H16.657l1.398-2.93zM44.287 25.56c.204 0 .37.167.37.37v1.504c0 .203-.166.37-.37.37h-2.329l-1.144-2.244h3.473zm.077 3.661c.952-.04 1.715-.825 1.715-1.787v-1.503c0-.988-.804-1.792-1.792-1.792h-4.198l-2.145-4.203c-.766-1.501-2.29-2.434-3.976-2.434h-3.142l-1.691-3.542c-.336-.702-1.053-1.155-1.83-1.155h-8.701c-.777 0-1.496.452-1.83 1.155l-1.692 3.542H12.12c-1.686 0-3.21.933-3.976 2.434L6 24.14H1.8c-.989 0-1.792.804-1.792 1.792v1.503c0 .962.762 1.746 1.714 1.787C.649 30.134 0 31.487 0 32.942v8.545c0 .392.318.711.711.711.392 0 .71-.319.71-.71v-2.14l5.127 5.536c.16.173.336.328.526.462v.755c0 .545-.442.988-.987.988H2.41c-.544 0-.988-.443-.988-.988v-1.35c0-.392-.318-.71-.71-.71-.393 0-.71.318-.71.71v1.35c0 1.328 1.08 2.409 2.408 2.409h3.678c1.328 0 2.409-1.08 2.409-2.409v-.172c.18.03.365.047.55.047H37.04c.186 0 .37-.016.55-.047v.172c0 1.328 1.081 2.409 2.41 2.409h3.678c1.328 0 2.408-1.08 2.408-2.409v-13.16c0-1.454-.648-2.807-1.723-3.719zM40.669 5.093c1.52 0 2.755 1.235 2.755 2.754 0 1.518-1.235 2.754-2.755 2.754-1.518 0-2.753-1.236-2.753-2.754 0-1.519 1.235-2.754 2.753-2.754zm0 6.93c2.303 0 4.176-1.874 4.176-4.176s-1.873-4.175-4.176-4.175c-2.301 0-4.174 1.873-4.174 4.175 0 2.302 1.873 4.176 4.174 4.176zm5.593-9.682C44.808.866 42.87.035 40.8.001c-2.714-.043-5.23 1.304-6.722 3.606-.213.33-.12.77.21.984.33.212.77.118.983-.21 1.224-1.89 3.282-2.995 5.507-2.959 1.693.028 3.281.708 4.47 1.916 1.192 1.21 1.848 2.811 1.848 4.509 0 2.335-1.271 4.49-3.316 5.624-.537.297-1.005.74-1.353 1.281l-1.604 2.496c-.044.07-.107.084-.153.084-.045 0-.108-.015-.153-.084l-1.604-2.496c-.348-.541-.815-.984-1.35-1.28-2.061-1.14-3.333-3.311-3.32-5.665.002-.211.015-.424.036-.635.042-.39-.24-.74-.631-.781-.393-.042-.74.242-.782.632-.027.256-.041.517-.043.776-.018 2.874 1.536 5.524 4.052 6.917.33.182.621.461.842.805l1.604 2.495c.297.461.801.736 1.348.736.549 0 1.053-.275 1.35-.736l1.603-2.495c.221-.344.514-.623.846-.807 2.498-1.384 4.05-4.015 4.05-6.867 0-2.073-.802-4.028-2.256-5.506zm-8.777 34.812c-1.176 0-2.132-.956-2.132-2.132 0-1.176.956-2.132 2.132-2.132 1.176 0 2.132.956 2.132 2.132 0 1.176-.956 2.132-2.132 2.132zm0-5.685c-1.96 0-3.554 1.594-3.554 3.553 0 1.96 1.594 3.553 3.554 3.553 1.959 0 3.553-1.593 3.553-3.553 0-1.959-1.594-3.553-3.553-3.553zM18.887 36.35c.393 0 .71-.318.71-.71v-1.906c0-.392-.317-.71-.71-.71-.393 0-.712.318-.712.71v1.905c0 .393.32.71.712.71zm9.089 0c.393 0 .71-.318.71-.71v-1.906c0-.392-.317-.71-.71-.71-.393 0-.71.318-.71.71v1.905c0 .393.317.71.71.71zm-6.06 0c.393 0 .71-.318.71-.71v-1.906c0-.392-.317-.71-.71-.71-.392 0-.71.318-.71.71v1.905c0 .393.318.71.71.71zm3.03 0c.393 0 .71-.318.71-.71v-1.906c0-.392-.317-.71-.71-.71-.393 0-.71.318-.71.71v1.905c0 .393.317.71.71.71z" mask="url(#iewtdiqtzc)"/>
                </g>
            </g>
        </g>
    </g>
</svg>
