<svg xmlns="http://www.w3.org/2000/svg" width="165" height="165" viewBox="0 0 165 165">
    <defs>
        <linearGradient id="a" x1="15.095%" x2="92.94%" y1="75.325%" y2=".08%">
            <stop offset="0%" stop-color="#AA5BFF"/>
            <stop offset="99.44%" stop-color="#55FF8D"/>
        </linearGradient>
    </defs>
    <g fill="none" fill-rule="evenodd">
        <text fill="#FFF" font-family="Roboto-Regular, Roboto" font-size="16" letter-spacing="1">
            <tspan x="32.82" y="122">Researchers</tspan>
        </text>
        <g opacity=".5">
            <path stroke="#FFF" stroke-width=".578" d="M82.005 2.795v16.913"/>
            <g fill="#FFF" fill-rule="nonzero">
                <path d="M79.834 2.918a2.171 2.171 0 1 1 4.343 0 2.171 2.171 0 0 1-4.343 0z"/>
                <path d="M79.545 2.918a2.463 2.463 0 0 0 2.46 2.46 2.463 2.463 0 0 0 2.46-2.46 2.463 2.463 0 0 0-2.46-2.46 2.463 2.463 0 0 0-2.46 2.46c0 1.356 0-1.356 0 0zm4.342 0A1.884 1.884 0 0 1 82.005 4.8a1.884 1.884 0 0 1-1.883-1.882c0-1.038.845-1.883 1.883-1.883s1.882.845 1.882 1.883 0-1.038 0 0z"/>
            </g>
        </g>
        <g opacity=".5">
            <path stroke="#FFF" stroke-width=".578" d="M82.005 161.673V144.76"/>
            <g fill="#FFF" fill-rule="nonzero">
                <path d="M84.176 161.55a2.171 2.171 0 1 1-4.343 0 2.171 2.171 0 0 1 4.343 0z"/>
                <path d="M84.465 161.55a2.463 2.463 0 0 0-2.46-2.46 2.463 2.463 0 0 0-2.46 2.46 2.463 2.463 0 0 0 2.46 2.46 2.463 2.463 0 0 0 2.46-2.46c0-1.356 0 1.356 0 0zm-4.343 0c0-1.038.845-1.883 1.883-1.883s1.882.845 1.882 1.883a1.884 1.884 0 0 1-1.882 1.882 1.884 1.884 0 0 1-1.883-1.882c0-1.038 0 1.038 0 0z"/>
            </g>
        </g>
        <g opacity=".5">
            <path stroke="#FFF" stroke-width=".578" d="M2.566 82.234h16.913"/>
            <g fill="#FFF" fill-rule="nonzero" transform="translate(0 79.31)">
                <circle cx="2.689" cy="2.924" r="2.171"/>
                <path d="M2.689 5.384a2.463 2.463 0 0 0 2.46-2.46 2.463 2.463 0 0 0-2.46-2.46 2.463 2.463 0 0 0-2.46 2.46 2.463 2.463 0 0 0 2.46 2.46c1.356 0-1.356 0 0 0zm0-4.343c1.038 0 1.882.845 1.882 1.883A1.884 1.884 0 0 1 2.69 4.806 1.884 1.884 0 0 1 .806 2.924c0-1.038.845-1.883 1.883-1.883s-1.038 0 0 0z"/>
            </g>
        </g>
        <g opacity=".5">
            <path stroke="#FFF" stroke-width=".578" d="M161.444 82.234H144.53"/>
            <g fill="#FFF" fill-rule="nonzero" transform="translate(158.62 79.31)">
                <circle cx="2.701" cy="2.924" r="2.171"/>
                <path d="M2.7.464a2.463 2.463 0 0 0-2.46 2.46 2.463 2.463 0 0 0 2.46 2.46 2.463 2.463 0 0 0 2.46-2.46A2.463 2.463 0 0 0 2.7.464c-1.355 0 1.357 0 0 0zm0 4.342A1.884 1.884 0 0 1 .819 2.924c0-1.038.845-1.882 1.883-1.882s1.882.844 1.882 1.882a1.884 1.884 0 0 1-1.882 1.882c-1.038 0 1.038 0 0 0z"/>
            </g>
        </g>
        <path fill="url(#a)" fill-rule="nonzero" d="M88.685 55.143H75.328a6.687 6.687 0 0 0-6.678 6.678V73.27a3.82 3.82 0 0 0 3.816 3.816c.698 0 1.344-.202 1.908-.53v17.703H89.64V76.556c.563.328 1.21.53 1.908.53a3.82 3.82 0 0 0 3.816-3.816V61.82a6.687 6.687 0 0 0-6.678-6.678zm-.954 37.208h-4.77V77.086h-1.909v15.265h-4.77V74.224h11.449V92.35zm5.724-19.081a1.91 1.91 0 0 1-1.908 1.908 1.91 1.91 0 0 1-1.908-1.908V61.82H87.73v10.495H76.282V61.82h-1.908V73.27a1.91 1.91 0 0 1-1.908 1.908 1.91 1.91 0 0 1-1.908-1.908V61.82c0-2.63 2.14-4.77 4.77-4.77h13.357c2.63 0 4.77 2.14 4.77 4.77V73.27zm14.814-36.756a3.82 3.82 0 0 0-4.017 3.605c-.04.726.139 1.41.462 2.006l-6.703 6.767a3.78 3.78 0 0 0-1.844-.612 3.806 3.806 0 0 0-3.32 1.627l-3.48-.973c.063-.332.113-.669.132-1.014.227-4.202-3.007-7.806-7.21-8.034-3.189-.172-6.03 1.652-7.315 4.377l-2.495-.698c-.177-1.847-1.67-3.344-3.578-3.447a3.82 3.82 0 0 0-4.017 3.604c-.016.297.01.586.06.868l-6.042 2.942a3.793 3.793 0 0 0-2.746-1.416 3.82 3.82 0 0 0-4.017 3.605 3.82 3.82 0 0 0 3.605 4.016 3.82 3.82 0 0 0 4.016-3.604 3.795 3.795 0 0 0-.06-.868l6.043-2.942a3.793 3.793 0 0 0 2.746 1.416 3.813 3.813 0 0 0 3.688-2.276l2.21.618a7.64 7.64 0 0 0-.13 1.014c-.228 4.202 3.006 7.806 7.208 8.034 3.19.172 6.03-1.652 7.316-4.377l3.397.95c-.006.062-.024.12-.028.183a3.82 3.82 0 0 0 3.605 4.017 3.82 3.82 0 0 0 4.017-3.605 3.768 3.768 0 0 0-.462-2.006l6.703-6.767a3.78 3.78 0 0 0 1.844.612 3.82 3.82 0 0 0 4.016-3.605 3.82 3.82 0 0 0-3.604-4.017zM55.847 51.832a1.91 1.91 0 0 1-1.802-2.009 1.91 1.91 0 0 1 2.008-1.802 1.91 1.91 0 0 1 1.802 2.009 1.91 1.91 0 0 1-2.008 1.802zm14.537-7.024a1.908 1.908 0 0 1-1.792 1.025 1.91 1.91 0 0 1-1.802-2.008 1.91 1.91 0 0 1 2.008-1.802A1.91 1.91 0 0 1 70.6 44.03l-.216.777zm11.184 8.415a5.73 5.73 0 0 1-5.341-6.627l1.868.522c-.006.062-.025.12-.028.183a3.82 3.82 0 0 0 3.604 4.017 3.805 3.805 0 0 0 3.322-1.626l1.914.535a5.727 5.727 0 0 1-5.339 2.996zm-1.596-5.819a1.91 1.91 0 0 1 2.009-1.802 1.91 1.91 0 0 1 1.802 2.008 1.91 1.91 0 0 1-2.008 1.803 1.91 1.91 0 0 1-1.803-2.009zm7.621.413a5.738 5.738 0 0 1-.065.602l-1.868-.523c.006-.061.025-.12.028-.183a3.82 3.82 0 0 0-3.604-4.016 3.804 3.804 0 0 0-3.321 1.626l-1.914-.535a5.724 5.724 0 0 1 5.338-2.996 5.73 5.73 0 0 1 5.406 6.025zm8.265 6.18a1.91 1.91 0 0 1-1.802-2.01 1.91 1.91 0 0 1 2.008-1.801 1.91 1.91 0 0 1 1.802 2.008 1.91 1.91 0 0 1-2.008 1.802zM107.96 42.23a1.91 1.91 0 0 1-1.802-2.008 1.91 1.91 0 0 1 2.008-1.802 1.91 1.91 0 0 1 1.802 2.008 1.91 1.91 0 0 1-2.008 1.802z"/>
    </g>
</svg>
