<svg xmlns="http://www.w3.org/2000/svg" width="165" height="165" viewBox="0 0 165 165">
    <defs>
        <linearGradient id="a" x1="1.119%" x2="92.463%" y1="94.495%" y2="9.342%">
            <stop offset="0%" stop-color="#AA5BFF"/>
            <stop offset="99.44%" stop-color="#55FF8D"/>
        </linearGradient>
    </defs>
    <path fill="url(#a)" fill-rule="nonzero" d="M15.74 28.738H13.89v1.848h1.848v-1.848zm0-5.544H13.89v1.848h1.848v-1.848zm0 11.089H13.89v1.848h1.848v-1.848zm4.62 5.544H18.51v1.848h1.848v-1.848zm-4.62 0H13.89v1.848h1.848v-1.848zm4.62-5.544H18.51v1.848h1.848v-1.848zm-9.241-11.089H9.271v1.848h1.848v-1.848zM50.852.146c-6.135 0-11.127 4.992-11.127 11.127 0 6.135 4.992 11.127 11.127 11.127 6.135 0 11.127-4.992 11.127-11.127C61.98 5.137 56.987.146 50.852.146zm0 20.542c-5.191 0-9.415-4.224-9.415-9.415 0-5.191 4.224-9.415 9.415-9.415 5.191 0 9.415 4.224 9.415 9.415 0 5.191-4.224 9.415-9.415 9.415zM20.36 23.194h-1.848v1.848h1.848v-1.848zM.031 57.896h1.848v-1.848H.03v1.848zm20.328-29.158h-1.848v1.848h1.848v-1.848zm-9.24 5.545H9.271v1.848h1.848v-1.848zm33.265 6.113h1.848V29.308h-1.848v11.088zm-3.696-10.22h-3.696V24.63h-1.849v-3.696h-2.772v-4.62h-1.848v4.62h-2.772v3.696h-1.848v5.544h-1.848V17.24h-1.848V9.847H20.36V6.15h-4.62V.607h-1.848V6.15h-4.62v3.696H7.423v7.392H5.575v38.809H3.727v1.848h38.809v-1.848h-1.848V30.175zM11.119 7.998h7.392v1.848H11.12V7.999zm-1.848 3.696h11.088v5.544h-1.848v-3.696h-1.848v3.696h-3.696v-3.696h-1.848v3.696H9.271v-5.544zm8.316 44.353h-5.544v-7.392h5.544v7.392zm4.62 0h-2.772v-9.24h-9.24v9.24H7.423V19.087h14.784v36.96zM29.6 22.783h3.696v1.848H29.6v-1.848zm-1.848 3.696h7.392v3.696h-2.772v-1.848h-1.848v1.848h-2.772V26.48zM38.84 56.048H24.055V32.023H38.84v24.025zm5.544-28.588h1.848v-1.848h-1.848v1.848zm0 30.436h1.848v-1.848h-1.848v1.848zm5.544-11.032h1.848V35.776h-1.848v11.088zm0-12.936h1.848V32.08h-1.848v1.848zm5.544-6.468h1.848v-1.848h-1.848v1.848zM11.119 39.827H9.271v1.848h1.848v-1.848zm44.353.57h1.848V29.307h-1.848v11.088zM11.119 28.737H9.271v1.848h1.848v-1.848zM50.852 4.34c-1.55 0-3.017.505-4.248 1.46l.946 1.217a5.337 5.337 0 0 1 3.302-1.136 5.398 5.398 0 0 1 5.393 5.392 5.337 5.337 0 0 1-1.137 3.302l1.217.946a6.866 6.866 0 0 0 1.46-4.248 6.942 6.942 0 0 0-6.933-6.933zm0 8.805a.625.625 0 0 1-.624-.624H48.98a1.87 1.87 0 0 0 1.248 1.757v.739h1.248v-.74a1.87 1.87 0 0 0 1.248-1.756c0-1.032-.84-1.872-1.872-1.872a.625.625 0 0 1 0-1.248c.344 0 .624.28.624.624h1.248a1.87 1.87 0 0 0-1.248-1.757v-.739h-1.248v.739a1.87 1.87 0 0 0-1.248 1.757c0 1.032.84 1.872 1.872 1.872a.625.625 0 0 1 0 1.248zm0 3.52a5.398 5.398 0 0 1-5.392-5.392c0-1.203.392-2.346 1.136-3.303l-1.216-.945a6.866 6.866 0 0 0-1.461 4.248 6.942 6.942 0 0 0 6.933 6.933c1.55 0 3.018-.505 4.248-1.46l-.945-1.217a5.337 5.337 0 0 1-3.303 1.136z" transform="translate(51 29)"/>
</svg>
