<svg xmlns="http://www.w3.org/2000/svg" width="165" height="165" viewBox="0 0 165 165">
    <defs>
        <linearGradient id="a" x1="1.119%" x2="92.463%" y1="94.495%" y2="9.342%">
            <stop offset="0%" stop-color="#AA5BFF"/>
            <stop offset="99.44%" stop-color="#55FF8D"/>
        </linearGradient>
    </defs>
    <g fill="none" fill-rule="evenodd">
        <text fill="#FFF" font-family="Roboto-Regular, Roboto" font-size="16" letter-spacing="1">
            <tspan x="45.961" y="116">Financial</tspan> <tspan x="36.066" y="135">Institutions</tspan>
        </text>
        <g opacity=".5">
            <path stroke="#FFF" stroke-width=".578" d="M82.005 2.795v16.913"/>
            <g fill="#FFF" fill-rule="nonzero">
                <path d="M79.834 2.918a2.172 2.172 0 1 1 4.343 0 2.172 2.172 0 0 1-4.343 0z"/>
                <path d="M79.545 2.918a2.463 2.463 0 0 0 2.46 2.46 2.463 2.463 0 0 0 2.46-2.46 2.463 2.463 0 0 0-2.46-2.46 2.463 2.463 0 0 0-2.46 2.46c0 1.356 0-1.356 0 0zm4.342 0A1.884 1.884 0 0 1 82.005 4.8a1.884 1.884 0 0 1-1.882-1.882c0-1.038.844-1.883 1.882-1.883 1.038 0 1.882.845 1.882 1.883s0-1.038 0 0z"/>
            </g>
        </g>
        <g opacity=".5">
            <path stroke="#FFF" stroke-width=".578" d="M82.005 161.673V144.76"/>
            <g fill="#FFF" fill-rule="nonzero">
                <path d="M84.176 161.55a2.171 2.171 0 1 1-4.343 0 2.171 2.171 0 0 1 4.343 0z"/>
                <path d="M84.465 161.55a2.463 2.463 0 0 0-2.46-2.46 2.463 2.463 0 0 0-2.46 2.46 2.463 2.463 0 0 0 2.46 2.46 2.463 2.463 0 0 0 2.46-2.46c0-1.356 0 1.356 0 0zm-4.342 0c0-1.038.844-1.883 1.882-1.883 1.038 0 1.882.845 1.882 1.883a1.885 1.885 0 0 1-1.882 1.882 1.884 1.884 0 0 1-1.882-1.882c0-1.038 0 1.038 0 0z"/>
            </g>
        </g>
        <g opacity=".5">
            <path stroke="#FFF" stroke-width=".578" d="M2.566 82.234h16.913"/>
            <g fill="#FFF" fill-rule="nonzero" transform="translate(0 79.31)">
                <circle cx="2.689" cy="2.924" r="2.171"/>
                <path d="M2.689 5.384a2.463 2.463 0 0 0 2.46-2.46 2.463 2.463 0 0 0-2.46-2.46 2.463 2.463 0 0 0-2.46 2.46 2.463 2.463 0 0 0 2.46 2.46c1.356 0-1.357 0 0 0zm0-4.343c1.038 0 1.882.845 1.882 1.883A1.884 1.884 0 0 1 2.69 4.806 1.884 1.884 0 0 1 .806 2.924c0-1.038.845-1.883 1.883-1.883s-1.038 0 0 0z"/>
            </g>
        </g>
        <g opacity=".5">
            <path stroke="#FFF" stroke-width=".578" d="M161.444 82.234h-16.913"/>
            <g fill="#FFF" fill-rule="nonzero" transform="translate(158.62 79.31)">
                <circle cx="2.701" cy="2.924" r="2.171"/>
                <path d="M2.701.464a2.463 2.463 0 0 0-2.46 2.46 2.463 2.463 0 0 0 2.46 2.46 2.463 2.463 0 0 0 2.46-2.46 2.463 2.463 0 0 0-2.46-2.46c-1.357 0 1.356 0 0 0zm0 4.342A1.884 1.884 0 0 1 .819 2.924c0-1.038.844-1.882 1.882-1.882 1.038 0 1.883.844 1.883 1.882A1.884 1.884 0 0 1 2.7 4.806c-1.038 0 1.038 0 0 0z"/>
            </g>
        </g>
        <path fill="url(#a)" fill-rule="nonzero" d="M66.74 57.738H64.89v1.848h1.848v-1.848zm0-5.544H64.89v1.848h1.848v-1.848zm0 11.089H64.89v1.848h1.848v-1.848zm4.62 5.544H69.51v1.848h1.848v-1.848zm-4.62 0H64.89v1.848h1.848v-1.848zm4.62-5.544H69.51v1.848h1.848v-1.848zm-9.241-11.089h-1.848v1.848h1.848v-1.848zm39.733-23.048c-6.135 0-11.127 4.992-11.127 11.127 0 6.135 4.992 11.127 11.127 11.127 6.135 0 11.127-4.992 11.127-11.127 0-6.136-4.992-11.127-11.127-11.127zm0 20.542c-5.191 0-9.415-4.224-9.415-9.415 0-5.191 4.224-9.415 9.415-9.415 5.191 0 9.415 4.224 9.415 9.415 0 5.191-4.224 9.415-9.415 9.415zM71.36 52.194h-1.848v1.848h1.848v-1.848zM51.031 86.896h1.848v-1.848H51.03v1.848zm20.328-29.158h-1.848v1.848h1.848v-1.848zm-9.24 5.545h-1.848v1.848h1.848v-1.848zm33.265 6.113h1.848V58.308h-1.848v11.088zm-3.696-10.22h-3.696V53.63h-1.849v-3.696h-2.772v-4.62h-1.848v4.62h-2.772v3.696h-1.848v5.544h-1.848V46.24h-1.848v-7.392H71.36V35.15h-4.62v-5.544h-1.848v5.544h-4.62v3.696h-1.848v7.392h-1.848v38.809h-1.848v1.848h38.809v-1.848h-1.848V59.175zM62.119 36.998h7.392v1.848H62.12v-1.848zm-1.848 3.696h11.088v5.544h-1.848v-3.696h-1.848v3.696h-3.696v-3.696h-1.848v3.696h-1.848v-5.544zm8.316 44.353h-5.544v-7.392h5.544v7.392zm4.62 0h-2.772v-9.24h-9.24v9.24h-2.772V48.087h14.784v36.96zM80.6 51.783h3.696v1.848H80.6v-1.848zm-1.848 3.696h7.392v3.696h-2.772v-1.848h-1.848v1.848h-2.772V55.48zM89.84 85.048H75.055V61.023H89.84v24.025zm5.544-28.588h1.848v-1.848h-1.848v1.848zm0 30.436h1.848v-1.848h-1.848v1.848zm5.544-11.032h1.848V64.776h-1.848v11.088zm0-12.936h1.848V61.08h-1.848v1.848zm5.544-6.468h1.848v-1.848h-1.848v1.848zM62.119 68.827h-1.848v1.848h1.848v-1.848zm44.353.57h1.848V58.307h-1.848v11.088zM62.119 57.737h-1.848v1.848h1.848v-1.848zm39.733-24.398c-1.55 0-3.017.505-4.248 1.46l.946 1.217a5.337 5.337 0 0 1 3.302-1.136 5.398 5.398 0 0 1 5.393 5.392 5.337 5.337 0 0 1-1.137 3.302l1.217.946a6.866 6.866 0 0 0 1.46-4.248 6.942 6.942 0 0 0-6.933-6.933zm0 8.805a.625.625 0 0 1-.624-.624H99.98a1.87 1.87 0 0 0 1.248 1.757v.739h1.248v-.74a1.87 1.87 0 0 0 1.248-1.756c0-1.032-.84-1.872-1.872-1.872a.625.625 0 0 1 0-1.248c.344 0 .624.28.624.624h1.248a1.87 1.87 0 0 0-1.248-1.757v-.739h-1.248v.739a1.87 1.87 0 0 0-1.248 1.757c0 1.032.84 1.872 1.872 1.872a.625.625 0 0 1 0 1.248zm0 3.52a5.398 5.398 0 0 1-5.392-5.392c0-1.203.392-2.346 1.136-3.303l-1.216-.945a6.866 6.866 0 0 0-1.461 4.248 6.942 6.942 0 0 0 6.933 6.933c1.55 0 3.018-.505 4.248-1.46l-.945-1.217a5.337 5.337 0 0 1-3.303 1.136z"/>
    </g>
</svg>
