<svg xmlns="http://www.w3.org/2000/svg" width="165" height="165" viewBox="0 0 165 165">
    <g fill="none" fill-rule="evenodd" opacity=".5">
        <path stroke="#FFF" stroke-width=".578" d="M82.005 2.795v16.913"/>
        <g fill="#FFF" fill-rule="nonzero">
            <path d="M79.834 2.918a2.172 2.172 0 1 1 4.343 0 2.172 2.172 0 0 1-4.343 0z"/>
            <path d="M79.545 2.918a2.463 2.463 0 0 0 2.46 2.46 2.463 2.463 0 0 0 2.46-2.46 2.463 2.463 0 0 0-2.46-2.46 2.463 2.463 0 0 0-2.46 2.46c0 1.356 0-1.356 0 0zm4.342 0A1.884 1.884 0 0 1 82.005 4.8a1.884 1.884 0 0 1-1.882-1.882c0-1.038.844-1.883 1.882-1.883 1.038 0 1.882.845 1.882 1.883s0-1.038 0 0z"/>
        </g>
        <path stroke="#FFF" stroke-width=".578" d="M82.005 161.673V144.76"/>
        <g fill="#FFF" fill-rule="nonzero">
            <path d="M84.176 161.55a2.171 2.171 0 1 1-4.343 0 2.171 2.171 0 0 1 4.343 0z"/>
            <path d="M84.465 161.55a2.463 2.463 0 0 0-2.46-2.46 2.463 2.463 0 0 0-2.46 2.46 2.463 2.463 0 0 0 2.46 2.46 2.463 2.463 0 0 0 2.46-2.46c0-1.356 0 1.356 0 0zm-4.342 0c0-1.038.844-1.883 1.882-1.883 1.038 0 1.882.845 1.882 1.883a1.885 1.885 0 0 1-1.882 1.882 1.884 1.884 0 0 1-1.882-1.882c0-1.038 0 1.038 0 0z"/>
        </g>
        <g>
            <path stroke="#FFF" stroke-width=".578" d="M2.566 82.234h16.913"/>
            <g fill="#FFF" fill-rule="nonzero" transform="translate(0 79.31)">
                <circle cx="2.689" cy="2.924" r="2.171"/>
                <path d="M2.689 5.384a2.463 2.463 0 0 0 2.46-2.46 2.463 2.463 0 0 0-2.46-2.46 2.463 2.463 0 0 0-2.46 2.46 2.463 2.463 0 0 0 2.46 2.46c1.356 0-1.357 0 0 0zm0-4.343c1.038 0 1.882.845 1.882 1.883A1.884 1.884 0 0 1 2.69 4.806 1.884 1.884 0 0 1 .806 2.924c0-1.038.845-1.883 1.883-1.883s-1.038 0 0 0z"/>
            </g>
        </g>
        <g>
            <path stroke="#FFF" stroke-width=".578" d="M161.444 82.234h-16.913"/>
            <g fill="#FFF" fill-rule="nonzero" transform="translate(158.62 79.31)">
                <circle cx="2.701" cy="2.924" r="2.171"/>
                <path d="M2.701.464a2.463 2.463 0 0 0-2.46 2.46 2.463 2.463 0 0 0 2.46 2.46 2.463 2.463 0 0 0 2.46-2.46 2.463 2.463 0 0 0-2.46-2.46c-1.357 0 1.356 0 0 0zm0 4.342A1.884 1.884 0 0 1 .819 2.924c0-1.038.844-1.882 1.882-1.882 1.038 0 1.883.844 1.883 1.882A1.884 1.884 0 0 1 2.7 4.806c-1.038 0 1.038 0 0 0z"/>
            </g>
        </g>
    </g>
</svg>
