<svg xmlns="http://www.w3.org/2000/svg" width="165" height="165" viewBox="0 0 165 165">
    <defs>
        <linearGradient id="a" x1="15.095%" x2="92.94%" y1="75.325%" y2=".08%">
            <stop offset="0%" stop-color="#AA5BFF"/>
            <stop offset="99.44%" stop-color="#55FF8D"/>
        </linearGradient>
    </defs>
    <path fill="url(#a)" fill-rule="nonzero" d="M36.685 19.143H23.328a6.687 6.687 0 0 0-6.678 6.678V37.27a3.82 3.82 0 0 0 3.816 3.816c.698 0 1.344-.202 1.908-.53v17.703H37.64V40.556c.563.328 1.21.53 1.908.53a3.82 3.82 0 0 0 3.816-3.816V25.82a6.687 6.687 0 0 0-6.678-6.678zm-.954 37.208h-4.77V41.086h-1.909v15.265h-4.77V38.224h11.449V56.35zm5.724-19.081a1.91 1.91 0 0 1-1.908 1.908 1.91 1.91 0 0 1-1.908-1.908V25.82H35.73v10.495H24.282V25.82h-1.908V37.27a1.91 1.91 0 0 1-1.908 1.908 1.91 1.91 0 0 1-1.908-1.908V25.82c0-2.63 2.14-4.77 4.77-4.77h13.357c2.63 0 4.77 2.14 4.77 4.77V37.27zM56.269.514a3.82 3.82 0 0 0-4.017 3.605c-.04.726.139 1.41.462 2.006l-6.703 6.767a3.78 3.78 0 0 0-1.844-.612 3.806 3.806 0 0 0-3.32 1.627l-3.48-.973c.063-.332.113-.669.132-1.014.227-4.202-3.007-7.806-7.21-8.034-3.189-.172-6.03 1.652-7.315 4.377l-2.495-.698c-.177-1.847-1.67-3.344-3.578-3.447a3.82 3.82 0 0 0-4.017 3.604c-.016.297.01.586.06.868l-6.042 2.942a3.793 3.793 0 0 0-2.746-1.416 3.82 3.82 0 0 0-4.017 3.605 3.82 3.82 0 0 0 3.605 4.016 3.82 3.82 0 0 0 4.016-3.604 3.795 3.795 0 0 0-.06-.868l6.043-2.942a3.793 3.793 0 0 0 2.746 1.416 3.813 3.813 0 0 0 3.688-2.276l2.21.618a7.64 7.64 0 0 0-.13 1.014c-.228 4.202 3.006 7.806 7.208 8.034 3.19.172 6.03-1.652 7.316-4.377l3.397.95c-.006.062-.024.12-.028.183a3.82 3.82 0 0 0 3.605 4.017 3.82 3.82 0 0 0 4.017-3.605 3.768 3.768 0 0 0-.462-2.006l6.703-6.767a3.78 3.78 0 0 0 1.844.612 3.82 3.82 0 0 0 4.016-3.605A3.82 3.82 0 0 0 56.27.514zM3.847 15.832a1.91 1.91 0 0 1-1.802-2.009 1.91 1.91 0 0 1 2.008-1.802 1.91 1.91 0 0 1 1.802 2.009 1.91 1.91 0 0 1-2.008 1.802zm14.537-7.024a1.908 1.908 0 0 1-1.792 1.025 1.91 1.91 0 0 1-1.802-2.008 1.91 1.91 0 0 1 2.008-1.802A1.91 1.91 0 0 1 18.6 8.03l-.216.777zm11.184 8.415a5.73 5.73 0 0 1-5.341-6.627l1.868.522c-.006.062-.025.12-.028.183a3.82 3.82 0 0 0 3.604 4.017 3.805 3.805 0 0 0 3.322-1.626l1.914.535a5.727 5.727 0 0 1-5.339 2.996zm-1.596-5.819a1.91 1.91 0 0 1 2.009-1.802 1.91 1.91 0 0 1 1.802 2.008 1.91 1.91 0 0 1-2.008 1.803 1.91 1.91 0 0 1-1.803-2.009zm7.621.413a5.738 5.738 0 0 1-.065.602l-1.868-.523c.006-.061.025-.12.028-.183a3.82 3.82 0 0 0-3.604-4.016 3.804 3.804 0 0 0-3.321 1.626l-1.914-.535a5.724 5.724 0 0 1 5.338-2.996 5.73 5.73 0 0 1 5.406 6.025zm8.265 6.18a1.91 1.91 0 0 1-1.802-2.01 1.91 1.91 0 0 1 2.008-1.801 1.91 1.91 0 0 1 1.802 2.008 1.91 1.91 0 0 1-2.008 1.802zM55.96 6.23a1.91 1.91 0 0 1-1.802-2.008 1.91 1.91 0 0 1 2.008-1.802 1.91 1.91 0 0 1 1.802 2.008A1.91 1.91 0 0 1 55.96 6.23z" transform="translate(52 36)"/>
</svg>
