<svg xmlns="http://www.w3.org/2000/svg" width="165" height="165" viewBox="0 0 165 165">
    <defs>
        <linearGradient id="a" x1="18.033%" x2="80.925%" y1="101.827%" y2="25.733%">
            <stop offset="0%" stop-color="#AA5BFF"/>
            <stop offset="99.44%" stop-color="#55FF8D"/>
        </linearGradient>
    </defs>
    <path fill="url(#a)" fill-rule="nonzero" d="M16.369 33.414c-.254 0-.496.1-.675.28l-3.71 3.709-9.205 4.603A4.747 4.747 0 0 0 .14 46.275v11.959h1.91v-11.96a2.848 2.848 0 0 1 1.583-2.56l4.62-2.311 2.465 5.752a.955.955 0 0 0 .45.477l2.634 1.317-1.927 1.928a.955.955 0 0 0-.154 1.148l3.819 6.683 1.657-.948-3.456-6.049 4.632-4.632 4.678 6.683v4.472h1.909v-4.472l4.678-6.683 4.632 4.632-3.457 6.05 1.658.947 3.819-6.683a.955.955 0 0 0-.154-1.148l-1.928-1.928 2.634-1.317c.202-.1.362-.27.45-.477l2.466-5.752 4.62 2.31a2.848 2.848 0 0 1 1.583 2.562v11.959h1.91v-11.96a4.747 4.747 0 0 0-2.639-4.268l-9.206-4.603-3.709-3.71a.953.953 0 0 0-.675-.278h-1.909v-.584a11.462 11.462 0 0 0 5.728-9.917V7.64a4.778 4.778 0 0 0-4.773-4.773h-1.463A5.716 5.716 0 0 0 24.96.957h-6.866a5.55 5.55 0 0 0-5.544 5.545v16.412a11.462 11.462 0 0 0 5.728 9.917v.583h-1.91zm.121 2.183l4.193 2.795-3.36 4.032-3.481-4.178 2.648-2.649zm6.053 3.545h2.925l1.378 1.654-1.442 2.164h-2.797l-1.442-2.164 1.378-1.654zm-1.45 4.988l-.472 2.831-2.097-2.996 1.366-1.639 1.202 1.804zm1.812.74h2.2l.722 4.324-1.822 2.602-1.82-2.602.72-4.325zm4.013-.74l1.203-1.804 1.366 1.64-2.097 2.995-.472-2.83zm-11.693 3.396l-2.89-1.445-2.371-5.533 2.337-1.169 4.263 5.116.697.996-2.036 2.035zm20.45-1.445l-2.89 1.445-2.035-2.035.697-.996 4.263-5.116 2.337 1.169-2.371 5.533zm-1.506-7.835l-3.481 4.178-3.36-4.032 4.193-2.795 2.648 2.649zm-3.481-33.47A2.867 2.867 0 0 1 33.55 7.64v2.132l-2.863-1.718V6.685c0-.65-.111-1.296-.329-1.909h.329zm-12.594-1.91h6.866a3.823 3.823 0 0 1 3.818 3.82v1.368l-3.49 2.094a2.492 2.492 0 0 1-2.565 0L18.77 7.776a.955.955 0 0 0-.982 0l-3.328 1.996v-3.27a3.639 3.639 0 0 1 3.635-3.635zM14.46 22.915V11.999l3.819-2.291 3.463 2.078a4.401 4.401 0 0 0 4.529 0l3.463-2.078 3.818 2.29v10.916a9.546 9.546 0 0 1-19.092 0zm9.546 11.455c1.301 0 2.593-.22 3.819-.655v2.053l-2.198 1.466h-3.24l-2.199-1.466v-2.053c1.226.434 2.518.656 3.818.655z" transform="translate(58 38)"/>
</svg>
