<svg xmlns="http://www.w3.org/2000/svg" width="165" height="165" viewBox="0 0 165 165">
    <defs>
        <linearGradient id="a" x1="18.807%" x2="81.193%" y1="76.305%" y2="6.798%">
            <stop offset="0%" stop-color="#AA5BFF"/>
            <stop offset="99.44%" stop-color="#55FF8D"/>
        </linearGradient>
    </defs>
    <path fill="url(#a)" fill-rule="nonzero" d="M28.992 38.832a.996.996 0 1 0 0-1.992.996.996 0 0 0 0 1.992zM26.005 5.974a.996.996 0 1 0 0-1.991.996.996 0 0 0 0 1.99zm2.987 26.884a.996.996 0 1 0 0-1.992.996.996 0 0 0 0 1.992zm-2.987-20.91a.995.995 0 1 0 0-1.99.995.995 0 0 0 0 1.99zm2.987 14.936a.996.996 0 1 0 0-1.992.996.996 0 0 0 0 1.992zm-2.987 14.935a.995.995 0 1 0 0-1.991.995.995 0 0 0 0 1.99zm0-11.949a.995.995 0 1 0 0-1.99.995.995 0 0 0 0 1.99zm0-5.974a.995.995 0 1 0 0-1.99.995.995 0 0 0 0 1.99zm0-5.974a.995.995 0 1 0 0-1.99.995.995 0 0 0 0 1.99zm5.974 5.974a.995.995 0 1 0 0-1.99.995.995 0 0 0 0 1.99zM23.02 8.961a.996.996 0 1 0-.002-1.992.996.996 0 0 0 .001 1.992zm8.96 8.961a.995.995 0 1 0 0-1.99.995.995 0 0 0 0 1.99zm0 11.948a.995.995 0 1 0 0-1.99.995.995 0 0 0 0 1.99zm-2.987-8.96a.996.996 0 1 0 0-1.993.996.996 0 0 0 0 1.992zm2.987-8.962a.995.995 0 1 0 0-1.99.995.995 0 0 0 0 1.99zm-2.987-2.987a.996.996 0 1 0 0-1.992.996.996 0 0 0 0 1.992zm0 5.974a.996.996 0 1 0 0-1.991.996.996 0 0 0 0 1.991zm2.987 20.91a.995.995 0 1 0 0-1.991.995.995 0 0 0 0 1.99zm0 5.974a.995.995 0 1 0 0-1.991.995.995 0 0 0 0 1.99zm-5.974-5.974a.995.995 0 1 0 0-1.991.995.995 0 0 0 0 1.99zm-5.974 5.974a.995.995 0 1 0 0-1.991.995.995 0 0 0 0 1.99zm0-5.974a.995.995 0 1 0 0-1.991.995.995 0 0 0 0 1.99zm0-5.975a.995.995 0 1 0 0-1.99.995.995 0 0 0 0 1.99zm20.91-.995a.996.996 0 0 0-.997.995v5.975c0 7.686-6.252 13.94-13.939 13.94s-13.94-6.254-13.94-13.94V29.87a.995.995 0 1 0-1.991 0v5.975c0 8.448 6.615 15.362 14.935 15.88v5.03h-4.978a.995.995 0 1 0 0 1.99h11.948a.995.995 0 1 0 0-1.99h-4.978v-5.03c8.32-.518 14.935-7.433 14.935-15.88V29.87a.995.995 0 0 0-.995-.995zm-20.91-4.979a.995.995 0 1 0 0-1.99.995.995 0 0 0 0 1.99zm5.974 22.901c6.039 0 10.953-4.913 10.953-10.952V11.948C36.958 5.91 32.044.995 26.005.995S15.052 5.91 15.052 11.948v23.897c0 6.039 4.914 10.952 10.953 10.952zm-8.9-9.945a8.78 8.78 0 0 1-.061-1.007v-2.987a.996.996 0 0 0 0-1.992v-3.982a.996.996 0 0 0 0-1.992v-3.983a.996.996 0 0 0 0-1.991v-3.983a.996.996 0 0 0 0-1.991v-.996a8.9 8.9 0 0 1 .605-3.212.978.978 0 0 0 .39-.77c0-.026-.012-.049-.015-.074.393-.768.89-1.47 1.478-2.091.155.1.33.173.529.173.55 0 .995-.446.995-.996a.97.97 0 0 0-.093-.41 8.911 8.911 0 0 1 5.072-1.58c1.882 0 3.628.585 5.072 1.58a.977.977 0 0 0-.093.41c0 .55.445.996.995.996.2 0 .374-.073.529-.173a8.983 8.983 0 0 1 1.478 2.09c-.003.026-.015.049-.015.074 0 .318.158.589.39.771a8.9 8.9 0 0 1 .605 3.212v.996a.996.996 0 0 0 0 1.991v3.983a.996.996 0 0 0 0 1.991v3.983a.996.996 0 0 0 0 1.992v3.982a.996.996 0 0 0 0 1.992v2.987c0 .341-.023.676-.06 1.007a.99.99 0 0 0-.935.984c0 .375.216.69.522.86a8.996 8.996 0 0 1-4.516 5.17c0-.02.01-.036.01-.056a.996.996 0 0 0-1.99 0c0 .27.109.513.283.692a8.92 8.92 0 0 1-2.275.304 8.923 8.923 0 0 1-2.275-.304.99.99 0 0 0 .284-.692.996.996 0 0 0-1.992 0c0 .02.01.036.011.056a8.995 8.995 0 0 1-4.516-5.17.986.986 0 0 0 .523-.86.99.99 0 0 0-.935-.984zm5.913-3.994a.996.996 0 1 0 0-1.992.996.996 0 0 0 0 1.992zm0-5.974a.996.996 0 1 0 0-1.992.996.996 0 0 0 0 1.992zm0-11.949a.996.996 0 1 0 0-1.991.996.996 0 0 0 0 1.991zm0 5.974a.996.996 0 1 0 0-1.992.996.996 0 0 0 0 1.992zm-2.987-8.96a.995.995 0 1 0 0-1.992.995.995 0 0 0 0 1.991zm0 5.973a.995.995 0 1 0 0-1.99.995.995 0 0 0 0 1.99zm2.987 20.91a.996.996 0 1 0 0-1.992.996.996 0 0 0 0 1.992zM11.561 20.356v-4.11a.863.863 0 0 0-1.725 0v4.11a.863.863 0 1 0 1.725 0zm-5.736-8.75a.863.863 0 0 0-.863.863v11.664a.863.863 0 0 0 1.725 0V12.469a.863.863 0 0 0-.862-.863zM.95 10.262a.863.863 0 0 0-.863.863v14.352a.863.863 0 0 0 1.726 0V11.125a.863.863 0 0 0-.863-.863zm50.108 0a.863.863 0 0 0-.863.863v14.352a.863.863 0 0 0 1.726 0V11.125a.863.863 0 0 0-.863-.863zm-9.747 5.121a.863.863 0 0 0-.863.863v4.11a.863.863 0 0 0 1.725 0v-4.11a.863.863 0 0 0-.862-.863zm4.873-3.777a.863.863 0 0 0-.863.863v11.664a.863.863 0 1 0 1.726 0V12.469a.863.863 0 0 0-.863-.863z" transform="translate(56 37)"/>
</svg>
