<svg xmlns="http://www.w3.org/2000/svg" width="126" height="134" viewBox="0 0 126 134">
    <defs>
        <linearGradient id="a" x1="-15.851%" x2="190.256%" y1="53.679%" y2="43.861%">
            <stop offset="0%" stop-color="#AA5BFF"/>
            <stop offset="99.44%" stop-color="#55FF8D"/>
        </linearGradient>
        <linearGradient id="b" x1="-178.787%" x2="601.237%" y1="73.044%" y2="1.238%">
            <stop offset="0%" stop-color="#AA5BFF"/>
            <stop offset="99.44%" stop-color="#55FF8D"/>
        </linearGradient>
        <linearGradient id="c" x1="-130.626%" x2="167.886%" y1="79.568%" y2="38.379%">
            <stop offset="0%" stop-color="#AA5BFF"/>
            <stop offset="99.44%" stop-color="#55FF8D"/>
        </linearGradient>
        <linearGradient id="d" x1="-411.424%" x2="1831.57%" y1="120.357%" y2="-204.172%">
            <stop offset="0%" stop-color="#AA5BFF"/>
            <stop offset="99.44%" stop-color="#55FF8D"/>
        </linearGradient>
        <linearGradient id="e" x1="-1414.036%" x2="293.05%" y1="106.535%" y2="39.996%">
            <stop offset="0%" stop-color="#AA5BFF"/>
            <stop offset="99.44%" stop-color="#55FF8D"/>
        </linearGradient>
        <linearGradient id="f" x1="-284.149%" x2="1021.299%" y1="62.355%" y2="14.511%">
            <stop offset="0%" stop-color="#AA5BFF"/>
            <stop offset="99.44%" stop-color="#55FF8D"/>
        </linearGradient>
        <linearGradient id="g" x1="-3414.23%" x2="945.423%" y1="413.72%" y2="-43.927%">
            <stop offset="0%" stop-color="#AA5BFF"/>
            <stop offset="99.44%" stop-color="#55FF8D"/>
        </linearGradient>
        <linearGradient id="h" x1="-863.158%" x2="167.155%" y1="124.753%" y2="38.697%">
            <stop offset="0%" stop-color="#AA5BFF"/>
            <stop offset="99.44%" stop-color="#55FF8D"/>
        </linearGradient>
        <linearGradient id="i" x1="-1421.872%" x2="1940.303%" y1="173.176%" y2="-108.348%">
            <stop offset="0%" stop-color="#AA5BFF"/>
            <stop offset="99.44%" stop-color="#55FF8D"/>
        </linearGradient>
        <linearGradient id="j" x1="-566.352%" x2="670.719%" y1="338.013%" y2="-240.056%">
            <stop offset="0%" stop-color="#AA5BFF"/>
            <stop offset="99.44%" stop-color="#55FF8D"/>
        </linearGradient>
        <linearGradient id="k" x1="-3071.286%" x2="1405.124%" y1="430.165%" y2="-116.542%">
            <stop offset="0%" stop-color="#AA5BFF"/>
            <stop offset="99.44%" stop-color="#55FF8D"/>
        </linearGradient>
        <linearGradient id="l" x1="-1705.211%" x2="583.182%" y1="541.074%" y2="-102.548%">
            <stop offset="0%" stop-color="#AA5BFF"/>
            <stop offset="99.44%" stop-color="#55FF8D"/>
        </linearGradient>
        <linearGradient id="m" x1="-1970.444%" x2="670.01%" y1="98.49%" y2="35.02%">
            <stop offset="0%" stop-color="#AA5BFF"/>
            <stop offset="99.44%" stop-color="#55FF8D"/>
        </linearGradient>
        <linearGradient id="n" x1="-4212.758%" x2="1090.35%" y1="406.82%" y2="-38.017%">
            <stop offset="0%" stop-color="#AA5BFF"/>
            <stop offset="99.44%" stop-color="#55FF8D"/>
        </linearGradient>
        <linearGradient id="o" x1="-3342.729%" x2="4528.829%" y1="330.712%" y2="-320.573%">
            <stop offset="0%" stop-color="#AA5BFF"/>
            <stop offset="99.44%" stop-color="#55FF8D"/>
        </linearGradient>
    </defs>
    <g fill="none" fill-rule="evenodd">
        <g fill="#0C062C" fill-rule="nonzero">
            <path d="M57.472 118.02l-2.638-.047-1.57.001-6.913 3.983-1.724.08-3.385-.056c-.22.058-.481.09-.654.179-.448.23-.857.484-1.147.651l-1.485.095-2.081-1.192-.281-1.319 2.435-1.403 1.93-.009.694-.489-1.391-.796-.222-4.4c-.832-.477-1.656-.95-2.578-1.477l1.96-1.13-2.014-1.153-3.434-.067-3.371-.06c-.571.344-1.342.627-1.782 1.153l3.742 2.144-1.233.71c-.152.046-.301.13-.456.13-1.287-.003-2.576.007-3.86-.052-.44-.02-.9-.201-1.294-.358-.362-.145-.645-.356-.894-.499l-.252-2.667c-.028-.326-.454-.44-.91-.595l-1.175.677a.889.889 0 0 0-.185.09l-1.968-.075-1.67-.846-1.039.598 2.437 1.395-6.091 3.51-1.546.018-7.098 4.09-1.174.05-3.095 1.783L0 123.03l3.343 1.915 3.2-.02.947.048c.506-.291.93-.535 1.483-.855l-.239-1.554 3.242-1.868 8.413.108c1.271.728 2.646 1.524 4.042 2.307.239.133.573.21.863.314l3.386.04 4.474.127 1.6.632 3.777.033 1.04.046 2.465-1.421 2.255.015c.469.024.937.051 1.406.072.729.03 1.458.057 2.187.086l3.602 2.063 2.876-.016 1.693.099 7.367 4.22.14 1.118 4.508 2.582 1.711-.032 1.352.056 1.199-.69-3.46-1.982-.21-.989-.047-4.481-2.115-1.212.058-3.067-4.701-2.692c-1.391-.028-2.71-.057-4.027-.078-.12-.002-.238.044-.358.067zM30.563 93.513l-5.591 3.221.032 1.53-4.158 2.397.077 2.64-1.49.859 1.309.75.674-.388 2.19-1.263 1.718-.051 2.82.097c1.184.679 2.386 1.374 3.605 2.06.24.135.415.36.86.3.997.023 1.995.055 2.991.062.186.002.366-.094.55-.144.454-.262.909-.525 1.489-.858l-.295-3.358 1.2-.692-.058-2.834c-2.446-1.401-4.947-2.836-7.46-4.264-.096-.055-.306-.044-.463-.064zM89.27 70.151l-2.851.045c-.548-.036-.73.239-1.017.403-3.339 1.911-6.663 3.83-9.99 5.748l-1.187.684c-.598-.021-1.178.098-1.68-.177.03-.604.377-1.237-.62-1.807l-4.354 2.509.33 2.217-2.211 1.274c-.673.388-1.368.764-2.013 1.166-.661.413-1.51.732-1.978 1.248l1.185.754-2.859 1.648c.065 1.395.059 2.746.217 4.095.098.842-.085 1.563-1.295 2.078-.85-.06-1.134-.475-1.579-.77.276-.36 1.132-.5.773-.979l.015-.52c-.485-.278-.86-.494-1.278-.732l-6.51 3.75c.07 1.557.134 3.034.2 4.517l1.713.982 1.407-.81.54-.228 1.024.387 1.39-.801-2.635-1.51-.106-1.948c.485-.206.975-.247 1.471.028l-.007 1.044c.985.564 1.916 1.097 2.896 1.66l.06.963-3.637 2.095.14 2.72 1.146.718-1.14.657.066.788 2.146 1.23 2.148-1.239-.174-1.83.114-.998c.389-.007.733-.02 1.078-.018 1.106.007 2.212.021 3.319.028.065 0 .126-.047.226-.086l-.077-.623-1.703-.09-.043-.752 3.376.233 1.163-.67 2.072-.019 1.261-.727 1.164.608.054.633-2.167 1.248-1.193.038-1.55.894-.165.875-2.488-.191-4.49 2.587c.04 1.235.08 2.402.12 3.61l4.204 2.408 2.897-.033c1.33.206 2.396.042 3.293-.56.872-.586 1.88-1.104 2.831-1.65.209-.119.388-.283.773-.192l3.589 2.055 3.006.06 5.614 3.216c1.02.01 1.995.031 2.966.02.275-.004.54-.108.809-.166l1.3-.75-.018-2.136-2.777-1.59.097-1.984-3.887-2.444-.248-2.937c-.108-.43-.769-.606-1.238-.87-.183.032-.414.034-.542.1-.447.23-.858.484-1.462.832-.82-.035-1.789-.078-2.759-.117-.557-.023-1.01-.154-1.411-.393-.69-.411-1.41-.805-2.118-1.206-.047-.343.354-.448.844-.556l1.357.777 3.29-.01c.754.069 1.524.162 2.02-.496-.047-.545-.115-1.232-.162-1.918-.022-.309-.19-.544-.815-.644l-1.025.53-3.64-.014.085-.586 2.354-.004 3.422-1.971c1.185-.136 2.423.214 3.41-.34.87.497 1.687.979 2.536 1.442.18.099.412.166.638.237.076.023.15.047.223.073.594.024 1.188.05 1.698.07.567-.214.972-.413.716-.806-.071-.11-.096-.245-.223-.326-.39-.25-.82-.48-1.133-.659-.288-.803.269-1.569-.743-2.198l.854-.492 3.04.127 1.082-.494c.778.446 1.498.873 2.252 1.28.202.109.51.152.77.226.13-.002.287-.033.39-.002.914.276 1.87.232 2.823.212.068 0 .13-.046.24-.088l-.777-.446-2.484.01-1.287-.781a1057 1057 0 0 1 .505-.288c.352.013.705.02 1.057.043.644.042 1.123-.077 1.435-.475l-.056-.65-1.013-.58-2.24-.067-.622-.499 1.242-.805-.117-3.214-.957-.548-1.773-.056-1.337-.766-.263-1.192 2.338.108 1.096.628c.612-.17.873-.378.651-.728-.134-.506-1.116-.651-1.431-1.08l.41.005-.832-3.571.268.004-1.834-1.05-1.061.391-1.394-.798.235-.019-.307-1.783c1.676-.965 3.26-1.885 4.865-2.794.19-.107.489-.15.737-.224l.208 2.193c.606.343 1.248.776 2.044 1.135l.811-.468.038-2.152-1.396-.8-.894-.599 1.716-.989-.095-1.162c-.03-.383-.062-.763-.093-1.144l-.108-1.29-1.598-1.044-6.726 3.875zM14.712 105.923l2.142 1.227a13695.755 13695.755 0 0 0 2.656-1.53c-.648-.557-1.613-.855-2.104-1.411l1.809-1.042-.17-1.035c.108-.51.151-1.02-.162-1.6-2.014 1.162-3.93 2.265-5.96 3.435.051.51.122 1.07.16 1.629.019.282.187.491.702.615l.927-.288zM109.344 90.485l1.187-.506a36262 36262 0 0 0 3.39.146l2.103-1.02c.421-.207 1.29.17 1.61-.432l-2.307-.085-.687-.32-1.904-.146-1.554.896-.27.678-1.829.07c-.281.291-.27.509.26.72z"/>
            <path d="M25.122 106.45l-2.484-.097-3.941 2.27c.38.219.712.409 1.108.635l2.3-1.325 1.183-.023 2.078.139 1.25.715 2.546-.018.955.042-.05-1.574-1.916-.084-.2-.755-2.83.076zM104.895 93.455c.967-.321 1.065-.736.827-1.157l-2.33-1.335c-.65.136-.652.409-.643.7.016.495.204 1.008-.337 1.414.742.597 1.692.28 2.483.378zM118.805 91.287l-1.2-.687-.094.074-1.765-.502-.497.357 1.454.833-.527.757-.888.126c-.974.153-1.253-.529-2.016-.62l-1.686.972c.22.815-.326 1.66.681 2.44l-1.134.653-.04 1.312 2.725 1.56 2.088-.036c.57-.085.922-.307 1.263-.534.204-.137.404-.275.642-.387l-.005-1.238 1.537-.886 4.516.159 1.704-.982-.117-2.056-2.312-1.324-2.988-.049-1.341.058zM53.166 100.6l-1.015-.581-1.722-.065-1.012-.452-.58.41 3.784 2.167c1.038-.446.516-1.007.545-1.479zM58.46 83.732l-.966-.002.2 3.705.945.01-.18-3.713zM89.785 105.75l.164 1.527c.679.385 1.363.893 2.302 1.248l.864-.498-1.392-.797-.108-.955c-.58-.152-.793-.745-1.83-.526zM97.683 80.25l.054 1.862.59.492c-.834.591-.834.591-.672.974.886.08 1.09-.395 1.625-.604l-.082-2.071c-.465-.216-.728-.543-1.515-.653zM97.234 94.957c.073.052.15.155.237.16 1.01.058 2.021.1 3.1.15 1.085.398 1.464.411 2.309.028l-.922-.595-3.966-.067c-.39-.007-.69.058-.758.324zM106.432 93.802c-1.913.968-1.945.992-1.98 1.59 1.253-.405 1.963-1.015 2.812-1.637l-.832.047zM50.163 101.59l-.89.512 1.004.575.89-.513-1.004-.575z"/>
        </g>
        <g fill-rule="nonzero">
            <path fill="url(#a)" d="M57.472 52.407l-2.638-.047-1.57.001-6.913 3.983-1.724.08-3.385-.056c-.22.058-.481.09-.654.179-.448.23-.857.484-1.147.65l-1.485.095-2.081-1.191-.281-1.32 2.435-1.403 1.93-.008.694-.489-1.391-.797-.222-4.4-2.578-1.477 1.96-1.129-2.014-1.153-3.434-.067-3.371-.06c-.571.344-1.342.627-1.782 1.152l3.742 2.144-1.233.711c-.152.045-.301.13-.456.13-1.287-.003-2.576.007-3.86-.052-.44-.02-.9-.201-1.294-.358-.362-.145-.645-.357-.894-.499l-.252-2.667c-.028-.326-.454-.44-.91-.595l-1.175.677a.889.889 0 0 0-.185.09l-1.968-.075-1.67-.847-1.039.598 2.437 1.396-6.091 3.51-1.546.018-7.098 4.09-1.174.05L.06 55.054 0 57.416l3.343 1.915 3.2-.02.947.048 1.483-.855-.239-1.554 3.242-1.869 8.413.109c1.271.728 2.645 1.524 4.042 2.306.239.134.573.211.863.314l3.386.04 4.474.127 1.6.632 3.777.034 1.039.045 2.466-1.42 2.255.015c.469.024.937.051 1.406.071.729.031 1.458.058 2.187.086l3.602 2.063 2.876-.016 1.693.1 7.367 4.219.14 1.119 4.508 2.582 1.711-.032 1.352.056 1.199-.69-3.46-1.983-.21-.988-.047-4.482-2.115-1.21.057-3.068-4.7-2.693c-1.391-.028-2.71-.056-4.027-.077-.12-.002-.238.043-.358.067z" transform="translate(0 53.94)"/>
            <path fill="url(#b)" d="M30.563 27.9l-5.591 3.22.032 1.532-4.158 2.395.077 2.64-1.49.86 1.309.75.674-.389 2.19-1.262 1.718-.052 2.82.098c1.184.679 2.386 1.374 3.605 2.06.24.135.415.36.86.3.997.023 1.995.054 2.991.062.186.001.366-.094.55-.145l1.489-.858-.295-3.357 1.2-.692-.058-2.835c-2.446-1.4-4.947-2.835-7.46-4.264-.096-.054-.306-.044-.463-.063z" transform="translate(0 53.94)"/>
            <path fill="url(#c)" d="M89.27 4.538l-2.851.045c-.548-.036-.73.238-1.017.403-3.339 1.91-6.663 3.83-9.99 5.748l-1.187.684c-.598-.022-1.178.098-1.68-.177.03-.604.377-1.237-.62-1.808l-4.354 2.51.33 2.216-2.211 1.275c-.673.387-1.368.763-2.013 1.166-.661.412-1.51.732-1.978 1.248l1.185.754-2.859 1.647c.065 1.396.059 2.747.217 4.096.098.842-.085 1.563-1.295 2.078-.85-.06-1.134-.476-1.579-.77.276-.36 1.132-.5.773-.979l.015-.52-1.278-.733c-2.242 1.293-4.435 2.556-6.51 3.751.07 1.557.134 3.033.2 4.517l1.713.982 1.407-.811.54-.228 1.024.388 1.39-.802-2.635-1.509-.106-1.949c.485-.205.975-.246 1.471.03l-.007 1.043 2.896 1.659.06.963-3.637 2.096.14 2.72 1.146.717-1.14.657.066.789 2.146 1.229 2.148-1.238-.174-1.83.114-.998c.389-.007.733-.021 1.078-.019 1.106.008 2.212.022 3.319.028.065 0 .126-.046.226-.086l-.077-.623-1.703-.088-.043-.753 3.376.232 1.163-.67 2.072-.018 1.261-.727 1.164.607.054.633-2.167 1.249-1.193.038-1.55.893-.165.876-2.488-.192-4.49 2.588c.04 1.234.08 2.401.12 3.61l4.204 2.408 2.897-.034c1.33.207 2.396.042 3.293-.56.872-.586 1.88-1.103 2.831-1.649.209-.119.388-.283.773-.193 1.185.68 2.37 1.358 3.589 2.056l3.006.06 5.614 3.215c1.02.01 1.995.032 2.966.02.275-.004.54-.108.809-.165l1.3-.75-.018-2.136-2.777-1.591.097-1.983-3.887-2.445-.248-2.936c-.108-.43-.769-.606-1.238-.87-.183.032-.414.033-.542.1-.447.23-.858.484-1.462.832-.82-.035-1.789-.078-2.759-.117-.557-.023-1.01-.154-1.411-.393-.69-.412-1.41-.806-2.118-1.207-.047-.343.354-.448.844-.555l1.357.777 3.29-.01c.754.068 1.524.162 2.02-.496-.047-.545-.115-1.232-.162-1.919-.022-.308-.19-.544-.815-.643l-1.025.53c-1.279-.006-2.425-.01-3.64-.014l.085-.587c.835 0 1.582-.002 2.354-.003l3.422-1.972c1.185-.135 2.423.215 3.41-.34.87.497 1.687.98 2.536 1.443.18.098.412.166.638.236.076.024.15.048.223.073l1.698.071c.567-.215.972-.414.716-.806-.071-.11-.096-.245-.223-.327-.39-.25-.82-.479-1.133-.658-.288-.804.269-1.57-.743-2.199l.854-.491 3.04.126 1.082-.494c.778.446 1.498.874 2.252 1.28.202.11.51.153.77.226.13-.002.287-.032.39-.001.914.276 1.87.232 2.823.212.068-.001.13-.046.24-.088l-.777-.446-2.484.009-1.287-.78a1057 1057 0 0 1 .505-.289c.352.014.705.02 1.057.043.644.042 1.123-.076 1.435-.474l-.056-.65-1.013-.581-2.24-.066-.622-.5 1.242-.805-.117-3.213-.957-.548-1.773-.056-1.337-.766-.263-1.192 2.338.108 1.096.628c.612-.171.873-.378.651-.729-.134-.505-1.116-.65-1.431-1.08l.41.006-.832-3.572.268.005-1.834-1.05-1.061.39-1.394-.797.235-.02-.307-1.782c1.676-.966 3.26-1.886 4.865-2.794.19-.107.489-.151.737-.224l.208 2.192c.606.344 1.248.776 2.044 1.135l.811-.467.038-2.153-1.396-.8-.894-.598 1.716-.99-.095-1.161c-.03-.384-.062-.764-.093-1.144l-.108-1.291L95.996.662 89.27 4.538z" transform="translate(0 53.94)"/>
            <path fill="url(#d)" d="M14.712 40.31l2.142 1.226a13695.755 13695.755 0 0 0 2.656-1.53c-.648-.556-1.613-.854-2.104-1.41l1.809-1.043-.17-1.035c.108-.51.151-1.019-.162-1.599l-5.96 3.435c.051.51.122 1.069.16 1.629.019.282.187.49.702.614l.927-.287z" transform="translate(0 53.94)"/>
            <path fill="url(#e)" d="M109.344 24.872l1.187-.506a36262 36262 0 0 0 3.39.145l2.103-1.018c.421-.209 1.29.168 1.61-.433l-2.307-.085-.687-.32-1.904-.146-1.554.896-.27.677-1.829.07c-.281.292-.27.51.26.72z" transform="translate(0 53.94)"/>
            <path fill="url(#f)" d="M25.122 40.837l-2.484-.098-3.941 2.271 1.108.635 2.3-1.326 1.183-.023 2.078.14 1.25.715 2.546-.019.955.043-.05-1.575-1.916-.083-.2-.756-2.83.076z" transform="translate(0 53.94)"/>
            <path fill="url(#g)" d="M104.895 27.842c.967-.322 1.065-.736.827-1.157l-2.33-1.335c-.65.136-.652.408-.643.7.016.494.204 1.007-.337 1.414.742.597 1.692.28 2.483.378z" transform="translate(0 53.94)"/>
            <path fill="url(#h)" d="M118.805 25.674l-1.2-.688-.094.075-1.765-.502-.497.357 1.454.833-.527.757-.888.126c-.974.153-1.253-.53-2.016-.62l-1.686.972c.22.815-.326 1.66.681 2.44l-1.134.653-.04 1.312 2.725 1.56 2.088-.037c.57-.084.922-.306 1.263-.533.204-.137.404-.276.642-.387l-.005-1.238 1.537-.886 4.516.158 1.704-.982-.117-2.055-2.312-1.324-2.988-.05-1.341.06z" transform="translate(0 53.94)"/>
            <path fill="url(#i)" d="M53.166 34.987l-1.015-.582-1.722-.065-1.012-.452c-.219.155-.39.277-.58.41l3.784 2.168c1.038-.446.516-1.007.545-1.48z" transform="translate(0 53.94)"/>
            <path fill="url(#j)" d="M58.46 18.118l-.966-.001.2 3.705.945.01-.18-3.714z" transform="translate(0 53.94)"/>
            <path fill="url(#k)" d="M89.785 40.136l.164 1.527c.679.386 1.363.893 2.302 1.248l.864-.497-1.392-.797-.108-.956c-.58-.15-.793-.745-1.83-.525z" transform="translate(0 53.94)"/>
            <path fill="url(#l)" d="M97.683 14.637l.054 1.861.59.492c-.834.592-.834.592-.672.975.886.08 1.09-.395 1.625-.605l-.082-2.07c-.465-.216-.728-.543-1.515-.653z" transform="translate(0 53.94)"/>
            <path fill="url(#m)" d="M97.234 29.344c.073.051.15.155.237.16 1.01.058 2.021.1 3.1.15 1.085.398 1.464.41 2.309.028l-.922-.596-3.966-.067c-.39-.006-.69.058-.758.325z" transform="translate(0 53.94)"/>
            <path fill="url(#n)" d="M106.432 28.189c-1.913.968-1.945.992-1.98 1.59 1.253-.405 1.963-1.015 2.812-1.637l-.832.047z" transform="translate(0 53.94)"/>
            <path fill="url(#o)" d="M50.163 35.976l-.89.513 1.004.575.89-.513-1.004-.575z" transform="translate(0 53.94)"/>
        </g>
        <g stroke="#FFF" stroke-linecap="round" stroke-width=".5">
            <path d="M54.637 110.341a16.491 16.491 0 0 1-.116-.771"/>
            <path stroke-dasharray="1.566239919662476,1.174680032730103" d="M54.415 108.4c-.437-8.01 5.029-15.354 13.121-17.038 6.875-1.431 13.641 1.64 17.235 7.206"/>
            <path d="M85.082 99.07c.133.223.26.45.383.68"/>
        </g>
        <g stroke="#FFF" stroke-linecap="round" stroke-width=".5">
            <path d="M61.705 107.892a12.54 12.54 0 0 1-.072-.776"/>
            <path stroke-dasharray="1.551108012199402,1.163292002677917" d="M61.615 105.952c.177-5.747 4.257-10.84 10.135-12.064 5.197-1.082 10.313 1.172 13.125 5.303"/>
            <path d="M85.192 99.681c.136.221.265.447.388.677"/>
        </g>
        <g stroke="#FFF" stroke-linecap="round" stroke-width=".5">
            <path d="M71.83 81.544c-.024-.26-.047-.518-.068-.777"/>
            <path stroke-dasharray="1.561950044631958,1.171481966972351" d="M71.682 79.597c-.765-13.39 3.755-25.76 9.829-24.202 5.136 1.317 7.866 12.357 7.194 22.877"/>
            <path d="M88.664 78.853c-.02.26-.042.518-.066.777"/>
        </g>
        <g stroke="#FFF" stroke-linecap="round" stroke-width=".5">
            <path d="M71.83 81.544a32.17 32.17 0 0 1-.064-.778"/>
            <path stroke-dasharray="1.602588000297546,1.201980006694794" d="M71.703 79.562c-.257-7.835 2.418-14.6 6.124-14.216 2.5.26 4.459 3.856 5.307 8.467"/>
            <path d="M83.236 74.403c.04.256.078.514.113.774"/>
        </g>
        <g stroke="#FFF" stroke-linecap="round" stroke-width=".5">
            <path d="M72.08 81.166a75.478 75.478 0 0 1-.081-.776"/>
            <path stroke-dasharray="1.557191998958588,1.167894022464752" d="M71.892 79.227c-1.412-16.9 2.752-34.278 10.225-34.307 5.17-.02 8.574 9.495 9.203 20.287"/>
            <path d="M91.35 65.788c.013.259.024.519.034.78"/>
        </g>
        <g stroke="#FFF" stroke-linecap="round" stroke-width=".5">
            <path d="M72.082 82.156a101.5 101.5 0 0 0-.028-.78"/>
            <path stroke-dasharray="1.566084079742432,1.174602019786835" d="M72 80.2c-1.467-28.44-13.902-47.612-26.748-43.434-11.049 3.594-18.66 23.61-18.726 45.79l.044 2.635"/>
            <path d="M26.58 85.775l.013.78"/>
        </g>
        <g stroke="#FFF" stroke-linecap="round" stroke-width=".5">
            <path d="M33.993 84.771c-.007-.26-.013-.52-.016-.78"/>
            <path stroke-dasharray="1.551264038085937,1.163448028564453" d="M33.972 82.827c.085-16.908 6.986-32.173 16.584-34.74 10.733-2.87 20.657 10.955 21.526 31.255"/>
            <path d="M72.105 79.923c.008.259.016.52.022.78"/>
        </g>
        <g stroke="#FFF" stroke-linecap="round" stroke-width=".5">
            <path d="M33.993 84.771c-.007-.26-.013-.52-.016-.78"/>
            <path stroke-dasharray="1.551264038085937,1.163448028564453" d="M33.972 82.827c.085-16.908 6.986-32.173 16.584-34.74 10.733-2.87 20.657 10.955 21.526 31.255"/>
            <path d="M72.105 79.923c.008.259.016.52.022.78"/>
        </g>
        <g stroke="#FFF" stroke-linecap="round" stroke-width=".5">
            <path d="M18.225 101.935c.01-.26.024-.52.04-.78"/>
            <path stroke-dasharray="1.571075978279114,1.178267977237701" d="M18.35 99.98c1.294-15.155 9.864-29.607 21.676-34.749 13.13-5.714 26.954 1.274 32.107 17.68"/>
            <path d="M72.306 83.477c.074.248.146.498.216.75"/>
        </g>
        <g stroke="#FFF" stroke-linecap="round" stroke-width=".5">
            <path d="M33.889 99.585c-.01-.26-.015-.52-.017-.78"/>
            <path stroke-dasharray="1.542917954921722,1.157208015918732" d="M33.882 97.648c.308-11.5 6.806-22.685 15.898-26.4 9.336-3.815 18.96 1.065 22.661 12.082"/>
            <path d="M72.62 83.882c.077.247.151.496.223.749"/>
        </g>
        <path fill="#FFF" fill-rule="nonzero" d="M29.276 90.449a.735.735 0 0 1 .75-.72c.406.006.73.34.723.745a.735.735 0 0 1-.75.721.735.735 0 0 1-.723-.746zM33.245 85.786a.735.735 0 0 1 .75-.72c.407.006.73.34.724.745a.735.735 0 0 1-.75.721.735.735 0 0 1-.724-.746zM26.002 87.203a.735.735 0 0 1 .75-.72c.406.006.73.34.724.745a.735.735 0 0 1-.75.721.735.735 0 0 1-.724-.746zM33.153 101.087a.735.735 0 0 1 .749-.72c.407.006.73.34.724.746a.735.735 0 0 1-.75.72.735.735 0 0 1-.723-.746zM21.047 108.234a.735.735 0 0 1 .749-.72c.407.006.73.34.724.745a.735.735 0 0 1-.75.721.735.735 0 0 1-.723-.746zM17.376 103.25a.735.735 0 0 1 .749-.72c.407.007.73.341.724.746a.735.735 0 0 1-.75.721.735.735 0 0 1-.723-.746zM71.693 84.493a.879.879 0 0 1 .896-.861.88.88 0 0 1 .865.892.879.879 0 0 1-.895.862.88.88 0 0 1-.866-.893zM84.495 99.85c0-.484.394-.877.88-.877.487 0 .881.393.881.877a.879.879 0 0 1-.88.877.879.879 0 0 1-.881-.877zM82.62 75.483a.735.735 0 0 1 .749-.72c.407.006.73.34.724.745a.735.735 0 0 1-.75.721.735.735 0 0 1-.724-.746zM87.853 80.054a.735.735 0 0 1 .75-.721c.406.007.73.341.723.746a.735.735 0 0 1-.75.721.735.735 0 0 1-.723-.746zM90.671 67.82a.735.735 0 0 1 .75-.72c.406.006.73.34.723.746a.735.735 0 0 1-.749.72.735.735 0 0 1-.724-.746zM61.048 108.211c0-.405.33-.733.737-.733.406 0 .736.328.736.733 0 .405-.33.734-.736.734a.735.735 0 0 1-.737-.734zM53.911 110.863c0-.405.33-.733.737-.733s.737.328.737.733c0 .406-.33.734-.737.734a.735.735 0 0 1-.737-.734z"/>
        <g stroke="#FFF" stroke-linecap="round" stroke-width=".5">
            <path d="M72.562 84.345c-.074-.251-.15-.5-.227-.747"/>
            <path stroke-dasharray="1.57614598274231,1.182089960575104" d="M71.962 82.474c-5.037-14.371-17.566-20.54-29.583-15.477-12.337 5.197-20.968 21.166-20.57 37.062 0 0-.075 1.048-.078 2.349"/>
            <path d="M21.735 106.997c.005.257.012.519.024.78"/>
        </g>
        <g stroke="#FFF" stroke-linecap="round" stroke-width=".5">
            <path d="M72.129 82.248a75.32 75.32 0 0 0-.021-.78"/>
            <path stroke-dasharray="1.562573962211609,1.171950044631958" d="M72.06 80.294c-1.098-22.816-12.24-38.168-24.144-34.802-10.987 3.107-18.68 21.37-18.162 41.002 0 0 .04 1.133.13 2.515"/>
            <path d="M29.923 89.591c.018.257.038.518.06.778"/>
        </g>
    </g>
</svg>
