<svg xmlns="http://www.w3.org/2000/svg" width="126" height="134" viewBox="0 0 126 134">
    <defs>
        <linearGradient id="a" x1="0%" y1="50%" y2="50%">
            <stop offset="0%" stop-color="#AA5BFF"/>
            <stop offset="99.44%" stop-color="#55FF8D"/>
        </linearGradient>
        <linearGradient id="b" x1="16.288%" x2="83.712%" y1="38.762%" y2="61.238%">
            <stop offset="0%" stop-color="#AA5BFF"/>
            <stop offset="11.7%" stop-color="#A563F9"/>
            <stop offset="30.37%" stop-color="#997BE9"/>
            <stop offset="53.68%" stop-color="#86A0CF"/>
            <stop offset="80.45%" stop-color="#6BD4AB"/>
            <stop offset="100%" stop-color="#55FF8D"/>
        </linearGradient>
        <linearGradient id="c" x1="0%" y1="49.999%" y2="49.999%">
            <stop offset="0%" stop-color="#AA5BFF"/>
            <stop offset="99.44%" stop-color="#55FF8D"/>
        </linearGradient>
        <linearGradient id="d" x1="-.001%" y1="50.001%" y2="50.001%">
            <stop offset="0%" stop-color="#AA5BFF"/>
            <stop offset="99.44%" stop-color="#55FF8D"/>
        </linearGradient>
        <linearGradient id="e" x1="0%" y1="50%" y2="50%">
            <stop offset="0%" stop-color="#FFF" stop-opacity="0"/>
            <stop offset="50%" stop-color="#FFF"/>
            <stop offset="100%" stop-color="#FFF" stop-opacity="0"/>
        </linearGradient>
        <linearGradient id="f" x1="0%" x2="100.001%" y1="50%" y2="50%">
            <stop offset="0%" stop-color="#FFF" stop-opacity="0"/>
            <stop offset="50%" stop-color="#FFF"/>
            <stop offset="100%" stop-color="#FFF" stop-opacity="0"/>
        </linearGradient>
    </defs>
    <g fill="none" fill-rule="evenodd">
        <path fill="url(#a)" fill-rule="nonzero" d="M75.922 60.662l-61.61 35.57v-3.886c0-1.15.807-2.547 1.802-3.122l3.735-2.156c.995-.575 1.802-1.973 1.802-3.122v-6.819c0-1.15.807-2.547 1.803-3.122l4.148-2.395c.995-.574 1.802-.108 1.802 1.041v3.357c0 1.15.807 1.616 1.803 1.04l3.32-1.916c.996-.575 1.803-1.973 1.803-3.123V57.074c0-1.15.807-2.547 1.803-3.122l3.217-1.857c.996-.575 1.803-1.973 1.803-3.122v-3.894c0-1.15.807-2.548 1.802-3.123l3.838-2.215c.995-.575 1.803-.11 1.803 1.04v1.375c0 1.15.807 1.616 1.802 1.04l3.114-1.797c.996-.575 1.803-.109 1.803 1.04 0 1.15.807 1.616 1.802 1.041l2.804-1.619c.996-.574 1.803-1.972 1.803-3.122V22.041c0-1.149.807-2.547 1.802-3.122l2.701-1.559c.996-.575 1.803-1.972 1.803-3.122V6.345c0-1.15.807-2.547 1.802-3.122l2.287-1.32c.996-.575 1.803-.109 1.803 1.04v57.719z" transform="translate(1)"/>
        <path fill="#0F0831" fill-rule="nonzero" d="M39.657 133.594L1.612 111.628c-.907-.523-.793-1.438.254-2.042l77.357-44.663c1.048-.604 2.632-.67 3.539-.146l38.045 21.965c.907.524.793 1.438-.254 2.043l-77.358 44.662c-1.047.605-2.63.67-3.538.147z"/>
        <path stroke="url(#b)" stroke-width=".78" d="M38.657 120.452L.612 98.486c-.907-.523-.793-1.438.254-2.042L78.223 51.78c1.048-.604 2.632-.67 3.539-.146L119.807 73.6c.907.524.793 1.438-.254 2.043l-77.358 44.662c-1.047.605-2.63.67-3.538.147z" transform="translate(1)"/>
        <g fill-rule="nonzero">
            <path fill="url(#c)" d="M7.84 7.19L3.095 9.928c-.396.229-.996.253-1.34.055l-1.25-.722c-.343-.198-.3-.544.097-.773l4.745-2.74c.396-.228.996-.253 1.339-.055l1.25.722c.343.198.3.544-.096.773z" transform="translate(66.91 88.92)"/>
            <path fill="url(#d)" d="M16.976 1.915L12.23 4.654c-.396.229-.996.254-1.34.056l-1.25-.722c-.343-.198-.3-.545.097-.773l4.745-2.74c.396-.229.996-.254 1.339-.056l1.25.722c.343.199.3.545-.096.774z" transform="translate(66.91 88.92)"/>
        </g>
        <path fill="url(#e)" fill-rule="nonzero" d="M40.748 112.526l-.41-.144 5.536-15.738c1.077-3.064 3.39-5.768 5.754-6.73 1.138-.463 2.197-.48 3.062-.051l1.597.792c.724.359 1.625.35 2.606-.026 2.17-.831 4.304-3.207 5.437-6.052 1.304-3.275 3.928-5.95 6.381-6.505l2.82-.639c2.445-.554 5.07-3.368 6.243-6.693l5.27-14.947c1.478-4.192 5.097-7.417 7.896-7.048l2.998.399c2.559.343 6.027-2.809 7.423-6.74l9.193-25.91.41.145-9.194 25.91c-1.484 4.18-5.108 7.397-7.888 7.025l-2.999-.398c-2.575-.35-6.04 2.818-7.43 6.761l-5.27 14.947c-1.219 3.456-3.976 6.388-6.556 6.972l-2.82.638c-2.322.526-4.82 3.094-6.074 6.243-1.175 2.953-3.407 5.424-5.685 6.297-1.097.419-2.118.423-2.953.01l-1.597-.792c-.751-.372-1.686-.35-2.706.064-2.256.918-4.47 3.518-5.509 6.472l-5.535 15.738z" transform="translate(1)"/>
        <path fill="url(#f)" fill-rule="nonzero" d="M16.151 103.509c0-1.378.97-3.059 2.164-3.749l4.253-2.455c1.07-.618 1.941-2.127 1.941-3.363v-7.765c0-1.378.971-3.06 2.164-3.749l4.725-2.727c.618-.357 1.214-.41 1.673-.144.459.265.712.806.712 1.521v3.824c0 .55.175.954.49 1.136.316.182.752.133 1.23-.143l3.782-2.184c1.071-.618 1.942-2.127 1.942-3.363v-17.01c0-1.377.971-3.058 2.164-3.748l3.664-2.116c1.072-.618 1.943-2.126 1.943-3.362v-4.436c0-1.379.97-3.059 2.163-3.748l4.37-2.523c.62-.357 1.214-.41 1.675-.144.46.265.712.806.712 1.521v1.566c0 .55.175.953.49 1.137.316.183.753.13 1.23-.144l3.547-2.049c.622-.357 1.215-.406 1.673-.143.46.266.713.806.713 1.522 0 .55.174.953.49 1.136.316.183.754.131 1.23-.144l3.193-1.843c1.07-.619 1.942-2.127 1.942-3.363V23.439c0-1.377.97-3.058 2.163-3.748l3.077-1.776c1.07-.618 1.941-2.126 1.941-3.363V5.563c0-1.378.97-3.06 2.165-3.748L84.376.31c.618-.357 1.213-.409 1.674-.144.46.266.712.806.712 1.522h-.444c0-.55-.174-.954-.49-1.137-.317-.182-.753-.13-1.23.144L81.994 2.2c-1.072.618-1.943 2.126-1.943 3.363v8.989c0 1.378-.97 3.06-2.163 3.748l-3.077 1.776c-1.07.619-1.941 2.127-1.941 3.363v19.017c0 1.377-.97 3.06-2.164 3.749l-3.194 1.843c-.62.359-1.215.41-1.673.143-.46-.264-.712-.805-.712-1.52 0-.551-.175-.955-.49-1.138-.317-.18-.753-.13-1.23.144l-3.547 2.048c-.62.359-1.215.41-1.674.144-.46-.265-.712-.805-.712-1.521v-1.566c0-.55-.174-.954-.49-1.136-.317-.183-.754-.131-1.23.144l-4.37 2.523c-1.071.618-1.942 2.126-1.942 3.363v4.435c0 1.378-.971 3.06-2.165 3.748l-3.664 2.116c-1.07.618-1.941 2.127-1.941 3.363v17.01c0 1.377-.971 3.059-2.165 3.747l-3.781 2.185c-.62.358-1.214.408-1.675.143-.459-.266-.712-.806-.712-1.522v-3.823c0-.55-.174-.954-.49-1.136-.315-.183-.752-.132-1.23.144l-4.724 2.727c-1.07.618-1.941 2.127-1.941 3.363v7.766c0 1.377-.971 3.058-2.164 3.748l-4.253 2.455c-1.071.619-1.942 2.127-1.942 3.364h-.444z" transform="translate(1)"/>
    </g>
</svg>
