<svg xmlns="http://www.w3.org/2000/svg" width="126" height="134" viewBox="0 0 126 134">
    <defs>
        <linearGradient id="a" x1="0%" y1="67.133%" y2="32.867%">
            <stop offset="0%" stop-color="#A665FF"/>
            <stop offset="100%" stop-color="#68FF92"/>
        </linearGradient>
        <linearGradient id="b" x1="0%" y1="68.16%" y2="31.84%">
            <stop offset="0%" stop-color="#A665FF"/>
            <stop offset="100%" stop-color="#68FF92"/>
        </linearGradient>
        <linearGradient id="c" x1="0%" y1="62.341%" y2="37.659%">
            <stop offset="0%" stop-color="#68FF92"/>
            <stop offset="100%" stop-color="#A665FF"/>
        </linearGradient>
        <linearGradient id="d" x1="16.24%" x2="85.5%" y1="49.705%" y2="49.705%">
            <stop offset="0%" stop-color="#AA5BFF"/>
            <stop offset="99.44%" stop-color="#55FF8D"/>
        </linearGradient>
        <linearGradient id="e" x1="50%" x2="50%" y1="0%" y2="100%">
            <stop offset="0%" stop-color="#AA5BFF"/>
            <stop offset="99.44%" stop-color="#55FF8D"/>
        </linearGradient>
        <linearGradient id="f" x1="31.371%" x2="65.967%" y1="68.78%" y2="27.187%">
            <stop offset="0%" stop-color="#AA5BFF"/>
            <stop offset="100%" stop-color="#55FF8D"/>
        </linearGradient>
    </defs>
    <g fill="none" fill-rule="evenodd">
        <path fill="#140B38" fill-rule="nonzero" d="M34.205 132.217L2.713 114.035c-2.284-1.319-2.284-4.616 0-5.935L73.3 67.347a9.8 9.8 0 0 1 9.802-.001l31.494 18.183c2.285 1.32 2.284 4.616 0 5.935l-70.586 40.753a9.804 9.804 0 0 1-9.804 0z"/>
        <path stroke="url(#a)" stroke-width=".78" d="M33.205 109.075L1.713 90.893c-2.284-1.319-2.284-4.616 0-5.935L72.3 44.205a9.8 9.8 0 0 1 9.802-.001l31.494 18.183c2.285 1.32 2.284 4.616 0 5.935l-70.586 40.753a9.804 9.804 0 0 1-9.804 0z" transform="translate(1 10)"/>
        <path fill="url(#b)" d="M27.711 95.478c-.267 1.36-2.303 2.466-4.546 2.466-2.248 0-3.854-1.105-3.587-2.466.267-1.365 2.303-2.47 4.547-2.47 2.248 0 3.85 1.105 3.586 2.47z" transform="translate(1 10)"/>
        <path stroke="#FFF" stroke-width=".5" d="M33.346 104.108L4.466 87.434c-2.094-1.21-2.094-4.233 0-5.443l64.731-37.372a8.987 8.987 0 0 1 8.988-.001l28.882 16.675c2.096 1.21 2.095 4.233 0 5.443l-64.73 37.372a8.99 8.99 0 0 1-8.99 0z"/>
        <path fill="url(#c)" fill-rule="nonzero" d="M20.533.895c-1.868-1.012-4.31-.76-6.9.736L.298 9.397a.146.146 0 0 0-.054.2c.011.019.03.025.047.037-.002 0-.01.006-.01.006l11.82 6.81s13.736-8.51 15.348-8.937c2.83-.75 4.798.164 5.31.446L20.65.95s-.043-.022-.117-.055z" transform="translate(16.21 57.58)"/>
        <path stroke="url(#d)" stroke-width=".78" d="M32.758 7.958l.136.08s-.05-.032-.136-.08z" transform="translate(16.21 57.58)"/>
        <path fill="url(#e)" fill-rule="nonzero" d="M69.917 7.445c-1.818-1.05-4.225-.816-6.776.657-5.21 3.008-9.45 10.35-9.45 16.366v30.056c0 5.88-4.142 13.054-9.233 15.993-2.439 1.408-4.724 1.64-6.435.652-1.71-.987-2.652-3.082-2.652-5.898v-3.526c0-3.05-1.037-5.33-2.919-6.416-1.882-1.086-4.374-.845-7.016.68L12.1 63.775a.147.147 0 1 0 .147.254l11.029-6.421v.865c0 2.861.953 5.011 2.684 6.08l.007.007.06.035.048.03.032.016 11.715 6.744c.02.012.036.028.055.04.025.013.051.022.076.036l.123.07-.023-.021c.701.366 1.48.557 2.322.557 1.3 0 2.74-.435 4.23-1.295 5.173-2.986 9.381-10.276 9.381-16.248V24.468c0-4.86 2.813-10.594 6.656-14.134v3.23c0 .056.033.104.08.129v.001l11.798 6.797v-.011c.022.012.043.029.07.029a.147.147 0 0 0 .148-.148v-6.719c0-2.946-1.002-5.147-2.82-6.197z" transform="translate(16.21 10)"/>
        <path fill="url(#f)" fill-rule="nonzero" d="M53.868 25.512c.02-3.838.131-3.71 1.133-6.615.04-.116.078-.233.119-.349.105-.309.216-.638.34-1.017.735-2.254 2.094-4.156 3.241-5.476 1.3-1.632 2.807-3.01 4.44-3.953 2.483-1.434 4.825-1.683 6.625-.728l.012-.003L58.116.647c-1.82-1.05-4.226-.816-6.778.657-5.21 3.008-9.449 10.35-9.449 16.366v30.055c0 4.83-2.797 10.534-6.619 14.046v.24l-.03.03v4.117c.543 4.452 2.435 5.49 5.249 5.744 2.814.254 5.858-2.324 7.92-4.506 2.062-2.182 3.801-5.514 4.767-8.52.966-3.006.646-6.89.646-6.89s.023-22.114.046-26.474z" transform="translate(16.21 10)"/>
    </g>
</svg>
