<svg xmlns="http://www.w3.org/2000/svg" xmlns:xlink="http://www.w3.org/1999/xlink" width="24" height="24" viewBox="0 0 24 24" fill="#FFF">
    <defs>
        <path id="a" d="M0 0h20v13.066H0z"/>
    </defs>
    <g fill-rule="evenodd" transform="translate(2 5)">
        <mask id="b" fill="#fff">
            <use xlink:href="#a"/>
        </mask>
        <path d="M9.989 6.59l-.396.37.222.493c.029.064-.04.127-.101.094l-.474-.262-.401.364c-.052.046-.134.001-.121-.068l.102-.532-.47-.269c-.06-.035-.042-.127.028-.135l.537-.068.11-.529c.015-.068.109-.08.138-.016l.23.491.538-.059a.072.072 0 0 1 .058.125zM8.635 8.577l-.514.173-.002.541c0 .07-.09.1-.132.044l-.322-.434-.517.165c-.066.021-.122-.055-.081-.113l.314-.44-.317-.44c-.041-.057.014-.133.08-.112l.518.161.32-.436c.04-.057.13-.028.132.042l.006.542.514.17c.066.021.067.115 0 .137zM7.13 2.44l.539.058.229-.49c.029-.064.123-.053.137.017l.11.53.538.066c.07.01.088.101.028.136l-.47.27.102.53a.073.073 0 0 1-.121.068l-.401-.364-.474.262c-.061.034-.13-.03-.101-.094l.22-.493-.394-.37a.073.073 0 0 1 .058-.126zM5.925 5.105l-1.135.838.426 1.345c.054.174-.144.32-.292.212l-1.15-.82-1.147.82a.19.19 0 0 1-.291-.212l.424-1.345-1.134-.838a.19.19 0 0 1 .11-.344l1.412-.01.446-1.34a.19.19 0 0 1 .362 0l.446 1.34 1.41.01a.19.19 0 0 1 .113.344zm3.024-1.322c0-.069.09-.098.13-.042l.32.437.519-.16c.066-.023.12.053.08.11l-.317.44.314.441c.04.058-.015.134-.081.112l-.516-.165-.323.435c-.042.055-.132.026-.132-.044l-.002-.54-.514-.174c-.066-.023-.065-.116 0-.139l.515-.169.007-.542zm-8.95 9.283h20.002V.001H0v13.065z" />
    </g>
</svg>
