<svg xmlns="http://www.w3.org/2000/svg" xmlns:xlink="http://www.w3.org/1999/xlink" width="20" height="20" viewBox="0 0 20 20">
    <defs>
        <path id="a" d="M.295.13h10.11v15.802H.294z"/>
        <path id="c" d="M0 .104h10.876v15.84H0z"/>
    </defs>
    <g fill-rule="evenodd">
        <path d="M5.432 5.481h-.767l-.45 2.252h1.667zM14.315 9.985c.243.654.566 1.182.924 1.632.358-.45.72-.979.962-1.632h-1.886z"/>
        <g transform="translate(8.814 3.625)">
            <mask id="b" fill="#fff">
                <use xlink:href="#a"/>
            </mask>
            <path d="M8.715 6.36h-.15a7.151 7.151 0 0 1-1.356 2.467c.413.378.855.688 1.295 1.036a.563.563 0 1 1-.703.878c-.478-.377-.927-.692-1.375-1.104-.449.412-.86.727-1.337 1.104a.563.563 0 1 1-.704-.878c.44-.348.844-.658 1.258-1.036A7.103 7.103 0 0 1 4.324 6.36h-.15a.563.563 0 1 1 0-1.126h1.689v-.563a.563.563 0 1 1 1.126 0v.563h1.726a.563.563 0 1 1 0 1.126m0-6.231H1.723l1.458 11.699c.026.478-.105.929-.417 1.282l-2.47 2.821h8.421c.932 0 1.69-.758 1.69-1.689V1.856c0-.93-.758-1.726-1.69-1.726" mask="url(#b)"/>
        </g>
        <g transform="translate(0 .235)">
            <mask id="d" fill="#fff">
                <use xlink:href="#c"/>
            </mask>
            <path d="M7.13 10.866a.563.563 0 0 1-.663-.442l-.36-1.8H3.99l-.36 1.8a.563.563 0 0 1-1.104-.221l1.126-5.63a.564.564 0 0 1 .552-.453h1.69c.267 0 .498.19.551.453l1.126 5.63a.563.563 0 0 1-.442.663m2.036-9.282A1.691 1.691 0 0 0 7.489.104h-5.8A1.69 1.69 0 0 0 0 1.794v12.46a1.69 1.69 0 0 0 1.69 1.69h8.878c.164-.188.302-.305.308-.55.001-.062-1.704-13.75-1.711-13.81" mask="url(#d)"/>
        </g>
        <path d="M6.578 17.305l.097.772c.064.518.408 1.045.974 1.309l1.89-2.081h-2.96z"/>
    </g>
</svg>
