<svg xmlns="http://www.w3.org/2000/svg" xmlns:xlink="http://www.w3.org/1999/xlink" width="24" height="24" viewBox="0 0 24 24" fill="#FFF">
    <defs>
        <path id="a" d="M0 0H20v13.066H0z"/>
    </defs>
    <g fill-rule="evenodd" transform="translate(2 5)">
        <mask id="b" fill="#fff">
            <use xlink:href="#a"/>
        </mask>
        <path d="M12.325 6.654c-.774.061-.737-.29-1.412-.237a1.737 1.737 0 0 1 3.462-.272c-1.35.106-1.358.454-2.05.51zm-.617 4.006c-.518-1.25-.852-1.15-1.117-1.792-.297-.718.047-.79-.21-1.417a1.737 1.737 0 0 1 1.327 3.21zM8.821 3.532a1.735 1.735 0 0 1 2.094-1.282c-.317 1.317.013 1.431-.15 2.107-.18.755-.503.611-.662 1.27a1.737 1.737 0 0 1-1.282-2.095zm.227 6.143A1.737 1.737 0 0 1 6.6 9.482c1.031-.88.831-1.166 1.36-1.617.591-.504.766-.198 1.282-.638.622.73.536 1.825-.193 2.448zm-2.894-5.38c1.155.707 1.366.428 1.958.792.662.406.426.668 1.003 1.022a1.737 1.737 0 0 1-2.96-1.815zM0 13.065h20V0H0v13.066z" />
    </g>
</svg>
